M48
; DRILL file {KiCad 7.0.2} date Wed Jun 14 14:54:35 2023
; FORMAT={-:-/ absolute / metric / decimal}
; #@! TF.CreationDate,2023-06-14T14:54:35-05:00
; #@! TF.GenerationSoftware,Kicad,Pcbnew,7.0.2
; #@! TF.FileFunction,Plated,1,2,PTH
FMAT,2
METRIC
; #@! TA.AperFunction,Plated,PTH,ComponentDrill
T1C0.600
; #@! TA.AperFunction,Plated,PTH,ComponentDrill
T2C0.762
; #@! TA.AperFunction,Plated,PTH,ComponentDrill
T3C0.800
; #@! TA.AperFunction,Plated,PTH,ComponentDrill
T4C0.900
; #@! TA.AperFunction,Plated,PTH,ComponentDrill
T5C1.000
; #@! TA.AperFunction,Plated,PTH,ComponentDrill
T6C1.020
; #@! TA.AperFunction,Plated,PTH,ComponentDrill
T7C1.300
%
G90
G05
T1
X101.6Y-31.96
X101.6Y-35.56
X101.6Y-39.16
X111.76Y-34.5
X111.76Y-38.1
T2
X48.26Y-77.343
X48.26Y-79.883
X48.26Y-82.423
X48.26Y-84.963
X48.26Y-87.503
X48.26Y-90.043
X146.05Y-29.21
X146.05Y-31.75
X146.05Y-34.29
X146.05Y-36.83
X146.05Y-39.37
X146.05Y-41.91
X150.495Y-67.437
X150.495Y-69.977
X150.495Y-72.517
X150.495Y-75.057
X150.495Y-77.597
X150.495Y-80.137
X150.495Y-82.677
X150.495Y-85.217
T3
X49.53Y-48.26
X54.61Y-71.12
X57.15Y-48.26
X62.23Y-71.12
X81.28Y-71.12
X87.63Y-43.18
X88.9Y-71.12
X95.25Y-43.18
X127.0Y-48.26
X134.62Y-48.26
X153.67Y-60.96
X161.29Y-60.96
T4
X149.86Y-50.8
X152.4Y-50.8
X160.02Y-50.8
X162.56Y-50.8
T6
X101.6Y-55.88
X101.6Y-81.28
X104.14Y-55.88
X104.14Y-81.28
X106.68Y-55.88
X106.68Y-81.28
X109.22Y-55.88
X109.22Y-81.28
X111.76Y-55.88
X111.76Y-81.28
X114.3Y-55.88
X114.3Y-81.28
X116.84Y-55.88
X116.84Y-81.28
X119.38Y-55.88
X119.38Y-81.28
X121.92Y-55.88
X121.92Y-81.28
X124.46Y-55.88
X124.46Y-81.28
X127.0Y-55.88
X127.0Y-81.28
X129.54Y-55.88
X129.54Y-81.28
X132.08Y-55.88
X132.08Y-81.28
X134.62Y-55.88
X134.62Y-81.28
X137.16Y-55.88
X137.16Y-81.28
T7
X49.62Y-35.6
X49.62Y-40.6
X51.0Y-58.42
X51.0Y-63.42
X62.12Y-35.6
X62.12Y-40.6
X63.5Y-58.42
X63.5Y-63.42
X68.78Y-58.42
X68.78Y-63.42
X69.94Y-35.6
X69.94Y-40.6
X81.28Y-58.42
X81.28Y-63.42
X82.44Y-35.6
X82.44Y-40.6
T5
G00X154.362Y-35.02
M15
G01X154.362Y-37.02
M16
G05
G00X160.062Y-33.02
M15
G01X158.062Y-33.02
M16
G05
G00X160.062Y-39.02
M15
G01X158.062Y-39.02
M16
G05
T0
M30
