%TF.GenerationSoftware,KiCad,Pcbnew,7.0.2*%
%TF.CreationDate,2023-06-14T14:54:37-05:00*%
%TF.ProjectId,ControlRemoto,436f6e74-726f-46c5-9265-6d6f746f2e6b,rev?*%
%TF.SameCoordinates,Original*%
%TF.FileFunction,Plated,1,2,PTH,Mixed*%
%TF.FilePolarity,Positive*%
%FSLAX46Y46*%
G04 Gerber Fmt 4.6, Leading zero omitted, Abs format (unit mm)*
G04 Created by KiCad (PCBNEW 7.0.2) date 2023-06-14 14:54:37*
%MOMM*%
%LPD*%
G01*
G04 APERTURE LIST*
%TA.AperFunction,ComponentDrill*%
%ADD10C,0.600000*%
%TD*%
%TA.AperFunction,ComponentDrill*%
%ADD11C,0.762000*%
%TD*%
%TA.AperFunction,ComponentDrill*%
%ADD12C,0.800000*%
%TD*%
%TA.AperFunction,ComponentDrill*%
%ADD13C,0.900000*%
%TD*%
G04 aperture for slot hole*
%TA.AperFunction,ComponentDrill*%
%ADD14O,1.000000X3.000000*%
%TD*%
G04 aperture for slot hole*
%TA.AperFunction,ComponentDrill*%
%ADD15O,3.000000X1.000000*%
%TD*%
%TA.AperFunction,ComponentDrill*%
%ADD16C,1.020000*%
%TD*%
%TA.AperFunction,ComponentDrill*%
%ADD17C,1.300000*%
%TD*%
G04 APERTURE END LIST*
D10*
%TO.C,SW1*%
X101600000Y-31960000D03*
X101600000Y-35560000D03*
X101600000Y-39160000D03*
%TO.C,BT1*%
X111760000Y-34500000D03*
X111760000Y-38100000D03*
D11*
%TO.C,BluetoothHC1*%
X48260000Y-77343000D03*
X48260000Y-79883000D03*
X48260000Y-82423000D03*
X48260000Y-84963000D03*
X48260000Y-87503000D03*
X48260000Y-90043000D03*
%TO.C,U3*%
X146050000Y-29210000D03*
X146050000Y-31750000D03*
X146050000Y-34290000D03*
X146050000Y-36830000D03*
X146050000Y-39370000D03*
X146050000Y-41910000D03*
%TO.C,U4*%
X150495000Y-67437000D03*
X150495000Y-69977000D03*
X150495000Y-72517000D03*
X150495000Y-75057000D03*
X150495000Y-77597000D03*
X150495000Y-80137000D03*
X150495000Y-82677000D03*
X150495000Y-85217000D03*
D12*
%TO.C,R3*%
X49530000Y-48260000D03*
%TO.C,R1*%
X54610000Y-71120000D03*
%TO.C,R3*%
X57150000Y-48260000D03*
%TO.C,R1*%
X62230000Y-71120000D03*
%TO.C,R2*%
X81280000Y-71120000D03*
%TO.C,R4*%
X87630000Y-43180000D03*
%TO.C,R2*%
X88900000Y-71120000D03*
%TO.C,R4*%
X95250000Y-43180000D03*
%TO.C,R6*%
X127000000Y-48260000D03*
X134620000Y-48260000D03*
%TO.C,R5*%
X153670000Y-60960000D03*
X161290000Y-60960000D03*
D13*
%TO.C,D2*%
X149860000Y-50800000D03*
X152400000Y-50800000D03*
%TO.C,D1*%
X160020000Y-50800000D03*
X162560000Y-50800000D03*
D14*
%TO.C,J1*%
X154362500Y-36020000D03*
D15*
X159062500Y-33020000D03*
X159062500Y-39020000D03*
D16*
%TO.C,U2*%
X101600000Y-55880000D03*
X101600000Y-81280000D03*
X104140000Y-55880000D03*
X104140000Y-81280000D03*
X106680000Y-55880000D03*
X106680000Y-81280000D03*
X109220000Y-55880000D03*
X109220000Y-81280000D03*
X111760000Y-55880000D03*
X111760000Y-81280000D03*
X114300000Y-55880000D03*
X114300000Y-81280000D03*
X116840000Y-55880000D03*
X116840000Y-81280000D03*
X119380000Y-55880000D03*
X119380000Y-81280000D03*
X121920000Y-55880000D03*
X121920000Y-81280000D03*
X124460000Y-55880000D03*
X124460000Y-81280000D03*
X127000000Y-55880000D03*
X127000000Y-81280000D03*
X129540000Y-55880000D03*
X129540000Y-81280000D03*
X132080000Y-55880000D03*
X132080000Y-81280000D03*
X134620000Y-55880000D03*
X134620000Y-81280000D03*
X137160000Y-55880000D03*
X137160000Y-81280000D03*
D17*
%TO.C,SWLEFT1*%
X49620000Y-35600000D03*
X49620000Y-40600000D03*
%TO.C,SWBOTH1*%
X51000000Y-58420000D03*
X51000000Y-63420000D03*
%TO.C,SWLEFT1*%
X62120000Y-35600000D03*
X62120000Y-40600000D03*
%TO.C,SWBOTH1*%
X63500000Y-58420000D03*
X63500000Y-63420000D03*
%TO.C,SWNIGHTMODE1*%
X68780000Y-58420000D03*
X68780000Y-63420000D03*
%TO.C,SWRIGHT1*%
X69940000Y-35600000D03*
X69940000Y-40600000D03*
%TO.C,SWNIGHTMODE1*%
X81280000Y-58420000D03*
X81280000Y-63420000D03*
%TO.C,SWRIGHT1*%
X82440000Y-35600000D03*
X82440000Y-40600000D03*
M02*
