%TF.GenerationSoftware,KiCad,Pcbnew,7.0.2*%
%TF.CreationDate,2023-06-13T20:29:50-05:00*%
%TF.ProjectId,LUCES,4c554345-532e-46b6-9963-61645f706362,rev?*%
%TF.SameCoordinates,Original*%
%TF.FileFunction,Copper,L1,Top*%
%TF.FilePolarity,Positive*%
%FSLAX46Y46*%
G04 Gerber Fmt 4.6, Leading zero omitted, Abs format (unit mm)*
G04 Created by KiCad (PCBNEW 7.0.2) date 2023-06-13 20:29:50*
%MOMM*%
%LPD*%
G01*
G04 APERTURE LIST*
G04 Aperture macros list*
%AMRoundRect*
0 Rectangle with rounded corners*
0 $1 Rounding radius*
0 $2 $3 $4 $5 $6 $7 $8 $9 X,Y pos of 4 corners*
0 Add a 4 corners polygon primitive as box body*
4,1,4,$2,$3,$4,$5,$6,$7,$8,$9,$2,$3,0*
0 Add four circle primitives for the rounded corners*
1,1,$1+$1,$2,$3*
1,1,$1+$1,$4,$5*
1,1,$1+$1,$6,$7*
1,1,$1+$1,$8,$9*
0 Add four rect primitives between the rounded corners*
20,1,$1+$1,$2,$3,$4,$5,0*
20,1,$1+$1,$4,$5,$6,$7,0*
20,1,$1+$1,$6,$7,$8,$9,0*
20,1,$1+$1,$8,$9,$2,$3,0*%
G04 Aperture macros list end*
%TA.AperFunction,ComponentPad*%
%ADD10R,1.600000X1.600000*%
%TD*%
%TA.AperFunction,ComponentPad*%
%ADD11O,1.600000X1.600000*%
%TD*%
%TA.AperFunction,ComponentPad*%
%ADD12RoundRect,0.250000X0.550000X0.550000X-0.550000X0.550000X-0.550000X-0.550000X0.550000X-0.550000X0*%
%TD*%
%TA.AperFunction,ComponentPad*%
%ADD13C,1.600000*%
%TD*%
%TA.AperFunction,ComponentPad*%
%ADD14O,1.400000X1.400000*%
%TD*%
%TA.AperFunction,ComponentPad*%
%ADD15C,1.400000*%
%TD*%
%TA.AperFunction,ComponentPad*%
%ADD16RoundRect,0.250000X-0.550000X-0.550000X0.550000X-0.550000X0.550000X0.550000X-0.550000X0.550000X0*%
%TD*%
%TA.AperFunction,ComponentPad*%
%ADD17R,3.500000X3.500000*%
%TD*%
%TA.AperFunction,ComponentPad*%
%ADD18RoundRect,0.750000X0.750000X1.000000X-0.750000X1.000000X-0.750000X-1.000000X0.750000X-1.000000X0*%
%TD*%
%TA.AperFunction,ComponentPad*%
%ADD19RoundRect,0.875000X0.875000X0.875000X-0.875000X0.875000X-0.875000X-0.875000X0.875000X-0.875000X0*%
%TD*%
%TA.AperFunction,ComponentPad*%
%ADD20C,1.800000*%
%TD*%
%TA.AperFunction,ComponentPad*%
%ADD21C,1.524000*%
%TD*%
G04 APERTURE END LIST*
D10*
%TO.P,A1,1,NC*%
%TO.N,unconnected-(A1-NC-Pad1)*%
X101600000Y-33020000D03*
D11*
%TO.P,A1,2,IOREF*%
%TO.N,unconnected-(A1-IOREF-Pad2)*%
X104140000Y-33020000D03*
%TO.P,A1,3,~{RESET}*%
%TO.N,unconnected-(A1-~{RESET}-Pad3)*%
X106680000Y-33020000D03*
%TO.P,A1,4,3V3*%
%TO.N,unconnected-(A1-3V3-Pad4)*%
X109220000Y-33020000D03*
%TO.P,A1,5,+5V*%
%TO.N,unconnected-(A1-+5V-Pad5)*%
X111760000Y-33020000D03*
%TO.P,A1,6,GND*%
%TO.N,GND*%
X114300000Y-33020000D03*
%TO.P,A1,7,GND*%
X116840000Y-33020000D03*
%TO.P,A1,8,VIN*%
%TO.N,+5V*%
X119380000Y-33020000D03*
%TO.P,A1,9,A0*%
%TO.N,unconnected-(A1-A0-Pad9)*%
X124460000Y-33020000D03*
%TO.P,A1,10,A1*%
%TO.N,unconnected-(A1-A1-Pad10)*%
X127000000Y-33020000D03*
%TO.P,A1,11,A2*%
%TO.N,unconnected-(A1-A2-Pad11)*%
X129540000Y-33020000D03*
%TO.P,A1,12,A3*%
%TO.N,unconnected-(A1-A3-Pad12)*%
X132080000Y-33020000D03*
%TO.P,A1,13,SDA/A4*%
%TO.N,unconnected-(A1-SDA{slash}A4-Pad13)*%
X134620000Y-33020000D03*
%TO.P,A1,14,SCL/A5*%
%TO.N,unconnected-(A1-SCL{slash}A5-Pad14)*%
X137160000Y-33020000D03*
%TO.P,A1,15,D0/RX*%
%TO.N,Net-(A1-D0{slash}RX)*%
X137160000Y-81280000D03*
%TO.P,A1,16,D1/TX*%
%TO.N,Net-(A1-D1{slash}TX)*%
X134620000Y-81280000D03*
%TO.P,A1,17,D2*%
%TO.N,unconnected-(A1-D2-Pad17)*%
X132080000Y-81280000D03*
%TO.P,A1,18,D3*%
%TO.N,unconnected-(A1-D3-Pad18)*%
X129540000Y-81280000D03*
%TO.P,A1,19,D4*%
%TO.N,unconnected-(A1-D4-Pad19)*%
X127000000Y-81280000D03*
%TO.P,A1,20,D5*%
%TO.N,unconnected-(A1-D5-Pad20)*%
X124460000Y-81280000D03*
%TO.P,A1,21,D6*%
%TO.N,unconnected-(A1-D6-Pad21)*%
X121920000Y-81280000D03*
%TO.P,A1,22,D7*%
%TO.N,unconnected-(A1-D7-Pad22)*%
X119380000Y-81280000D03*
%TO.P,A1,23,D8*%
%TO.N,unconnected-(A1-D8-Pad23)*%
X115320000Y-81280000D03*
%TO.P,A1,24,D9*%
%TO.N,unconnected-(A1-D9-Pad24)*%
X112780000Y-81280000D03*
%TO.P,A1,25,D10*%
%TO.N,unconnected-(A1-D10-Pad25)*%
X110240000Y-81280000D03*
%TO.P,A1,26,D11*%
%TO.N,Net-(A1-D11)*%
X107700000Y-81280000D03*
%TO.P,A1,27,D12*%
%TO.N,Net-(A1-D12)*%
X105160000Y-81280000D03*
%TO.P,A1,28,D13*%
%TO.N,unconnected-(A1-D13-Pad28)*%
X102620000Y-81280000D03*
%TO.P,A1,29,GND*%
%TO.N,GND*%
X100080000Y-81280000D03*
%TO.P,A1,30,AREF*%
%TO.N,unconnected-(A1-AREF-Pad30)*%
X97540000Y-81280000D03*
%TO.P,A1,31,SDA/A4*%
%TO.N,unconnected-(A1-SDA{slash}A4-Pad31)*%
X95000000Y-81280000D03*
%TO.P,A1,32,SCL/A5*%
%TO.N,unconnected-(A1-SCL{slash}A5-Pad32)*%
X92460000Y-81280000D03*
%TD*%
D12*
%TO.P,D1,1,VDD*%
%TO.N,Net-(D1-VDD)*%
X115360000Y-124460000D03*
D13*
%TO.P,D1,2,DOUT*%
%TO.N,unconnected-(D1-DOUT-Pad2)*%
X111760000Y-124460000D03*
%TO.P,D1,3,VSS*%
%TO.N,GND*%
X108160000Y-124460000D03*
%TO.P,D1,4,DIN*%
%TO.N,Net-(A1-D11)*%
X104560000Y-124460000D03*
%TD*%
D14*
%TO.P,R2,2*%
%TO.N,Net-(D1-VDD)*%
X124460000Y-114300000D03*
D15*
%TO.P,R2,1*%
%TO.N,+5V*%
X129540000Y-114300000D03*
%TD*%
D16*
%TO.P,D2,1,VDD*%
%TO.N,Net-(D2-VDD)*%
X128900000Y-121920000D03*
D13*
%TO.P,D2,2,DOUT*%
%TO.N,unconnected-(D2-DOUT-Pad2)*%
X132500000Y-121920000D03*
%TO.P,D2,3,VSS*%
%TO.N,GND*%
X136100000Y-121920000D03*
%TO.P,D2,4,DIN*%
%TO.N,Net-(A1-D12)*%
X139700000Y-121920000D03*
%TD*%
D17*
%TO.P,J1,1*%
%TO.N,VCC*%
X131160000Y-91440000D03*
D18*
%TO.P,J1,2*%
%TO.N,GND*%
X137160000Y-91440000D03*
D19*
%TO.P,J1,3*%
X134160000Y-86740000D03*
%TD*%
D10*
%TO.P,C2,1*%
%TO.N,+5V*%
X114300000Y-111760000D03*
D13*
%TO.P,C2,2*%
%TO.N,GND*%
X114300000Y-113760000D03*
%TD*%
D20*
%TO.P,BluetoothHC1,1,STATE*%
%TO.N,unconnected-(BluetoothHC1-STATE-Pad1)*%
X87757000Y-88900000D03*
%TO.P,BluetoothHC1,2,RX*%
%TO.N,Net-(A1-D1{slash}TX)*%
X85217000Y-88900000D03*
%TO.P,BluetoothHC1,3,TX*%
%TO.N,Net-(A1-D0{slash}RX)*%
X82677000Y-88900000D03*
%TO.P,BluetoothHC1,4,GND*%
%TO.N,GND*%
X80137000Y-88900000D03*
%TO.P,BluetoothHC1,5,+5V*%
%TO.N,+5V*%
X77597000Y-88900000D03*
%TO.P,BluetoothHC1,6,EN*%
%TO.N,unconnected-(BluetoothHC1-EN-Pad6)*%
X75057000Y-88900000D03*
%TD*%
D16*
%TO.P,BT1,1,+*%
%TO.N,/bat*%
X107950000Y-90170000D03*
D13*
%TO.P,BT1,2,-*%
%TO.N,GND*%
X111550000Y-90170000D03*
%TD*%
D14*
%TO.P,R3,2*%
%TO.N,Net-(D2-VDD)*%
X139700000Y-114300000D03*
D15*
%TO.P,R3,1*%
%TO.N,+5V*%
X139700000Y-109220000D03*
%TD*%
D16*
%TO.P,SW1,1,A*%
%TO.N,GND*%
X129960000Y-101600000D03*
D13*
%TO.P,SW1,2,B*%
%TO.N,/5vout*%
X133560000Y-101600000D03*
%TO.P,SW1,3,C*%
%TO.N,+5V*%
X137160000Y-101600000D03*
%TD*%
D21*
%TO.P,U1,6,OUT-5V*%
%TO.N,/5vout*%
X102870000Y-106680000D03*
%TO.P,U1,5,GND*%
%TO.N,GND*%
X102870000Y-104140000D03*
%TO.P,U1,4,BAT*%
%TO.N,/bat*%
X102870000Y-101600000D03*
%TO.P,U1,3,GND*%
%TO.N,GND*%
X102870000Y-99060000D03*
%TO.P,U1,2,GND*%
X102870000Y-96520000D03*
%TO.P,U1,1,VIN*%
%TO.N,VCC*%
X102870000Y-93980000D03*
%TD*%
D10*
%TO.P,C1,1*%
%TO.N,+5V*%
X101600000Y-111760000D03*
D13*
%TO.P,C1,2*%
%TO.N,GND*%
X101600000Y-113760000D03*
%TD*%
%TA.AperFunction,Conductor*%
%TO.N,GND*%
G36*
X116380507Y-32810156D02*
G01*
X116340000Y-32948111D01*
X116340000Y-33091889D01*
X116380507Y-33229844D01*
X116406314Y-33270000D01*
X114733686Y-33270000D01*
X114759493Y-33229844D01*
X114800000Y-33091889D01*
X114800000Y-32948111D01*
X114759493Y-32810156D01*
X114733686Y-32770000D01*
X116406314Y-32770000D01*
X116380507Y-32810156D01*
G37*
%TD.AperFunction*%
%TA.AperFunction,Conductor*%
G36*
X149802539Y-25420185D02*
G01*
X149848294Y-25472989D01*
X149859500Y-25524500D01*
X149859500Y-131955500D01*
X149839815Y-132022539D01*
X149787011Y-132068294D01*
X149735500Y-132079500D01*
X63624500Y-132079500D01*
X63557461Y-132059815D01*
X63511706Y-132007011D01*
X63500500Y-131955500D01*
X63500500Y-124460000D01*
X103254531Y-124460000D01*
X103274364Y-124686689D01*
X103333261Y-124906497D01*
X103429432Y-125112735D01*
X103559953Y-125299140D01*
X103720859Y-125460046D01*
X103907264Y-125590567D01*
X103907265Y-125590567D01*
X103907266Y-125590568D01*
X104113504Y-125686739D01*
X104333308Y-125745635D01*
X104560000Y-125765468D01*
X104786692Y-125745635D01*
X105006496Y-125686739D01*
X105212734Y-125590568D01*
X105286344Y-125539026D01*
X107434526Y-125539026D01*
X107507515Y-125590133D01*
X107713673Y-125686266D01*
X107933397Y-125745141D01*
X108160000Y-125764966D01*
X108386602Y-125745141D01*
X108606326Y-125686266D01*
X108812480Y-125590134D01*
X108885472Y-125539025D01*
X108160001Y-124813553D01*
X108160000Y-124813553D01*
X107434526Y-125539025D01*
X107434526Y-125539026D01*
X105286344Y-125539026D01*
X105399139Y-125460047D01*
X105560047Y-125299139D01*
X105690568Y-125112734D01*
X105786739Y-124906496D01*
X105845635Y-124686692D01*
X105865468Y-124460000D01*
X106855033Y-124460000D01*
X106874858Y-124686602D01*
X106933733Y-124906326D01*
X107029866Y-125112484D01*
X107080972Y-125185471D01*
X107080974Y-125185472D01*
X107806446Y-124460000D01*
X107806446Y-124459999D01*
X107778287Y-124431840D01*
X107856105Y-124431840D01*
X107866454Y-124543521D01*
X107916448Y-124643922D01*
X107999334Y-124719484D01*
X108103920Y-124760000D01*
X108187802Y-124760000D01*
X108270250Y-124744588D01*
X108365610Y-124685543D01*
X108433201Y-124596038D01*
X108463895Y-124488160D01*
X108461286Y-124460000D01*
X108513553Y-124460000D01*
X109239025Y-125185472D01*
X109290134Y-125112480D01*
X109386266Y-124906326D01*
X109445141Y-124686602D01*
X109464966Y-124460000D01*
X110454531Y-124460000D01*
X110474364Y-124686689D01*
X110533261Y-124906497D01*
X110629432Y-125112735D01*
X110759953Y-125299140D01*
X110920859Y-125460046D01*
X111107264Y-125590567D01*
X111107265Y-125590567D01*
X111107266Y-125590568D01*
X111313504Y-125686739D01*
X111533308Y-125745635D01*
X111760000Y-125765468D01*
X111986692Y-125745635D01*
X112206496Y-125686739D01*
X112412734Y-125590568D01*
X112599139Y-125460047D01*
X112760047Y-125299139D01*
X112890568Y-125112734D01*
X112916614Y-125056878D01*
X114059500Y-125056878D01*
X114059501Y-125060008D01*
X114059820Y-125063140D01*
X114059821Y-125063141D01*
X114070000Y-125162796D01*
X114125186Y-125329334D01*
X114217288Y-125478657D01*
X114341342Y-125602711D01*
X114341344Y-125602712D01*
X114490666Y-125694814D01*
X114602017Y-125731712D01*
X114657202Y-125749999D01*
X114756858Y-125760180D01*
X114756859Y-125760180D01*
X114759991Y-125760500D01*
X115960008Y-125760499D01*
X116062797Y-125749999D01*
X116229334Y-125694814D01*
X116378656Y-125602712D01*
X116502712Y-125478656D01*
X116594814Y-125329334D01*
X116649999Y-125162797D01*
X116660500Y-125060009D01*
X116660499Y-123859992D01*
X116649999Y-123757203D01*
X116594814Y-123590666D01*
X116502712Y-123441344D01*
X116502711Y-123441342D01*
X116378657Y-123317288D01*
X116229334Y-123225186D01*
X116062797Y-123170000D01*
X115963141Y-123159819D01*
X115963122Y-123159818D01*
X115960009Y-123159500D01*
X115956860Y-123159500D01*
X114763140Y-123159500D01*
X114763120Y-123159500D01*
X114759992Y-123159501D01*
X114756860Y-123159820D01*
X114756858Y-123159821D01*
X114657203Y-123170000D01*
X114490665Y-123225186D01*
X114341342Y-123317288D01*
X114217288Y-123441342D01*
X114125186Y-123590665D01*
X114070000Y-123757202D01*
X114059819Y-123856858D01*
X114059817Y-123856878D01*
X114059500Y-123859991D01*
X114059500Y-123863138D01*
X114059500Y-123863139D01*
X114059500Y-125056859D01*
X114059500Y-125056878D01*
X112916614Y-125056878D01*
X112986739Y-124906496D01*
X113045635Y-124686692D01*
X113065468Y-124460000D01*
X113045635Y-124233308D01*
X112986739Y-124013504D01*
X112890568Y-123807266D01*
X112855514Y-123757202D01*
X112760046Y-123620859D01*
X112599140Y-123459953D01*
X112412735Y-123329432D01*
X112206497Y-123233261D01*
X111986689Y-123174364D01*
X111760000Y-123154531D01*
X111533310Y-123174364D01*
X111313502Y-123233261D01*
X111107264Y-123329432D01*
X110920859Y-123459953D01*
X110759953Y-123620859D01*
X110629432Y-123807264D01*
X110533261Y-124013502D01*
X110474364Y-124233310D01*
X110454531Y-124460000D01*
X109464966Y-124460000D01*
X109445141Y-124233397D01*
X109386266Y-124013673D01*
X109290133Y-123807515D01*
X109239025Y-123734526D01*
X108513553Y-124459999D01*
X108513553Y-124460000D01*
X108461286Y-124460000D01*
X108453546Y-124376479D01*
X108403552Y-124276078D01*
X108320666Y-124200516D01*
X108216080Y-124160000D01*
X108132198Y-124160000D01*
X108049750Y-124175412D01*
X107954390Y-124234457D01*
X107886799Y-124323962D01*
X107856105Y-124431840D01*
X107778287Y-124431840D01*
X107080973Y-123734526D01*
X107080973Y-123734527D01*
X107029865Y-123807516D01*
X106933733Y-124013672D01*
X106874858Y-124233397D01*
X106855033Y-124460000D01*
X105865468Y-124460000D01*
X105845635Y-124233308D01*
X105786739Y-124013504D01*
X105690568Y-123807266D01*
X105655514Y-123757202D01*
X105560046Y-123620859D01*
X105399140Y-123459953D01*
X105286344Y-123380973D01*
X107434526Y-123380973D01*
X108160000Y-124106446D01*
X108160001Y-124106446D01*
X108885472Y-123380974D01*
X108885471Y-123380972D01*
X108812484Y-123329866D01*
X108606326Y-123233733D01*
X108386602Y-123174858D01*
X108160000Y-123155033D01*
X107933397Y-123174858D01*
X107713672Y-123233733D01*
X107507516Y-123329865D01*
X107434527Y-123380973D01*
X107434526Y-123380973D01*
X105286344Y-123380973D01*
X105212735Y-123329432D01*
X105006497Y-123233261D01*
X104786689Y-123174364D01*
X104560000Y-123154531D01*
X104333310Y-123174364D01*
X104113502Y-123233261D01*
X103907264Y-123329432D01*
X103720859Y-123459953D01*
X103559953Y-123620859D01*
X103429432Y-123807264D01*
X103333261Y-124013502D01*
X103274364Y-124233310D01*
X103254531Y-124460000D01*
X63500500Y-124460000D01*
X63500500Y-122516878D01*
X127599500Y-122516878D01*
X127599501Y-122520008D01*
X127599820Y-122523140D01*
X127599821Y-122523141D01*
X127610000Y-122622796D01*
X127665186Y-122789334D01*
X127757288Y-122938657D01*
X127881342Y-123062711D01*
X127881344Y-123062712D01*
X128030666Y-123154814D01*
X128142016Y-123191712D01*
X128197202Y-123209999D01*
X128296858Y-123220180D01*
X128296859Y-123220180D01*
X128299991Y-123220500D01*
X129500008Y-123220499D01*
X129602797Y-123209999D01*
X129769334Y-123154814D01*
X129918656Y-123062712D01*
X130042712Y-122938656D01*
X130134814Y-122789334D01*
X130189999Y-122622797D01*
X130200500Y-122520009D01*
X130200499Y-121920000D01*
X131194531Y-121920000D01*
X131214364Y-122146689D01*
X131273261Y-122366497D01*
X131369432Y-122572735D01*
X131499953Y-122759140D01*
X131660859Y-122920046D01*
X131847264Y-123050567D01*
X131847265Y-123050567D01*
X131847266Y-123050568D01*
X132053504Y-123146739D01*
X132273308Y-123205635D01*
X132424436Y-123218856D01*
X132499999Y-123225468D01*
X132499999Y-123225467D01*
X132500000Y-123225468D01*
X132726692Y-123205635D01*
X132946496Y-123146739D01*
X133152734Y-123050568D01*
X133226344Y-122999026D01*
X135374526Y-122999026D01*
X135447515Y-123050133D01*
X135653673Y-123146266D01*
X135873397Y-123205141D01*
X136100000Y-123224966D01*
X136326602Y-123205141D01*
X136546326Y-123146266D01*
X136752480Y-123050134D01*
X136825472Y-122999025D01*
X136100001Y-122273553D01*
X136100000Y-122273553D01*
X135374526Y-122999025D01*
X135374526Y-122999026D01*
X133226344Y-122999026D01*
X133339139Y-122920047D01*
X133500047Y-122759139D01*
X133630568Y-122572734D01*
X133726739Y-122366496D01*
X133785635Y-122146692D01*
X133805468Y-121920000D01*
X134795033Y-121920000D01*
X134814858Y-122146602D01*
X134873733Y-122366326D01*
X134969866Y-122572484D01*
X135020972Y-122645471D01*
X135020974Y-122645472D01*
X135746446Y-121920000D01*
X135746446Y-121919999D01*
X135718287Y-121891840D01*
X135796105Y-121891840D01*
X135806454Y-122003521D01*
X135856448Y-122103922D01*
X135939334Y-122179484D01*
X136043920Y-122220000D01*
X136127802Y-122220000D01*
X136210250Y-122204588D01*
X136305610Y-122145543D01*
X136373201Y-122056038D01*
X136403895Y-121948160D01*
X136401286Y-121920000D01*
X136453553Y-121920000D01*
X137179025Y-122645472D01*
X137230134Y-122572480D01*
X137326266Y-122366326D01*
X137385141Y-122146602D01*
X137404966Y-121920000D01*
X138394531Y-121920000D01*
X138414364Y-122146689D01*
X138473261Y-122366497D01*
X138569432Y-122572735D01*
X138699953Y-122759140D01*
X138860859Y-122920046D01*
X139047264Y-123050567D01*
X139047265Y-123050567D01*
X139047266Y-123050568D01*
X139253504Y-123146739D01*
X139473308Y-123205635D01*
X139624435Y-123218856D01*
X139699999Y-123225468D01*
X139699999Y-123225467D01*
X139700000Y-123225468D01*
X139926692Y-123205635D01*
X140146496Y-123146739D01*
X140352734Y-123050568D01*
X140539139Y-122920047D01*
X140700047Y-122759139D01*
X140830568Y-122572734D01*
X140926739Y-122366496D01*
X140985635Y-122146692D01*
X141005468Y-121920000D01*
X140985635Y-121693308D01*
X140926739Y-121473504D01*
X140830568Y-121267266D01*
X140795514Y-121217202D01*
X140700046Y-121080859D01*
X140539140Y-120919953D01*
X140352735Y-120789432D01*
X140146497Y-120693261D01*
X139926689Y-120634364D01*
X139699999Y-120614531D01*
X139473310Y-120634364D01*
X139253502Y-120693261D01*
X139047264Y-120789432D01*
X138860859Y-120919953D01*
X138699953Y-121080859D01*
X138569432Y-121267264D01*
X138473261Y-121473502D01*
X138414364Y-121693310D01*
X138394531Y-121920000D01*
X137404966Y-121920000D01*
X137385141Y-121693397D01*
X137326266Y-121473673D01*
X137230133Y-121267515D01*
X137179025Y-121194526D01*
X136453553Y-121919999D01*
X136453553Y-121920000D01*
X136401286Y-121920000D01*
X136393546Y-121836479D01*
X136343552Y-121736078D01*
X136260666Y-121660516D01*
X136156080Y-121620000D01*
X136072198Y-121620000D01*
X135989750Y-121635412D01*
X135894390Y-121694457D01*
X135826799Y-121783962D01*
X135796105Y-121891840D01*
X135718287Y-121891840D01*
X135020973Y-121194526D01*
X135020973Y-121194527D01*
X134969865Y-121267516D01*
X134873733Y-121473672D01*
X134814858Y-121693397D01*
X134795033Y-121920000D01*
X133805468Y-121920000D01*
X133785635Y-121693308D01*
X133726739Y-121473504D01*
X133630568Y-121267266D01*
X133595514Y-121217202D01*
X133500046Y-121080859D01*
X133339140Y-120919953D01*
X133226344Y-120840973D01*
X135374526Y-120840973D01*
X136100000Y-121566446D01*
X136100001Y-121566446D01*
X136825472Y-120840974D01*
X136825471Y-120840972D01*
X136752484Y-120789866D01*
X136546326Y-120693733D01*
X136326602Y-120634858D01*
X136100000Y-120615033D01*
X135873397Y-120634858D01*
X135653672Y-120693733D01*
X135447516Y-120789865D01*
X135374527Y-120840973D01*
X135374526Y-120840973D01*
X133226344Y-120840973D01*
X133152735Y-120789432D01*
X132946497Y-120693261D01*
X132726689Y-120634364D01*
X132499999Y-120614531D01*
X132273310Y-120634364D01*
X132053502Y-120693261D01*
X131847264Y-120789432D01*
X131660859Y-120919953D01*
X131499953Y-121080859D01*
X131369432Y-121267264D01*
X131273261Y-121473502D01*
X131214364Y-121693310D01*
X131194531Y-121920000D01*
X130200499Y-121920000D01*
X130200499Y-121319992D01*
X130189999Y-121217203D01*
X130134814Y-121050666D01*
X130042712Y-120901344D01*
X130042711Y-120901342D01*
X129918657Y-120777288D01*
X129769334Y-120685186D01*
X129602797Y-120630000D01*
X129503141Y-120619819D01*
X129503122Y-120619818D01*
X129500009Y-120619500D01*
X129496860Y-120619500D01*
X128303140Y-120619500D01*
X128303120Y-120619500D01*
X128299992Y-120619501D01*
X128296860Y-120619820D01*
X128296858Y-120619821D01*
X128197203Y-120630000D01*
X128030665Y-120685186D01*
X127881342Y-120777288D01*
X127757288Y-120901342D01*
X127665186Y-121050665D01*
X127610000Y-121217202D01*
X127599819Y-121316858D01*
X127599817Y-121316878D01*
X127599500Y-121319991D01*
X127599500Y-121323138D01*
X127599500Y-121323139D01*
X127599500Y-122516859D01*
X127599500Y-122516878D01*
X63500500Y-122516878D01*
X63500500Y-113760000D01*
X100295033Y-113760000D01*
X100314858Y-113986602D01*
X100373733Y-114206326D01*
X100469866Y-114412484D01*
X100520972Y-114485471D01*
X100520973Y-114485472D01*
X101202045Y-113804399D01*
X101214835Y-113885148D01*
X101272359Y-113998045D01*
X101361955Y-114087641D01*
X101474852Y-114145165D01*
X101555597Y-114157953D01*
X100874526Y-114839025D01*
X100874526Y-114839026D01*
X100947515Y-114890133D01*
X101153673Y-114986266D01*
X101373397Y-115045141D01*
X101600000Y-115064966D01*
X101826602Y-115045141D01*
X102046326Y-114986266D01*
X102252480Y-114890134D01*
X102325472Y-114839025D01*
X101644399Y-114157953D01*
X101725148Y-114145165D01*
X101838045Y-114087641D01*
X101927641Y-113998045D01*
X101985165Y-113885148D01*
X101997953Y-113804400D01*
X102679025Y-114485472D01*
X102730134Y-114412480D01*
X102826266Y-114206326D01*
X102885141Y-113986602D01*
X102904966Y-113760000D01*
X112995033Y-113760000D01*
X113014858Y-113986602D01*
X113073733Y-114206326D01*
X113169866Y-114412484D01*
X113220972Y-114485471D01*
X113220973Y-114485472D01*
X113902045Y-113804399D01*
X113914835Y-113885148D01*
X113972359Y-113998045D01*
X114061955Y-114087641D01*
X114174852Y-114145165D01*
X114255599Y-114157953D01*
X113574526Y-114839025D01*
X113574526Y-114839026D01*
X113647515Y-114890133D01*
X113853673Y-114986266D01*
X114073397Y-115045141D01*
X114300000Y-115064966D01*
X114526602Y-115045141D01*
X114746326Y-114986266D01*
X114952480Y-114890134D01*
X115025472Y-114839025D01*
X114344401Y-114157953D01*
X114425148Y-114145165D01*
X114538045Y-114087641D01*
X114627641Y-113998045D01*
X114685165Y-113885148D01*
X114697953Y-113804400D01*
X115379025Y-114485472D01*
X115430134Y-114412480D01*
X115482585Y-114300000D01*
X123254357Y-114300000D01*
X123274885Y-114521537D01*
X123335769Y-114735526D01*
X123434941Y-114934688D01*
X123569019Y-115112237D01*
X123733437Y-115262124D01*
X123922595Y-115379245D01*
X123922597Y-115379245D01*
X123922599Y-115379247D01*
X124130060Y-115459618D01*
X124348757Y-115500500D01*
X124348759Y-115500500D01*
X124571241Y-115500500D01*
X124571243Y-115500500D01*
X124789940Y-115459618D01*
X124997401Y-115379247D01*
X125186562Y-115262124D01*
X125350981Y-115112236D01*
X125485058Y-114934689D01*
X125584229Y-114735528D01*
X125645115Y-114521536D01*
X125665643Y-114300000D01*
X128334357Y-114300000D01*
X128354885Y-114521537D01*
X128415769Y-114735526D01*
X128514941Y-114934688D01*
X128649019Y-115112237D01*
X128813437Y-115262124D01*
X129002595Y-115379245D01*
X129002597Y-115379245D01*
X129002599Y-115379247D01*
X129210060Y-115459618D01*
X129428757Y-115500500D01*
X129428759Y-115500500D01*
X129651241Y-115500500D01*
X129651243Y-115500500D01*
X129869940Y-115459618D01*
X130077401Y-115379247D01*
X130266562Y-115262124D01*
X130430981Y-115112236D01*
X130565058Y-114934689D01*
X130664229Y-114735528D01*
X130725115Y-114521536D01*
X130745643Y-114300000D01*
X138494357Y-114300000D01*
X138514885Y-114521537D01*
X138575769Y-114735526D01*
X138674941Y-114934688D01*
X138809019Y-115112237D01*
X138973437Y-115262124D01*
X139162595Y-115379245D01*
X139162597Y-115379245D01*
X139162599Y-115379247D01*
X139370060Y-115459618D01*
X139588757Y-115500500D01*
X139588759Y-115500500D01*
X139811241Y-115500500D01*
X139811243Y-115500500D01*
X140029940Y-115459618D01*
X140237401Y-115379247D01*
X140426562Y-115262124D01*
X140590981Y-115112236D01*
X140725058Y-114934689D01*
X140824229Y-114735528D01*
X140885115Y-114521536D01*
X140905643Y-114300000D01*
X140885115Y-114078464D01*
X140830112Y-113885148D01*
X140824230Y-113864473D01*
X140725058Y-113665311D01*
X140590980Y-113487762D01*
X140426562Y-113337875D01*
X140237404Y-113220754D01*
X140176174Y-113197033D01*
X140029940Y-113140382D01*
X139811243Y-113099500D01*
X139588757Y-113099500D01*
X139370059Y-113140382D01*
X139370060Y-113140382D01*
X139162595Y-113220754D01*
X138973437Y-113337875D01*
X138809019Y-113487762D01*
X138674941Y-113665311D01*
X138575769Y-113864473D01*
X138514885Y-114078462D01*
X138494357Y-114300000D01*
X130745643Y-114300000D01*
X130725115Y-114078464D01*
X130670112Y-113885148D01*
X130664230Y-113864473D01*
X130565058Y-113665311D01*
X130430980Y-113487762D01*
X130266562Y-113337875D01*
X130077404Y-113220754D01*
X130016174Y-113197033D01*
X129869940Y-113140382D01*
X129651243Y-113099500D01*
X129428757Y-113099500D01*
X129210060Y-113140382D01*
X129002595Y-113220754D01*
X128813437Y-113337875D01*
X128649019Y-113487762D01*
X128514941Y-113665311D01*
X128415769Y-113864473D01*
X128354885Y-114078462D01*
X128334357Y-114300000D01*
X125665643Y-114300000D01*
X125645115Y-114078464D01*
X125590112Y-113885148D01*
X125584230Y-113864473D01*
X125485058Y-113665311D01*
X125350980Y-113487762D01*
X125186562Y-113337875D01*
X124997404Y-113220754D01*
X124936174Y-113197033D01*
X124789940Y-113140382D01*
X124571243Y-113099500D01*
X124348757Y-113099500D01*
X124130059Y-113140382D01*
X124130060Y-113140382D01*
X123922595Y-113220754D01*
X123733437Y-113337875D01*
X123569019Y-113487762D01*
X123434941Y-113665311D01*
X123335769Y-113864473D01*
X123274885Y-114078462D01*
X123254357Y-114300000D01*
X115482585Y-114300000D01*
X115526266Y-114206326D01*
X115585141Y-113986602D01*
X115604966Y-113760000D01*
X115585141Y-113533397D01*
X115526266Y-113313673D01*
X115430133Y-113107515D01*
X115421189Y-113094742D01*
X115398862Y-113028536D01*
X115415872Y-112960768D01*
X115448453Y-112924352D01*
X115457546Y-112917546D01*
X115543796Y-112802331D01*
X115594091Y-112667483D01*
X115600500Y-112607873D01*
X115600499Y-110912128D01*
X115594091Y-110852517D01*
X115543796Y-110717669D01*
X115457546Y-110602454D01*
X115342331Y-110516204D01*
X115207483Y-110465909D01*
X115147873Y-110459500D01*
X115144550Y-110459500D01*
X113455439Y-110459500D01*
X113455420Y-110459500D01*
X113452128Y-110459501D01*
X113448848Y-110459853D01*
X113448840Y-110459854D01*
X113392515Y-110465909D01*
X113257669Y-110516204D01*
X113142454Y-110602454D01*
X113056204Y-110717668D01*
X113005910Y-110852515D01*
X113005909Y-110852517D01*
X112999500Y-110912127D01*
X112999500Y-110915448D01*
X112999500Y-110915449D01*
X112999500Y-112604560D01*
X112999500Y-112604578D01*
X112999501Y-112607872D01*
X113005909Y-112667483D01*
X113056204Y-112802331D01*
X113142454Y-112917546D01*
X113142455Y-112917547D01*
X113151545Y-112924352D01*
X113193417Y-112980285D01*
X113198401Y-113049977D01*
X113178812Y-113094740D01*
X113169865Y-113107518D01*
X113073733Y-113313672D01*
X113014858Y-113533397D01*
X112995033Y-113760000D01*
X102904966Y-113760000D01*
X102885141Y-113533397D01*
X102826266Y-113313673D01*
X102730133Y-113107515D01*
X102721189Y-113094742D01*
X102698862Y-113028536D01*
X102715872Y-112960768D01*
X102748453Y-112924352D01*
X102757546Y-112917546D01*
X102843796Y-112802331D01*
X102894091Y-112667483D01*
X102900500Y-112607873D01*
X102900499Y-110912128D01*
X102894091Y-110852517D01*
X102843796Y-110717669D01*
X102757546Y-110602454D01*
X102642331Y-110516204D01*
X102507483Y-110465909D01*
X102447873Y-110459500D01*
X102444550Y-110459500D01*
X100755439Y-110459500D01*
X100755420Y-110459500D01*
X100752128Y-110459501D01*
X100748848Y-110459853D01*
X100748840Y-110459854D01*
X100692515Y-110465909D01*
X100557669Y-110516204D01*
X100442454Y-110602454D01*
X100356204Y-110717668D01*
X100305910Y-110852515D01*
X100305909Y-110852517D01*
X100299500Y-110912127D01*
X100299500Y-110915448D01*
X100299500Y-110915449D01*
X100299500Y-112604560D01*
X100299500Y-112604578D01*
X100299501Y-112607872D01*
X100305909Y-112667483D01*
X100356204Y-112802331D01*
X100442454Y-112917546D01*
X100442455Y-112917547D01*
X100451545Y-112924352D01*
X100493417Y-112980285D01*
X100498401Y-113049977D01*
X100478812Y-113094740D01*
X100469865Y-113107518D01*
X100373733Y-113313672D01*
X100314858Y-113533397D01*
X100295033Y-113760000D01*
X63500500Y-113760000D01*
X63500500Y-109220000D01*
X138494357Y-109220000D01*
X138514885Y-109441537D01*
X138575769Y-109655526D01*
X138674941Y-109854688D01*
X138809019Y-110032237D01*
X138973437Y-110182124D01*
X139162595Y-110299245D01*
X139162597Y-110299245D01*
X139162599Y-110299247D01*
X139370060Y-110379618D01*
X139588757Y-110420500D01*
X139588759Y-110420500D01*
X139811241Y-110420500D01*
X139811243Y-110420500D01*
X140029940Y-110379618D01*
X140237401Y-110299247D01*
X140426562Y-110182124D01*
X140590981Y-110032236D01*
X140725058Y-109854689D01*
X140824229Y-109655528D01*
X140885115Y-109441536D01*
X140905643Y-109220000D01*
X140885115Y-108998464D01*
X140862227Y-108918021D01*
X140824230Y-108784473D01*
X140725058Y-108585311D01*
X140590980Y-108407762D01*
X140426562Y-108257875D01*
X140237404Y-108140754D01*
X140176174Y-108117033D01*
X140029940Y-108060382D01*
X139811243Y-108019500D01*
X139588757Y-108019500D01*
X139370059Y-108060382D01*
X139370060Y-108060382D01*
X139162595Y-108140754D01*
X138973437Y-108257875D01*
X138809019Y-108407762D01*
X138674941Y-108585311D01*
X138575769Y-108784473D01*
X138514885Y-108998462D01*
X138494357Y-109220000D01*
X63500500Y-109220000D01*
X63500500Y-106680000D01*
X101602676Y-106680000D01*
X101621929Y-106900065D01*
X101621930Y-106900068D01*
X101679106Y-107113450D01*
X101772466Y-107313662D01*
X101899174Y-107494620D01*
X102055380Y-107650826D01*
X102236338Y-107777534D01*
X102436550Y-107870894D01*
X102649932Y-107928070D01*
X102870000Y-107947323D01*
X103090068Y-107928070D01*
X103303450Y-107870894D01*
X103503662Y-107777534D01*
X103684620Y-107650826D01*
X103840826Y-107494620D01*
X103967534Y-107313662D01*
X104060894Y-107113450D01*
X104118070Y-106900068D01*
X104137323Y-106680000D01*
X104118070Y-106459932D01*
X104060894Y-106246550D01*
X103967534Y-106046339D01*
X103840826Y-105865380D01*
X103684620Y-105709174D01*
X103503662Y-105582466D01*
X103374218Y-105522105D01*
X103321779Y-105475932D01*
X103302627Y-105408739D01*
X103322843Y-105341858D01*
X103374220Y-105297340D01*
X103503411Y-105237098D01*
X103568187Y-105191740D01*
X102897448Y-104521000D01*
X102901569Y-104521000D01*
X102995421Y-104505339D01*
X103107251Y-104444820D01*
X103193371Y-104351269D01*
X103244448Y-104234823D01*
X103250105Y-104166552D01*
X103921740Y-104838186D01*
X103967100Y-104773408D01*
X104060420Y-104573281D01*
X104117575Y-104359978D01*
X104136821Y-104139999D01*
X104117575Y-103920021D01*
X104060421Y-103706720D01*
X103967098Y-103506589D01*
X103921740Y-103441811D01*
X103254903Y-104108648D01*
X103254949Y-104108102D01*
X103223734Y-103984838D01*
X103154187Y-103878388D01*
X103053843Y-103800287D01*
X102933578Y-103759000D01*
X102897447Y-103759000D01*
X103568187Y-103088258D01*
X103503406Y-103042898D01*
X103374219Y-102982658D01*
X103321779Y-102936486D01*
X103302627Y-102869293D01*
X103322843Y-102802411D01*
X103374219Y-102757894D01*
X103432822Y-102730567D01*
X103503662Y-102697534D01*
X103684620Y-102570826D01*
X103840826Y-102414620D01*
X103967534Y-102233662D01*
X104060894Y-102033450D01*
X104110050Y-101850000D01*
X128660001Y-101850000D01*
X128660001Y-102196829D01*
X128660321Y-102203111D01*
X128670493Y-102302695D01*
X128725642Y-102469122D01*
X128817683Y-102618345D01*
X128941654Y-102742316D01*
X129090877Y-102834357D01*
X129257303Y-102889506D01*
X129356890Y-102899680D01*
X129363168Y-102899999D01*
X129709999Y-102899999D01*
X129710000Y-102899998D01*
X129710000Y-101850000D01*
X128660001Y-101850000D01*
X104110050Y-101850000D01*
X104118070Y-101820068D01*
X104137323Y-101600000D01*
X104134859Y-101571840D01*
X129656105Y-101571840D01*
X129666454Y-101683521D01*
X129716448Y-101783922D01*
X129799334Y-101859484D01*
X129903920Y-101900000D01*
X129987802Y-101900000D01*
X130070250Y-101884588D01*
X130126111Y-101850000D01*
X130210000Y-101850000D01*
X130210000Y-102899999D01*
X130556829Y-102899999D01*
X130563111Y-102899678D01*
X130662695Y-102889506D01*
X130829122Y-102834357D01*
X130978345Y-102742316D01*
X131102316Y-102618345D01*
X131194357Y-102469122D01*
X131249506Y-102302696D01*
X131259680Y-102203109D01*
X131260000Y-102196831D01*
X131260000Y-101850000D01*
X130210000Y-101850000D01*
X130126111Y-101850000D01*
X130165610Y-101825543D01*
X130233201Y-101736038D01*
X130263895Y-101628160D01*
X130261286Y-101600000D01*
X132254531Y-101600000D01*
X132274364Y-101826689D01*
X132333261Y-102046497D01*
X132429432Y-102252735D01*
X132559953Y-102439140D01*
X132720859Y-102600046D01*
X132907264Y-102730567D01*
X132907265Y-102730567D01*
X132907266Y-102730568D01*
X133113504Y-102826739D01*
X133333308Y-102885635D01*
X133484436Y-102898857D01*
X133559999Y-102905468D01*
X133559999Y-102905467D01*
X133560000Y-102905468D01*
X133786692Y-102885635D01*
X134006496Y-102826739D01*
X134212734Y-102730568D01*
X134399139Y-102600047D01*
X134560047Y-102439139D01*
X134690568Y-102252734D01*
X134786739Y-102046496D01*
X134845635Y-101826692D01*
X134865468Y-101600000D01*
X135854531Y-101600000D01*
X135874364Y-101826689D01*
X135933261Y-102046497D01*
X136029432Y-102252735D01*
X136159953Y-102439140D01*
X136320859Y-102600046D01*
X136507264Y-102730567D01*
X136507265Y-102730567D01*
X136507266Y-102730568D01*
X136713504Y-102826739D01*
X136933308Y-102885635D01*
X137160000Y-102905468D01*
X137386692Y-102885635D01*
X137606496Y-102826739D01*
X137812734Y-102730568D01*
X137999139Y-102600047D01*
X138160047Y-102439139D01*
X138290568Y-102252734D01*
X138386739Y-102046496D01*
X138445635Y-101826692D01*
X138465468Y-101600000D01*
X138445635Y-101373308D01*
X138386739Y-101153504D01*
X138290568Y-100947266D01*
X138177216Y-100785380D01*
X138160046Y-100760859D01*
X137999140Y-100599953D01*
X137812735Y-100469432D01*
X137606497Y-100373261D01*
X137386689Y-100314364D01*
X137159999Y-100294531D01*
X136933310Y-100314364D01*
X136713502Y-100373261D01*
X136507264Y-100469432D01*
X136320859Y-100599953D01*
X136159953Y-100760859D01*
X136029432Y-100947264D01*
X135933261Y-101153502D01*
X135874364Y-101373310D01*
X135854531Y-101600000D01*
X134865468Y-101600000D01*
X134845635Y-101373308D01*
X134786739Y-101153504D01*
X134690568Y-100947266D01*
X134577216Y-100785380D01*
X134560046Y-100760859D01*
X134399140Y-100599953D01*
X134212735Y-100469432D01*
X134006497Y-100373261D01*
X133786689Y-100314364D01*
X133560000Y-100294531D01*
X133333310Y-100314364D01*
X133113502Y-100373261D01*
X132907264Y-100469432D01*
X132720859Y-100599953D01*
X132559953Y-100760859D01*
X132429432Y-100947264D01*
X132333261Y-101153502D01*
X132274364Y-101373310D01*
X132254531Y-101600000D01*
X130261286Y-101600000D01*
X130253546Y-101516479D01*
X130203552Y-101416078D01*
X130120666Y-101340516D01*
X130016080Y-101300000D01*
X129932198Y-101300000D01*
X129849750Y-101315412D01*
X129754390Y-101374457D01*
X129686799Y-101463962D01*
X129656105Y-101571840D01*
X104134859Y-101571840D01*
X104118070Y-101379932D01*
X104110050Y-101350000D01*
X128660000Y-101350000D01*
X129710000Y-101350000D01*
X129709999Y-100300000D01*
X130210000Y-100300000D01*
X130210000Y-101350000D01*
X131259999Y-101350000D01*
X131259999Y-101003170D01*
X131259678Y-100996888D01*
X131249506Y-100897304D01*
X131194357Y-100730877D01*
X131102316Y-100581654D01*
X130978345Y-100457683D01*
X130829122Y-100365642D01*
X130662696Y-100310493D01*
X130563109Y-100300319D01*
X130556832Y-100300000D01*
X130210000Y-100300000D01*
X129709999Y-100300000D01*
X129363171Y-100300000D01*
X129356888Y-100300321D01*
X129257304Y-100310493D01*
X129090877Y-100365642D01*
X128941654Y-100457683D01*
X128817683Y-100581654D01*
X128725642Y-100730877D01*
X128670493Y-100897303D01*
X128660319Y-100996890D01*
X128660000Y-101003168D01*
X128660000Y-101350000D01*
X104110050Y-101350000D01*
X104060894Y-101166550D01*
X103967534Y-100966339D01*
X103840826Y-100785380D01*
X103684620Y-100629174D01*
X103503662Y-100502466D01*
X103374218Y-100442105D01*
X103321779Y-100395932D01*
X103302627Y-100328739D01*
X103322843Y-100261858D01*
X103374220Y-100217340D01*
X103503411Y-100157098D01*
X103568187Y-100111740D01*
X102897448Y-99441000D01*
X102901569Y-99441000D01*
X102995421Y-99425339D01*
X103107251Y-99364820D01*
X103193371Y-99271269D01*
X103244448Y-99154823D01*
X103250105Y-99086552D01*
X103921740Y-99758186D01*
X103967100Y-99693408D01*
X104060420Y-99493281D01*
X104117575Y-99279978D01*
X104136821Y-99060000D01*
X104117575Y-98840021D01*
X104060421Y-98626720D01*
X103967098Y-98426589D01*
X103921740Y-98361811D01*
X103254903Y-99028648D01*
X103254949Y-99028102D01*
X103223734Y-98904838D01*
X103154187Y-98798388D01*
X103053843Y-98720287D01*
X102933578Y-98679000D01*
X102897447Y-98679000D01*
X103568187Y-98008258D01*
X103503407Y-97962898D01*
X103373627Y-97902382D01*
X103321187Y-97856210D01*
X103302035Y-97789017D01*
X103322250Y-97722135D01*
X103373627Y-97677618D01*
X103503408Y-97617100D01*
X103568187Y-97571740D01*
X102897448Y-96901000D01*
X102901569Y-96901000D01*
X102995421Y-96885339D01*
X103107251Y-96824820D01*
X103193371Y-96731269D01*
X103244448Y-96614823D01*
X103250105Y-96546552D01*
X103921740Y-97218186D01*
X103967100Y-97153408D01*
X104060420Y-96953281D01*
X104117575Y-96739978D01*
X104136821Y-96519999D01*
X104117575Y-96300021D01*
X104060421Y-96086720D01*
X103967098Y-95886589D01*
X103921740Y-95821811D01*
X103254903Y-96488648D01*
X103254949Y-96488102D01*
X103223734Y-96364838D01*
X103154187Y-96258388D01*
X103053843Y-96180287D01*
X102933578Y-96139000D01*
X102897447Y-96139000D01*
X103568187Y-95468258D01*
X103503406Y-95422898D01*
X103374219Y-95362658D01*
X103321779Y-95316486D01*
X103302627Y-95249293D01*
X103322843Y-95182411D01*
X103374219Y-95137894D01*
X103503662Y-95077534D01*
X103684620Y-94950826D01*
X103840826Y-94794620D01*
X103967534Y-94613662D01*
X104060894Y-94413450D01*
X104118070Y-94200068D01*
X104137323Y-93980000D01*
X104118070Y-93759932D01*
X104060894Y-93546550D01*
X103967534Y-93346339D01*
X103889279Y-93234578D01*
X128909500Y-93234578D01*
X128909501Y-93237872D01*
X128915909Y-93297483D01*
X128966204Y-93432331D01*
X129052454Y-93547546D01*
X129167669Y-93633796D01*
X129302517Y-93684091D01*
X129362127Y-93690500D01*
X132957872Y-93690499D01*
X133017483Y-93684091D01*
X133152331Y-93633796D01*
X133267546Y-93547546D01*
X133353796Y-93432331D01*
X133404091Y-93297483D01*
X133410500Y-93237873D01*
X133410499Y-91190000D01*
X135160000Y-91190000D01*
X136660000Y-91190000D01*
X136660000Y-91690000D01*
X135160001Y-91690000D01*
X135160001Y-92501744D01*
X135160192Y-92506625D01*
X135170400Y-92636331D01*
X135225377Y-92854518D01*
X135318430Y-93059379D01*
X135446565Y-93244332D01*
X135605667Y-93403434D01*
X135790620Y-93531569D01*
X135995481Y-93624622D01*
X136213668Y-93679599D01*
X136343374Y-93689808D01*
X136348254Y-93689999D01*
X136909999Y-93689999D01*
X136910000Y-93689998D01*
X136910000Y-92873686D01*
X136950156Y-92899493D01*
X137088111Y-92940000D01*
X137231889Y-92940000D01*
X137369844Y-92899493D01*
X137410000Y-92873686D01*
X137410000Y-93689999D01*
X137971744Y-93689999D01*
X137976625Y-93689807D01*
X138106331Y-93679599D01*
X138324518Y-93624622D01*
X138529379Y-93531569D01*
X138714332Y-93403434D01*
X138873434Y-93244332D01*
X139001569Y-93059379D01*
X139094622Y-92854518D01*
X139149599Y-92636331D01*
X139159808Y-92506625D01*
X139160000Y-92501745D01*
X139160000Y-91690000D01*
X137660000Y-91690000D01*
X137660000Y-91190000D01*
X139159999Y-91190000D01*
X139159999Y-90378255D01*
X139159807Y-90373374D01*
X139149599Y-90243668D01*
X139094622Y-90025481D01*
X139001569Y-89820620D01*
X138873434Y-89635667D01*
X138714332Y-89476565D01*
X138529379Y-89348430D01*
X138324518Y-89255377D01*
X138106331Y-89200400D01*
X137976625Y-89190191D01*
X137971746Y-89190000D01*
X137410000Y-89190000D01*
X137410000Y-90006313D01*
X137369844Y-89980507D01*
X137231889Y-89940000D01*
X137088111Y-89940000D01*
X136950156Y-89980507D01*
X136910000Y-90006313D01*
X136910000Y-89190000D01*
X136348255Y-89190000D01*
X136343374Y-89190192D01*
X136213668Y-89200400D01*
X135995481Y-89255377D01*
X135790620Y-89348430D01*
X135605667Y-89476565D01*
X135446565Y-89635667D01*
X135318430Y-89820620D01*
X135225377Y-90025481D01*
X135170400Y-90243668D01*
X135160191Y-90373374D01*
X135160000Y-90378254D01*
X135160000Y-91190000D01*
X133410499Y-91190000D01*
X133410499Y-89642128D01*
X133404091Y-89582517D01*
X133353796Y-89447669D01*
X133267546Y-89332454D01*
X133152331Y-89246204D01*
X133152329Y-89246203D01*
X133103488Y-89227986D01*
X133047555Y-89186115D01*
X133023139Y-89120650D01*
X133037991Y-89052377D01*
X133087397Y-89002972D01*
X133153403Y-88987980D01*
X133189769Y-88989912D01*
X133193057Y-88989999D01*
X133909998Y-88989999D01*
X133909999Y-88989998D01*
X133910000Y-87240000D01*
X134410000Y-87240000D01*
X134410000Y-88989999D01*
X135126931Y-88989999D01*
X135130230Y-88989911D01*
X135176923Y-88987432D01*
X135185383Y-88986394D01*
X135410986Y-88942762D01*
X135629976Y-88860119D01*
X135831841Y-88741659D01*
X136010786Y-88590786D01*
X136161659Y-88411841D01*
X136280119Y-88209976D01*
X136362762Y-87990986D01*
X136406392Y-87765391D01*
X136407433Y-87756908D01*
X136409912Y-87710237D01*
X136410000Y-87706942D01*
X136410000Y-86990000D01*
X135593686Y-86990000D01*
X135619493Y-86949844D01*
X135660000Y-86811889D01*
X135660000Y-86668111D01*
X135619493Y-86530156D01*
X135593686Y-86490000D01*
X136409999Y-86490000D01*
X136409999Y-85773069D01*
X136409911Y-85769769D01*
X136407432Y-85723076D01*
X136406394Y-85714616D01*
X136362762Y-85489013D01*
X136280119Y-85270023D01*
X136161659Y-85068158D01*
X136010786Y-84889213D01*
X135831841Y-84738340D01*
X135629976Y-84619880D01*
X135410986Y-84537237D01*
X135185391Y-84493607D01*
X135176908Y-84492566D01*
X135130237Y-84490087D01*
X135126943Y-84490000D01*
X134410000Y-84490000D01*
X134410000Y-86240000D01*
X133909999Y-86240000D01*
X133909999Y-84490000D01*
X133193069Y-84490000D01*
X133189769Y-84490088D01*
X133143076Y-84492567D01*
X133134616Y-84493605D01*
X132909013Y-84537237D01*
X132690023Y-84619880D01*
X132488158Y-84738340D01*
X132309213Y-84889213D01*
X132158340Y-85068158D01*
X132039880Y-85270023D01*
X131957237Y-85489013D01*
X131913607Y-85714608D01*
X131912566Y-85723091D01*
X131910087Y-85769762D01*
X131910000Y-85773057D01*
X131910000Y-86490000D01*
X132726314Y-86490000D01*
X132700507Y-86530156D01*
X132660000Y-86668111D01*
X132660000Y-86811889D01*
X132700507Y-86949844D01*
X132726314Y-86990000D01*
X131910001Y-86990000D01*
X131910001Y-87706930D01*
X131910088Y-87710230D01*
X131912567Y-87756923D01*
X131913605Y-87765383D01*
X131957237Y-87990986D01*
X132039880Y-88209976D01*
X132158340Y-88411841D01*
X132309213Y-88590786D01*
X132488158Y-88741659D01*
X132690023Y-88860119D01*
X132909013Y-88942762D01*
X132914151Y-88943756D01*
X132976233Y-88975812D01*
X133011129Y-89036344D01*
X133007759Y-89106132D01*
X132967193Y-89163020D01*
X132902312Y-89188946D01*
X132890605Y-89189500D01*
X129365439Y-89189500D01*
X129365420Y-89189500D01*
X129362128Y-89189501D01*
X129358848Y-89189853D01*
X129358840Y-89189854D01*
X129302515Y-89195909D01*
X129167669Y-89246204D01*
X129052454Y-89332454D01*
X128966204Y-89447668D01*
X128915909Y-89582516D01*
X128910195Y-89635667D01*
X128909500Y-89642127D01*
X128909500Y-89645448D01*
X128909500Y-89645449D01*
X128909500Y-93234560D01*
X128909500Y-93234578D01*
X103889279Y-93234578D01*
X103840826Y-93165380D01*
X103684620Y-93009174D01*
X103503662Y-92882466D01*
X103443727Y-92854518D01*
X103303451Y-92789106D01*
X103090065Y-92731929D01*
X102870000Y-92712676D01*
X102649934Y-92731929D01*
X102436548Y-92789106D01*
X102236338Y-92882466D01*
X102055379Y-93009174D01*
X101899174Y-93165379D01*
X101772466Y-93346338D01*
X101679106Y-93546548D01*
X101621929Y-93759934D01*
X101602676Y-93979999D01*
X101621929Y-94200065D01*
X101621930Y-94200068D01*
X101679106Y-94413450D01*
X101772466Y-94613662D01*
X101899174Y-94794620D01*
X102055380Y-94950826D01*
X102236338Y-95077534D01*
X102306173Y-95110098D01*
X102365780Y-95137894D01*
X102418219Y-95184066D01*
X102437371Y-95251260D01*
X102417155Y-95318141D01*
X102365780Y-95362658D01*
X102236589Y-95422900D01*
X102171812Y-95468258D01*
X102171811Y-95468258D01*
X102842554Y-96139000D01*
X102838431Y-96139000D01*
X102744579Y-96154661D01*
X102632749Y-96215180D01*
X102546629Y-96308731D01*
X102495552Y-96425177D01*
X102489894Y-96493447D01*
X101818258Y-95821811D01*
X101818258Y-95821812D01*
X101772900Y-95886589D01*
X101679578Y-96086719D01*
X101622424Y-96300021D01*
X101603178Y-96520000D01*
X101622424Y-96739978D01*
X101679579Y-96953281D01*
X101772898Y-97153406D01*
X101818258Y-97218187D01*
X102485096Y-96551349D01*
X102485051Y-96551898D01*
X102516266Y-96675162D01*
X102585813Y-96781612D01*
X102686157Y-96859713D01*
X102806422Y-96901000D01*
X102842553Y-96901000D01*
X102171812Y-97571740D01*
X102236592Y-97617100D01*
X102366372Y-97677617D01*
X102418812Y-97723789D01*
X102437964Y-97790982D01*
X102417749Y-97857863D01*
X102366373Y-97902381D01*
X102236589Y-97962900D01*
X102171812Y-98008258D01*
X102171811Y-98008258D01*
X102842554Y-98679000D01*
X102838431Y-98679000D01*
X102744579Y-98694661D01*
X102632749Y-98755180D01*
X102546629Y-98848731D01*
X102495552Y-98965177D01*
X102489894Y-99033447D01*
X101818258Y-98361811D01*
X101818258Y-98361812D01*
X101772900Y-98426589D01*
X101679578Y-98626719D01*
X101622424Y-98840021D01*
X101603178Y-99060000D01*
X101622424Y-99279978D01*
X101679579Y-99493281D01*
X101772898Y-99693406D01*
X101818258Y-99758187D01*
X102485096Y-99091349D01*
X102485051Y-99091898D01*
X102516266Y-99215162D01*
X102585813Y-99321612D01*
X102686157Y-99399713D01*
X102806422Y-99441000D01*
X102842553Y-99441000D01*
X102171812Y-100111740D01*
X102236592Y-100157100D01*
X102365780Y-100217341D01*
X102418220Y-100263513D01*
X102437372Y-100330706D01*
X102417157Y-100397587D01*
X102365782Y-100442105D01*
X102236336Y-100502467D01*
X102055379Y-100629174D01*
X101899174Y-100785379D01*
X101772466Y-100966338D01*
X101679106Y-101166548D01*
X101621929Y-101379934D01*
X101602676Y-101600000D01*
X101621929Y-101820065D01*
X101679106Y-102033451D01*
X101755291Y-102196831D01*
X101772466Y-102233662D01*
X101899174Y-102414620D01*
X102055380Y-102570826D01*
X102236338Y-102697534D01*
X102306173Y-102730098D01*
X102365780Y-102757894D01*
X102418219Y-102804066D01*
X102437371Y-102871260D01*
X102417155Y-102938141D01*
X102365780Y-102982658D01*
X102236589Y-103042900D01*
X102171812Y-103088258D01*
X102171811Y-103088258D01*
X102842554Y-103759000D01*
X102838431Y-103759000D01*
X102744579Y-103774661D01*
X102632749Y-103835180D01*
X102546629Y-103928731D01*
X102495552Y-104045177D01*
X102489894Y-104113447D01*
X101818258Y-103441811D01*
X101818258Y-103441812D01*
X101772900Y-103506589D01*
X101679578Y-103706719D01*
X101622424Y-103920021D01*
X101603178Y-104139999D01*
X101622424Y-104359978D01*
X101679579Y-104573281D01*
X101772898Y-104773406D01*
X101818258Y-104838187D01*
X102485096Y-104171349D01*
X102485051Y-104171898D01*
X102516266Y-104295162D01*
X102585813Y-104401612D01*
X102686157Y-104479713D01*
X102806422Y-104521000D01*
X102842553Y-104521000D01*
X102171812Y-105191740D01*
X102236592Y-105237100D01*
X102365780Y-105297341D01*
X102418220Y-105343513D01*
X102437372Y-105410706D01*
X102417157Y-105477587D01*
X102365782Y-105522105D01*
X102236336Y-105582467D01*
X102055379Y-105709174D01*
X101899174Y-105865379D01*
X101772466Y-106046338D01*
X101679106Y-106246548D01*
X101621929Y-106459934D01*
X101602676Y-106680000D01*
X63500500Y-106680000D01*
X63500500Y-90766878D01*
X106649500Y-90766878D01*
X106649501Y-90770008D01*
X106649820Y-90773140D01*
X106649821Y-90773141D01*
X106660000Y-90872796D01*
X106715186Y-91039334D01*
X106807288Y-91188657D01*
X106931342Y-91312711D01*
X106931344Y-91312712D01*
X107080666Y-91404814D01*
X107192017Y-91441712D01*
X107247202Y-91459999D01*
X107346858Y-91470180D01*
X107346859Y-91470180D01*
X107349991Y-91470500D01*
X108550008Y-91470499D01*
X108652797Y-91459999D01*
X108819334Y-91404814D01*
X108968656Y-91312712D01*
X109032342Y-91249026D01*
X110824526Y-91249026D01*
X110897515Y-91300133D01*
X111103673Y-91396266D01*
X111323397Y-91455141D01*
X111549999Y-91474966D01*
X111776602Y-91455141D01*
X111996326Y-91396266D01*
X112202480Y-91300134D01*
X112275472Y-91249025D01*
X111550001Y-90523553D01*
X111550000Y-90523553D01*
X110824526Y-91249025D01*
X110824526Y-91249026D01*
X109032342Y-91249026D01*
X109092712Y-91188656D01*
X109184814Y-91039334D01*
X109239999Y-90872797D01*
X109250500Y-90770009D01*
X109250499Y-90170000D01*
X110245033Y-90170000D01*
X110264858Y-90396602D01*
X110323733Y-90616326D01*
X110419866Y-90822484D01*
X110470972Y-90895471D01*
X110470974Y-90895472D01*
X111196446Y-90170000D01*
X111196446Y-90169999D01*
X111168287Y-90141840D01*
X111246105Y-90141840D01*
X111256454Y-90253521D01*
X111306448Y-90353922D01*
X111389334Y-90429484D01*
X111493920Y-90470000D01*
X111577802Y-90470000D01*
X111660250Y-90454588D01*
X111755610Y-90395543D01*
X111823201Y-90306038D01*
X111853895Y-90198160D01*
X111851286Y-90170000D01*
X111903553Y-90170000D01*
X112629025Y-90895472D01*
X112680134Y-90822480D01*
X112776266Y-90616326D01*
X112835141Y-90396602D01*
X112854966Y-90169999D01*
X112835141Y-89943397D01*
X112776266Y-89723673D01*
X112680133Y-89517515D01*
X112629025Y-89444526D01*
X111903553Y-90169999D01*
X111903553Y-90170000D01*
X111851286Y-90170000D01*
X111843546Y-90086479D01*
X111793552Y-89986078D01*
X111710666Y-89910516D01*
X111606080Y-89870000D01*
X111522198Y-89870000D01*
X111439750Y-89885412D01*
X111344390Y-89944457D01*
X111276799Y-90033962D01*
X111246105Y-90141840D01*
X111168287Y-90141840D01*
X110470973Y-89444526D01*
X110470973Y-89444527D01*
X110419865Y-89517516D01*
X110323733Y-89723672D01*
X110264858Y-89943397D01*
X110245033Y-90170000D01*
X109250499Y-90170000D01*
X109250499Y-89569992D01*
X109239999Y-89467203D01*
X109184814Y-89300666D01*
X109120200Y-89195909D01*
X109092711Y-89151342D01*
X109032342Y-89090973D01*
X110824526Y-89090973D01*
X111550000Y-89816446D01*
X111550001Y-89816446D01*
X112275472Y-89090974D01*
X112275471Y-89090972D01*
X112202484Y-89039866D01*
X111996326Y-88943733D01*
X111776602Y-88884858D01*
X111550000Y-88865033D01*
X111323397Y-88884858D01*
X111103672Y-88943733D01*
X110897516Y-89039865D01*
X110824527Y-89090973D01*
X110824526Y-89090973D01*
X109032342Y-89090973D01*
X108968657Y-89027288D01*
X108819334Y-88935186D01*
X108652797Y-88880000D01*
X108553141Y-88869819D01*
X108553122Y-88869818D01*
X108550009Y-88869500D01*
X108546860Y-88869500D01*
X107353140Y-88869500D01*
X107353120Y-88869500D01*
X107349992Y-88869501D01*
X107346860Y-88869820D01*
X107346858Y-88869821D01*
X107247203Y-88880000D01*
X107080665Y-88935186D01*
X106931342Y-89027288D01*
X106807288Y-89151342D01*
X106715186Y-89300665D01*
X106660000Y-89467202D01*
X106649819Y-89566858D01*
X106649817Y-89566878D01*
X106649500Y-89569991D01*
X106649500Y-89573138D01*
X106649500Y-89573139D01*
X106649500Y-90766859D01*
X106649500Y-90766878D01*
X63500500Y-90766878D01*
X63500500Y-88899999D01*
X73651699Y-88899999D01*
X73670865Y-89131299D01*
X73670865Y-89131301D01*
X73670866Y-89131305D01*
X73725850Y-89348430D01*
X73727844Y-89356303D01*
X73766543Y-89444527D01*
X73821076Y-89568849D01*
X73948021Y-89763153D01*
X74105216Y-89933913D01*
X74288374Y-90076470D01*
X74492497Y-90186936D01*
X74602257Y-90224616D01*
X74712015Y-90262297D01*
X74712017Y-90262297D01*
X74712019Y-90262298D01*
X74940951Y-90300500D01*
X74940952Y-90300500D01*
X75173048Y-90300500D01*
X75173049Y-90300500D01*
X75401981Y-90262298D01*
X75621503Y-90186936D01*
X75825626Y-90076470D01*
X76008784Y-89933913D01*
X76165979Y-89763153D01*
X76223191Y-89675582D01*
X76276337Y-89630226D01*
X76345569Y-89620802D01*
X76408905Y-89650304D01*
X76430807Y-89675581D01*
X76488021Y-89763153D01*
X76645216Y-89933913D01*
X76828374Y-90076470D01*
X77032497Y-90186936D01*
X77142257Y-90224616D01*
X77252015Y-90262297D01*
X77252017Y-90262297D01*
X77252019Y-90262298D01*
X77480951Y-90300500D01*
X77480952Y-90300500D01*
X77713048Y-90300500D01*
X77713049Y-90300500D01*
X77941981Y-90262298D01*
X78161503Y-90186936D01*
X78365626Y-90076470D01*
X78548784Y-89933913D01*
X78705979Y-89763153D01*
X78763490Y-89675124D01*
X78816635Y-89629769D01*
X78885866Y-89620345D01*
X78949202Y-89649846D01*
X78971107Y-89675126D01*
X78985811Y-89697633D01*
X79752096Y-88931350D01*
X79752051Y-88931898D01*
X79783266Y-89055162D01*
X79852813Y-89161612D01*
X79953157Y-89239713D01*
X80073422Y-89281000D01*
X80109553Y-89281000D01*
X79338199Y-90052351D01*
X79368650Y-90076051D01*
X79572700Y-90186477D01*
X79792140Y-90261811D01*
X80020993Y-90300000D01*
X80253007Y-90300000D01*
X80481859Y-90261811D01*
X80701296Y-90186478D01*
X80905353Y-90076048D01*
X80935798Y-90052351D01*
X80164447Y-89281000D01*
X80168569Y-89281000D01*
X80262421Y-89265339D01*
X80374251Y-89204820D01*
X80460371Y-89111269D01*
X80511448Y-88994823D01*
X80517105Y-88926553D01*
X81288186Y-89697634D01*
X81302892Y-89675126D01*
X81356038Y-89629769D01*
X81425269Y-89620345D01*
X81488605Y-89649847D01*
X81510507Y-89675122D01*
X81568021Y-89763153D01*
X81725216Y-89933913D01*
X81908374Y-90076470D01*
X82112497Y-90186936D01*
X82222257Y-90224616D01*
X82332015Y-90262297D01*
X82332017Y-90262297D01*
X82332019Y-90262298D01*
X82560951Y-90300500D01*
X82560952Y-90300500D01*
X82793048Y-90300500D01*
X82793049Y-90300500D01*
X83021981Y-90262298D01*
X83241503Y-90186936D01*
X83445626Y-90076470D01*
X83628784Y-89933913D01*
X83785979Y-89763153D01*
X83843191Y-89675582D01*
X83896337Y-89630226D01*
X83965569Y-89620802D01*
X84028905Y-89650304D01*
X84050807Y-89675581D01*
X84108021Y-89763153D01*
X84265216Y-89933913D01*
X84448374Y-90076470D01*
X84652497Y-90186936D01*
X84762257Y-90224616D01*
X84872015Y-90262297D01*
X84872017Y-90262297D01*
X84872019Y-90262298D01*
X85100951Y-90300500D01*
X85100952Y-90300500D01*
X85333048Y-90300500D01*
X85333049Y-90300500D01*
X85561981Y-90262298D01*
X85781503Y-90186936D01*
X85985626Y-90076470D01*
X86168784Y-89933913D01*
X86325979Y-89763153D01*
X86383191Y-89675582D01*
X86436337Y-89630226D01*
X86505569Y-89620802D01*
X86568905Y-89650304D01*
X86590807Y-89675581D01*
X86648021Y-89763153D01*
X86805216Y-89933913D01*
X86988374Y-90076470D01*
X87192497Y-90186936D01*
X87302257Y-90224616D01*
X87412015Y-90262297D01*
X87412017Y-90262297D01*
X87412019Y-90262298D01*
X87640951Y-90300500D01*
X87640952Y-90300500D01*
X87873048Y-90300500D01*
X87873049Y-90300500D01*
X88101981Y-90262298D01*
X88321503Y-90186936D01*
X88525626Y-90076470D01*
X88708784Y-89933913D01*
X88865979Y-89763153D01*
X88992924Y-89568849D01*
X89086157Y-89356300D01*
X89143134Y-89131305D01*
X89162300Y-88900000D01*
X89143134Y-88668695D01*
X89086157Y-88443700D01*
X88992924Y-88231151D01*
X88865979Y-88036847D01*
X88708784Y-87866087D01*
X88525626Y-87723530D01*
X88321503Y-87613064D01*
X88321499Y-87613062D01*
X88321498Y-87613062D01*
X88101984Y-87537702D01*
X87930281Y-87509050D01*
X87873049Y-87499500D01*
X87640951Y-87499500D01*
X87595164Y-87507140D01*
X87412015Y-87537702D01*
X87192501Y-87613062D01*
X86988372Y-87723531D01*
X86805215Y-87866087D01*
X86648018Y-88036849D01*
X86590808Y-88124417D01*
X86537662Y-88169773D01*
X86468431Y-88179197D01*
X86405095Y-88149695D01*
X86383192Y-88124417D01*
X86325981Y-88036849D01*
X86168784Y-87866087D01*
X86039399Y-87765383D01*
X85985626Y-87723530D01*
X85781503Y-87613064D01*
X85781499Y-87613062D01*
X85781498Y-87613062D01*
X85561984Y-87537702D01*
X85390281Y-87509050D01*
X85333049Y-87499500D01*
X85100951Y-87499500D01*
X85055164Y-87507140D01*
X84872015Y-87537702D01*
X84652501Y-87613062D01*
X84448372Y-87723531D01*
X84265215Y-87866087D01*
X84108018Y-88036849D01*
X84050808Y-88124417D01*
X83997662Y-88169773D01*
X83928431Y-88179197D01*
X83865095Y-88149695D01*
X83843192Y-88124417D01*
X83785981Y-88036849D01*
X83628784Y-87866087D01*
X83499399Y-87765383D01*
X83445626Y-87723530D01*
X83241503Y-87613064D01*
X83241499Y-87613062D01*
X83241498Y-87613062D01*
X83021984Y-87537702D01*
X82850281Y-87509050D01*
X82793049Y-87499500D01*
X82560951Y-87499500D01*
X82515164Y-87507140D01*
X82332015Y-87537702D01*
X82112501Y-87613062D01*
X81908372Y-87723531D01*
X81725215Y-87866087D01*
X81568018Y-88036850D01*
X81510509Y-88124874D01*
X81457363Y-88170231D01*
X81388131Y-88179654D01*
X81324796Y-88150152D01*
X81302892Y-88124873D01*
X81288186Y-88102364D01*
X80521903Y-88868647D01*
X80521949Y-88868102D01*
X80490734Y-88744838D01*
X80421187Y-88638388D01*
X80320843Y-88560287D01*
X80200578Y-88519000D01*
X80164446Y-88519000D01*
X80935799Y-87747647D01*
X80905349Y-87723948D01*
X80701299Y-87613522D01*
X80481859Y-87538188D01*
X80253007Y-87500000D01*
X80020993Y-87500000D01*
X79792140Y-87538188D01*
X79572703Y-87613521D01*
X79368645Y-87723952D01*
X79338200Y-87747646D01*
X79338200Y-87747647D01*
X80109551Y-88519000D01*
X80105431Y-88519000D01*
X80011579Y-88534661D01*
X79899749Y-88595180D01*
X79813629Y-88688731D01*
X79762552Y-88805177D01*
X79756894Y-88873447D01*
X78985812Y-88102365D01*
X78971107Y-88124873D01*
X78917961Y-88170230D01*
X78848730Y-88179654D01*
X78785394Y-88150152D01*
X78763489Y-88124873D01*
X78748783Y-88102364D01*
X78705979Y-88036847D01*
X78548784Y-87866087D01*
X78365626Y-87723530D01*
X78161503Y-87613064D01*
X78161499Y-87613062D01*
X78161498Y-87613062D01*
X77941984Y-87537702D01*
X77770281Y-87509050D01*
X77713049Y-87499500D01*
X77480951Y-87499500D01*
X77435164Y-87507140D01*
X77252015Y-87537702D01*
X77032501Y-87613062D01*
X76828372Y-87723531D01*
X76645215Y-87866087D01*
X76488018Y-88036849D01*
X76430808Y-88124417D01*
X76377662Y-88169773D01*
X76308431Y-88179197D01*
X76245095Y-88149695D01*
X76223192Y-88124417D01*
X76165981Y-88036849D01*
X76008784Y-87866087D01*
X75879399Y-87765383D01*
X75825626Y-87723530D01*
X75621503Y-87613064D01*
X75621499Y-87613062D01*
X75621498Y-87613062D01*
X75401984Y-87537702D01*
X75230281Y-87509050D01*
X75173049Y-87499500D01*
X74940951Y-87499500D01*
X74895164Y-87507140D01*
X74712015Y-87537702D01*
X74492501Y-87613062D01*
X74288372Y-87723531D01*
X74105215Y-87866087D01*
X73948020Y-88036848D01*
X73821076Y-88231150D01*
X73727844Y-88443696D01*
X73727842Y-88443700D01*
X73727843Y-88443700D01*
X73690596Y-88590786D01*
X73670865Y-88668700D01*
X73651699Y-88899999D01*
X63500500Y-88899999D01*
X63500500Y-81280000D01*
X91154531Y-81280000D01*
X91174364Y-81506689D01*
X91233261Y-81726497D01*
X91329432Y-81932735D01*
X91459953Y-82119140D01*
X91620859Y-82280046D01*
X91807264Y-82410567D01*
X91807265Y-82410567D01*
X91807266Y-82410568D01*
X92013504Y-82506739D01*
X92233308Y-82565635D01*
X92384436Y-82578856D01*
X92459999Y-82585468D01*
X92459999Y-82585467D01*
X92460000Y-82585468D01*
X92686692Y-82565635D01*
X92906496Y-82506739D01*
X93112734Y-82410568D01*
X93299139Y-82280047D01*
X93460047Y-82119139D01*
X93590568Y-81932734D01*
X93617618Y-81874724D01*
X93663790Y-81822285D01*
X93730983Y-81803133D01*
X93797865Y-81823348D01*
X93842382Y-81874725D01*
X93869431Y-81932733D01*
X93999953Y-82119140D01*
X94160859Y-82280046D01*
X94347264Y-82410567D01*
X94347265Y-82410567D01*
X94347266Y-82410568D01*
X94553504Y-82506739D01*
X94773308Y-82565635D01*
X95000000Y-82585468D01*
X95226692Y-82565635D01*
X95446496Y-82506739D01*
X95652734Y-82410568D01*
X95839139Y-82280047D01*
X96000047Y-82119139D01*
X96130568Y-81932734D01*
X96157618Y-81874724D01*
X96203790Y-81822285D01*
X96270983Y-81803133D01*
X96337865Y-81823348D01*
X96382382Y-81874725D01*
X96409431Y-81932733D01*
X96539953Y-82119140D01*
X96700859Y-82280046D01*
X96887264Y-82410567D01*
X96887265Y-82410567D01*
X96887266Y-82410568D01*
X97093504Y-82506739D01*
X97313308Y-82565635D01*
X97464436Y-82578856D01*
X97539999Y-82585468D01*
X97539999Y-82585467D01*
X97540000Y-82585468D01*
X97766692Y-82565635D01*
X97986496Y-82506739D01*
X98192734Y-82410568D01*
X98379139Y-82280047D01*
X98540047Y-82119139D01*
X98670568Y-81932734D01*
X98697893Y-81874134D01*
X98744065Y-81821695D01*
X98811258Y-81802543D01*
X98878139Y-81822758D01*
X98922657Y-81874133D01*
X98949866Y-81932482D01*
X99080341Y-82118819D01*
X99241180Y-82279658D01*
X99427519Y-82410134D01*
X99633673Y-82506266D01*
X99829999Y-82558871D01*
X99830000Y-82558871D01*
X99830000Y-81715501D01*
X99937685Y-81764680D01*
X100044237Y-81780000D01*
X100115763Y-81780000D01*
X100222315Y-81764680D01*
X100330000Y-81715501D01*
X100330000Y-82558871D01*
X100526326Y-82506266D01*
X100732480Y-82410134D01*
X100918819Y-82279658D01*
X101079658Y-82118819D01*
X101210135Y-81932479D01*
X101237342Y-81874135D01*
X101283514Y-81821695D01*
X101350707Y-81802543D01*
X101417589Y-81822758D01*
X101462105Y-81874132D01*
X101489432Y-81932733D01*
X101489433Y-81932736D01*
X101619953Y-82119140D01*
X101780859Y-82280046D01*
X101967264Y-82410567D01*
X101967265Y-82410567D01*
X101967266Y-82410568D01*
X102173504Y-82506739D01*
X102393308Y-82565635D01*
X102620000Y-82585468D01*
X102846692Y-82565635D01*
X103066496Y-82506739D01*
X103272734Y-82410568D01*
X103459139Y-82280047D01*
X103620047Y-82119139D01*
X103750568Y-81932734D01*
X103777618Y-81874724D01*
X103823790Y-81822285D01*
X103890983Y-81803133D01*
X103957865Y-81823348D01*
X104002382Y-81874725D01*
X104029431Y-81932733D01*
X104159953Y-82119140D01*
X104320859Y-82280046D01*
X104507264Y-82410567D01*
X104507265Y-82410567D01*
X104507266Y-82410568D01*
X104713504Y-82506739D01*
X104933308Y-82565635D01*
X105160000Y-82585468D01*
X105386692Y-82565635D01*
X105606496Y-82506739D01*
X105812734Y-82410568D01*
X105999139Y-82280047D01*
X106160047Y-82119139D01*
X106290568Y-81932734D01*
X106317618Y-81874724D01*
X106363790Y-81822285D01*
X106430983Y-81803133D01*
X106497865Y-81823348D01*
X106542382Y-81874725D01*
X106569431Y-81932733D01*
X106699953Y-82119140D01*
X106860859Y-82280046D01*
X107047264Y-82410567D01*
X107047265Y-82410567D01*
X107047266Y-82410568D01*
X107253504Y-82506739D01*
X107473308Y-82565635D01*
X107700000Y-82585468D01*
X107926692Y-82565635D01*
X108146496Y-82506739D01*
X108352734Y-82410568D01*
X108539139Y-82280047D01*
X108700047Y-82119139D01*
X108830568Y-81932734D01*
X108857618Y-81874724D01*
X108903790Y-81822285D01*
X108970983Y-81803133D01*
X109037865Y-81823348D01*
X109082382Y-81874725D01*
X109109431Y-81932733D01*
X109239953Y-82119140D01*
X109400859Y-82280046D01*
X109587264Y-82410567D01*
X109587265Y-82410567D01*
X109587266Y-82410568D01*
X109793504Y-82506739D01*
X110013308Y-82565635D01*
X110240000Y-82585468D01*
X110466692Y-82565635D01*
X110686496Y-82506739D01*
X110892734Y-82410568D01*
X111079139Y-82280047D01*
X111240047Y-82119139D01*
X111370568Y-81932734D01*
X111397619Y-81874721D01*
X111443788Y-81822286D01*
X111510981Y-81803133D01*
X111577862Y-81823348D01*
X111622380Y-81874722D01*
X111649432Y-81932733D01*
X111649433Y-81932736D01*
X111779953Y-82119140D01*
X111940859Y-82280046D01*
X112127264Y-82410567D01*
X112127265Y-82410567D01*
X112127266Y-82410568D01*
X112333504Y-82506739D01*
X112553308Y-82565635D01*
X112704435Y-82578856D01*
X112779999Y-82585468D01*
X112779999Y-82585467D01*
X112780000Y-82585468D01*
X113006692Y-82565635D01*
X113226496Y-82506739D01*
X113432734Y-82410568D01*
X113619139Y-82280047D01*
X113780047Y-82119139D01*
X113910568Y-81932734D01*
X113937618Y-81874724D01*
X113983790Y-81822285D01*
X114050983Y-81803133D01*
X114117865Y-81823348D01*
X114162382Y-81874725D01*
X114189431Y-81932733D01*
X114319953Y-82119140D01*
X114480859Y-82280046D01*
X114667264Y-82410567D01*
X114667265Y-82410567D01*
X114667266Y-82410568D01*
X114873504Y-82506739D01*
X115093308Y-82565635D01*
X115320000Y-82585468D01*
X115546692Y-82565635D01*
X115766496Y-82506739D01*
X115972734Y-82410568D01*
X116159139Y-82280047D01*
X116320047Y-82119139D01*
X116450568Y-81932734D01*
X116546739Y-81726496D01*
X116605635Y-81506692D01*
X116625468Y-81280000D01*
X118074531Y-81280000D01*
X118094364Y-81506689D01*
X118153261Y-81726497D01*
X118249432Y-81932735D01*
X118379953Y-82119140D01*
X118540859Y-82280046D01*
X118727264Y-82410567D01*
X118727265Y-82410567D01*
X118727266Y-82410568D01*
X118933504Y-82506739D01*
X119153308Y-82565635D01*
X119380000Y-82585468D01*
X119606692Y-82565635D01*
X119826496Y-82506739D01*
X120032734Y-82410568D01*
X120219139Y-82280047D01*
X120380047Y-82119139D01*
X120510568Y-81932734D01*
X120537618Y-81874724D01*
X120583790Y-81822285D01*
X120650983Y-81803133D01*
X120717865Y-81823348D01*
X120762382Y-81874725D01*
X120789431Y-81932733D01*
X120919953Y-82119140D01*
X121080859Y-82280046D01*
X121267264Y-82410567D01*
X121267265Y-82410567D01*
X121267266Y-82410568D01*
X121473504Y-82506739D01*
X121693308Y-82565635D01*
X121920000Y-82585468D01*
X122146692Y-82565635D01*
X122366496Y-82506739D01*
X122572734Y-82410568D01*
X122759139Y-82280047D01*
X122920047Y-82119139D01*
X123050568Y-81932734D01*
X123077618Y-81874724D01*
X123123790Y-81822285D01*
X123190983Y-81803133D01*
X123257865Y-81823348D01*
X123302382Y-81874725D01*
X123329431Y-81932733D01*
X123459953Y-82119140D01*
X123620859Y-82280046D01*
X123807264Y-82410567D01*
X123807265Y-82410567D01*
X123807266Y-82410568D01*
X124013504Y-82506739D01*
X124233308Y-82565635D01*
X124384436Y-82578856D01*
X124459999Y-82585468D01*
X124459999Y-82585467D01*
X124460000Y-82585468D01*
X124686692Y-82565635D01*
X124906496Y-82506739D01*
X125112734Y-82410568D01*
X125299139Y-82280047D01*
X125460047Y-82119139D01*
X125590568Y-81932734D01*
X125617619Y-81874721D01*
X125663788Y-81822286D01*
X125730981Y-81803133D01*
X125797862Y-81823348D01*
X125842380Y-81874722D01*
X125869432Y-81932733D01*
X125869433Y-81932736D01*
X125999953Y-82119140D01*
X126160859Y-82280046D01*
X126347264Y-82410567D01*
X126347265Y-82410567D01*
X126347266Y-82410568D01*
X126553504Y-82506739D01*
X126773308Y-82565635D01*
X127000000Y-82585468D01*
X127226692Y-82565635D01*
X127446496Y-82506739D01*
X127652734Y-82410568D01*
X127839139Y-82280047D01*
X128000047Y-82119139D01*
X128130568Y-81932734D01*
X128157619Y-81874721D01*
X128203788Y-81822286D01*
X128270981Y-81803133D01*
X128337862Y-81823348D01*
X128382380Y-81874722D01*
X128409432Y-81932733D01*
X128409433Y-81932736D01*
X128539953Y-82119140D01*
X128700859Y-82280046D01*
X128887264Y-82410567D01*
X128887265Y-82410567D01*
X128887266Y-82410568D01*
X129093504Y-82506739D01*
X129313308Y-82565635D01*
X129464436Y-82578856D01*
X129539999Y-82585468D01*
X129539999Y-82585467D01*
X129540000Y-82585468D01*
X129766692Y-82565635D01*
X129986496Y-82506739D01*
X130192734Y-82410568D01*
X130379139Y-82280047D01*
X130540047Y-82119139D01*
X130670568Y-81932734D01*
X130697618Y-81874724D01*
X130743790Y-81822285D01*
X130810983Y-81803133D01*
X130877865Y-81823348D01*
X130922382Y-81874725D01*
X130949431Y-81932733D01*
X131079953Y-82119140D01*
X131240859Y-82280046D01*
X131427264Y-82410567D01*
X131427265Y-82410567D01*
X131427266Y-82410568D01*
X131633504Y-82506739D01*
X131853308Y-82565635D01*
X132004435Y-82578857D01*
X132079999Y-82585468D01*
X132079999Y-82585467D01*
X132080000Y-82585468D01*
X132306692Y-82565635D01*
X132526496Y-82506739D01*
X132732734Y-82410568D01*
X132919139Y-82280047D01*
X133080047Y-82119139D01*
X133210568Y-81932734D01*
X133237618Y-81874724D01*
X133283790Y-81822285D01*
X133350983Y-81803133D01*
X133417865Y-81823348D01*
X133462382Y-81874725D01*
X133489431Y-81932733D01*
X133619953Y-82119140D01*
X133780859Y-82280046D01*
X133967264Y-82410567D01*
X133967265Y-82410567D01*
X133967266Y-82410568D01*
X134173504Y-82506739D01*
X134393308Y-82565635D01*
X134620000Y-82585468D01*
X134846692Y-82565635D01*
X135066496Y-82506739D01*
X135272734Y-82410568D01*
X135459139Y-82280047D01*
X135620047Y-82119139D01*
X135750568Y-81932734D01*
X135777618Y-81874724D01*
X135823790Y-81822285D01*
X135890983Y-81803133D01*
X135957865Y-81823348D01*
X136002382Y-81874725D01*
X136029431Y-81932733D01*
X136159953Y-82119140D01*
X136320859Y-82280046D01*
X136507264Y-82410567D01*
X136507265Y-82410567D01*
X136507266Y-82410568D01*
X136713504Y-82506739D01*
X136933308Y-82565635D01*
X137160000Y-82585468D01*
X137386692Y-82565635D01*
X137606496Y-82506739D01*
X137812734Y-82410568D01*
X137999139Y-82280047D01*
X138160047Y-82119139D01*
X138290568Y-81932734D01*
X138386739Y-81726496D01*
X138445635Y-81506692D01*
X138465468Y-81280000D01*
X138445635Y-81053308D01*
X138386739Y-80833504D01*
X138290568Y-80627266D01*
X138160271Y-80441180D01*
X138160046Y-80440859D01*
X137999140Y-80279953D01*
X137812735Y-80149432D01*
X137606497Y-80053261D01*
X137386689Y-79994364D01*
X137159999Y-79974531D01*
X136933310Y-79994364D01*
X136713502Y-80053261D01*
X136507264Y-80149432D01*
X136320859Y-80279953D01*
X136159953Y-80440859D01*
X136029433Y-80627263D01*
X136002382Y-80685275D01*
X135956209Y-80737714D01*
X135889015Y-80756865D01*
X135822134Y-80736649D01*
X135777618Y-80685275D01*
X135750687Y-80627522D01*
X135750568Y-80627266D01*
X135750566Y-80627263D01*
X135620046Y-80440859D01*
X135459140Y-80279953D01*
X135272735Y-80149432D01*
X135066497Y-80053261D01*
X134846689Y-79994364D01*
X134620000Y-79974531D01*
X134393310Y-79994364D01*
X134173502Y-80053261D01*
X133967264Y-80149432D01*
X133780859Y-80279953D01*
X133619953Y-80440859D01*
X133489433Y-80627263D01*
X133462382Y-80685275D01*
X133416209Y-80737714D01*
X133349015Y-80756865D01*
X133282134Y-80736649D01*
X133237618Y-80685275D01*
X133210687Y-80627522D01*
X133210568Y-80627266D01*
X133210566Y-80627263D01*
X133080046Y-80440859D01*
X132919140Y-80279953D01*
X132732735Y-80149432D01*
X132526497Y-80053261D01*
X132306689Y-79994364D01*
X132080000Y-79974531D01*
X131853310Y-79994364D01*
X131633502Y-80053261D01*
X131427264Y-80149432D01*
X131240859Y-80279953D01*
X131079953Y-80440859D01*
X130949433Y-80627263D01*
X130922382Y-80685275D01*
X130876209Y-80737714D01*
X130809015Y-80756865D01*
X130742134Y-80736649D01*
X130697618Y-80685275D01*
X130670687Y-80627522D01*
X130670568Y-80627266D01*
X130670566Y-80627263D01*
X130540046Y-80440859D01*
X130379140Y-80279953D01*
X130192735Y-80149432D01*
X129986497Y-80053261D01*
X129766689Y-79994364D01*
X129539999Y-79974531D01*
X129313310Y-79994364D01*
X129093502Y-80053261D01*
X128887264Y-80149432D01*
X128700859Y-80279953D01*
X128539953Y-80440859D01*
X128409431Y-80627266D01*
X128382380Y-80685276D01*
X128336207Y-80737714D01*
X128269013Y-80756865D01*
X128202132Y-80736648D01*
X128157617Y-80685273D01*
X128130568Y-80627266D01*
X128000046Y-80440859D01*
X127839140Y-80279953D01*
X127652735Y-80149432D01*
X127446497Y-80053261D01*
X127226689Y-79994364D01*
X127000000Y-79974531D01*
X126773310Y-79994364D01*
X126553502Y-80053261D01*
X126347264Y-80149432D01*
X126160859Y-80279953D01*
X125999953Y-80440859D01*
X125869433Y-80627263D01*
X125842382Y-80685275D01*
X125796209Y-80737714D01*
X125729015Y-80756865D01*
X125662134Y-80736649D01*
X125617618Y-80685275D01*
X125590687Y-80627522D01*
X125590568Y-80627266D01*
X125590566Y-80627263D01*
X125460046Y-80440859D01*
X125299140Y-80279953D01*
X125112735Y-80149432D01*
X124906497Y-80053261D01*
X124686689Y-79994364D01*
X124459999Y-79974531D01*
X124233310Y-79994364D01*
X124013502Y-80053261D01*
X123807264Y-80149432D01*
X123620859Y-80279953D01*
X123459953Y-80440859D01*
X123329433Y-80627263D01*
X123302382Y-80685275D01*
X123256209Y-80737714D01*
X123189015Y-80756865D01*
X123122134Y-80736649D01*
X123077618Y-80685275D01*
X123050687Y-80627522D01*
X123050568Y-80627266D01*
X123050566Y-80627263D01*
X122920046Y-80440859D01*
X122759140Y-80279953D01*
X122572735Y-80149432D01*
X122366497Y-80053261D01*
X122146689Y-79994364D01*
X121920000Y-79974531D01*
X121693310Y-79994364D01*
X121473502Y-80053261D01*
X121267264Y-80149432D01*
X121080859Y-80279953D01*
X120919953Y-80440859D01*
X120789433Y-80627263D01*
X120762382Y-80685275D01*
X120716209Y-80737714D01*
X120649015Y-80756865D01*
X120582134Y-80736649D01*
X120537618Y-80685275D01*
X120510687Y-80627522D01*
X120510568Y-80627266D01*
X120510566Y-80627263D01*
X120380046Y-80440859D01*
X120219140Y-80279953D01*
X120032735Y-80149432D01*
X119826497Y-80053261D01*
X119606689Y-79994364D01*
X119380000Y-79974531D01*
X119153310Y-79994364D01*
X118933502Y-80053261D01*
X118727264Y-80149432D01*
X118540859Y-80279953D01*
X118379953Y-80440859D01*
X118249432Y-80627264D01*
X118153261Y-80833502D01*
X118094364Y-81053310D01*
X118074531Y-81280000D01*
X116625468Y-81280000D01*
X116605635Y-81053308D01*
X116546739Y-80833504D01*
X116450568Y-80627266D01*
X116320271Y-80441180D01*
X116320046Y-80440859D01*
X116159140Y-80279953D01*
X115972735Y-80149432D01*
X115766497Y-80053261D01*
X115546689Y-79994364D01*
X115320000Y-79974531D01*
X115093310Y-79994364D01*
X114873502Y-80053261D01*
X114667264Y-80149432D01*
X114480859Y-80279953D01*
X114319953Y-80440859D01*
X114189433Y-80627263D01*
X114162382Y-80685275D01*
X114116209Y-80737714D01*
X114049015Y-80756865D01*
X113982134Y-80736649D01*
X113937618Y-80685275D01*
X113910687Y-80627522D01*
X113910568Y-80627266D01*
X113910566Y-80627263D01*
X113780046Y-80440859D01*
X113619140Y-80279953D01*
X113432735Y-80149432D01*
X113226497Y-80053261D01*
X113006689Y-79994364D01*
X112779999Y-79974531D01*
X112553310Y-79994364D01*
X112333502Y-80053261D01*
X112127264Y-80149432D01*
X111940859Y-80279953D01*
X111779953Y-80440859D01*
X111649433Y-80627263D01*
X111622382Y-80685275D01*
X111576209Y-80737714D01*
X111509015Y-80756865D01*
X111442134Y-80736649D01*
X111397618Y-80685275D01*
X111370687Y-80627522D01*
X111370568Y-80627266D01*
X111370566Y-80627263D01*
X111240046Y-80440859D01*
X111079140Y-80279953D01*
X110892735Y-80149432D01*
X110686497Y-80053261D01*
X110466689Y-79994364D01*
X110240000Y-79974531D01*
X110013310Y-79994364D01*
X109793502Y-80053261D01*
X109587264Y-80149432D01*
X109400859Y-80279953D01*
X109239953Y-80440859D01*
X109109433Y-80627263D01*
X109082382Y-80685275D01*
X109036209Y-80737714D01*
X108969015Y-80756865D01*
X108902134Y-80736649D01*
X108857618Y-80685275D01*
X108830687Y-80627522D01*
X108830568Y-80627266D01*
X108830566Y-80627263D01*
X108700046Y-80440859D01*
X108539140Y-80279953D01*
X108352735Y-80149432D01*
X108146497Y-80053261D01*
X107926689Y-79994364D01*
X107700000Y-79974531D01*
X107473310Y-79994364D01*
X107253502Y-80053261D01*
X107047264Y-80149432D01*
X106860859Y-80279953D01*
X106699953Y-80440859D01*
X106569433Y-80627263D01*
X106542382Y-80685275D01*
X106496209Y-80737714D01*
X106429015Y-80756865D01*
X106362134Y-80736649D01*
X106317618Y-80685275D01*
X106290687Y-80627522D01*
X106290568Y-80627266D01*
X106290566Y-80627263D01*
X106160046Y-80440859D01*
X105999140Y-80279953D01*
X105812735Y-80149432D01*
X105606497Y-80053261D01*
X105386689Y-79994364D01*
X105159999Y-79974531D01*
X104933310Y-79994364D01*
X104713502Y-80053261D01*
X104507264Y-80149432D01*
X104320859Y-80279953D01*
X104159953Y-80440859D01*
X104029431Y-80627266D01*
X104002380Y-80685276D01*
X103956207Y-80737714D01*
X103889013Y-80756865D01*
X103822132Y-80736648D01*
X103777617Y-80685273D01*
X103750568Y-80627266D01*
X103620046Y-80440859D01*
X103459140Y-80279953D01*
X103272735Y-80149432D01*
X103066497Y-80053261D01*
X102846689Y-79994364D01*
X102620000Y-79974531D01*
X102393310Y-79994364D01*
X102173502Y-80053261D01*
X101967264Y-80149432D01*
X101780859Y-80279953D01*
X101619953Y-80440859D01*
X101489430Y-80627267D01*
X101462105Y-80685866D01*
X101415932Y-80738305D01*
X101348739Y-80757456D01*
X101281858Y-80737239D01*
X101237342Y-80685865D01*
X101210134Y-80627519D01*
X101079658Y-80441180D01*
X100918819Y-80280341D01*
X100732480Y-80149865D01*
X100526326Y-80053733D01*
X100330000Y-80001126D01*
X100330000Y-80844498D01*
X100222315Y-80795320D01*
X100115763Y-80780000D01*
X100044237Y-80780000D01*
X99937685Y-80795320D01*
X99830000Y-80844498D01*
X99830000Y-80001127D01*
X99829999Y-80001126D01*
X99633673Y-80053733D01*
X99427519Y-80149865D01*
X99241180Y-80280341D01*
X99080341Y-80441180D01*
X98949863Y-80627522D01*
X98922656Y-80685866D01*
X98876483Y-80738305D01*
X98809290Y-80757456D01*
X98742409Y-80737239D01*
X98697893Y-80685865D01*
X98697618Y-80685276D01*
X98670568Y-80627266D01*
X98540271Y-80441180D01*
X98540046Y-80440859D01*
X98379140Y-80279953D01*
X98192735Y-80149432D01*
X97986497Y-80053261D01*
X97766689Y-79994364D01*
X97539999Y-79974531D01*
X97313310Y-79994364D01*
X97093502Y-80053261D01*
X96887264Y-80149432D01*
X96700859Y-80279953D01*
X96539953Y-80440859D01*
X96409433Y-80627263D01*
X96382382Y-80685275D01*
X96336209Y-80737714D01*
X96269015Y-80756865D01*
X96202134Y-80736649D01*
X96157618Y-80685275D01*
X96130687Y-80627522D01*
X96130568Y-80627266D01*
X96130566Y-80627263D01*
X96000046Y-80440859D01*
X95839140Y-80279953D01*
X95652735Y-80149432D01*
X95446497Y-80053261D01*
X95226689Y-79994364D01*
X95000000Y-79974531D01*
X94773310Y-79994364D01*
X94553502Y-80053261D01*
X94347264Y-80149432D01*
X94160859Y-80279953D01*
X93999953Y-80440859D01*
X93869433Y-80627263D01*
X93842382Y-80685275D01*
X93796209Y-80737714D01*
X93729015Y-80756865D01*
X93662134Y-80736649D01*
X93617618Y-80685275D01*
X93590687Y-80627522D01*
X93590568Y-80627266D01*
X93590566Y-80627263D01*
X93460046Y-80440859D01*
X93299140Y-80279953D01*
X93112735Y-80149432D01*
X92906497Y-80053261D01*
X92686689Y-79994364D01*
X92459999Y-79974531D01*
X92233310Y-79994364D01*
X92013502Y-80053261D01*
X91807264Y-80149432D01*
X91620859Y-80279953D01*
X91459953Y-80440859D01*
X91329432Y-80627264D01*
X91233261Y-80833502D01*
X91174364Y-81053310D01*
X91154531Y-81280000D01*
X63500500Y-81280000D01*
X63500500Y-33864578D01*
X100299500Y-33864578D01*
X100299501Y-33867872D01*
X100299853Y-33871152D01*
X100299854Y-33871159D01*
X100305909Y-33927483D01*
X100356204Y-34062331D01*
X100442454Y-34177546D01*
X100557669Y-34263796D01*
X100692517Y-34314091D01*
X100752127Y-34320500D01*
X102447872Y-34320499D01*
X102507483Y-34314091D01*
X102642331Y-34263796D01*
X102757546Y-34177546D01*
X102843796Y-34062331D01*
X102894091Y-33927483D01*
X102897862Y-33892404D01*
X102924598Y-33827856D01*
X102981989Y-33788006D01*
X103051814Y-33785511D01*
X103111904Y-33821162D01*
X103122726Y-33834537D01*
X103139953Y-33859140D01*
X103300859Y-34020046D01*
X103487264Y-34150567D01*
X103487265Y-34150567D01*
X103487266Y-34150568D01*
X103693504Y-34246739D01*
X103913308Y-34305635D01*
X104064436Y-34318856D01*
X104139999Y-34325468D01*
X104139999Y-34325467D01*
X104140000Y-34325468D01*
X104366692Y-34305635D01*
X104586496Y-34246739D01*
X104792734Y-34150568D01*
X104979139Y-34020047D01*
X105140047Y-33859139D01*
X105270568Y-33672734D01*
X105297618Y-33614724D01*
X105343790Y-33562285D01*
X105410983Y-33543133D01*
X105477865Y-33563348D01*
X105522382Y-33614725D01*
X105549431Y-33672733D01*
X105679953Y-33859140D01*
X105840859Y-34020046D01*
X106027264Y-34150567D01*
X106027265Y-34150567D01*
X106027266Y-34150568D01*
X106233504Y-34246739D01*
X106453308Y-34305635D01*
X106680000Y-34325468D01*
X106906692Y-34305635D01*
X107126496Y-34246739D01*
X107332734Y-34150568D01*
X107519139Y-34020047D01*
X107680047Y-33859139D01*
X107810568Y-33672734D01*
X107837618Y-33614724D01*
X107883790Y-33562285D01*
X107950983Y-33543133D01*
X108017865Y-33563348D01*
X108062382Y-33614725D01*
X108089431Y-33672733D01*
X108219953Y-33859140D01*
X108380859Y-34020046D01*
X108567264Y-34150567D01*
X108567265Y-34150567D01*
X108567266Y-34150568D01*
X108773504Y-34246739D01*
X108993308Y-34305635D01*
X109220000Y-34325468D01*
X109446692Y-34305635D01*
X109666496Y-34246739D01*
X109872734Y-34150568D01*
X110059139Y-34020047D01*
X110220047Y-33859139D01*
X110350568Y-33672734D01*
X110377618Y-33614724D01*
X110423790Y-33562285D01*
X110490983Y-33543133D01*
X110557865Y-33563348D01*
X110602382Y-33614725D01*
X110629431Y-33672733D01*
X110759953Y-33859140D01*
X110920859Y-34020046D01*
X111107264Y-34150567D01*
X111107265Y-34150567D01*
X111107266Y-34150568D01*
X111313504Y-34246739D01*
X111533308Y-34305635D01*
X111760000Y-34325468D01*
X111986692Y-34305635D01*
X112206496Y-34246739D01*
X112412734Y-34150568D01*
X112599139Y-34020047D01*
X112760047Y-33859139D01*
X112890568Y-33672734D01*
X112917893Y-33614134D01*
X112964065Y-33561695D01*
X113031258Y-33542543D01*
X113098139Y-33562758D01*
X113142657Y-33614133D01*
X113169866Y-33672482D01*
X113300341Y-33858819D01*
X113461180Y-34019658D01*
X113647519Y-34150134D01*
X113853673Y-34246266D01*
X114049999Y-34298871D01*
X114050000Y-34298871D01*
X114050000Y-33455501D01*
X114157685Y-33504680D01*
X114264237Y-33520000D01*
X114335763Y-33520000D01*
X114442315Y-33504680D01*
X114550000Y-33455501D01*
X114550000Y-34298871D01*
X114746326Y-34246266D01*
X114952480Y-34150134D01*
X115138819Y-34019658D01*
X115299658Y-33858819D01*
X115430135Y-33672479D01*
X115457618Y-33613543D01*
X115503790Y-33561103D01*
X115570983Y-33541951D01*
X115637864Y-33562166D01*
X115682382Y-33613543D01*
X115709864Y-33672479D01*
X115840341Y-33858819D01*
X116001180Y-34019658D01*
X116187519Y-34150134D01*
X116393673Y-34246266D01*
X116589999Y-34298871D01*
X116590000Y-34298871D01*
X116590000Y-33455501D01*
X116697685Y-33504680D01*
X116804237Y-33520000D01*
X116875763Y-33520000D01*
X116982315Y-33504680D01*
X117090000Y-33455501D01*
X117090000Y-34298871D01*
X117286326Y-34246266D01*
X117492480Y-34150134D01*
X117678819Y-34019658D01*
X117839658Y-33858819D01*
X117970135Y-33672479D01*
X117997342Y-33614135D01*
X118043514Y-33561695D01*
X118110707Y-33542543D01*
X118177589Y-33562758D01*
X118222105Y-33614132D01*
X118249432Y-33672733D01*
X118249433Y-33672736D01*
X118379953Y-33859140D01*
X118540859Y-34020046D01*
X118727264Y-34150567D01*
X118727265Y-34150567D01*
X118727266Y-34150568D01*
X118933504Y-34246739D01*
X119153308Y-34305635D01*
X119380000Y-34325468D01*
X119606692Y-34305635D01*
X119826496Y-34246739D01*
X120032734Y-34150568D01*
X120219139Y-34020047D01*
X120380047Y-33859139D01*
X120510568Y-33672734D01*
X120606739Y-33466496D01*
X120665635Y-33246692D01*
X120685468Y-33020000D01*
X123154531Y-33020000D01*
X123174364Y-33246689D01*
X123233261Y-33466497D01*
X123329432Y-33672735D01*
X123459953Y-33859140D01*
X123620859Y-34020046D01*
X123807264Y-34150567D01*
X123807265Y-34150567D01*
X123807266Y-34150568D01*
X124013504Y-34246739D01*
X124233308Y-34305635D01*
X124384436Y-34318856D01*
X124459999Y-34325468D01*
X124459999Y-34325467D01*
X124460000Y-34325468D01*
X124686692Y-34305635D01*
X124906496Y-34246739D01*
X125112734Y-34150568D01*
X125299139Y-34020047D01*
X125460047Y-33859139D01*
X125590568Y-33672734D01*
X125617619Y-33614721D01*
X125663788Y-33562286D01*
X125730981Y-33543133D01*
X125797862Y-33563348D01*
X125842380Y-33614722D01*
X125869432Y-33672733D01*
X125869433Y-33672736D01*
X125999953Y-33859140D01*
X126160859Y-34020046D01*
X126347264Y-34150567D01*
X126347265Y-34150567D01*
X126347266Y-34150568D01*
X126553504Y-34246739D01*
X126773308Y-34305635D01*
X127000000Y-34325468D01*
X127226692Y-34305635D01*
X127446496Y-34246739D01*
X127652734Y-34150568D01*
X127839139Y-34020047D01*
X128000047Y-33859139D01*
X128130568Y-33672734D01*
X128157619Y-33614721D01*
X128203788Y-33562286D01*
X128270981Y-33543133D01*
X128337862Y-33563348D01*
X128382380Y-33614722D01*
X128409432Y-33672733D01*
X128409433Y-33672736D01*
X128539953Y-33859140D01*
X128700859Y-34020046D01*
X128887264Y-34150567D01*
X128887265Y-34150567D01*
X128887266Y-34150568D01*
X129093504Y-34246739D01*
X129313308Y-34305635D01*
X129540000Y-34325468D01*
X129766692Y-34305635D01*
X129986496Y-34246739D01*
X130192734Y-34150568D01*
X130379139Y-34020047D01*
X130540047Y-33859139D01*
X130670568Y-33672734D01*
X130697618Y-33614724D01*
X130743790Y-33562285D01*
X130810983Y-33543133D01*
X130877865Y-33563348D01*
X130922382Y-33614725D01*
X130949431Y-33672733D01*
X131079953Y-33859140D01*
X131240859Y-34020046D01*
X131427264Y-34150567D01*
X131427265Y-34150567D01*
X131427266Y-34150568D01*
X131633504Y-34246739D01*
X131853308Y-34305635D01*
X132080000Y-34325468D01*
X132306692Y-34305635D01*
X132526496Y-34246739D01*
X132732734Y-34150568D01*
X132919139Y-34020047D01*
X133080047Y-33859139D01*
X133210568Y-33672734D01*
X133237618Y-33614724D01*
X133283790Y-33562285D01*
X133350983Y-33543133D01*
X133417865Y-33563348D01*
X133462382Y-33614725D01*
X133489431Y-33672733D01*
X133619953Y-33859140D01*
X133780859Y-34020046D01*
X133967264Y-34150567D01*
X133967265Y-34150567D01*
X133967266Y-34150568D01*
X134173504Y-34246739D01*
X134393308Y-34305635D01*
X134544436Y-34318856D01*
X134619999Y-34325468D01*
X134619999Y-34325467D01*
X134620000Y-34325468D01*
X134846692Y-34305635D01*
X135066496Y-34246739D01*
X135272734Y-34150568D01*
X135459139Y-34020047D01*
X135620047Y-33859139D01*
X135750568Y-33672734D01*
X135777618Y-33614724D01*
X135823790Y-33562285D01*
X135890983Y-33543133D01*
X135957865Y-33563348D01*
X136002382Y-33614725D01*
X136029431Y-33672733D01*
X136159953Y-33859140D01*
X136320859Y-34020046D01*
X136507264Y-34150567D01*
X136507265Y-34150567D01*
X136507266Y-34150568D01*
X136713504Y-34246739D01*
X136933308Y-34305635D01*
X137160000Y-34325468D01*
X137386692Y-34305635D01*
X137606496Y-34246739D01*
X137812734Y-34150568D01*
X137999139Y-34020047D01*
X138160047Y-33859139D01*
X138290568Y-33672734D01*
X138386739Y-33466496D01*
X138445635Y-33246692D01*
X138465468Y-33020000D01*
X138445635Y-32793308D01*
X138386739Y-32573504D01*
X138290568Y-32367266D01*
X138212856Y-32256280D01*
X138160046Y-32180859D01*
X137999140Y-32019953D01*
X137812735Y-31889432D01*
X137606497Y-31793261D01*
X137386689Y-31734364D01*
X137159999Y-31714531D01*
X136933310Y-31734364D01*
X136713502Y-31793261D01*
X136507264Y-31889432D01*
X136320859Y-32019953D01*
X136159953Y-32180859D01*
X136029433Y-32367263D01*
X136002382Y-32425275D01*
X135956209Y-32477714D01*
X135889015Y-32496865D01*
X135822134Y-32476649D01*
X135777618Y-32425275D01*
X135750687Y-32367522D01*
X135750568Y-32367266D01*
X135750566Y-32367263D01*
X135620046Y-32180859D01*
X135459140Y-32019953D01*
X135272735Y-31889432D01*
X135066497Y-31793261D01*
X134846689Y-31734364D01*
X134620000Y-31714531D01*
X134393310Y-31734364D01*
X134173502Y-31793261D01*
X133967264Y-31889432D01*
X133780859Y-32019953D01*
X133619953Y-32180859D01*
X133489433Y-32367263D01*
X133462382Y-32425275D01*
X133416209Y-32477714D01*
X133349015Y-32496865D01*
X133282134Y-32476649D01*
X133237618Y-32425275D01*
X133210687Y-32367522D01*
X133210568Y-32367266D01*
X133210566Y-32367263D01*
X133080046Y-32180859D01*
X132919140Y-32019953D01*
X132732735Y-31889432D01*
X132526497Y-31793261D01*
X132306689Y-31734364D01*
X132080000Y-31714531D01*
X131853310Y-31734364D01*
X131633502Y-31793261D01*
X131427264Y-31889432D01*
X131240859Y-32019953D01*
X131079953Y-32180859D01*
X130949433Y-32367263D01*
X130922382Y-32425275D01*
X130876209Y-32477714D01*
X130809015Y-32496865D01*
X130742134Y-32476649D01*
X130697618Y-32425275D01*
X130670687Y-32367522D01*
X130670568Y-32367266D01*
X130670566Y-32367263D01*
X130540046Y-32180859D01*
X130379140Y-32019953D01*
X130192735Y-31889432D01*
X129986497Y-31793261D01*
X129766689Y-31734364D01*
X129540000Y-31714531D01*
X129313310Y-31734364D01*
X129093502Y-31793261D01*
X128887264Y-31889432D01*
X128700859Y-32019953D01*
X128539953Y-32180859D01*
X128409431Y-32367266D01*
X128382380Y-32425276D01*
X128336207Y-32477714D01*
X128269013Y-32496865D01*
X128202132Y-32476648D01*
X128157617Y-32425273D01*
X128130568Y-32367266D01*
X128000046Y-32180859D01*
X127839140Y-32019953D01*
X127652735Y-31889432D01*
X127446497Y-31793261D01*
X127226689Y-31734364D01*
X126999999Y-31714531D01*
X126773310Y-31734364D01*
X126553502Y-31793261D01*
X126347264Y-31889432D01*
X126160859Y-32019953D01*
X125999953Y-32180859D01*
X125869433Y-32367263D01*
X125842382Y-32425275D01*
X125796209Y-32477714D01*
X125729015Y-32496865D01*
X125662134Y-32476649D01*
X125617618Y-32425275D01*
X125590687Y-32367522D01*
X125590568Y-32367266D01*
X125590566Y-32367263D01*
X125460046Y-32180859D01*
X125299140Y-32019953D01*
X125112735Y-31889432D01*
X124906497Y-31793261D01*
X124686689Y-31734364D01*
X124460000Y-31714531D01*
X124233310Y-31734364D01*
X124013502Y-31793261D01*
X123807264Y-31889432D01*
X123620859Y-32019953D01*
X123459953Y-32180859D01*
X123329432Y-32367264D01*
X123233261Y-32573502D01*
X123174364Y-32793310D01*
X123154531Y-33020000D01*
X120685468Y-33020000D01*
X120665635Y-32793308D01*
X120606739Y-32573504D01*
X120510568Y-32367266D01*
X120432856Y-32256280D01*
X120380046Y-32180859D01*
X120219140Y-32019953D01*
X120032735Y-31889432D01*
X119826497Y-31793261D01*
X119606689Y-31734364D01*
X119380000Y-31714531D01*
X119153310Y-31734364D01*
X118933502Y-31793261D01*
X118727264Y-31889432D01*
X118540859Y-32019953D01*
X118379953Y-32180859D01*
X118249430Y-32367267D01*
X118222105Y-32425866D01*
X118175932Y-32478305D01*
X118108739Y-32497456D01*
X118041858Y-32477239D01*
X117997342Y-32425865D01*
X117970134Y-32367519D01*
X117839658Y-32181180D01*
X117678819Y-32020341D01*
X117492480Y-31889865D01*
X117286326Y-31793733D01*
X117090000Y-31741126D01*
X117090000Y-32584498D01*
X116982315Y-32535320D01*
X116875763Y-32520000D01*
X116804237Y-32520000D01*
X116697685Y-32535320D01*
X116590000Y-32584498D01*
X116590000Y-31741126D01*
X116589999Y-31741126D01*
X116393673Y-31793733D01*
X116187519Y-31889865D01*
X116001180Y-32020341D01*
X115840341Y-32181180D01*
X115709865Y-32367519D01*
X115682382Y-32426456D01*
X115636209Y-32478895D01*
X115569015Y-32498047D01*
X115502134Y-32477831D01*
X115457618Y-32426456D01*
X115430134Y-32367519D01*
X115299658Y-32181180D01*
X115138819Y-32020341D01*
X114952480Y-31889865D01*
X114746326Y-31793733D01*
X114550000Y-31741126D01*
X114549999Y-32584498D01*
X114442315Y-32535320D01*
X114335763Y-32520000D01*
X114264237Y-32520000D01*
X114157685Y-32535320D01*
X114050000Y-32584498D01*
X114050000Y-31741126D01*
X114049999Y-31741126D01*
X113853673Y-31793733D01*
X113647519Y-31889865D01*
X113461180Y-32020341D01*
X113300341Y-32181180D01*
X113169863Y-32367522D01*
X113142656Y-32425866D01*
X113096483Y-32478305D01*
X113029290Y-32497456D01*
X112962409Y-32477239D01*
X112917893Y-32425865D01*
X112917618Y-32425276D01*
X112890568Y-32367266D01*
X112812856Y-32256280D01*
X112760046Y-32180859D01*
X112599140Y-32019953D01*
X112412735Y-31889432D01*
X112206497Y-31793261D01*
X111986689Y-31734364D01*
X111760000Y-31714531D01*
X111533310Y-31734364D01*
X111313502Y-31793261D01*
X111107264Y-31889432D01*
X110920859Y-32019953D01*
X110759953Y-32180859D01*
X110629433Y-32367263D01*
X110602382Y-32425275D01*
X110556209Y-32477714D01*
X110489015Y-32496865D01*
X110422134Y-32476649D01*
X110377618Y-32425275D01*
X110350687Y-32367522D01*
X110350568Y-32367266D01*
X110350566Y-32367263D01*
X110220046Y-32180859D01*
X110059140Y-32019953D01*
X109872735Y-31889432D01*
X109666497Y-31793261D01*
X109446689Y-31734364D01*
X109220000Y-31714531D01*
X108993310Y-31734364D01*
X108773502Y-31793261D01*
X108567264Y-31889432D01*
X108380859Y-32019953D01*
X108219953Y-32180859D01*
X108089433Y-32367263D01*
X108062382Y-32425275D01*
X108016209Y-32477714D01*
X107949015Y-32496865D01*
X107882134Y-32476649D01*
X107837618Y-32425275D01*
X107810687Y-32367522D01*
X107810568Y-32367266D01*
X107810566Y-32367263D01*
X107680046Y-32180859D01*
X107519140Y-32019953D01*
X107332735Y-31889432D01*
X107126497Y-31793261D01*
X106906689Y-31734364D01*
X106679999Y-31714531D01*
X106453310Y-31734364D01*
X106233502Y-31793261D01*
X106027264Y-31889432D01*
X105840859Y-32019953D01*
X105679953Y-32180859D01*
X105549433Y-32367263D01*
X105522382Y-32425275D01*
X105476209Y-32477714D01*
X105409015Y-32496865D01*
X105342134Y-32476649D01*
X105297618Y-32425275D01*
X105270687Y-32367522D01*
X105270568Y-32367266D01*
X105270566Y-32367263D01*
X105140046Y-32180859D01*
X104979140Y-32019953D01*
X104792735Y-31889432D01*
X104586497Y-31793261D01*
X104366689Y-31734364D01*
X104140000Y-31714531D01*
X103913310Y-31734364D01*
X103693502Y-31793261D01*
X103487264Y-31889432D01*
X103300859Y-32019953D01*
X103139951Y-32180861D01*
X103122725Y-32205463D01*
X103068148Y-32249088D01*
X102998649Y-32256280D01*
X102936295Y-32224757D01*
X102900882Y-32164527D01*
X102897861Y-32147592D01*
X102894091Y-32112517D01*
X102843796Y-31977669D01*
X102757546Y-31862454D01*
X102642331Y-31776204D01*
X102507483Y-31725909D01*
X102447873Y-31719500D01*
X102444550Y-31719500D01*
X100755439Y-31719500D01*
X100755420Y-31719500D01*
X100752128Y-31719501D01*
X100748848Y-31719853D01*
X100748840Y-31719854D01*
X100692515Y-31725909D01*
X100557669Y-31776204D01*
X100442454Y-31862454D01*
X100356204Y-31977668D01*
X100305910Y-32112515D01*
X100305909Y-32112517D01*
X100299500Y-32172127D01*
X100299500Y-32175448D01*
X100299500Y-32175449D01*
X100299500Y-33864560D01*
X100299500Y-33864578D01*
X63500500Y-33864578D01*
X63500500Y-25524500D01*
X63520185Y-25457461D01*
X63572989Y-25411706D01*
X63624500Y-25400500D01*
X149735500Y-25400500D01*
X149802539Y-25420185D01*
G37*
%TD.AperFunction*%
%TD*%
M02*
