%TF.GenerationSoftware,KiCad,Pcbnew,7.0.2*%
%TF.CreationDate,2023-06-13T20:29:50-05:00*%
%TF.ProjectId,LUCES,4c554345-532e-46b6-9963-61645f706362,rev?*%
%TF.SameCoordinates,Original*%
%TF.FileFunction,Soldermask,Top*%
%TF.FilePolarity,Negative*%
%FSLAX46Y46*%
G04 Gerber Fmt 4.6, Leading zero omitted, Abs format (unit mm)*
G04 Created by KiCad (PCBNEW 7.0.2) date 2023-06-13 20:29:50*
%MOMM*%
%LPD*%
G01*
G04 APERTURE LIST*
G04 Aperture macros list*
%AMRoundRect*
0 Rectangle with rounded corners*
0 $1 Rounding radius*
0 $2 $3 $4 $5 $6 $7 $8 $9 X,Y pos of 4 corners*
0 Add a 4 corners polygon primitive as box body*
4,1,4,$2,$3,$4,$5,$6,$7,$8,$9,$2,$3,0*
0 Add four circle primitives for the rounded corners*
1,1,$1+$1,$2,$3*
1,1,$1+$1,$4,$5*
1,1,$1+$1,$6,$7*
1,1,$1+$1,$8,$9*
0 Add four rect primitives between the rounded corners*
20,1,$1+$1,$2,$3,$4,$5,0*
20,1,$1+$1,$4,$5,$6,$7,0*
20,1,$1+$1,$6,$7,$8,$9,0*
20,1,$1+$1,$8,$9,$2,$3,0*%
G04 Aperture macros list end*
%ADD10R,1.600000X1.600000*%
%ADD11O,1.600000X1.600000*%
%ADD12RoundRect,0.250000X0.550000X0.550000X-0.550000X0.550000X-0.550000X-0.550000X0.550000X-0.550000X0*%
%ADD13C,1.600000*%
%ADD14O,1.400000X1.400000*%
%ADD15C,1.400000*%
%ADD16RoundRect,0.250000X-0.550000X-0.550000X0.550000X-0.550000X0.550000X0.550000X-0.550000X0.550000X0*%
%ADD17R,3.500000X3.500000*%
%ADD18RoundRect,0.750000X0.750000X1.000000X-0.750000X1.000000X-0.750000X-1.000000X0.750000X-1.000000X0*%
%ADD19RoundRect,0.875000X0.875000X0.875000X-0.875000X0.875000X-0.875000X-0.875000X0.875000X-0.875000X0*%
%ADD20C,1.800000*%
%ADD21C,1.524000*%
G04 APERTURE END LIST*
D10*
%TO.C,A1*%
X101600000Y-33020000D03*
D11*
X104140000Y-33020000D03*
X106680000Y-33020000D03*
X109220000Y-33020000D03*
X111760000Y-33020000D03*
X114300000Y-33020000D03*
X116840000Y-33020000D03*
X119380000Y-33020000D03*
X124460000Y-33020000D03*
X127000000Y-33020000D03*
X129540000Y-33020000D03*
X132080000Y-33020000D03*
X134620000Y-33020000D03*
X137160000Y-33020000D03*
X137160000Y-81280000D03*
X134620000Y-81280000D03*
X132080000Y-81280000D03*
X129540000Y-81280000D03*
X127000000Y-81280000D03*
X124460000Y-81280000D03*
X121920000Y-81280000D03*
X119380000Y-81280000D03*
X115320000Y-81280000D03*
X112780000Y-81280000D03*
X110240000Y-81280000D03*
X107700000Y-81280000D03*
X105160000Y-81280000D03*
X102620000Y-81280000D03*
X100080000Y-81280000D03*
X97540000Y-81280000D03*
X95000000Y-81280000D03*
X92460000Y-81280000D03*
%TD*%
D12*
%TO.C,D1*%
X115360000Y-124460000D03*
D13*
X111760000Y-124460000D03*
X108160000Y-124460000D03*
X104560000Y-124460000D03*
%TD*%
D14*
%TO.C,R2*%
X124460000Y-114300000D03*
D15*
X129540000Y-114300000D03*
%TD*%
D16*
%TO.C,D2*%
X128900000Y-121920000D03*
D13*
X132500000Y-121920000D03*
X136100000Y-121920000D03*
X139700000Y-121920000D03*
%TD*%
D17*
%TO.C,J1*%
X131160000Y-91440000D03*
D18*
X137160000Y-91440000D03*
D19*
X134160000Y-86740000D03*
%TD*%
D10*
%TO.C,C2*%
X114300000Y-111760000D03*
D13*
X114300000Y-113760000D03*
%TD*%
D20*
%TO.C,BluetoothHC1*%
X87757000Y-88900000D03*
X85217000Y-88900000D03*
X82677000Y-88900000D03*
X80137000Y-88900000D03*
X77597000Y-88900000D03*
X75057000Y-88900000D03*
%TD*%
D16*
%TO.C,BT1*%
X107950000Y-90170000D03*
D13*
X111550000Y-90170000D03*
%TD*%
D14*
%TO.C,R3*%
X139700000Y-114300000D03*
D15*
X139700000Y-109220000D03*
%TD*%
D16*
%TO.C,SW1*%
X129960000Y-101600000D03*
D13*
X133560000Y-101600000D03*
X137160000Y-101600000D03*
%TD*%
D21*
%TO.C,U1*%
X102870000Y-106680000D03*
X102870000Y-104140000D03*
X102870000Y-101600000D03*
X102870000Y-99060000D03*
X102870000Y-96520000D03*
X102870000Y-93980000D03*
%TD*%
D10*
%TO.C,C1*%
X101600000Y-111760000D03*
D13*
X101600000Y-113760000D03*
%TD*%
M02*
