%TF.GenerationSoftware,KiCad,Pcbnew,7.0.2*%
%TF.CreationDate,2023-06-13T20:29:50-05:00*%
%TF.ProjectId,LUCES,4c554345-532e-46b6-9963-61645f706362,rev?*%
%TF.SameCoordinates,Original*%
%TF.FileFunction,Legend,Top*%
%TF.FilePolarity,Positive*%
%FSLAX46Y46*%
G04 Gerber Fmt 4.6, Leading zero omitted, Abs format (unit mm)*
G04 Created by KiCad (PCBNEW 7.0.2) date 2023-06-13 20:29:50*
%MOMM*%
%LPD*%
G01*
G04 APERTURE LIST*
%ADD10C,0.150000*%
%ADD11C,0.100000*%
%ADD12C,0.120000*%
G04 APERTURE END LIST*
D10*
%TO.C,A1*%
X102155714Y-29386904D02*
X102631904Y-29386904D01*
X102060476Y-29672619D02*
X102393809Y-28672619D01*
X102393809Y-28672619D02*
X102727142Y-29672619D01*
X103584285Y-29672619D02*
X103012857Y-29672619D01*
X103298571Y-29672619D02*
X103298571Y-28672619D01*
X103298571Y-28672619D02*
X103203333Y-28815476D01*
X103203333Y-28815476D02*
X103108095Y-28910714D01*
X103108095Y-28910714D02*
X103012857Y-28958333D01*
%TO.C,D1*%
X109221905Y-126922619D02*
X109221905Y-125922619D01*
X109221905Y-125922619D02*
X109460000Y-125922619D01*
X109460000Y-125922619D02*
X109602857Y-125970238D01*
X109602857Y-125970238D02*
X109698095Y-126065476D01*
X109698095Y-126065476D02*
X109745714Y-126160714D01*
X109745714Y-126160714D02*
X109793333Y-126351190D01*
X109793333Y-126351190D02*
X109793333Y-126494047D01*
X109793333Y-126494047D02*
X109745714Y-126684523D01*
X109745714Y-126684523D02*
X109698095Y-126779761D01*
X109698095Y-126779761D02*
X109602857Y-126875000D01*
X109602857Y-126875000D02*
X109460000Y-126922619D01*
X109460000Y-126922619D02*
X109221905Y-126922619D01*
X110745714Y-126922619D02*
X110174286Y-126922619D01*
X110460000Y-126922619D02*
X110460000Y-125922619D01*
X110460000Y-125922619D02*
X110364762Y-126065476D01*
X110364762Y-126065476D02*
X110269524Y-126160714D01*
X110269524Y-126160714D02*
X110174286Y-126208333D01*
%TO.C,R2*%
X126833333Y-116682619D02*
X126500000Y-116206428D01*
X126261905Y-116682619D02*
X126261905Y-115682619D01*
X126261905Y-115682619D02*
X126642857Y-115682619D01*
X126642857Y-115682619D02*
X126738095Y-115730238D01*
X126738095Y-115730238D02*
X126785714Y-115777857D01*
X126785714Y-115777857D02*
X126833333Y-115873095D01*
X126833333Y-115873095D02*
X126833333Y-116015952D01*
X126833333Y-116015952D02*
X126785714Y-116111190D01*
X126785714Y-116111190D02*
X126738095Y-116158809D01*
X126738095Y-116158809D02*
X126642857Y-116206428D01*
X126642857Y-116206428D02*
X126261905Y-116206428D01*
X127214286Y-115777857D02*
X127261905Y-115730238D01*
X127261905Y-115730238D02*
X127357143Y-115682619D01*
X127357143Y-115682619D02*
X127595238Y-115682619D01*
X127595238Y-115682619D02*
X127690476Y-115730238D01*
X127690476Y-115730238D02*
X127738095Y-115777857D01*
X127738095Y-115777857D02*
X127785714Y-115873095D01*
X127785714Y-115873095D02*
X127785714Y-115968333D01*
X127785714Y-115968333D02*
X127738095Y-116111190D01*
X127738095Y-116111190D02*
X127166667Y-116682619D01*
X127166667Y-116682619D02*
X127785714Y-116682619D01*
%TO.C,D2*%
X133561905Y-120382619D02*
X133561905Y-119382619D01*
X133561905Y-119382619D02*
X133800000Y-119382619D01*
X133800000Y-119382619D02*
X133942857Y-119430238D01*
X133942857Y-119430238D02*
X134038095Y-119525476D01*
X134038095Y-119525476D02*
X134085714Y-119620714D01*
X134085714Y-119620714D02*
X134133333Y-119811190D01*
X134133333Y-119811190D02*
X134133333Y-119954047D01*
X134133333Y-119954047D02*
X134085714Y-120144523D01*
X134085714Y-120144523D02*
X134038095Y-120239761D01*
X134038095Y-120239761D02*
X133942857Y-120335000D01*
X133942857Y-120335000D02*
X133800000Y-120382619D01*
X133800000Y-120382619D02*
X133561905Y-120382619D01*
X134514286Y-119477857D02*
X134561905Y-119430238D01*
X134561905Y-119430238D02*
X134657143Y-119382619D01*
X134657143Y-119382619D02*
X134895238Y-119382619D01*
X134895238Y-119382619D02*
X134990476Y-119430238D01*
X134990476Y-119430238D02*
X135038095Y-119477857D01*
X135038095Y-119477857D02*
X135085714Y-119573095D01*
X135085714Y-119573095D02*
X135085714Y-119668333D01*
X135085714Y-119668333D02*
X135038095Y-119811190D01*
X135038095Y-119811190D02*
X134466667Y-120382619D01*
X134466667Y-120382619D02*
X135085714Y-120382619D01*
%TO.C,J1*%
X139276666Y-85152619D02*
X139276666Y-85866904D01*
X139276666Y-85866904D02*
X139229047Y-86009761D01*
X139229047Y-86009761D02*
X139133809Y-86105000D01*
X139133809Y-86105000D02*
X138990952Y-86152619D01*
X138990952Y-86152619D02*
X138895714Y-86152619D01*
X140276666Y-86152619D02*
X139705238Y-86152619D01*
X139990952Y-86152619D02*
X139990952Y-85152619D01*
X139990952Y-85152619D02*
X139895714Y-85295476D01*
X139895714Y-85295476D02*
X139800476Y-85390714D01*
X139800476Y-85390714D02*
X139705238Y-85438333D01*
%TO.C,C2*%
X118417380Y-112926666D02*
X118465000Y-112974285D01*
X118465000Y-112974285D02*
X118512619Y-113117142D01*
X118512619Y-113117142D02*
X118512619Y-113212380D01*
X118512619Y-113212380D02*
X118465000Y-113355237D01*
X118465000Y-113355237D02*
X118369761Y-113450475D01*
X118369761Y-113450475D02*
X118274523Y-113498094D01*
X118274523Y-113498094D02*
X118084047Y-113545713D01*
X118084047Y-113545713D02*
X117941190Y-113545713D01*
X117941190Y-113545713D02*
X117750714Y-113498094D01*
X117750714Y-113498094D02*
X117655476Y-113450475D01*
X117655476Y-113450475D02*
X117560238Y-113355237D01*
X117560238Y-113355237D02*
X117512619Y-113212380D01*
X117512619Y-113212380D02*
X117512619Y-113117142D01*
X117512619Y-113117142D02*
X117560238Y-112974285D01*
X117560238Y-112974285D02*
X117607857Y-112926666D01*
X117607857Y-112545713D02*
X117560238Y-112498094D01*
X117560238Y-112498094D02*
X117512619Y-112402856D01*
X117512619Y-112402856D02*
X117512619Y-112164761D01*
X117512619Y-112164761D02*
X117560238Y-112069523D01*
X117560238Y-112069523D02*
X117607857Y-112021904D01*
X117607857Y-112021904D02*
X117703095Y-111974285D01*
X117703095Y-111974285D02*
X117798333Y-111974285D01*
X117798333Y-111974285D02*
X117941190Y-112021904D01*
X117941190Y-112021904D02*
X118512619Y-112593332D01*
X118512619Y-112593332D02*
X118512619Y-111974285D01*
D11*
%TO.C,BluetoothHC1*%
X85780000Y-107241190D02*
X85637143Y-107193571D01*
X85637143Y-107193571D02*
X85589524Y-107145952D01*
X85589524Y-107145952D02*
X85541905Y-107050714D01*
X85541905Y-107050714D02*
X85541905Y-106907857D01*
X85541905Y-106907857D02*
X85589524Y-106812619D01*
X85589524Y-106812619D02*
X85637143Y-106765000D01*
X85637143Y-106765000D02*
X85732381Y-106717380D01*
X85732381Y-106717380D02*
X86113333Y-106717380D01*
X86113333Y-106717380D02*
X86113333Y-107717380D01*
X86113333Y-107717380D02*
X85780000Y-107717380D01*
X85780000Y-107717380D02*
X85684762Y-107669761D01*
X85684762Y-107669761D02*
X85637143Y-107622142D01*
X85637143Y-107622142D02*
X85589524Y-107526904D01*
X85589524Y-107526904D02*
X85589524Y-107431666D01*
X85589524Y-107431666D02*
X85637143Y-107336428D01*
X85637143Y-107336428D02*
X85684762Y-107288809D01*
X85684762Y-107288809D02*
X85780000Y-107241190D01*
X85780000Y-107241190D02*
X86113333Y-107241190D01*
X84970476Y-106717380D02*
X85065714Y-106765000D01*
X85065714Y-106765000D02*
X85113333Y-106860238D01*
X85113333Y-106860238D02*
X85113333Y-107717380D01*
X84160952Y-107384047D02*
X84160952Y-106717380D01*
X84589523Y-107384047D02*
X84589523Y-106860238D01*
X84589523Y-106860238D02*
X84541904Y-106765000D01*
X84541904Y-106765000D02*
X84446666Y-106717380D01*
X84446666Y-106717380D02*
X84303809Y-106717380D01*
X84303809Y-106717380D02*
X84208571Y-106765000D01*
X84208571Y-106765000D02*
X84160952Y-106812619D01*
X83303809Y-106765000D02*
X83399047Y-106717380D01*
X83399047Y-106717380D02*
X83589523Y-106717380D01*
X83589523Y-106717380D02*
X83684761Y-106765000D01*
X83684761Y-106765000D02*
X83732380Y-106860238D01*
X83732380Y-106860238D02*
X83732380Y-107241190D01*
X83732380Y-107241190D02*
X83684761Y-107336428D01*
X83684761Y-107336428D02*
X83589523Y-107384047D01*
X83589523Y-107384047D02*
X83399047Y-107384047D01*
X83399047Y-107384047D02*
X83303809Y-107336428D01*
X83303809Y-107336428D02*
X83256190Y-107241190D01*
X83256190Y-107241190D02*
X83256190Y-107145952D01*
X83256190Y-107145952D02*
X83732380Y-107050714D01*
X82970475Y-107384047D02*
X82589523Y-107384047D01*
X82827618Y-107717380D02*
X82827618Y-106860238D01*
X82827618Y-106860238D02*
X82779999Y-106765000D01*
X82779999Y-106765000D02*
X82684761Y-106717380D01*
X82684761Y-106717380D02*
X82589523Y-106717380D01*
X82113332Y-106717380D02*
X82208570Y-106765000D01*
X82208570Y-106765000D02*
X82256189Y-106812619D01*
X82256189Y-106812619D02*
X82303808Y-106907857D01*
X82303808Y-106907857D02*
X82303808Y-107193571D01*
X82303808Y-107193571D02*
X82256189Y-107288809D01*
X82256189Y-107288809D02*
X82208570Y-107336428D01*
X82208570Y-107336428D02*
X82113332Y-107384047D01*
X82113332Y-107384047D02*
X81970475Y-107384047D01*
X81970475Y-107384047D02*
X81875237Y-107336428D01*
X81875237Y-107336428D02*
X81827618Y-107288809D01*
X81827618Y-107288809D02*
X81779999Y-107193571D01*
X81779999Y-107193571D02*
X81779999Y-106907857D01*
X81779999Y-106907857D02*
X81827618Y-106812619D01*
X81827618Y-106812619D02*
X81875237Y-106765000D01*
X81875237Y-106765000D02*
X81970475Y-106717380D01*
X81970475Y-106717380D02*
X82113332Y-106717380D01*
X81208570Y-106717380D02*
X81303808Y-106765000D01*
X81303808Y-106765000D02*
X81351427Y-106812619D01*
X81351427Y-106812619D02*
X81399046Y-106907857D01*
X81399046Y-106907857D02*
X81399046Y-107193571D01*
X81399046Y-107193571D02*
X81351427Y-107288809D01*
X81351427Y-107288809D02*
X81303808Y-107336428D01*
X81303808Y-107336428D02*
X81208570Y-107384047D01*
X81208570Y-107384047D02*
X81065713Y-107384047D01*
X81065713Y-107384047D02*
X80970475Y-107336428D01*
X80970475Y-107336428D02*
X80922856Y-107288809D01*
X80922856Y-107288809D02*
X80875237Y-107193571D01*
X80875237Y-107193571D02*
X80875237Y-106907857D01*
X80875237Y-106907857D02*
X80922856Y-106812619D01*
X80922856Y-106812619D02*
X80970475Y-106765000D01*
X80970475Y-106765000D02*
X81065713Y-106717380D01*
X81065713Y-106717380D02*
X81208570Y-106717380D01*
X80589522Y-107384047D02*
X80208570Y-107384047D01*
X80446665Y-107717380D02*
X80446665Y-106860238D01*
X80446665Y-106860238D02*
X80399046Y-106765000D01*
X80399046Y-106765000D02*
X80303808Y-106717380D01*
X80303808Y-106717380D02*
X80208570Y-106717380D01*
X79875236Y-106717380D02*
X79875236Y-107717380D01*
X79446665Y-106717380D02*
X79446665Y-107241190D01*
X79446665Y-107241190D02*
X79494284Y-107336428D01*
X79494284Y-107336428D02*
X79589522Y-107384047D01*
X79589522Y-107384047D02*
X79732379Y-107384047D01*
X79732379Y-107384047D02*
X79827617Y-107336428D01*
X79827617Y-107336428D02*
X79875236Y-107288809D01*
X78970474Y-106717380D02*
X78970474Y-107717380D01*
X78970474Y-107241190D02*
X78399046Y-107241190D01*
X78399046Y-106717380D02*
X78399046Y-107717380D01*
X77351427Y-106812619D02*
X77399046Y-106765000D01*
X77399046Y-106765000D02*
X77541903Y-106717380D01*
X77541903Y-106717380D02*
X77637141Y-106717380D01*
X77637141Y-106717380D02*
X77779998Y-106765000D01*
X77779998Y-106765000D02*
X77875236Y-106860238D01*
X77875236Y-106860238D02*
X77922855Y-106955476D01*
X77922855Y-106955476D02*
X77970474Y-107145952D01*
X77970474Y-107145952D02*
X77970474Y-107288809D01*
X77970474Y-107288809D02*
X77922855Y-107479285D01*
X77922855Y-107479285D02*
X77875236Y-107574523D01*
X77875236Y-107574523D02*
X77779998Y-107669761D01*
X77779998Y-107669761D02*
X77637141Y-107717380D01*
X77637141Y-107717380D02*
X77541903Y-107717380D01*
X77541903Y-107717380D02*
X77399046Y-107669761D01*
X77399046Y-107669761D02*
X77351427Y-107622142D01*
X76399046Y-106717380D02*
X76970474Y-106717380D01*
X76684760Y-106717380D02*
X76684760Y-107717380D01*
X76684760Y-107717380D02*
X76779998Y-107574523D01*
X76779998Y-107574523D02*
X76875236Y-107479285D01*
X76875236Y-107479285D02*
X76970474Y-107431666D01*
D10*
%TO.C,BT1*%
X108964285Y-88108809D02*
X109107142Y-88156428D01*
X109107142Y-88156428D02*
X109154761Y-88204047D01*
X109154761Y-88204047D02*
X109202380Y-88299285D01*
X109202380Y-88299285D02*
X109202380Y-88442142D01*
X109202380Y-88442142D02*
X109154761Y-88537380D01*
X109154761Y-88537380D02*
X109107142Y-88585000D01*
X109107142Y-88585000D02*
X109011904Y-88632619D01*
X109011904Y-88632619D02*
X108630952Y-88632619D01*
X108630952Y-88632619D02*
X108630952Y-87632619D01*
X108630952Y-87632619D02*
X108964285Y-87632619D01*
X108964285Y-87632619D02*
X109059523Y-87680238D01*
X109059523Y-87680238D02*
X109107142Y-87727857D01*
X109107142Y-87727857D02*
X109154761Y-87823095D01*
X109154761Y-87823095D02*
X109154761Y-87918333D01*
X109154761Y-87918333D02*
X109107142Y-88013571D01*
X109107142Y-88013571D02*
X109059523Y-88061190D01*
X109059523Y-88061190D02*
X108964285Y-88108809D01*
X108964285Y-88108809D02*
X108630952Y-88108809D01*
X109488095Y-87632619D02*
X110059523Y-87632619D01*
X109773809Y-88632619D02*
X109773809Y-87632619D01*
X110916666Y-88632619D02*
X110345238Y-88632619D01*
X110630952Y-88632619D02*
X110630952Y-87632619D01*
X110630952Y-87632619D02*
X110535714Y-87775476D01*
X110535714Y-87775476D02*
X110440476Y-87870714D01*
X110440476Y-87870714D02*
X110345238Y-87918333D01*
%TO.C,R3*%
X144622619Y-111926666D02*
X144146428Y-112259999D01*
X144622619Y-112498094D02*
X143622619Y-112498094D01*
X143622619Y-112498094D02*
X143622619Y-112117142D01*
X143622619Y-112117142D02*
X143670238Y-112021904D01*
X143670238Y-112021904D02*
X143717857Y-111974285D01*
X143717857Y-111974285D02*
X143813095Y-111926666D01*
X143813095Y-111926666D02*
X143955952Y-111926666D01*
X143955952Y-111926666D02*
X144051190Y-111974285D01*
X144051190Y-111974285D02*
X144098809Y-112021904D01*
X144098809Y-112021904D02*
X144146428Y-112117142D01*
X144146428Y-112117142D02*
X144146428Y-112498094D01*
X143622619Y-111593332D02*
X143622619Y-110974285D01*
X143622619Y-110974285D02*
X144003571Y-111307618D01*
X144003571Y-111307618D02*
X144003571Y-111164761D01*
X144003571Y-111164761D02*
X144051190Y-111069523D01*
X144051190Y-111069523D02*
X144098809Y-111021904D01*
X144098809Y-111021904D02*
X144194047Y-110974285D01*
X144194047Y-110974285D02*
X144432142Y-110974285D01*
X144432142Y-110974285D02*
X144527380Y-111021904D01*
X144527380Y-111021904D02*
X144575000Y-111069523D01*
X144575000Y-111069523D02*
X144622619Y-111164761D01*
X144622619Y-111164761D02*
X144622619Y-111450475D01*
X144622619Y-111450475D02*
X144575000Y-111545713D01*
X144575000Y-111545713D02*
X144527380Y-111593332D01*
%TO.C,SW1*%
X132226667Y-100015000D02*
X132369524Y-100062619D01*
X132369524Y-100062619D02*
X132607619Y-100062619D01*
X132607619Y-100062619D02*
X132702857Y-100015000D01*
X132702857Y-100015000D02*
X132750476Y-99967380D01*
X132750476Y-99967380D02*
X132798095Y-99872142D01*
X132798095Y-99872142D02*
X132798095Y-99776904D01*
X132798095Y-99776904D02*
X132750476Y-99681666D01*
X132750476Y-99681666D02*
X132702857Y-99634047D01*
X132702857Y-99634047D02*
X132607619Y-99586428D01*
X132607619Y-99586428D02*
X132417143Y-99538809D01*
X132417143Y-99538809D02*
X132321905Y-99491190D01*
X132321905Y-99491190D02*
X132274286Y-99443571D01*
X132274286Y-99443571D02*
X132226667Y-99348333D01*
X132226667Y-99348333D02*
X132226667Y-99253095D01*
X132226667Y-99253095D02*
X132274286Y-99157857D01*
X132274286Y-99157857D02*
X132321905Y-99110238D01*
X132321905Y-99110238D02*
X132417143Y-99062619D01*
X132417143Y-99062619D02*
X132655238Y-99062619D01*
X132655238Y-99062619D02*
X132798095Y-99110238D01*
X133131429Y-99062619D02*
X133369524Y-100062619D01*
X133369524Y-100062619D02*
X133560000Y-99348333D01*
X133560000Y-99348333D02*
X133750476Y-100062619D01*
X133750476Y-100062619D02*
X133988572Y-99062619D01*
X134893333Y-100062619D02*
X134321905Y-100062619D01*
X134607619Y-100062619D02*
X134607619Y-99062619D01*
X134607619Y-99062619D02*
X134512381Y-99205476D01*
X134512381Y-99205476D02*
X134417143Y-99300714D01*
X134417143Y-99300714D02*
X134321905Y-99348333D01*
%TO.C,U1*%
X114067380Y-99568095D02*
X113257857Y-99568095D01*
X113257857Y-99568095D02*
X113162619Y-99615714D01*
X113162619Y-99615714D02*
X113115000Y-99663333D01*
X113115000Y-99663333D02*
X113067380Y-99758571D01*
X113067380Y-99758571D02*
X113067380Y-99949047D01*
X113067380Y-99949047D02*
X113115000Y-100044285D01*
X113115000Y-100044285D02*
X113162619Y-100091904D01*
X113162619Y-100091904D02*
X113257857Y-100139523D01*
X113257857Y-100139523D02*
X114067380Y-100139523D01*
X113067380Y-101139523D02*
X113067380Y-100568095D01*
X113067380Y-100853809D02*
X114067380Y-100853809D01*
X114067380Y-100853809D02*
X113924523Y-100758571D01*
X113924523Y-100758571D02*
X113829285Y-100663333D01*
X113829285Y-100663333D02*
X113781666Y-100568095D01*
%TO.C,C1*%
X105717380Y-112926666D02*
X105765000Y-112974285D01*
X105765000Y-112974285D02*
X105812619Y-113117142D01*
X105812619Y-113117142D02*
X105812619Y-113212380D01*
X105812619Y-113212380D02*
X105765000Y-113355237D01*
X105765000Y-113355237D02*
X105669761Y-113450475D01*
X105669761Y-113450475D02*
X105574523Y-113498094D01*
X105574523Y-113498094D02*
X105384047Y-113545713D01*
X105384047Y-113545713D02*
X105241190Y-113545713D01*
X105241190Y-113545713D02*
X105050714Y-113498094D01*
X105050714Y-113498094D02*
X104955476Y-113450475D01*
X104955476Y-113450475D02*
X104860238Y-113355237D01*
X104860238Y-113355237D02*
X104812619Y-113212380D01*
X104812619Y-113212380D02*
X104812619Y-113117142D01*
X104812619Y-113117142D02*
X104860238Y-112974285D01*
X104860238Y-112974285D02*
X104907857Y-112926666D01*
X105812619Y-111974285D02*
X105812619Y-112545713D01*
X105812619Y-112259999D02*
X104812619Y-112259999D01*
X104812619Y-112259999D02*
X104955476Y-112355237D01*
X104955476Y-112355237D02*
X105050714Y-112450475D01*
X105050714Y-112450475D02*
X105098333Y-112545713D01*
D12*
%TO.C,A1*%
X67180000Y-62740000D02*
X67180000Y-74420000D01*
X67180000Y-74420000D02*
X73530000Y-74420000D01*
X71630000Y-33530000D02*
X71630000Y-42670000D01*
X71630000Y-42670000D02*
X73530000Y-42670000D01*
X73530000Y-30350000D02*
X73530000Y-33530000D01*
X73530000Y-33530000D02*
X71630000Y-33530000D01*
X73530000Y-42670000D02*
X73530000Y-62740000D01*
X73530000Y-62740000D02*
X67180000Y-62740000D01*
X73530000Y-74420000D02*
X73530000Y-83950000D01*
X73530000Y-83950000D02*
X138180000Y-83950000D01*
X138180000Y-83950000D02*
X139830000Y-82300000D01*
X139830000Y-30350000D02*
X73530000Y-30350000D01*
X139830000Y-33020000D02*
X139830000Y-30350000D01*
X139830000Y-70870000D02*
X142370000Y-68330000D01*
X139830000Y-82300000D02*
X139830000Y-70870000D01*
X142370000Y-35560000D02*
X139830000Y-33020000D01*
X142370000Y-68330000D02*
X142370000Y-35560000D01*
%TO.C,R2*%
X128920000Y-113380000D02*
X125080000Y-113380000D01*
X128920000Y-115220000D02*
X125080000Y-115220000D01*
%TO.C,J1*%
X144960000Y-96040000D02*
X130260000Y-96040000D01*
X144960000Y-86840000D02*
X144960000Y-96040000D01*
X136160000Y-86840000D02*
X144960000Y-86840000D01*
X131110000Y-96240000D02*
X130060000Y-96240000D01*
X130260000Y-96040000D02*
X130260000Y-93440000D01*
X130260000Y-89540000D02*
X130260000Y-86840000D01*
X130260000Y-86840000D02*
X132160000Y-86840000D01*
X130060000Y-95190000D02*
X130060000Y-96240000D01*
%TO.C,C2*%
X115775000Y-109955225D02*
X115775000Y-110455225D01*
X116025000Y-110205225D02*
X115525000Y-110205225D01*
X116880000Y-112760000D02*
X115340000Y-112760000D01*
X113260000Y-112760000D02*
X111720000Y-112760000D01*
X116880000Y-112800000D02*
X115340000Y-112800000D01*
X113260000Y-112800000D02*
X111720000Y-112800000D01*
X116879000Y-112840000D02*
X115340000Y-112840000D01*
X113260000Y-112840000D02*
X111721000Y-112840000D01*
X116878000Y-112880000D02*
X115340000Y-112880000D01*
X113260000Y-112880000D02*
X111722000Y-112880000D01*
X116876000Y-112920000D02*
X115340000Y-112920000D01*
X113260000Y-112920000D02*
X111724000Y-112920000D01*
X116873000Y-112960000D02*
X115340000Y-112960000D01*
X113260000Y-112960000D02*
X111727000Y-112960000D01*
X116869000Y-113000000D02*
X115340000Y-113000000D01*
X113260000Y-113000000D02*
X111731000Y-113000000D01*
X116865000Y-113040000D02*
X115340000Y-113040000D01*
X113260000Y-113040000D02*
X111735000Y-113040000D01*
X116861000Y-113080000D02*
X115340000Y-113080000D01*
X113260000Y-113080000D02*
X111739000Y-113080000D01*
X116856000Y-113120000D02*
X115340000Y-113120000D01*
X113260000Y-113120000D02*
X111744000Y-113120000D01*
X116850000Y-113160000D02*
X115340000Y-113160000D01*
X113260000Y-113160000D02*
X111750000Y-113160000D01*
X116843000Y-113200000D02*
X115340000Y-113200000D01*
X113260000Y-113200000D02*
X111757000Y-113200000D01*
X116836000Y-113240000D02*
X115340000Y-113240000D01*
X113260000Y-113240000D02*
X111764000Y-113240000D01*
X116828000Y-113280000D02*
X115340000Y-113280000D01*
X113260000Y-113280000D02*
X111772000Y-113280000D01*
X116820000Y-113320000D02*
X115340000Y-113320000D01*
X113260000Y-113320000D02*
X111780000Y-113320000D01*
X116811000Y-113360000D02*
X115340000Y-113360000D01*
X113260000Y-113360000D02*
X111789000Y-113360000D01*
X116801000Y-113400000D02*
X115340000Y-113400000D01*
X113260000Y-113400000D02*
X111799000Y-113400000D01*
X116791000Y-113440000D02*
X115340000Y-113440000D01*
X113260000Y-113440000D02*
X111809000Y-113440000D01*
X116780000Y-113481000D02*
X115340000Y-113481000D01*
X113260000Y-113481000D02*
X111820000Y-113481000D01*
X116768000Y-113521000D02*
X115340000Y-113521000D01*
X113260000Y-113521000D02*
X111832000Y-113521000D01*
X116755000Y-113561000D02*
X115340000Y-113561000D01*
X113260000Y-113561000D02*
X111845000Y-113561000D01*
X116742000Y-113601000D02*
X115340000Y-113601000D01*
X113260000Y-113601000D02*
X111858000Y-113601000D01*
X116728000Y-113641000D02*
X115340000Y-113641000D01*
X113260000Y-113641000D02*
X111872000Y-113641000D01*
X116714000Y-113681000D02*
X115340000Y-113681000D01*
X113260000Y-113681000D02*
X111886000Y-113681000D01*
X116698000Y-113721000D02*
X115340000Y-113721000D01*
X113260000Y-113721000D02*
X111902000Y-113721000D01*
X116682000Y-113761000D02*
X115340000Y-113761000D01*
X113260000Y-113761000D02*
X111918000Y-113761000D01*
X116665000Y-113801000D02*
X115340000Y-113801000D01*
X113260000Y-113801000D02*
X111935000Y-113801000D01*
X116648000Y-113841000D02*
X115340000Y-113841000D01*
X113260000Y-113841000D02*
X111952000Y-113841000D01*
X116629000Y-113881000D02*
X115340000Y-113881000D01*
X113260000Y-113881000D02*
X111971000Y-113881000D01*
X116610000Y-113921000D02*
X115340000Y-113921000D01*
X113260000Y-113921000D02*
X111990000Y-113921000D01*
X116590000Y-113961000D02*
X115340000Y-113961000D01*
X113260000Y-113961000D02*
X112010000Y-113961000D01*
X116568000Y-114001000D02*
X115340000Y-114001000D01*
X113260000Y-114001000D02*
X112032000Y-114001000D01*
X116547000Y-114041000D02*
X115340000Y-114041000D01*
X113260000Y-114041000D02*
X112053000Y-114041000D01*
X116524000Y-114081000D02*
X115340000Y-114081000D01*
X113260000Y-114081000D02*
X112076000Y-114081000D01*
X116500000Y-114121000D02*
X115340000Y-114121000D01*
X113260000Y-114121000D02*
X112100000Y-114121000D01*
X116475000Y-114161000D02*
X115340000Y-114161000D01*
X113260000Y-114161000D02*
X112125000Y-114161000D01*
X116449000Y-114201000D02*
X115340000Y-114201000D01*
X113260000Y-114201000D02*
X112151000Y-114201000D01*
X116422000Y-114241000D02*
X115340000Y-114241000D01*
X113260000Y-114241000D02*
X112178000Y-114241000D01*
X116395000Y-114281000D02*
X115340000Y-114281000D01*
X113260000Y-114281000D02*
X112205000Y-114281000D01*
X116365000Y-114321000D02*
X115340000Y-114321000D01*
X113260000Y-114321000D02*
X112235000Y-114321000D01*
X116335000Y-114361000D02*
X115340000Y-114361000D01*
X113260000Y-114361000D02*
X112265000Y-114361000D01*
X116304000Y-114401000D02*
X115340000Y-114401000D01*
X113260000Y-114401000D02*
X112296000Y-114401000D01*
X116271000Y-114441000D02*
X115340000Y-114441000D01*
X113260000Y-114441000D02*
X112329000Y-114441000D01*
X116237000Y-114481000D02*
X115340000Y-114481000D01*
X113260000Y-114481000D02*
X112363000Y-114481000D01*
X116201000Y-114521000D02*
X115340000Y-114521000D01*
X113260000Y-114521000D02*
X112399000Y-114521000D01*
X116164000Y-114561000D02*
X115340000Y-114561000D01*
X113260000Y-114561000D02*
X112436000Y-114561000D01*
X116126000Y-114601000D02*
X115340000Y-114601000D01*
X113260000Y-114601000D02*
X112474000Y-114601000D01*
X116085000Y-114641000D02*
X115340000Y-114641000D01*
X113260000Y-114641000D02*
X112515000Y-114641000D01*
X116043000Y-114681000D02*
X115340000Y-114681000D01*
X113260000Y-114681000D02*
X112557000Y-114681000D01*
X115999000Y-114721000D02*
X115340000Y-114721000D01*
X113260000Y-114721000D02*
X112601000Y-114721000D01*
X115953000Y-114761000D02*
X115340000Y-114761000D01*
X113260000Y-114761000D02*
X112647000Y-114761000D01*
X115905000Y-114801000D02*
X112695000Y-114801000D01*
X115854000Y-114841000D02*
X112746000Y-114841000D01*
X115800000Y-114881000D02*
X112800000Y-114881000D01*
X115743000Y-114921000D02*
X112857000Y-114921000D01*
X115683000Y-114961000D02*
X112917000Y-114961000D01*
X115619000Y-115001000D02*
X112981000Y-115001000D01*
X115551000Y-115041000D02*
X113049000Y-115041000D01*
X115478000Y-115081000D02*
X113122000Y-115081000D01*
X115398000Y-115121000D02*
X113202000Y-115121000D01*
X115311000Y-115161000D02*
X113289000Y-115161000D01*
X115215000Y-115201000D02*
X113385000Y-115201000D01*
X115105000Y-115241000D02*
X113495000Y-115241000D01*
X114977000Y-115281000D02*
X113623000Y-115281000D01*
X114818000Y-115321000D02*
X113782000Y-115321000D01*
X114584000Y-115361000D02*
X114016000Y-115361000D01*
X116920000Y-112760000D02*
G75*
G03*
X116920000Y-112760000I-2620000J0D01*
G01*
D11*
%TO.C,BluetoothHC1*%
X89257000Y-124400000D02*
X73557000Y-124400000D01*
X73557000Y-124400000D02*
X73557000Y-87400000D01*
X73557000Y-87400000D02*
X89257000Y-87400000D01*
X89257000Y-87400000D02*
X89257000Y-124400000D01*
X89257000Y-124400000D02*
X73557000Y-124400000D01*
X73557000Y-124400000D02*
X73557000Y-87400000D01*
X73557000Y-87400000D02*
X89257000Y-87400000D01*
X89257000Y-87400000D02*
X89257000Y-124400000D01*
D12*
%TO.C,R3*%
X138780000Y-109840000D02*
X138780000Y-113680000D01*
X140620000Y-109840000D02*
X140620000Y-113680000D01*
%TO.C,U1*%
X127000000Y-92710000D02*
X101600000Y-92710000D01*
X101600000Y-92710000D02*
X101600000Y-107950000D01*
X101600000Y-107950000D02*
X127000000Y-107950000D01*
X127000000Y-107950000D02*
X127000000Y-92710000D01*
%TO.C,C1*%
X103075000Y-109955225D02*
X103075000Y-110455225D01*
X103325000Y-110205225D02*
X102825000Y-110205225D01*
X104180000Y-112760000D02*
X102640000Y-112760000D01*
X100560000Y-112760000D02*
X99020000Y-112760000D01*
X104180000Y-112800000D02*
X102640000Y-112800000D01*
X100560000Y-112800000D02*
X99020000Y-112800000D01*
X104179000Y-112840000D02*
X102640000Y-112840000D01*
X100560000Y-112840000D02*
X99021000Y-112840000D01*
X104178000Y-112880000D02*
X102640000Y-112880000D01*
X100560000Y-112880000D02*
X99022000Y-112880000D01*
X104176000Y-112920000D02*
X102640000Y-112920000D01*
X100560000Y-112920000D02*
X99024000Y-112920000D01*
X104173000Y-112960000D02*
X102640000Y-112960000D01*
X100560000Y-112960000D02*
X99027000Y-112960000D01*
X104169000Y-113000000D02*
X102640000Y-113000000D01*
X100560000Y-113000000D02*
X99031000Y-113000000D01*
X104165000Y-113040000D02*
X102640000Y-113040000D01*
X100560000Y-113040000D02*
X99035000Y-113040000D01*
X104161000Y-113080000D02*
X102640000Y-113080000D01*
X100560000Y-113080000D02*
X99039000Y-113080000D01*
X104156000Y-113120000D02*
X102640000Y-113120000D01*
X100560000Y-113120000D02*
X99044000Y-113120000D01*
X104150000Y-113160000D02*
X102640000Y-113160000D01*
X100560000Y-113160000D02*
X99050000Y-113160000D01*
X104143000Y-113200000D02*
X102640000Y-113200000D01*
X100560000Y-113200000D02*
X99057000Y-113200000D01*
X104136000Y-113240000D02*
X102640000Y-113240000D01*
X100560000Y-113240000D02*
X99064000Y-113240000D01*
X104128000Y-113280000D02*
X102640000Y-113280000D01*
X100560000Y-113280000D02*
X99072000Y-113280000D01*
X104120000Y-113320000D02*
X102640000Y-113320000D01*
X100560000Y-113320000D02*
X99080000Y-113320000D01*
X104111000Y-113360000D02*
X102640000Y-113360000D01*
X100560000Y-113360000D02*
X99089000Y-113360000D01*
X104101000Y-113400000D02*
X102640000Y-113400000D01*
X100560000Y-113400000D02*
X99099000Y-113400000D01*
X104091000Y-113440000D02*
X102640000Y-113440000D01*
X100560000Y-113440000D02*
X99109000Y-113440000D01*
X104080000Y-113481000D02*
X102640000Y-113481000D01*
X100560000Y-113481000D02*
X99120000Y-113481000D01*
X104068000Y-113521000D02*
X102640000Y-113521000D01*
X100560000Y-113521000D02*
X99132000Y-113521000D01*
X104055000Y-113561000D02*
X102640000Y-113561000D01*
X100560000Y-113561000D02*
X99145000Y-113561000D01*
X104042000Y-113601000D02*
X102640000Y-113601000D01*
X100560000Y-113601000D02*
X99158000Y-113601000D01*
X104028000Y-113641000D02*
X102640000Y-113641000D01*
X100560000Y-113641000D02*
X99172000Y-113641000D01*
X104014000Y-113681000D02*
X102640000Y-113681000D01*
X100560000Y-113681000D02*
X99186000Y-113681000D01*
X103998000Y-113721000D02*
X102640000Y-113721000D01*
X100560000Y-113721000D02*
X99202000Y-113721000D01*
X103982000Y-113761000D02*
X102640000Y-113761000D01*
X100560000Y-113761000D02*
X99218000Y-113761000D01*
X103965000Y-113801000D02*
X102640000Y-113801000D01*
X100560000Y-113801000D02*
X99235000Y-113801000D01*
X103948000Y-113841000D02*
X102640000Y-113841000D01*
X100560000Y-113841000D02*
X99252000Y-113841000D01*
X103929000Y-113881000D02*
X102640000Y-113881000D01*
X100560000Y-113881000D02*
X99271000Y-113881000D01*
X103910000Y-113921000D02*
X102640000Y-113921000D01*
X100560000Y-113921000D02*
X99290000Y-113921000D01*
X103890000Y-113961000D02*
X102640000Y-113961000D01*
X100560000Y-113961000D02*
X99310000Y-113961000D01*
X103868000Y-114001000D02*
X102640000Y-114001000D01*
X100560000Y-114001000D02*
X99332000Y-114001000D01*
X103847000Y-114041000D02*
X102640000Y-114041000D01*
X100560000Y-114041000D02*
X99353000Y-114041000D01*
X103824000Y-114081000D02*
X102640000Y-114081000D01*
X100560000Y-114081000D02*
X99376000Y-114081000D01*
X103800000Y-114121000D02*
X102640000Y-114121000D01*
X100560000Y-114121000D02*
X99400000Y-114121000D01*
X103775000Y-114161000D02*
X102640000Y-114161000D01*
X100560000Y-114161000D02*
X99425000Y-114161000D01*
X103749000Y-114201000D02*
X102640000Y-114201000D01*
X100560000Y-114201000D02*
X99451000Y-114201000D01*
X103722000Y-114241000D02*
X102640000Y-114241000D01*
X100560000Y-114241000D02*
X99478000Y-114241000D01*
X103695000Y-114281000D02*
X102640000Y-114281000D01*
X100560000Y-114281000D02*
X99505000Y-114281000D01*
X103665000Y-114321000D02*
X102640000Y-114321000D01*
X100560000Y-114321000D02*
X99535000Y-114321000D01*
X103635000Y-114361000D02*
X102640000Y-114361000D01*
X100560000Y-114361000D02*
X99565000Y-114361000D01*
X103604000Y-114401000D02*
X102640000Y-114401000D01*
X100560000Y-114401000D02*
X99596000Y-114401000D01*
X103571000Y-114441000D02*
X102640000Y-114441000D01*
X100560000Y-114441000D02*
X99629000Y-114441000D01*
X103537000Y-114481000D02*
X102640000Y-114481000D01*
X100560000Y-114481000D02*
X99663000Y-114481000D01*
X103501000Y-114521000D02*
X102640000Y-114521000D01*
X100560000Y-114521000D02*
X99699000Y-114521000D01*
X103464000Y-114561000D02*
X102640000Y-114561000D01*
X100560000Y-114561000D02*
X99736000Y-114561000D01*
X103426000Y-114601000D02*
X102640000Y-114601000D01*
X100560000Y-114601000D02*
X99774000Y-114601000D01*
X103385000Y-114641000D02*
X102640000Y-114641000D01*
X100560000Y-114641000D02*
X99815000Y-114641000D01*
X103343000Y-114681000D02*
X102640000Y-114681000D01*
X100560000Y-114681000D02*
X99857000Y-114681000D01*
X103299000Y-114721000D02*
X102640000Y-114721000D01*
X100560000Y-114721000D02*
X99901000Y-114721000D01*
X103253000Y-114761000D02*
X102640000Y-114761000D01*
X100560000Y-114761000D02*
X99947000Y-114761000D01*
X103205000Y-114801000D02*
X99995000Y-114801000D01*
X103154000Y-114841000D02*
X100046000Y-114841000D01*
X103100000Y-114881000D02*
X100100000Y-114881000D01*
X103043000Y-114921000D02*
X100157000Y-114921000D01*
X102983000Y-114961000D02*
X100217000Y-114961000D01*
X102919000Y-115001000D02*
X100281000Y-115001000D01*
X102851000Y-115041000D02*
X100349000Y-115041000D01*
X102778000Y-115081000D02*
X100422000Y-115081000D01*
X102698000Y-115121000D02*
X100502000Y-115121000D01*
X102611000Y-115161000D02*
X100589000Y-115161000D01*
X102515000Y-115201000D02*
X100685000Y-115201000D01*
X102405000Y-115241000D02*
X100795000Y-115241000D01*
X102277000Y-115281000D02*
X100923000Y-115281000D01*
X102118000Y-115321000D02*
X101082000Y-115321000D01*
X101884000Y-115361000D02*
X101316000Y-115361000D01*
X104220000Y-112760000D02*
G75*
G03*
X104220000Y-112760000I-2620000J0D01*
G01*
%TD*%
M02*
