%TF.GenerationSoftware,KiCad,Pcbnew,7.0.2*%
%TF.CreationDate,2023-06-13T20:29:50-05:00*%
%TF.ProjectId,LUCES,4c554345-532e-46b6-9963-61645f706362,rev?*%
%TF.SameCoordinates,Original*%
%TF.FileFunction,Copper,L2,Bot*%
%TF.FilePolarity,Positive*%
%FSLAX46Y46*%
G04 Gerber Fmt 4.6, Leading zero omitted, Abs format (unit mm)*
G04 Created by KiCad (PCBNEW 7.0.2) date 2023-06-13 20:29:50*
%MOMM*%
%LPD*%
G01*
G04 APERTURE LIST*
G04 Aperture macros list*
%AMRoundRect*
0 Rectangle with rounded corners*
0 $1 Rounding radius*
0 $2 $3 $4 $5 $6 $7 $8 $9 X,Y pos of 4 corners*
0 Add a 4 corners polygon primitive as box body*
4,1,4,$2,$3,$4,$5,$6,$7,$8,$9,$2,$3,0*
0 Add four circle primitives for the rounded corners*
1,1,$1+$1,$2,$3*
1,1,$1+$1,$4,$5*
1,1,$1+$1,$6,$7*
1,1,$1+$1,$8,$9*
0 Add four rect primitives between the rounded corners*
20,1,$1+$1,$2,$3,$4,$5,0*
20,1,$1+$1,$4,$5,$6,$7,0*
20,1,$1+$1,$6,$7,$8,$9,0*
20,1,$1+$1,$8,$9,$2,$3,0*%
G04 Aperture macros list end*
%TA.AperFunction,ComponentPad*%
%ADD10R,1.600000X1.600000*%
%TD*%
%TA.AperFunction,ComponentPad*%
%ADD11O,1.600000X1.600000*%
%TD*%
%TA.AperFunction,ComponentPad*%
%ADD12RoundRect,0.250000X0.550000X0.550000X-0.550000X0.550000X-0.550000X-0.550000X0.550000X-0.550000X0*%
%TD*%
%TA.AperFunction,ComponentPad*%
%ADD13C,1.600000*%
%TD*%
%TA.AperFunction,ComponentPad*%
%ADD14O,1.400000X1.400000*%
%TD*%
%TA.AperFunction,ComponentPad*%
%ADD15C,1.400000*%
%TD*%
%TA.AperFunction,ComponentPad*%
%ADD16RoundRect,0.250000X-0.550000X-0.550000X0.550000X-0.550000X0.550000X0.550000X-0.550000X0.550000X0*%
%TD*%
%TA.AperFunction,ComponentPad*%
%ADD17R,3.500000X3.500000*%
%TD*%
%TA.AperFunction,ComponentPad*%
%ADD18RoundRect,0.750000X0.750000X1.000000X-0.750000X1.000000X-0.750000X-1.000000X0.750000X-1.000000X0*%
%TD*%
%TA.AperFunction,ComponentPad*%
%ADD19RoundRect,0.875000X0.875000X0.875000X-0.875000X0.875000X-0.875000X-0.875000X0.875000X-0.875000X0*%
%TD*%
%TA.AperFunction,ComponentPad*%
%ADD20C,1.800000*%
%TD*%
%TA.AperFunction,ComponentPad*%
%ADD21C,1.524000*%
%TD*%
%TA.AperFunction,Conductor*%
%ADD22C,1.300000*%
%TD*%
%TA.AperFunction,Conductor*%
%ADD23C,0.900000*%
%TD*%
G04 APERTURE END LIST*
D10*
%TO.P,A1,1,NC*%
%TO.N,unconnected-(A1-NC-Pad1)*%
X101600000Y-33020000D03*
D11*
%TO.P,A1,2,IOREF*%
%TO.N,unconnected-(A1-IOREF-Pad2)*%
X104140000Y-33020000D03*
%TO.P,A1,3,~{RESET}*%
%TO.N,unconnected-(A1-~{RESET}-Pad3)*%
X106680000Y-33020000D03*
%TO.P,A1,4,3V3*%
%TO.N,unconnected-(A1-3V3-Pad4)*%
X109220000Y-33020000D03*
%TO.P,A1,5,+5V*%
%TO.N,unconnected-(A1-+5V-Pad5)*%
X111760000Y-33020000D03*
%TO.P,A1,6,GND*%
%TO.N,GND*%
X114300000Y-33020000D03*
%TO.P,A1,7,GND*%
X116840000Y-33020000D03*
%TO.P,A1,8,VIN*%
%TO.N,+5V*%
X119380000Y-33020000D03*
%TO.P,A1,9,A0*%
%TO.N,unconnected-(A1-A0-Pad9)*%
X124460000Y-33020000D03*
%TO.P,A1,10,A1*%
%TO.N,unconnected-(A1-A1-Pad10)*%
X127000000Y-33020000D03*
%TO.P,A1,11,A2*%
%TO.N,unconnected-(A1-A2-Pad11)*%
X129540000Y-33020000D03*
%TO.P,A1,12,A3*%
%TO.N,unconnected-(A1-A3-Pad12)*%
X132080000Y-33020000D03*
%TO.P,A1,13,SDA/A4*%
%TO.N,unconnected-(A1-SDA{slash}A4-Pad13)*%
X134620000Y-33020000D03*
%TO.P,A1,14,SCL/A5*%
%TO.N,unconnected-(A1-SCL{slash}A5-Pad14)*%
X137160000Y-33020000D03*
%TO.P,A1,15,D0/RX*%
%TO.N,Net-(A1-D0{slash}RX)*%
X137160000Y-81280000D03*
%TO.P,A1,16,D1/TX*%
%TO.N,Net-(A1-D1{slash}TX)*%
X134620000Y-81280000D03*
%TO.P,A1,17,D2*%
%TO.N,unconnected-(A1-D2-Pad17)*%
X132080000Y-81280000D03*
%TO.P,A1,18,D3*%
%TO.N,unconnected-(A1-D3-Pad18)*%
X129540000Y-81280000D03*
%TO.P,A1,19,D4*%
%TO.N,unconnected-(A1-D4-Pad19)*%
X127000000Y-81280000D03*
%TO.P,A1,20,D5*%
%TO.N,unconnected-(A1-D5-Pad20)*%
X124460000Y-81280000D03*
%TO.P,A1,21,D6*%
%TO.N,unconnected-(A1-D6-Pad21)*%
X121920000Y-81280000D03*
%TO.P,A1,22,D7*%
%TO.N,unconnected-(A1-D7-Pad22)*%
X119380000Y-81280000D03*
%TO.P,A1,23,D8*%
%TO.N,unconnected-(A1-D8-Pad23)*%
X115320000Y-81280000D03*
%TO.P,A1,24,D9*%
%TO.N,unconnected-(A1-D9-Pad24)*%
X112780000Y-81280000D03*
%TO.P,A1,25,D10*%
%TO.N,unconnected-(A1-D10-Pad25)*%
X110240000Y-81280000D03*
%TO.P,A1,26,D11*%
%TO.N,Net-(A1-D11)*%
X107700000Y-81280000D03*
%TO.P,A1,27,D12*%
%TO.N,Net-(A1-D12)*%
X105160000Y-81280000D03*
%TO.P,A1,28,D13*%
%TO.N,unconnected-(A1-D13-Pad28)*%
X102620000Y-81280000D03*
%TO.P,A1,29,GND*%
%TO.N,GND*%
X100080000Y-81280000D03*
%TO.P,A1,30,AREF*%
%TO.N,unconnected-(A1-AREF-Pad30)*%
X97540000Y-81280000D03*
%TO.P,A1,31,SDA/A4*%
%TO.N,unconnected-(A1-SDA{slash}A4-Pad31)*%
X95000000Y-81280000D03*
%TO.P,A1,32,SCL/A5*%
%TO.N,unconnected-(A1-SCL{slash}A5-Pad32)*%
X92460000Y-81280000D03*
%TD*%
D12*
%TO.P,D1,1,VDD*%
%TO.N,Net-(D1-VDD)*%
X115360000Y-124460000D03*
D13*
%TO.P,D1,2,DOUT*%
%TO.N,unconnected-(D1-DOUT-Pad2)*%
X111760000Y-124460000D03*
%TO.P,D1,3,VSS*%
%TO.N,GND*%
X108160000Y-124460000D03*
%TO.P,D1,4,DIN*%
%TO.N,Net-(A1-D11)*%
X104560000Y-124460000D03*
%TD*%
D14*
%TO.P,R2,2*%
%TO.N,Net-(D1-VDD)*%
X124460000Y-114300000D03*
D15*
%TO.P,R2,1*%
%TO.N,+5V*%
X129540000Y-114300000D03*
%TD*%
D16*
%TO.P,D2,1,VDD*%
%TO.N,Net-(D2-VDD)*%
X128900000Y-121920000D03*
D13*
%TO.P,D2,2,DOUT*%
%TO.N,unconnected-(D2-DOUT-Pad2)*%
X132500000Y-121920000D03*
%TO.P,D2,3,VSS*%
%TO.N,GND*%
X136100000Y-121920000D03*
%TO.P,D2,4,DIN*%
%TO.N,Net-(A1-D12)*%
X139700000Y-121920000D03*
%TD*%
D17*
%TO.P,J1,1*%
%TO.N,VCC*%
X131160000Y-91440000D03*
D18*
%TO.P,J1,2*%
%TO.N,GND*%
X137160000Y-91440000D03*
D19*
%TO.P,J1,3*%
X134160000Y-86740000D03*
%TD*%
D10*
%TO.P,C2,1*%
%TO.N,+5V*%
X114300000Y-111760000D03*
D13*
%TO.P,C2,2*%
%TO.N,GND*%
X114300000Y-113760000D03*
%TD*%
D20*
%TO.P,BluetoothHC1,1,STATE*%
%TO.N,unconnected-(BluetoothHC1-STATE-Pad1)*%
X87757000Y-88900000D03*
%TO.P,BluetoothHC1,2,RX*%
%TO.N,Net-(A1-D1{slash}TX)*%
X85217000Y-88900000D03*
%TO.P,BluetoothHC1,3,TX*%
%TO.N,Net-(A1-D0{slash}RX)*%
X82677000Y-88900000D03*
%TO.P,BluetoothHC1,4,GND*%
%TO.N,GND*%
X80137000Y-88900000D03*
%TO.P,BluetoothHC1,5,+5V*%
%TO.N,+5V*%
X77597000Y-88900000D03*
%TO.P,BluetoothHC1,6,EN*%
%TO.N,unconnected-(BluetoothHC1-EN-Pad6)*%
X75057000Y-88900000D03*
%TD*%
D16*
%TO.P,BT1,1,+*%
%TO.N,/bat*%
X107950000Y-90170000D03*
D13*
%TO.P,BT1,2,-*%
%TO.N,GND*%
X111550000Y-90170000D03*
%TD*%
D14*
%TO.P,R3,2*%
%TO.N,Net-(D2-VDD)*%
X139700000Y-114300000D03*
D15*
%TO.P,R3,1*%
%TO.N,+5V*%
X139700000Y-109220000D03*
%TD*%
D16*
%TO.P,SW1,1,A*%
%TO.N,GND*%
X129960000Y-101600000D03*
D13*
%TO.P,SW1,2,B*%
%TO.N,/5vout*%
X133560000Y-101600000D03*
%TO.P,SW1,3,C*%
%TO.N,+5V*%
X137160000Y-101600000D03*
%TD*%
D21*
%TO.P,U1,6,OUT-5V*%
%TO.N,/5vout*%
X102870000Y-106680000D03*
%TO.P,U1,5,GND*%
%TO.N,GND*%
X102870000Y-104140000D03*
%TO.P,U1,4,BAT*%
%TO.N,/bat*%
X102870000Y-101600000D03*
%TO.P,U1,3,GND*%
%TO.N,GND*%
X102870000Y-99060000D03*
%TO.P,U1,2,GND*%
X102870000Y-96520000D03*
%TO.P,U1,1,VIN*%
%TO.N,VCC*%
X102870000Y-93980000D03*
%TD*%
D10*
%TO.P,C1,1*%
%TO.N,+5V*%
X101600000Y-111760000D03*
D13*
%TO.P,C1,2*%
%TO.N,GND*%
X101600000Y-113760000D03*
%TD*%
D22*
%TO.N,/5vout*%
X133560000Y-105200000D02*
X133560000Y-101600000D01*
X132080000Y-106680000D02*
X133560000Y-105200000D01*
X102870000Y-106680000D02*
X132080000Y-106680000D01*
%TO.N,+5V*%
X139700000Y-109220000D02*
X139700000Y-104140000D01*
X139700000Y-104140000D02*
X137160000Y-101600000D01*
X139700000Y-109220000D02*
X129540000Y-109220000D01*
D23*
%TO.N,Net-(A1-D11)*%
X102620000Y-86360000D02*
X107700000Y-81280000D01*
X99060000Y-86360000D02*
X102620000Y-86360000D01*
X96520000Y-116420000D02*
X96520000Y-88900000D01*
X104560000Y-124460000D02*
X96520000Y-116420000D01*
X96520000Y-88900000D02*
X99060000Y-86360000D01*
%TO.N,Net-(A1-D0{slash}RX)*%
X82677000Y-77343000D02*
X83820000Y-76200000D01*
X82677000Y-88900000D02*
X82677000Y-77343000D01*
X83820000Y-76200000D02*
X132080000Y-76200000D01*
D22*
%TO.N,+5V*%
X139700000Y-73660000D02*
X147320000Y-81280000D01*
X78740000Y-73660000D02*
X139700000Y-73660000D01*
X121920000Y-111760000D02*
X124460000Y-109220000D01*
X101600000Y-111760000D02*
X114300000Y-111760000D01*
X77597000Y-88900000D02*
X77597000Y-74803000D01*
X77597000Y-74803000D02*
X78740000Y-73660000D01*
X114300000Y-111760000D02*
X121920000Y-111760000D01*
X129540000Y-109220000D02*
X129540000Y-114300000D01*
X147320000Y-81280000D02*
X147320000Y-101600000D01*
X119380000Y-33020000D02*
X119380000Y-53340000D01*
X147320000Y-101600000D02*
X139700000Y-109220000D01*
X124460000Y-109220000D02*
X129540000Y-109220000D01*
X119380000Y-53340000D02*
X139700000Y-73660000D01*
D23*
%TO.N,Net-(A1-D0{slash}RX)*%
X132080000Y-76200000D02*
X137160000Y-81280000D01*
%TO.N,Net-(A1-D1{slash}TX)*%
X132080000Y-78740000D02*
X134620000Y-81280000D01*
X85217000Y-88900000D02*
X85217000Y-82423000D01*
X85217000Y-82423000D02*
X88900000Y-78740000D01*
X88900000Y-78740000D02*
X132080000Y-78740000D01*
%TO.N,Net-(A1-D12)*%
X93980000Y-88900000D02*
X93980000Y-127000000D01*
X132530000Y-129090000D02*
X139700000Y-121920000D01*
X101266000Y-85174000D02*
X97706000Y-85174000D01*
X97706000Y-85174000D02*
X93980000Y-88900000D01*
X93980000Y-127000000D02*
X96070000Y-129090000D01*
X96070000Y-129090000D02*
X132530000Y-129090000D01*
X105160000Y-81280000D02*
X101266000Y-85174000D01*
%TO.N,Net-(D1-VDD)*%
X124460000Y-114300000D02*
X124460000Y-118960000D01*
X120860000Y-118960000D02*
X115360000Y-124460000D01*
X124460000Y-118960000D02*
X120860000Y-118960000D01*
%TO.N,Net-(D2-VDD)*%
X128900000Y-121920000D02*
X136520000Y-114300000D01*
X136520000Y-114300000D02*
X139700000Y-114300000D01*
D22*
%TO.N,/bat*%
X98850000Y-90170000D02*
X107950000Y-90170000D01*
X100120000Y-101600000D02*
X102870000Y-101600000D01*
X100120000Y-101600000D02*
X98454000Y-99934000D01*
X98454000Y-90566000D02*
X98850000Y-90170000D01*
X98454000Y-99934000D02*
X98454000Y-90566000D01*
%TO.N,VCC*%
X114300000Y-93980000D02*
X116840000Y-91440000D01*
X116840000Y-91440000D02*
X131160000Y-91440000D01*
X114300000Y-93980000D02*
X102870000Y-93980000D01*
%TD*%
M02*
