%TF.GenerationSoftware,KiCad,Pcbnew,7.0.2*%
%TF.CreationDate,2023-06-14T14:53:58-05:00*%
%TF.ProjectId,ControlRemoto,436f6e74-726f-46c5-9265-6d6f746f2e6b,rev?*%
%TF.SameCoordinates,Original*%
%TF.FileFunction,Legend,Top*%
%TF.FilePolarity,Positive*%
%FSLAX46Y46*%
G04 Gerber Fmt 4.6, Leading zero omitted, Abs format (unit mm)*
G04 Created by KiCad (PCBNEW 7.0.2) date 2023-06-14 14:53:58*
%MOMM*%
%LPD*%
G01*
G04 APERTURE LIST*
%ADD10C,0.150000*%
%ADD11C,0.100000*%
%ADD12C,0.120000*%
%ADD13C,0.127000*%
%ADD14C,0.200000*%
G04 APERTURE END LIST*
D10*
%TO.C,R4*%
X91273333Y-41272619D02*
X90940000Y-40796428D01*
X90701905Y-41272619D02*
X90701905Y-40272619D01*
X90701905Y-40272619D02*
X91082857Y-40272619D01*
X91082857Y-40272619D02*
X91178095Y-40320238D01*
X91178095Y-40320238D02*
X91225714Y-40367857D01*
X91225714Y-40367857D02*
X91273333Y-40463095D01*
X91273333Y-40463095D02*
X91273333Y-40605952D01*
X91273333Y-40605952D02*
X91225714Y-40701190D01*
X91225714Y-40701190D02*
X91178095Y-40748809D01*
X91178095Y-40748809D02*
X91082857Y-40796428D01*
X91082857Y-40796428D02*
X90701905Y-40796428D01*
X92130476Y-40605952D02*
X92130476Y-41272619D01*
X91892381Y-40225000D02*
X91654286Y-40939285D01*
X91654286Y-40939285D02*
X92273333Y-40939285D01*
%TO.C,SWRIGHT1*%
X72883810Y-45675000D02*
X73026667Y-45722619D01*
X73026667Y-45722619D02*
X73264762Y-45722619D01*
X73264762Y-45722619D02*
X73360000Y-45675000D01*
X73360000Y-45675000D02*
X73407619Y-45627380D01*
X73407619Y-45627380D02*
X73455238Y-45532142D01*
X73455238Y-45532142D02*
X73455238Y-45436904D01*
X73455238Y-45436904D02*
X73407619Y-45341666D01*
X73407619Y-45341666D02*
X73360000Y-45294047D01*
X73360000Y-45294047D02*
X73264762Y-45246428D01*
X73264762Y-45246428D02*
X73074286Y-45198809D01*
X73074286Y-45198809D02*
X72979048Y-45151190D01*
X72979048Y-45151190D02*
X72931429Y-45103571D01*
X72931429Y-45103571D02*
X72883810Y-45008333D01*
X72883810Y-45008333D02*
X72883810Y-44913095D01*
X72883810Y-44913095D02*
X72931429Y-44817857D01*
X72931429Y-44817857D02*
X72979048Y-44770238D01*
X72979048Y-44770238D02*
X73074286Y-44722619D01*
X73074286Y-44722619D02*
X73312381Y-44722619D01*
X73312381Y-44722619D02*
X73455238Y-44770238D01*
X73788572Y-44722619D02*
X74026667Y-45722619D01*
X74026667Y-45722619D02*
X74217143Y-45008333D01*
X74217143Y-45008333D02*
X74407619Y-45722619D01*
X74407619Y-45722619D02*
X74645715Y-44722619D01*
X75598095Y-45722619D02*
X75264762Y-45246428D01*
X75026667Y-45722619D02*
X75026667Y-44722619D01*
X75026667Y-44722619D02*
X75407619Y-44722619D01*
X75407619Y-44722619D02*
X75502857Y-44770238D01*
X75502857Y-44770238D02*
X75550476Y-44817857D01*
X75550476Y-44817857D02*
X75598095Y-44913095D01*
X75598095Y-44913095D02*
X75598095Y-45055952D01*
X75598095Y-45055952D02*
X75550476Y-45151190D01*
X75550476Y-45151190D02*
X75502857Y-45198809D01*
X75502857Y-45198809D02*
X75407619Y-45246428D01*
X75407619Y-45246428D02*
X75026667Y-45246428D01*
X76026667Y-45722619D02*
X76026667Y-44722619D01*
X77026666Y-44770238D02*
X76931428Y-44722619D01*
X76931428Y-44722619D02*
X76788571Y-44722619D01*
X76788571Y-44722619D02*
X76645714Y-44770238D01*
X76645714Y-44770238D02*
X76550476Y-44865476D01*
X76550476Y-44865476D02*
X76502857Y-44960714D01*
X76502857Y-44960714D02*
X76455238Y-45151190D01*
X76455238Y-45151190D02*
X76455238Y-45294047D01*
X76455238Y-45294047D02*
X76502857Y-45484523D01*
X76502857Y-45484523D02*
X76550476Y-45579761D01*
X76550476Y-45579761D02*
X76645714Y-45675000D01*
X76645714Y-45675000D02*
X76788571Y-45722619D01*
X76788571Y-45722619D02*
X76883809Y-45722619D01*
X76883809Y-45722619D02*
X77026666Y-45675000D01*
X77026666Y-45675000D02*
X77074285Y-45627380D01*
X77074285Y-45627380D02*
X77074285Y-45294047D01*
X77074285Y-45294047D02*
X76883809Y-45294047D01*
X77502857Y-45722619D02*
X77502857Y-44722619D01*
X77502857Y-45198809D02*
X78074285Y-45198809D01*
X78074285Y-45722619D02*
X78074285Y-44722619D01*
X78407619Y-44722619D02*
X78979047Y-44722619D01*
X78693333Y-45722619D02*
X78693333Y-44722619D01*
X79836190Y-45722619D02*
X79264762Y-45722619D01*
X79550476Y-45722619D02*
X79550476Y-44722619D01*
X79550476Y-44722619D02*
X79455238Y-44865476D01*
X79455238Y-44865476D02*
X79360000Y-44960714D01*
X79360000Y-44960714D02*
X79264762Y-45008333D01*
%TO.C,BT1*%
X109698809Y-37085714D02*
X109746428Y-36942857D01*
X109746428Y-36942857D02*
X109794047Y-36895238D01*
X109794047Y-36895238D02*
X109889285Y-36847619D01*
X109889285Y-36847619D02*
X110032142Y-36847619D01*
X110032142Y-36847619D02*
X110127380Y-36895238D01*
X110127380Y-36895238D02*
X110175000Y-36942857D01*
X110175000Y-36942857D02*
X110222619Y-37038095D01*
X110222619Y-37038095D02*
X110222619Y-37419047D01*
X110222619Y-37419047D02*
X109222619Y-37419047D01*
X109222619Y-37419047D02*
X109222619Y-37085714D01*
X109222619Y-37085714D02*
X109270238Y-36990476D01*
X109270238Y-36990476D02*
X109317857Y-36942857D01*
X109317857Y-36942857D02*
X109413095Y-36895238D01*
X109413095Y-36895238D02*
X109508333Y-36895238D01*
X109508333Y-36895238D02*
X109603571Y-36942857D01*
X109603571Y-36942857D02*
X109651190Y-36990476D01*
X109651190Y-36990476D02*
X109698809Y-37085714D01*
X109698809Y-37085714D02*
X109698809Y-37419047D01*
X109222619Y-36561904D02*
X109222619Y-35990476D01*
X110222619Y-36276190D02*
X109222619Y-36276190D01*
X110222619Y-35133333D02*
X110222619Y-35704761D01*
X110222619Y-35419047D02*
X109222619Y-35419047D01*
X109222619Y-35419047D02*
X109365476Y-35514285D01*
X109365476Y-35514285D02*
X109460714Y-35609523D01*
X109460714Y-35609523D02*
X109508333Y-35704761D01*
%TO.C,R5*%
X157313333Y-59052619D02*
X156980000Y-58576428D01*
X156741905Y-59052619D02*
X156741905Y-58052619D01*
X156741905Y-58052619D02*
X157122857Y-58052619D01*
X157122857Y-58052619D02*
X157218095Y-58100238D01*
X157218095Y-58100238D02*
X157265714Y-58147857D01*
X157265714Y-58147857D02*
X157313333Y-58243095D01*
X157313333Y-58243095D02*
X157313333Y-58385952D01*
X157313333Y-58385952D02*
X157265714Y-58481190D01*
X157265714Y-58481190D02*
X157218095Y-58528809D01*
X157218095Y-58528809D02*
X157122857Y-58576428D01*
X157122857Y-58576428D02*
X156741905Y-58576428D01*
X158218095Y-58052619D02*
X157741905Y-58052619D01*
X157741905Y-58052619D02*
X157694286Y-58528809D01*
X157694286Y-58528809D02*
X157741905Y-58481190D01*
X157741905Y-58481190D02*
X157837143Y-58433571D01*
X157837143Y-58433571D02*
X158075238Y-58433571D01*
X158075238Y-58433571D02*
X158170476Y-58481190D01*
X158170476Y-58481190D02*
X158218095Y-58528809D01*
X158218095Y-58528809D02*
X158265714Y-58624047D01*
X158265714Y-58624047D02*
X158265714Y-58862142D01*
X158265714Y-58862142D02*
X158218095Y-58957380D01*
X158218095Y-58957380D02*
X158170476Y-59005000D01*
X158170476Y-59005000D02*
X158075238Y-59052619D01*
X158075238Y-59052619D02*
X157837143Y-59052619D01*
X157837143Y-59052619D02*
X157741905Y-59005000D01*
X157741905Y-59005000D02*
X157694286Y-58957380D01*
%TO.C,U2*%
X89217619Y-80696904D02*
X90027142Y-80696904D01*
X90027142Y-80696904D02*
X90122380Y-80649285D01*
X90122380Y-80649285D02*
X90170000Y-80601666D01*
X90170000Y-80601666D02*
X90217619Y-80506428D01*
X90217619Y-80506428D02*
X90217619Y-80315952D01*
X90217619Y-80315952D02*
X90170000Y-80220714D01*
X90170000Y-80220714D02*
X90122380Y-80173095D01*
X90122380Y-80173095D02*
X90027142Y-80125476D01*
X90027142Y-80125476D02*
X89217619Y-80125476D01*
X89312857Y-79696904D02*
X89265238Y-79649285D01*
X89265238Y-79649285D02*
X89217619Y-79554047D01*
X89217619Y-79554047D02*
X89217619Y-79315952D01*
X89217619Y-79315952D02*
X89265238Y-79220714D01*
X89265238Y-79220714D02*
X89312857Y-79173095D01*
X89312857Y-79173095D02*
X89408095Y-79125476D01*
X89408095Y-79125476D02*
X89503333Y-79125476D01*
X89503333Y-79125476D02*
X89646190Y-79173095D01*
X89646190Y-79173095D02*
X90217619Y-79744523D01*
X90217619Y-79744523D02*
X90217619Y-79125476D01*
%TO.C,R2*%
X78573333Y-71582619D02*
X78240000Y-71106428D01*
X78001905Y-71582619D02*
X78001905Y-70582619D01*
X78001905Y-70582619D02*
X78382857Y-70582619D01*
X78382857Y-70582619D02*
X78478095Y-70630238D01*
X78478095Y-70630238D02*
X78525714Y-70677857D01*
X78525714Y-70677857D02*
X78573333Y-70773095D01*
X78573333Y-70773095D02*
X78573333Y-70915952D01*
X78573333Y-70915952D02*
X78525714Y-71011190D01*
X78525714Y-71011190D02*
X78478095Y-71058809D01*
X78478095Y-71058809D02*
X78382857Y-71106428D01*
X78382857Y-71106428D02*
X78001905Y-71106428D01*
X78954286Y-70677857D02*
X79001905Y-70630238D01*
X79001905Y-70630238D02*
X79097143Y-70582619D01*
X79097143Y-70582619D02*
X79335238Y-70582619D01*
X79335238Y-70582619D02*
X79430476Y-70630238D01*
X79430476Y-70630238D02*
X79478095Y-70677857D01*
X79478095Y-70677857D02*
X79525714Y-70773095D01*
X79525714Y-70773095D02*
X79525714Y-70868333D01*
X79525714Y-70868333D02*
X79478095Y-71011190D01*
X79478095Y-71011190D02*
X78906667Y-71582619D01*
X78906667Y-71582619D02*
X79525714Y-71582619D01*
%TO.C,SWNIGHTMODE1*%
X69652381Y-68495000D02*
X69795238Y-68542619D01*
X69795238Y-68542619D02*
X70033333Y-68542619D01*
X70033333Y-68542619D02*
X70128571Y-68495000D01*
X70128571Y-68495000D02*
X70176190Y-68447380D01*
X70176190Y-68447380D02*
X70223809Y-68352142D01*
X70223809Y-68352142D02*
X70223809Y-68256904D01*
X70223809Y-68256904D02*
X70176190Y-68161666D01*
X70176190Y-68161666D02*
X70128571Y-68114047D01*
X70128571Y-68114047D02*
X70033333Y-68066428D01*
X70033333Y-68066428D02*
X69842857Y-68018809D01*
X69842857Y-68018809D02*
X69747619Y-67971190D01*
X69747619Y-67971190D02*
X69700000Y-67923571D01*
X69700000Y-67923571D02*
X69652381Y-67828333D01*
X69652381Y-67828333D02*
X69652381Y-67733095D01*
X69652381Y-67733095D02*
X69700000Y-67637857D01*
X69700000Y-67637857D02*
X69747619Y-67590238D01*
X69747619Y-67590238D02*
X69842857Y-67542619D01*
X69842857Y-67542619D02*
X70080952Y-67542619D01*
X70080952Y-67542619D02*
X70223809Y-67590238D01*
X70557143Y-67542619D02*
X70795238Y-68542619D01*
X70795238Y-68542619D02*
X70985714Y-67828333D01*
X70985714Y-67828333D02*
X71176190Y-68542619D01*
X71176190Y-68542619D02*
X71414286Y-67542619D01*
X71795238Y-68542619D02*
X71795238Y-67542619D01*
X71795238Y-67542619D02*
X72366666Y-68542619D01*
X72366666Y-68542619D02*
X72366666Y-67542619D01*
X72842857Y-68542619D02*
X72842857Y-67542619D01*
X73842856Y-67590238D02*
X73747618Y-67542619D01*
X73747618Y-67542619D02*
X73604761Y-67542619D01*
X73604761Y-67542619D02*
X73461904Y-67590238D01*
X73461904Y-67590238D02*
X73366666Y-67685476D01*
X73366666Y-67685476D02*
X73319047Y-67780714D01*
X73319047Y-67780714D02*
X73271428Y-67971190D01*
X73271428Y-67971190D02*
X73271428Y-68114047D01*
X73271428Y-68114047D02*
X73319047Y-68304523D01*
X73319047Y-68304523D02*
X73366666Y-68399761D01*
X73366666Y-68399761D02*
X73461904Y-68495000D01*
X73461904Y-68495000D02*
X73604761Y-68542619D01*
X73604761Y-68542619D02*
X73699999Y-68542619D01*
X73699999Y-68542619D02*
X73842856Y-68495000D01*
X73842856Y-68495000D02*
X73890475Y-68447380D01*
X73890475Y-68447380D02*
X73890475Y-68114047D01*
X73890475Y-68114047D02*
X73699999Y-68114047D01*
X74319047Y-68542619D02*
X74319047Y-67542619D01*
X74319047Y-68018809D02*
X74890475Y-68018809D01*
X74890475Y-68542619D02*
X74890475Y-67542619D01*
X75223809Y-67542619D02*
X75795237Y-67542619D01*
X75509523Y-68542619D02*
X75509523Y-67542619D01*
X76128571Y-68542619D02*
X76128571Y-67542619D01*
X76128571Y-67542619D02*
X76461904Y-68256904D01*
X76461904Y-68256904D02*
X76795237Y-67542619D01*
X76795237Y-67542619D02*
X76795237Y-68542619D01*
X77461904Y-67542619D02*
X77652380Y-67542619D01*
X77652380Y-67542619D02*
X77747618Y-67590238D01*
X77747618Y-67590238D02*
X77842856Y-67685476D01*
X77842856Y-67685476D02*
X77890475Y-67875952D01*
X77890475Y-67875952D02*
X77890475Y-68209285D01*
X77890475Y-68209285D02*
X77842856Y-68399761D01*
X77842856Y-68399761D02*
X77747618Y-68495000D01*
X77747618Y-68495000D02*
X77652380Y-68542619D01*
X77652380Y-68542619D02*
X77461904Y-68542619D01*
X77461904Y-68542619D02*
X77366666Y-68495000D01*
X77366666Y-68495000D02*
X77271428Y-68399761D01*
X77271428Y-68399761D02*
X77223809Y-68209285D01*
X77223809Y-68209285D02*
X77223809Y-67875952D01*
X77223809Y-67875952D02*
X77271428Y-67685476D01*
X77271428Y-67685476D02*
X77366666Y-67590238D01*
X77366666Y-67590238D02*
X77461904Y-67542619D01*
X78319047Y-68542619D02*
X78319047Y-67542619D01*
X78319047Y-67542619D02*
X78557142Y-67542619D01*
X78557142Y-67542619D02*
X78699999Y-67590238D01*
X78699999Y-67590238D02*
X78795237Y-67685476D01*
X78795237Y-67685476D02*
X78842856Y-67780714D01*
X78842856Y-67780714D02*
X78890475Y-67971190D01*
X78890475Y-67971190D02*
X78890475Y-68114047D01*
X78890475Y-68114047D02*
X78842856Y-68304523D01*
X78842856Y-68304523D02*
X78795237Y-68399761D01*
X78795237Y-68399761D02*
X78699999Y-68495000D01*
X78699999Y-68495000D02*
X78557142Y-68542619D01*
X78557142Y-68542619D02*
X78319047Y-68542619D01*
X79319047Y-68018809D02*
X79652380Y-68018809D01*
X79795237Y-68542619D02*
X79319047Y-68542619D01*
X79319047Y-68542619D02*
X79319047Y-67542619D01*
X79319047Y-67542619D02*
X79795237Y-67542619D01*
X80747618Y-68542619D02*
X80176190Y-68542619D01*
X80461904Y-68542619D02*
X80461904Y-67542619D01*
X80461904Y-67542619D02*
X80366666Y-67685476D01*
X80366666Y-67685476D02*
X80271428Y-67780714D01*
X80271428Y-67780714D02*
X80176190Y-67828333D01*
%TO.C,R6*%
X130643333Y-46352619D02*
X130310000Y-45876428D01*
X130071905Y-46352619D02*
X130071905Y-45352619D01*
X130071905Y-45352619D02*
X130452857Y-45352619D01*
X130452857Y-45352619D02*
X130548095Y-45400238D01*
X130548095Y-45400238D02*
X130595714Y-45447857D01*
X130595714Y-45447857D02*
X130643333Y-45543095D01*
X130643333Y-45543095D02*
X130643333Y-45685952D01*
X130643333Y-45685952D02*
X130595714Y-45781190D01*
X130595714Y-45781190D02*
X130548095Y-45828809D01*
X130548095Y-45828809D02*
X130452857Y-45876428D01*
X130452857Y-45876428D02*
X130071905Y-45876428D01*
X131500476Y-45352619D02*
X131310000Y-45352619D01*
X131310000Y-45352619D02*
X131214762Y-45400238D01*
X131214762Y-45400238D02*
X131167143Y-45447857D01*
X131167143Y-45447857D02*
X131071905Y-45590714D01*
X131071905Y-45590714D02*
X131024286Y-45781190D01*
X131024286Y-45781190D02*
X131024286Y-46162142D01*
X131024286Y-46162142D02*
X131071905Y-46257380D01*
X131071905Y-46257380D02*
X131119524Y-46305000D01*
X131119524Y-46305000D02*
X131214762Y-46352619D01*
X131214762Y-46352619D02*
X131405238Y-46352619D01*
X131405238Y-46352619D02*
X131500476Y-46305000D01*
X131500476Y-46305000D02*
X131548095Y-46257380D01*
X131548095Y-46257380D02*
X131595714Y-46162142D01*
X131595714Y-46162142D02*
X131595714Y-45924047D01*
X131595714Y-45924047D02*
X131548095Y-45828809D01*
X131548095Y-45828809D02*
X131500476Y-45781190D01*
X131500476Y-45781190D02*
X131405238Y-45733571D01*
X131405238Y-45733571D02*
X131214762Y-45733571D01*
X131214762Y-45733571D02*
X131119524Y-45781190D01*
X131119524Y-45781190D02*
X131071905Y-45828809D01*
X131071905Y-45828809D02*
X131024286Y-45924047D01*
%TO.C,SWBOTH1*%
X54158095Y-68495000D02*
X54300952Y-68542619D01*
X54300952Y-68542619D02*
X54539047Y-68542619D01*
X54539047Y-68542619D02*
X54634285Y-68495000D01*
X54634285Y-68495000D02*
X54681904Y-68447380D01*
X54681904Y-68447380D02*
X54729523Y-68352142D01*
X54729523Y-68352142D02*
X54729523Y-68256904D01*
X54729523Y-68256904D02*
X54681904Y-68161666D01*
X54681904Y-68161666D02*
X54634285Y-68114047D01*
X54634285Y-68114047D02*
X54539047Y-68066428D01*
X54539047Y-68066428D02*
X54348571Y-68018809D01*
X54348571Y-68018809D02*
X54253333Y-67971190D01*
X54253333Y-67971190D02*
X54205714Y-67923571D01*
X54205714Y-67923571D02*
X54158095Y-67828333D01*
X54158095Y-67828333D02*
X54158095Y-67733095D01*
X54158095Y-67733095D02*
X54205714Y-67637857D01*
X54205714Y-67637857D02*
X54253333Y-67590238D01*
X54253333Y-67590238D02*
X54348571Y-67542619D01*
X54348571Y-67542619D02*
X54586666Y-67542619D01*
X54586666Y-67542619D02*
X54729523Y-67590238D01*
X55062857Y-67542619D02*
X55300952Y-68542619D01*
X55300952Y-68542619D02*
X55491428Y-67828333D01*
X55491428Y-67828333D02*
X55681904Y-68542619D01*
X55681904Y-68542619D02*
X55920000Y-67542619D01*
X56634285Y-68018809D02*
X56777142Y-68066428D01*
X56777142Y-68066428D02*
X56824761Y-68114047D01*
X56824761Y-68114047D02*
X56872380Y-68209285D01*
X56872380Y-68209285D02*
X56872380Y-68352142D01*
X56872380Y-68352142D02*
X56824761Y-68447380D01*
X56824761Y-68447380D02*
X56777142Y-68495000D01*
X56777142Y-68495000D02*
X56681904Y-68542619D01*
X56681904Y-68542619D02*
X56300952Y-68542619D01*
X56300952Y-68542619D02*
X56300952Y-67542619D01*
X56300952Y-67542619D02*
X56634285Y-67542619D01*
X56634285Y-67542619D02*
X56729523Y-67590238D01*
X56729523Y-67590238D02*
X56777142Y-67637857D01*
X56777142Y-67637857D02*
X56824761Y-67733095D01*
X56824761Y-67733095D02*
X56824761Y-67828333D01*
X56824761Y-67828333D02*
X56777142Y-67923571D01*
X56777142Y-67923571D02*
X56729523Y-67971190D01*
X56729523Y-67971190D02*
X56634285Y-68018809D01*
X56634285Y-68018809D02*
X56300952Y-68018809D01*
X57491428Y-67542619D02*
X57681904Y-67542619D01*
X57681904Y-67542619D02*
X57777142Y-67590238D01*
X57777142Y-67590238D02*
X57872380Y-67685476D01*
X57872380Y-67685476D02*
X57919999Y-67875952D01*
X57919999Y-67875952D02*
X57919999Y-68209285D01*
X57919999Y-68209285D02*
X57872380Y-68399761D01*
X57872380Y-68399761D02*
X57777142Y-68495000D01*
X57777142Y-68495000D02*
X57681904Y-68542619D01*
X57681904Y-68542619D02*
X57491428Y-68542619D01*
X57491428Y-68542619D02*
X57396190Y-68495000D01*
X57396190Y-68495000D02*
X57300952Y-68399761D01*
X57300952Y-68399761D02*
X57253333Y-68209285D01*
X57253333Y-68209285D02*
X57253333Y-67875952D01*
X57253333Y-67875952D02*
X57300952Y-67685476D01*
X57300952Y-67685476D02*
X57396190Y-67590238D01*
X57396190Y-67590238D02*
X57491428Y-67542619D01*
X58205714Y-67542619D02*
X58777142Y-67542619D01*
X58491428Y-68542619D02*
X58491428Y-67542619D01*
X59110476Y-68542619D02*
X59110476Y-67542619D01*
X59110476Y-68018809D02*
X59681904Y-68018809D01*
X59681904Y-68542619D02*
X59681904Y-67542619D01*
X60681904Y-68542619D02*
X60110476Y-68542619D01*
X60396190Y-68542619D02*
X60396190Y-67542619D01*
X60396190Y-67542619D02*
X60300952Y-67685476D01*
X60300952Y-67685476D02*
X60205714Y-67780714D01*
X60205714Y-67780714D02*
X60110476Y-67828333D01*
%TO.C,D1*%
X160551905Y-54722619D02*
X160551905Y-53722619D01*
X160551905Y-53722619D02*
X160790000Y-53722619D01*
X160790000Y-53722619D02*
X160932857Y-53770238D01*
X160932857Y-53770238D02*
X161028095Y-53865476D01*
X161028095Y-53865476D02*
X161075714Y-53960714D01*
X161075714Y-53960714D02*
X161123333Y-54151190D01*
X161123333Y-54151190D02*
X161123333Y-54294047D01*
X161123333Y-54294047D02*
X161075714Y-54484523D01*
X161075714Y-54484523D02*
X161028095Y-54579761D01*
X161028095Y-54579761D02*
X160932857Y-54675000D01*
X160932857Y-54675000D02*
X160790000Y-54722619D01*
X160790000Y-54722619D02*
X160551905Y-54722619D01*
X162075714Y-54722619D02*
X161504286Y-54722619D01*
X161790000Y-54722619D02*
X161790000Y-53722619D01*
X161790000Y-53722619D02*
X161694762Y-53865476D01*
X161694762Y-53865476D02*
X161599524Y-53960714D01*
X161599524Y-53960714D02*
X161504286Y-54008333D01*
%TO.C,U3*%
X134852619Y-36321904D02*
X135662142Y-36321904D01*
X135662142Y-36321904D02*
X135757380Y-36274285D01*
X135757380Y-36274285D02*
X135805000Y-36226666D01*
X135805000Y-36226666D02*
X135852619Y-36131428D01*
X135852619Y-36131428D02*
X135852619Y-35940952D01*
X135852619Y-35940952D02*
X135805000Y-35845714D01*
X135805000Y-35845714D02*
X135757380Y-35798095D01*
X135757380Y-35798095D02*
X135662142Y-35750476D01*
X135662142Y-35750476D02*
X134852619Y-35750476D01*
X134852619Y-35369523D02*
X134852619Y-34750476D01*
X134852619Y-34750476D02*
X135233571Y-35083809D01*
X135233571Y-35083809D02*
X135233571Y-34940952D01*
X135233571Y-34940952D02*
X135281190Y-34845714D01*
X135281190Y-34845714D02*
X135328809Y-34798095D01*
X135328809Y-34798095D02*
X135424047Y-34750476D01*
X135424047Y-34750476D02*
X135662142Y-34750476D01*
X135662142Y-34750476D02*
X135757380Y-34798095D01*
X135757380Y-34798095D02*
X135805000Y-34845714D01*
X135805000Y-34845714D02*
X135852619Y-34940952D01*
X135852619Y-34940952D02*
X135852619Y-35226666D01*
X135852619Y-35226666D02*
X135805000Y-35321904D01*
X135805000Y-35321904D02*
X135757380Y-35369523D01*
%TO.C,SWLEFT1*%
X53040000Y-45675000D02*
X53182857Y-45722619D01*
X53182857Y-45722619D02*
X53420952Y-45722619D01*
X53420952Y-45722619D02*
X53516190Y-45675000D01*
X53516190Y-45675000D02*
X53563809Y-45627380D01*
X53563809Y-45627380D02*
X53611428Y-45532142D01*
X53611428Y-45532142D02*
X53611428Y-45436904D01*
X53611428Y-45436904D02*
X53563809Y-45341666D01*
X53563809Y-45341666D02*
X53516190Y-45294047D01*
X53516190Y-45294047D02*
X53420952Y-45246428D01*
X53420952Y-45246428D02*
X53230476Y-45198809D01*
X53230476Y-45198809D02*
X53135238Y-45151190D01*
X53135238Y-45151190D02*
X53087619Y-45103571D01*
X53087619Y-45103571D02*
X53040000Y-45008333D01*
X53040000Y-45008333D02*
X53040000Y-44913095D01*
X53040000Y-44913095D02*
X53087619Y-44817857D01*
X53087619Y-44817857D02*
X53135238Y-44770238D01*
X53135238Y-44770238D02*
X53230476Y-44722619D01*
X53230476Y-44722619D02*
X53468571Y-44722619D01*
X53468571Y-44722619D02*
X53611428Y-44770238D01*
X53944762Y-44722619D02*
X54182857Y-45722619D01*
X54182857Y-45722619D02*
X54373333Y-45008333D01*
X54373333Y-45008333D02*
X54563809Y-45722619D01*
X54563809Y-45722619D02*
X54801905Y-44722619D01*
X55659047Y-45722619D02*
X55182857Y-45722619D01*
X55182857Y-45722619D02*
X55182857Y-44722619D01*
X55992381Y-45198809D02*
X56325714Y-45198809D01*
X56468571Y-45722619D02*
X55992381Y-45722619D01*
X55992381Y-45722619D02*
X55992381Y-44722619D01*
X55992381Y-44722619D02*
X56468571Y-44722619D01*
X57230476Y-45198809D02*
X56897143Y-45198809D01*
X56897143Y-45722619D02*
X56897143Y-44722619D01*
X56897143Y-44722619D02*
X57373333Y-44722619D01*
X57611429Y-44722619D02*
X58182857Y-44722619D01*
X57897143Y-45722619D02*
X57897143Y-44722619D01*
X59040000Y-45722619D02*
X58468572Y-45722619D01*
X58754286Y-45722619D02*
X58754286Y-44722619D01*
X58754286Y-44722619D02*
X58659048Y-44865476D01*
X58659048Y-44865476D02*
X58563810Y-44960714D01*
X58563810Y-44960714D02*
X58468572Y-45008333D01*
%TO.C,SW1*%
X100015000Y-36893332D02*
X100062619Y-36750475D01*
X100062619Y-36750475D02*
X100062619Y-36512380D01*
X100062619Y-36512380D02*
X100015000Y-36417142D01*
X100015000Y-36417142D02*
X99967380Y-36369523D01*
X99967380Y-36369523D02*
X99872142Y-36321904D01*
X99872142Y-36321904D02*
X99776904Y-36321904D01*
X99776904Y-36321904D02*
X99681666Y-36369523D01*
X99681666Y-36369523D02*
X99634047Y-36417142D01*
X99634047Y-36417142D02*
X99586428Y-36512380D01*
X99586428Y-36512380D02*
X99538809Y-36702856D01*
X99538809Y-36702856D02*
X99491190Y-36798094D01*
X99491190Y-36798094D02*
X99443571Y-36845713D01*
X99443571Y-36845713D02*
X99348333Y-36893332D01*
X99348333Y-36893332D02*
X99253095Y-36893332D01*
X99253095Y-36893332D02*
X99157857Y-36845713D01*
X99157857Y-36845713D02*
X99110238Y-36798094D01*
X99110238Y-36798094D02*
X99062619Y-36702856D01*
X99062619Y-36702856D02*
X99062619Y-36464761D01*
X99062619Y-36464761D02*
X99110238Y-36321904D01*
X99062619Y-35988570D02*
X100062619Y-35750475D01*
X100062619Y-35750475D02*
X99348333Y-35559999D01*
X99348333Y-35559999D02*
X100062619Y-35369523D01*
X100062619Y-35369523D02*
X99062619Y-35131428D01*
X100062619Y-34226666D02*
X100062619Y-34798094D01*
X100062619Y-34512380D02*
X99062619Y-34512380D01*
X99062619Y-34512380D02*
X99205476Y-34607618D01*
X99205476Y-34607618D02*
X99300714Y-34702856D01*
X99300714Y-34702856D02*
X99348333Y-34798094D01*
%TO.C,J1*%
X152775119Y-30903333D02*
X153489404Y-30903333D01*
X153489404Y-30903333D02*
X153632261Y-30950952D01*
X153632261Y-30950952D02*
X153727500Y-31046190D01*
X153727500Y-31046190D02*
X153775119Y-31189047D01*
X153775119Y-31189047D02*
X153775119Y-31284285D01*
X153775119Y-29903333D02*
X153775119Y-30474761D01*
X153775119Y-30189047D02*
X152775119Y-30189047D01*
X152775119Y-30189047D02*
X152917976Y-30284285D01*
X152917976Y-30284285D02*
X153013214Y-30379523D01*
X153013214Y-30379523D02*
X153060833Y-30474761D01*
%TO.C,R3*%
X53173333Y-51092619D02*
X52840000Y-50616428D01*
X52601905Y-51092619D02*
X52601905Y-50092619D01*
X52601905Y-50092619D02*
X52982857Y-50092619D01*
X52982857Y-50092619D02*
X53078095Y-50140238D01*
X53078095Y-50140238D02*
X53125714Y-50187857D01*
X53125714Y-50187857D02*
X53173333Y-50283095D01*
X53173333Y-50283095D02*
X53173333Y-50425952D01*
X53173333Y-50425952D02*
X53125714Y-50521190D01*
X53125714Y-50521190D02*
X53078095Y-50568809D01*
X53078095Y-50568809D02*
X52982857Y-50616428D01*
X52982857Y-50616428D02*
X52601905Y-50616428D01*
X53506667Y-50092619D02*
X54125714Y-50092619D01*
X54125714Y-50092619D02*
X53792381Y-50473571D01*
X53792381Y-50473571D02*
X53935238Y-50473571D01*
X53935238Y-50473571D02*
X54030476Y-50521190D01*
X54030476Y-50521190D02*
X54078095Y-50568809D01*
X54078095Y-50568809D02*
X54125714Y-50664047D01*
X54125714Y-50664047D02*
X54125714Y-50902142D01*
X54125714Y-50902142D02*
X54078095Y-50997380D01*
X54078095Y-50997380D02*
X54030476Y-51045000D01*
X54030476Y-51045000D02*
X53935238Y-51092619D01*
X53935238Y-51092619D02*
X53649524Y-51092619D01*
X53649524Y-51092619D02*
X53554286Y-51045000D01*
X53554286Y-51045000D02*
X53506667Y-50997380D01*
%TO.C,D2*%
X150391905Y-54722619D02*
X150391905Y-53722619D01*
X150391905Y-53722619D02*
X150630000Y-53722619D01*
X150630000Y-53722619D02*
X150772857Y-53770238D01*
X150772857Y-53770238D02*
X150868095Y-53865476D01*
X150868095Y-53865476D02*
X150915714Y-53960714D01*
X150915714Y-53960714D02*
X150963333Y-54151190D01*
X150963333Y-54151190D02*
X150963333Y-54294047D01*
X150963333Y-54294047D02*
X150915714Y-54484523D01*
X150915714Y-54484523D02*
X150868095Y-54579761D01*
X150868095Y-54579761D02*
X150772857Y-54675000D01*
X150772857Y-54675000D02*
X150630000Y-54722619D01*
X150630000Y-54722619D02*
X150391905Y-54722619D01*
X151344286Y-53817857D02*
X151391905Y-53770238D01*
X151391905Y-53770238D02*
X151487143Y-53722619D01*
X151487143Y-53722619D02*
X151725238Y-53722619D01*
X151725238Y-53722619D02*
X151820476Y-53770238D01*
X151820476Y-53770238D02*
X151868095Y-53817857D01*
X151868095Y-53817857D02*
X151915714Y-53913095D01*
X151915714Y-53913095D02*
X151915714Y-54008333D01*
X151915714Y-54008333D02*
X151868095Y-54151190D01*
X151868095Y-54151190D02*
X151296667Y-54722619D01*
X151296667Y-54722619D02*
X151915714Y-54722619D01*
D11*
%TO.C,BluetoothHC1*%
X66619999Y-83758809D02*
X66762856Y-83806428D01*
X66762856Y-83806428D02*
X66810475Y-83854047D01*
X66810475Y-83854047D02*
X66858094Y-83949285D01*
X66858094Y-83949285D02*
X66858094Y-84092142D01*
X66858094Y-84092142D02*
X66810475Y-84187380D01*
X66810475Y-84187380D02*
X66762856Y-84235000D01*
X66762856Y-84235000D02*
X66667618Y-84282619D01*
X66667618Y-84282619D02*
X66286666Y-84282619D01*
X66286666Y-84282619D02*
X66286666Y-83282619D01*
X66286666Y-83282619D02*
X66619999Y-83282619D01*
X66619999Y-83282619D02*
X66715237Y-83330238D01*
X66715237Y-83330238D02*
X66762856Y-83377857D01*
X66762856Y-83377857D02*
X66810475Y-83473095D01*
X66810475Y-83473095D02*
X66810475Y-83568333D01*
X66810475Y-83568333D02*
X66762856Y-83663571D01*
X66762856Y-83663571D02*
X66715237Y-83711190D01*
X66715237Y-83711190D02*
X66619999Y-83758809D01*
X66619999Y-83758809D02*
X66286666Y-83758809D01*
X67429523Y-84282619D02*
X67334285Y-84235000D01*
X67334285Y-84235000D02*
X67286666Y-84139761D01*
X67286666Y-84139761D02*
X67286666Y-83282619D01*
X68239047Y-83615952D02*
X68239047Y-84282619D01*
X67810476Y-83615952D02*
X67810476Y-84139761D01*
X67810476Y-84139761D02*
X67858095Y-84235000D01*
X67858095Y-84235000D02*
X67953333Y-84282619D01*
X67953333Y-84282619D02*
X68096190Y-84282619D01*
X68096190Y-84282619D02*
X68191428Y-84235000D01*
X68191428Y-84235000D02*
X68239047Y-84187380D01*
X69096190Y-84235000D02*
X69000952Y-84282619D01*
X69000952Y-84282619D02*
X68810476Y-84282619D01*
X68810476Y-84282619D02*
X68715238Y-84235000D01*
X68715238Y-84235000D02*
X68667619Y-84139761D01*
X68667619Y-84139761D02*
X68667619Y-83758809D01*
X68667619Y-83758809D02*
X68715238Y-83663571D01*
X68715238Y-83663571D02*
X68810476Y-83615952D01*
X68810476Y-83615952D02*
X69000952Y-83615952D01*
X69000952Y-83615952D02*
X69096190Y-83663571D01*
X69096190Y-83663571D02*
X69143809Y-83758809D01*
X69143809Y-83758809D02*
X69143809Y-83854047D01*
X69143809Y-83854047D02*
X68667619Y-83949285D01*
X69429524Y-83615952D02*
X69810476Y-83615952D01*
X69572381Y-83282619D02*
X69572381Y-84139761D01*
X69572381Y-84139761D02*
X69620000Y-84235000D01*
X69620000Y-84235000D02*
X69715238Y-84282619D01*
X69715238Y-84282619D02*
X69810476Y-84282619D01*
X70286667Y-84282619D02*
X70191429Y-84235000D01*
X70191429Y-84235000D02*
X70143810Y-84187380D01*
X70143810Y-84187380D02*
X70096191Y-84092142D01*
X70096191Y-84092142D02*
X70096191Y-83806428D01*
X70096191Y-83806428D02*
X70143810Y-83711190D01*
X70143810Y-83711190D02*
X70191429Y-83663571D01*
X70191429Y-83663571D02*
X70286667Y-83615952D01*
X70286667Y-83615952D02*
X70429524Y-83615952D01*
X70429524Y-83615952D02*
X70524762Y-83663571D01*
X70524762Y-83663571D02*
X70572381Y-83711190D01*
X70572381Y-83711190D02*
X70620000Y-83806428D01*
X70620000Y-83806428D02*
X70620000Y-84092142D01*
X70620000Y-84092142D02*
X70572381Y-84187380D01*
X70572381Y-84187380D02*
X70524762Y-84235000D01*
X70524762Y-84235000D02*
X70429524Y-84282619D01*
X70429524Y-84282619D02*
X70286667Y-84282619D01*
X71191429Y-84282619D02*
X71096191Y-84235000D01*
X71096191Y-84235000D02*
X71048572Y-84187380D01*
X71048572Y-84187380D02*
X71000953Y-84092142D01*
X71000953Y-84092142D02*
X71000953Y-83806428D01*
X71000953Y-83806428D02*
X71048572Y-83711190D01*
X71048572Y-83711190D02*
X71096191Y-83663571D01*
X71096191Y-83663571D02*
X71191429Y-83615952D01*
X71191429Y-83615952D02*
X71334286Y-83615952D01*
X71334286Y-83615952D02*
X71429524Y-83663571D01*
X71429524Y-83663571D02*
X71477143Y-83711190D01*
X71477143Y-83711190D02*
X71524762Y-83806428D01*
X71524762Y-83806428D02*
X71524762Y-84092142D01*
X71524762Y-84092142D02*
X71477143Y-84187380D01*
X71477143Y-84187380D02*
X71429524Y-84235000D01*
X71429524Y-84235000D02*
X71334286Y-84282619D01*
X71334286Y-84282619D02*
X71191429Y-84282619D01*
X71810477Y-83615952D02*
X72191429Y-83615952D01*
X71953334Y-83282619D02*
X71953334Y-84139761D01*
X71953334Y-84139761D02*
X72000953Y-84235000D01*
X72000953Y-84235000D02*
X72096191Y-84282619D01*
X72096191Y-84282619D02*
X72191429Y-84282619D01*
X72524763Y-84282619D02*
X72524763Y-83282619D01*
X72953334Y-84282619D02*
X72953334Y-83758809D01*
X72953334Y-83758809D02*
X72905715Y-83663571D01*
X72905715Y-83663571D02*
X72810477Y-83615952D01*
X72810477Y-83615952D02*
X72667620Y-83615952D01*
X72667620Y-83615952D02*
X72572382Y-83663571D01*
X72572382Y-83663571D02*
X72524763Y-83711190D01*
X73429525Y-84282619D02*
X73429525Y-83282619D01*
X73429525Y-83758809D02*
X74000953Y-83758809D01*
X74000953Y-84282619D02*
X74000953Y-83282619D01*
X75048572Y-84187380D02*
X75000953Y-84235000D01*
X75000953Y-84235000D02*
X74858096Y-84282619D01*
X74858096Y-84282619D02*
X74762858Y-84282619D01*
X74762858Y-84282619D02*
X74620001Y-84235000D01*
X74620001Y-84235000D02*
X74524763Y-84139761D01*
X74524763Y-84139761D02*
X74477144Y-84044523D01*
X74477144Y-84044523D02*
X74429525Y-83854047D01*
X74429525Y-83854047D02*
X74429525Y-83711190D01*
X74429525Y-83711190D02*
X74477144Y-83520714D01*
X74477144Y-83520714D02*
X74524763Y-83425476D01*
X74524763Y-83425476D02*
X74620001Y-83330238D01*
X74620001Y-83330238D02*
X74762858Y-83282619D01*
X74762858Y-83282619D02*
X74858096Y-83282619D01*
X74858096Y-83282619D02*
X75000953Y-83330238D01*
X75000953Y-83330238D02*
X75048572Y-83377857D01*
X76000953Y-84282619D02*
X75429525Y-84282619D01*
X75715239Y-84282619D02*
X75715239Y-83282619D01*
X75715239Y-83282619D02*
X75620001Y-83425476D01*
X75620001Y-83425476D02*
X75524763Y-83520714D01*
X75524763Y-83520714D02*
X75429525Y-83568333D01*
D10*
%TO.C,R1*%
X64603333Y-71582619D02*
X64270000Y-71106428D01*
X64031905Y-71582619D02*
X64031905Y-70582619D01*
X64031905Y-70582619D02*
X64412857Y-70582619D01*
X64412857Y-70582619D02*
X64508095Y-70630238D01*
X64508095Y-70630238D02*
X64555714Y-70677857D01*
X64555714Y-70677857D02*
X64603333Y-70773095D01*
X64603333Y-70773095D02*
X64603333Y-70915952D01*
X64603333Y-70915952D02*
X64555714Y-71011190D01*
X64555714Y-71011190D02*
X64508095Y-71058809D01*
X64508095Y-71058809D02*
X64412857Y-71106428D01*
X64412857Y-71106428D02*
X64031905Y-71106428D01*
X65555714Y-71582619D02*
X64984286Y-71582619D01*
X65270000Y-71582619D02*
X65270000Y-70582619D01*
X65270000Y-70582619D02*
X65174762Y-70725476D01*
X65174762Y-70725476D02*
X65079524Y-70820714D01*
X65079524Y-70820714D02*
X64984286Y-70868333D01*
%TO.C,U4*%
X151003095Y-64359619D02*
X151003095Y-65169142D01*
X151003095Y-65169142D02*
X151050714Y-65264380D01*
X151050714Y-65264380D02*
X151098333Y-65312000D01*
X151098333Y-65312000D02*
X151193571Y-65359619D01*
X151193571Y-65359619D02*
X151384047Y-65359619D01*
X151384047Y-65359619D02*
X151479285Y-65312000D01*
X151479285Y-65312000D02*
X151526904Y-65264380D01*
X151526904Y-65264380D02*
X151574523Y-65169142D01*
X151574523Y-65169142D02*
X151574523Y-64359619D01*
X152479285Y-64692952D02*
X152479285Y-65359619D01*
X152241190Y-64312000D02*
X152003095Y-65026285D01*
X152003095Y-65026285D02*
X152622142Y-65026285D01*
X156718095Y-69487238D02*
X156622857Y-69439619D01*
X156622857Y-69439619D02*
X156480000Y-69439619D01*
X156480000Y-69439619D02*
X156337143Y-69487238D01*
X156337143Y-69487238D02*
X156241905Y-69582476D01*
X156241905Y-69582476D02*
X156194286Y-69677714D01*
X156194286Y-69677714D02*
X156146667Y-69868190D01*
X156146667Y-69868190D02*
X156146667Y-70011047D01*
X156146667Y-70011047D02*
X156194286Y-70201523D01*
X156194286Y-70201523D02*
X156241905Y-70296761D01*
X156241905Y-70296761D02*
X156337143Y-70392000D01*
X156337143Y-70392000D02*
X156480000Y-70439619D01*
X156480000Y-70439619D02*
X156575238Y-70439619D01*
X156575238Y-70439619D02*
X156718095Y-70392000D01*
X156718095Y-70392000D02*
X156765714Y-70344380D01*
X156765714Y-70344380D02*
X156765714Y-70011047D01*
X156765714Y-70011047D02*
X156575238Y-70011047D01*
X157194286Y-70439619D02*
X157194286Y-69439619D01*
X157194286Y-69439619D02*
X157765714Y-70439619D01*
X157765714Y-70439619D02*
X157765714Y-69439619D01*
X158241905Y-70439619D02*
X158241905Y-69439619D01*
X158241905Y-69439619D02*
X158480000Y-69439619D01*
X158480000Y-69439619D02*
X158622857Y-69487238D01*
X158622857Y-69487238D02*
X158718095Y-69582476D01*
X158718095Y-69582476D02*
X158765714Y-69677714D01*
X158765714Y-69677714D02*
X158813333Y-69868190D01*
X158813333Y-69868190D02*
X158813333Y-70011047D01*
X158813333Y-70011047D02*
X158765714Y-70201523D01*
X158765714Y-70201523D02*
X158718095Y-70296761D01*
X158718095Y-70296761D02*
X158622857Y-70392000D01*
X158622857Y-70392000D02*
X158480000Y-70439619D01*
X158480000Y-70439619D02*
X158241905Y-70439619D01*
X156241905Y-82853904D02*
X156718095Y-82853904D01*
X156146667Y-83139619D02*
X156480000Y-82139619D01*
X156480000Y-82139619D02*
X156813333Y-83139619D01*
X157146667Y-83139619D02*
X157146667Y-82139619D01*
X157146667Y-82139619D02*
X157384762Y-82139619D01*
X157384762Y-82139619D02*
X157527619Y-82187238D01*
X157527619Y-82187238D02*
X157622857Y-82282476D01*
X157622857Y-82282476D02*
X157670476Y-82377714D01*
X157670476Y-82377714D02*
X157718095Y-82568190D01*
X157718095Y-82568190D02*
X157718095Y-82711047D01*
X157718095Y-82711047D02*
X157670476Y-82901523D01*
X157670476Y-82901523D02*
X157622857Y-82996761D01*
X157622857Y-82996761D02*
X157527619Y-83092000D01*
X157527619Y-83092000D02*
X157384762Y-83139619D01*
X157384762Y-83139619D02*
X157146667Y-83139619D01*
X158146667Y-83139619D02*
X158146667Y-82139619D01*
X158146667Y-82139619D02*
X158384762Y-82139619D01*
X158384762Y-82139619D02*
X158527619Y-82187238D01*
X158527619Y-82187238D02*
X158622857Y-82282476D01*
X158622857Y-82282476D02*
X158670476Y-82377714D01*
X158670476Y-82377714D02*
X158718095Y-82568190D01*
X158718095Y-82568190D02*
X158718095Y-82711047D01*
X158718095Y-82711047D02*
X158670476Y-82901523D01*
X158670476Y-82901523D02*
X158622857Y-82996761D01*
X158622857Y-82996761D02*
X158527619Y-83092000D01*
X158527619Y-83092000D02*
X158384762Y-83139619D01*
X158384762Y-83139619D02*
X158146667Y-83139619D01*
X156241905Y-79599619D02*
X156908571Y-80599619D01*
X156908571Y-79599619D02*
X156241905Y-80599619D01*
X157860952Y-80504380D02*
X157813333Y-80552000D01*
X157813333Y-80552000D02*
X157670476Y-80599619D01*
X157670476Y-80599619D02*
X157575238Y-80599619D01*
X157575238Y-80599619D02*
X157432381Y-80552000D01*
X157432381Y-80552000D02*
X157337143Y-80456761D01*
X157337143Y-80456761D02*
X157289524Y-80361523D01*
X157289524Y-80361523D02*
X157241905Y-80171047D01*
X157241905Y-80171047D02*
X157241905Y-80028190D01*
X157241905Y-80028190D02*
X157289524Y-79837714D01*
X157289524Y-79837714D02*
X157337143Y-79742476D01*
X157337143Y-79742476D02*
X157432381Y-79647238D01*
X157432381Y-79647238D02*
X157575238Y-79599619D01*
X157575238Y-79599619D02*
X157670476Y-79599619D01*
X157670476Y-79599619D02*
X157813333Y-79647238D01*
X157813333Y-79647238D02*
X157860952Y-79694857D01*
X158765714Y-80599619D02*
X158289524Y-80599619D01*
X158289524Y-80599619D02*
X158289524Y-79599619D01*
X156289524Y-72932000D02*
X156432381Y-72979619D01*
X156432381Y-72979619D02*
X156670476Y-72979619D01*
X156670476Y-72979619D02*
X156765714Y-72932000D01*
X156765714Y-72932000D02*
X156813333Y-72884380D01*
X156813333Y-72884380D02*
X156860952Y-72789142D01*
X156860952Y-72789142D02*
X156860952Y-72693904D01*
X156860952Y-72693904D02*
X156813333Y-72598666D01*
X156813333Y-72598666D02*
X156765714Y-72551047D01*
X156765714Y-72551047D02*
X156670476Y-72503428D01*
X156670476Y-72503428D02*
X156480000Y-72455809D01*
X156480000Y-72455809D02*
X156384762Y-72408190D01*
X156384762Y-72408190D02*
X156337143Y-72360571D01*
X156337143Y-72360571D02*
X156289524Y-72265333D01*
X156289524Y-72265333D02*
X156289524Y-72170095D01*
X156289524Y-72170095D02*
X156337143Y-72074857D01*
X156337143Y-72074857D02*
X156384762Y-72027238D01*
X156384762Y-72027238D02*
X156480000Y-71979619D01*
X156480000Y-71979619D02*
X156718095Y-71979619D01*
X156718095Y-71979619D02*
X156860952Y-72027238D01*
X157860952Y-72884380D02*
X157813333Y-72932000D01*
X157813333Y-72932000D02*
X157670476Y-72979619D01*
X157670476Y-72979619D02*
X157575238Y-72979619D01*
X157575238Y-72979619D02*
X157432381Y-72932000D01*
X157432381Y-72932000D02*
X157337143Y-72836761D01*
X157337143Y-72836761D02*
X157289524Y-72741523D01*
X157289524Y-72741523D02*
X157241905Y-72551047D01*
X157241905Y-72551047D02*
X157241905Y-72408190D01*
X157241905Y-72408190D02*
X157289524Y-72217714D01*
X157289524Y-72217714D02*
X157337143Y-72122476D01*
X157337143Y-72122476D02*
X157432381Y-72027238D01*
X157432381Y-72027238D02*
X157575238Y-71979619D01*
X157575238Y-71979619D02*
X157670476Y-71979619D01*
X157670476Y-71979619D02*
X157813333Y-72027238D01*
X157813333Y-72027238D02*
X157860952Y-72074857D01*
X158765714Y-72979619D02*
X158289524Y-72979619D01*
X158289524Y-72979619D02*
X158289524Y-71979619D01*
X156218095Y-77059619D02*
X156884761Y-78059619D01*
X156884761Y-77059619D02*
X156218095Y-78059619D01*
X157265714Y-78059619D02*
X157265714Y-77059619D01*
X157265714Y-77059619D02*
X157503809Y-77059619D01*
X157503809Y-77059619D02*
X157646666Y-77107238D01*
X157646666Y-77107238D02*
X157741904Y-77202476D01*
X157741904Y-77202476D02*
X157789523Y-77297714D01*
X157789523Y-77297714D02*
X157837142Y-77488190D01*
X157837142Y-77488190D02*
X157837142Y-77631047D01*
X157837142Y-77631047D02*
X157789523Y-77821523D01*
X157789523Y-77821523D02*
X157741904Y-77916761D01*
X157741904Y-77916761D02*
X157646666Y-78012000D01*
X157646666Y-78012000D02*
X157503809Y-78059619D01*
X157503809Y-78059619D02*
X157265714Y-78059619D01*
X158218095Y-77773904D02*
X158694285Y-77773904D01*
X158122857Y-78059619D02*
X158456190Y-77059619D01*
X158456190Y-77059619D02*
X158789523Y-78059619D01*
X156265714Y-75472000D02*
X156408571Y-75519619D01*
X156408571Y-75519619D02*
X156646666Y-75519619D01*
X156646666Y-75519619D02*
X156741904Y-75472000D01*
X156741904Y-75472000D02*
X156789523Y-75424380D01*
X156789523Y-75424380D02*
X156837142Y-75329142D01*
X156837142Y-75329142D02*
X156837142Y-75233904D01*
X156837142Y-75233904D02*
X156789523Y-75138666D01*
X156789523Y-75138666D02*
X156741904Y-75091047D01*
X156741904Y-75091047D02*
X156646666Y-75043428D01*
X156646666Y-75043428D02*
X156456190Y-74995809D01*
X156456190Y-74995809D02*
X156360952Y-74948190D01*
X156360952Y-74948190D02*
X156313333Y-74900571D01*
X156313333Y-74900571D02*
X156265714Y-74805333D01*
X156265714Y-74805333D02*
X156265714Y-74710095D01*
X156265714Y-74710095D02*
X156313333Y-74614857D01*
X156313333Y-74614857D02*
X156360952Y-74567238D01*
X156360952Y-74567238D02*
X156456190Y-74519619D01*
X156456190Y-74519619D02*
X156694285Y-74519619D01*
X156694285Y-74519619D02*
X156837142Y-74567238D01*
X157265714Y-75519619D02*
X157265714Y-74519619D01*
X157265714Y-74519619D02*
X157503809Y-74519619D01*
X157503809Y-74519619D02*
X157646666Y-74567238D01*
X157646666Y-74567238D02*
X157741904Y-74662476D01*
X157741904Y-74662476D02*
X157789523Y-74757714D01*
X157789523Y-74757714D02*
X157837142Y-74948190D01*
X157837142Y-74948190D02*
X157837142Y-75091047D01*
X157837142Y-75091047D02*
X157789523Y-75281523D01*
X157789523Y-75281523D02*
X157741904Y-75376761D01*
X157741904Y-75376761D02*
X157646666Y-75472000D01*
X157646666Y-75472000D02*
X157503809Y-75519619D01*
X157503809Y-75519619D02*
X157265714Y-75519619D01*
X158218095Y-75233904D02*
X158694285Y-75233904D01*
X158122857Y-75519619D02*
X158456190Y-74519619D01*
X158456190Y-74519619D02*
X158789523Y-75519619D01*
X156575238Y-85679619D02*
X156575238Y-84679619D01*
X157051428Y-85679619D02*
X157051428Y-84679619D01*
X157051428Y-84679619D02*
X157622856Y-85679619D01*
X157622856Y-85679619D02*
X157622856Y-84679619D01*
X157956190Y-84679619D02*
X158527618Y-84679619D01*
X158241904Y-85679619D02*
X158241904Y-84679619D01*
X156146667Y-66899619D02*
X156480000Y-67899619D01*
X156480000Y-67899619D02*
X156813333Y-66899619D01*
X157718095Y-67804380D02*
X157670476Y-67852000D01*
X157670476Y-67852000D02*
X157527619Y-67899619D01*
X157527619Y-67899619D02*
X157432381Y-67899619D01*
X157432381Y-67899619D02*
X157289524Y-67852000D01*
X157289524Y-67852000D02*
X157194286Y-67756761D01*
X157194286Y-67756761D02*
X157146667Y-67661523D01*
X157146667Y-67661523D02*
X157099048Y-67471047D01*
X157099048Y-67471047D02*
X157099048Y-67328190D01*
X157099048Y-67328190D02*
X157146667Y-67137714D01*
X157146667Y-67137714D02*
X157194286Y-67042476D01*
X157194286Y-67042476D02*
X157289524Y-66947238D01*
X157289524Y-66947238D02*
X157432381Y-66899619D01*
X157432381Y-66899619D02*
X157527619Y-66899619D01*
X157527619Y-66899619D02*
X157670476Y-66947238D01*
X157670476Y-66947238D02*
X157718095Y-66994857D01*
X158718095Y-67804380D02*
X158670476Y-67852000D01*
X158670476Y-67852000D02*
X158527619Y-67899619D01*
X158527619Y-67899619D02*
X158432381Y-67899619D01*
X158432381Y-67899619D02*
X158289524Y-67852000D01*
X158289524Y-67852000D02*
X158194286Y-67756761D01*
X158194286Y-67756761D02*
X158146667Y-67661523D01*
X158146667Y-67661523D02*
X158099048Y-67471047D01*
X158099048Y-67471047D02*
X158099048Y-67328190D01*
X158099048Y-67328190D02*
X158146667Y-67137714D01*
X158146667Y-67137714D02*
X158194286Y-67042476D01*
X158194286Y-67042476D02*
X158289524Y-66947238D01*
X158289524Y-66947238D02*
X158432381Y-66899619D01*
X158432381Y-66899619D02*
X158527619Y-66899619D01*
X158527619Y-66899619D02*
X158670476Y-66947238D01*
X158670476Y-66947238D02*
X158718095Y-66994857D01*
D12*
%TO.C,R4*%
X88170000Y-41810000D02*
X94710000Y-41810000D01*
X88170000Y-42140000D02*
X88170000Y-41810000D01*
X88170000Y-44220000D02*
X88170000Y-44550000D01*
X88170000Y-44550000D02*
X94710000Y-44550000D01*
X94710000Y-41810000D02*
X94710000Y-42140000D01*
X94710000Y-44550000D02*
X94710000Y-44220000D01*
%TO.C,SWRIGHT1*%
X80669050Y-38060000D02*
G75*
G03*
X80669050Y-38060000I-4579050J0D01*
G01*
X70040000Y-31950000D02*
X82340000Y-31950000D01*
X70040000Y-34670000D02*
X70040000Y-31950000D01*
X70040000Y-39670000D02*
X70040000Y-36530000D01*
X70040000Y-44250000D02*
X70040000Y-41530000D01*
X82340000Y-31950000D02*
X82340000Y-34670000D01*
X82340000Y-36530000D02*
X82340000Y-39670000D01*
X82340000Y-41530000D02*
X82340000Y-44250000D01*
X82340000Y-44250000D02*
X70040000Y-44250000D01*
%TO.C,R5*%
X154210000Y-59590000D02*
X160750000Y-59590000D01*
X154210000Y-59920000D02*
X154210000Y-59590000D01*
X154210000Y-62000000D02*
X154210000Y-62330000D01*
X154210000Y-62330000D02*
X160750000Y-62330000D01*
X160750000Y-59590000D02*
X160750000Y-59920000D01*
X160750000Y-62330000D02*
X160750000Y-62000000D01*
D13*
%TO.C,U2*%
X91640000Y-82860000D02*
X91640000Y-71791000D01*
X91640000Y-82860000D02*
X91640000Y-54350000D01*
X142590000Y-82860000D02*
X91640000Y-82860000D01*
X142590000Y-82860000D02*
X91640000Y-82860000D01*
X142590000Y-82860000D02*
X142590000Y-77490000D01*
X142590000Y-77490000D02*
X142590000Y-59800000D01*
X91640000Y-71791000D02*
X91640000Y-65080000D01*
X91640000Y-65080000D02*
X91640000Y-54350000D01*
X142590000Y-59800000D02*
X142590000Y-54350000D01*
X91640000Y-54350000D02*
X142590000Y-54350000D01*
X91640000Y-54350000D02*
X142590000Y-54350000D01*
X142590000Y-54350000D02*
X142590000Y-82860000D01*
D14*
X101700000Y-83430000D02*
G75*
G03*
X101700000Y-83430000I-100000J0D01*
G01*
D12*
%TO.C,R2*%
X88360000Y-72490000D02*
X81820000Y-72490000D01*
X88360000Y-72160000D02*
X88360000Y-72490000D01*
X88360000Y-70080000D02*
X88360000Y-69750000D01*
X88360000Y-69750000D02*
X81820000Y-69750000D01*
X81820000Y-72490000D02*
X81820000Y-72160000D01*
X81820000Y-69750000D02*
X81820000Y-70080000D01*
%TO.C,SWNIGHTMODE1*%
X79509050Y-60880000D02*
G75*
G03*
X79509050Y-60880000I-4579050J0D01*
G01*
X68880000Y-54770000D02*
X81180000Y-54770000D01*
X68880000Y-57490000D02*
X68880000Y-54770000D01*
X68880000Y-62490000D02*
X68880000Y-59350000D01*
X68880000Y-67070000D02*
X68880000Y-64350000D01*
X81180000Y-54770000D02*
X81180000Y-57490000D01*
X81180000Y-59350000D02*
X81180000Y-62490000D01*
X81180000Y-64350000D02*
X81180000Y-67070000D01*
X81180000Y-67070000D02*
X68880000Y-67070000D01*
%TO.C,R6*%
X127540000Y-46890000D02*
X134080000Y-46890000D01*
X127540000Y-47220000D02*
X127540000Y-46890000D01*
X127540000Y-49300000D02*
X127540000Y-49630000D01*
X127540000Y-49630000D02*
X134080000Y-49630000D01*
X134080000Y-46890000D02*
X134080000Y-47220000D01*
X134080000Y-49630000D02*
X134080000Y-49300000D01*
%TO.C,SWBOTH1*%
X63400000Y-67070000D02*
X51100000Y-67070000D01*
X63400000Y-64350000D02*
X63400000Y-67070000D01*
X63400000Y-59350000D02*
X63400000Y-62490000D01*
X63400000Y-54770000D02*
X63400000Y-57490000D01*
X51100000Y-67070000D02*
X51100000Y-64350000D01*
X51100000Y-62490000D02*
X51100000Y-59350000D01*
X51100000Y-57490000D02*
X51100000Y-54770000D01*
X51100000Y-54770000D02*
X63400000Y-54770000D01*
X61729050Y-60880000D02*
G75*
G03*
X61729050Y-60880000I-4579050J0D01*
G01*
%TO.C,D1*%
X163350000Y-52199000D02*
X163350000Y-51880000D01*
X163350000Y-49720000D02*
X163350000Y-49401000D01*
X159046759Y-51880724D02*
G75*
G03*
X163349999Y-52198749I2243241J1080724D01*
G01*
X159607288Y-51880960D02*
G75*
G03*
X162973329Y-51879999I1682712J1080960D01*
G01*
X162973329Y-49720001D02*
G75*
G03*
X159607288Y-49719040I-1683329J-1079999D01*
G01*
X163349999Y-49401251D02*
G75*
G03*
X159046759Y-49719276I-2059999J-1398749D01*
G01*
%TO.C,U3*%
X121920000Y-43180000D02*
X147320000Y-43180000D01*
X147320000Y-43180000D02*
X147320000Y-27940000D01*
X147320000Y-27940000D02*
X121920000Y-27940000D01*
X121920000Y-27940000D02*
X121920000Y-43180000D01*
%TO.C,SWLEFT1*%
X60349050Y-38060000D02*
G75*
G03*
X60349050Y-38060000I-4579050J0D01*
G01*
X49720000Y-31950000D02*
X62020000Y-31950000D01*
X49720000Y-34670000D02*
X49720000Y-31950000D01*
X49720000Y-39670000D02*
X49720000Y-36530000D01*
X49720000Y-44250000D02*
X49720000Y-41530000D01*
X62020000Y-31950000D02*
X62020000Y-34670000D01*
X62020000Y-36530000D02*
X62020000Y-39670000D01*
X62020000Y-41530000D02*
X62020000Y-44250000D01*
X62020000Y-44250000D02*
X49720000Y-44250000D01*
%TO.C,J1*%
X163662500Y-25220000D02*
X163662500Y-39920000D01*
X154462500Y-25220000D02*
X163662500Y-25220000D01*
X154462500Y-34020000D02*
X154462500Y-25220000D01*
X163862500Y-39070000D02*
X163862500Y-40120000D01*
X163662500Y-39920000D02*
X161062500Y-39920000D01*
X157162500Y-39920000D02*
X154462500Y-39920000D01*
X154462500Y-39920000D02*
X154462500Y-38020000D01*
X162812500Y-40120000D02*
X163862500Y-40120000D01*
%TO.C,R3*%
X56610000Y-49630000D02*
X50070000Y-49630000D01*
X56610000Y-49300000D02*
X56610000Y-49630000D01*
X56610000Y-47220000D02*
X56610000Y-46890000D01*
X56610000Y-46890000D02*
X50070000Y-46890000D01*
X50070000Y-49630000D02*
X50070000Y-49300000D01*
X50070000Y-46890000D02*
X50070000Y-47220000D01*
%TO.C,D2*%
X153190000Y-52199000D02*
X153190000Y-51880000D01*
X153190000Y-49720000D02*
X153190000Y-49401000D01*
X148886759Y-51880724D02*
G75*
G03*
X153189999Y-52198749I2243241J1080724D01*
G01*
X149447288Y-51880960D02*
G75*
G03*
X152813329Y-51879999I1682712J1080960D01*
G01*
X152813329Y-49720001D02*
G75*
G03*
X149447288Y-49719040I-1683329J-1079999D01*
G01*
X153189999Y-49401251D02*
G75*
G03*
X148886759Y-49719276I-2059999J-1398749D01*
G01*
D11*
%TO.C,BluetoothHC1*%
X83760000Y-75843000D02*
X46760000Y-75843000D01*
X46760000Y-75843000D02*
X46760000Y-91543000D01*
X46760000Y-91543000D02*
X83760000Y-91543000D01*
X83760000Y-91543000D02*
X83760000Y-75843000D01*
X83760000Y-75843000D02*
X46760000Y-75843000D01*
X46760000Y-75843000D02*
X46760000Y-91543000D01*
X46760000Y-91543000D02*
X83760000Y-91543000D01*
X83760000Y-91543000D02*
X83760000Y-75843000D01*
D12*
%TO.C,R1*%
X61690000Y-72490000D02*
X55150000Y-72490000D01*
X61690000Y-72160000D02*
X61690000Y-72490000D01*
X61690000Y-70080000D02*
X61690000Y-69750000D01*
X61690000Y-69750000D02*
X55150000Y-69750000D01*
X55150000Y-72490000D02*
X55150000Y-72160000D01*
X55150000Y-69750000D02*
X55150000Y-70080000D01*
%TO.C,U4*%
X164562832Y-84201000D02*
G75*
G03*
X164562832Y-84201000I-1367832J0D01*
G01*
X164562832Y-68199000D02*
G75*
G03*
X164562832Y-68199000I-1367832J0D01*
G01*
X165735000Y-86487000D02*
X149225000Y-86487000D01*
X165735000Y-65913000D02*
X165735000Y-86487000D01*
X149225000Y-86487000D02*
X149225000Y-65913000D01*
X149225000Y-65913000D02*
X165735000Y-65913000D01*
%TD*%
M02*
