%TF.GenerationSoftware,KiCad,Pcbnew,7.0.2*%
%TF.CreationDate,2023-06-14T14:53:58-05:00*%
%TF.ProjectId,ControlRemoto,436f6e74-726f-46c5-9265-6d6f746f2e6b,rev?*%
%TF.SameCoordinates,Original*%
%TF.FileFunction,Copper,L2,Bot*%
%TF.FilePolarity,Positive*%
%FSLAX46Y46*%
G04 Gerber Fmt 4.6, Leading zero omitted, Abs format (unit mm)*
G04 Created by KiCad (PCBNEW 7.0.2) date 2023-06-14 14:53:58*
%MOMM*%
%LPD*%
G01*
G04 APERTURE LIST*
G04 Aperture macros list*
%AMRoundRect*
0 Rectangle with rounded corners*
0 $1 Rounding radius*
0 $2 $3 $4 $5 $6 $7 $8 $9 X,Y pos of 4 corners*
0 Add a 4 corners polygon primitive as box body*
4,1,4,$2,$3,$4,$5,$6,$7,$8,$9,$2,$3,0*
0 Add four circle primitives for the rounded corners*
1,1,$1+$1,$2,$3*
1,1,$1+$1,$4,$5*
1,1,$1+$1,$6,$7*
1,1,$1+$1,$8,$9*
0 Add four rect primitives between the rounded corners*
20,1,$1+$1,$2,$3,$4,$5,0*
20,1,$1+$1,$4,$5,$6,$7,0*
20,1,$1+$1,$6,$7,$8,$9,0*
20,1,$1+$1,$8,$9,$2,$3,0*%
G04 Aperture macros list end*
%TA.AperFunction,ComponentPad*%
%ADD10C,1.600000*%
%TD*%
%TA.AperFunction,ComponentPad*%
%ADD11O,1.600000X1.600000*%
%TD*%
%TA.AperFunction,ComponentPad*%
%ADD12O,3.048000X1.850000*%
%TD*%
%TA.AperFunction,ComponentPad*%
%ADD13RoundRect,0.250000X0.550000X-0.550000X0.550000X0.550000X-0.550000X0.550000X-0.550000X-0.550000X0*%
%TD*%
%TA.AperFunction,ComponentPad*%
%ADD14R,2.000000X2.000000*%
%TD*%
%TA.AperFunction,ComponentPad*%
%ADD15C,2.000000*%
%TD*%
%TA.AperFunction,ComponentPad*%
%ADD16R,1.800000X1.800000*%
%TD*%
%TA.AperFunction,ComponentPad*%
%ADD17C,1.800000*%
%TD*%
%TA.AperFunction,ComponentPad*%
%ADD18C,1.524000*%
%TD*%
%TA.AperFunction,ComponentPad*%
%ADD19R,3.500000X3.500000*%
%TD*%
%TA.AperFunction,ComponentPad*%
%ADD20RoundRect,0.750000X-1.000000X0.750000X-1.000000X-0.750000X1.000000X-0.750000X1.000000X0.750000X0*%
%TD*%
%TA.AperFunction,ComponentPad*%
%ADD21RoundRect,0.875000X-0.875000X0.875000X-0.875000X-0.875000X0.875000X-0.875000X0.875000X0.875000X0*%
%TD*%
%TA.AperFunction,Conductor*%
%ADD22C,0.900000*%
%TD*%
%TA.AperFunction,Conductor*%
%ADD23C,1.300000*%
%TD*%
G04 APERTURE END LIST*
D10*
%TO.P,R4,1*%
%TO.N,Net-(U2-D27)*%
X87630000Y-43180000D03*
D11*
%TO.P,R4,2*%
%TO.N,GND*%
X95250000Y-43180000D03*
%TD*%
D12*
%TO.P,SWRIGHT1,2,2*%
%TO.N,+5V*%
X69940000Y-35600000D03*
X82440000Y-35600000D03*
%TO.P,SWRIGHT1,1,1*%
%TO.N,Net-(U2-D27)*%
X69940000Y-40600000D03*
X82440000Y-40600000D03*
%TD*%
D13*
%TO.P,BT1,1,+*%
%TO.N,/bat*%
X111760000Y-38100000D03*
D10*
%TO.P,BT1,2,-*%
%TO.N,GND*%
X111760000Y-34500000D03*
%TD*%
%TO.P,R5,1*%
%TO.N,Net-(U2-D25)*%
X153670000Y-60960000D03*
D11*
%TO.P,R5,2*%
%TO.N,Net-(D1-A)*%
X161290000Y-60960000D03*
%TD*%
D14*
%TO.P,U2,1,3V3*%
%TO.N,+3.3V*%
X101600000Y-81280000D03*
D15*
%TO.P,U2,2,GND*%
%TO.N,GND*%
X104140000Y-81280000D03*
%TO.P,U2,3,D15*%
%TO.N,unconnected-(U2-D15-Pad3)*%
X106680000Y-81280000D03*
%TO.P,U2,4,D2*%
%TO.N,unconnected-(U2-D2-Pad4)*%
X109220000Y-81280000D03*
%TO.P,U2,5,D4*%
%TO.N,unconnected-(U2-D4-Pad5)*%
X111760000Y-81280000D03*
%TO.P,U2,6,RX2*%
%TO.N,unconnected-(U2-RX2-Pad6)*%
X114300000Y-81280000D03*
%TO.P,U2,7,TX2*%
%TO.N,unconnected-(U2-TX2-Pad7)*%
X116840000Y-81280000D03*
%TO.P,U2,8,D5*%
%TO.N,unconnected-(U2-D5-Pad8)*%
X119380000Y-81280000D03*
%TO.P,U2,9,D18*%
%TO.N,Net-(U2-D18)*%
X121920000Y-81280000D03*
%TO.P,U2,10,D19*%
%TO.N,Net-(U2-D19)*%
X124460000Y-81280000D03*
%TO.P,U2,11,D21*%
%TO.N,Net-(U2-D21)*%
X127000000Y-81280000D03*
%TO.P,U2,12,RX0*%
%TO.N,Net-(BluetoothHC1-TX)*%
X129540000Y-81280000D03*
%TO.P,U2,13,TX0*%
%TO.N,Net-(BluetoothHC1-RX)*%
X132080000Y-81280000D03*
%TO.P,U2,14,D22*%
%TO.N,unconnected-(U2-D22-Pad14)*%
X134620000Y-81280000D03*
%TO.P,U2,15,D23*%
%TO.N,unconnected-(U2-D23-Pad15)*%
X137160000Y-81280000D03*
%TO.P,U2,16,EN*%
%TO.N,unconnected-(U2-EN-Pad16)*%
X137160000Y-55880000D03*
%TO.P,U2,17,VP*%
%TO.N,unconnected-(U2-VP-Pad17)*%
X134620000Y-55880000D03*
%TO.P,U2,18,VN*%
%TO.N,unconnected-(U2-VN-Pad18)*%
X132080000Y-55880000D03*
%TO.P,U2,19,D34*%
%TO.N,unconnected-(U2-D34-Pad19)*%
X129540000Y-55880000D03*
%TO.P,U2,20,D35*%
%TO.N,Net-(U2-D35)*%
X127000000Y-55880000D03*
%TO.P,U2,21,D32*%
%TO.N,unconnected-(U2-D32-Pad21)*%
X124460000Y-55880000D03*
%TO.P,U2,22,D33*%
%TO.N,unconnected-(U2-D33-Pad22)*%
X121920000Y-55880000D03*
%TO.P,U2,23,D25*%
%TO.N,Net-(U2-D25)*%
X119380000Y-55880000D03*
%TO.P,U2,24,D26*%
%TO.N,unconnected-(U2-D26-Pad24)*%
X116840000Y-55880000D03*
%TO.P,U2,25,D27*%
%TO.N,Net-(U2-D27)*%
X114300000Y-55880000D03*
%TO.P,U2,26,D14*%
%TO.N,Net-(U2-D14)*%
X111760000Y-55880000D03*
%TO.P,U2,27,D12*%
%TO.N,Net-(U2-D12)*%
X109220000Y-55880000D03*
%TO.P,U2,28,D13*%
%TO.N,Net-(U2-D13)*%
X106680000Y-55880000D03*
%TO.P,U2,29,GND__1*%
%TO.N,GND*%
X104140000Y-55880000D03*
%TO.P,U2,30,VIN*%
%TO.N,+5V*%
X101600000Y-55880000D03*
%TD*%
D10*
%TO.P,R2,1*%
%TO.N,GND*%
X88900000Y-71120000D03*
D11*
%TO.P,R2,2*%
%TO.N,Net-(U2-D13)*%
X81280000Y-71120000D03*
%TD*%
D12*
%TO.P,SWNIGHTMODE1,2,2*%
%TO.N,+5V*%
X68780000Y-58420000D03*
X81280000Y-58420000D03*
%TO.P,SWNIGHTMODE1,1,1*%
%TO.N,Net-(U2-D13)*%
X68780000Y-63420000D03*
X81280000Y-63420000D03*
%TD*%
D10*
%TO.P,R6,1*%
%TO.N,Net-(U2-D35)*%
X127000000Y-48260000D03*
D11*
%TO.P,R6,2*%
%TO.N,Net-(D2-A)*%
X134620000Y-48260000D03*
%TD*%
D12*
%TO.P,SWBOTH1,1,1*%
%TO.N,Net-(U2-D14)*%
X63500000Y-63420000D03*
X51000000Y-63420000D03*
%TO.P,SWBOTH1,2,2*%
%TO.N,+5V*%
X63500000Y-58420000D03*
X51000000Y-58420000D03*
%TD*%
D16*
%TO.P,D1,1,K*%
%TO.N,GND*%
X162560000Y-50800000D03*
D17*
%TO.P,D1,2,A*%
%TO.N,Net-(D1-A)*%
X160020000Y-50800000D03*
%TD*%
D18*
%TO.P,U3,1,VIN*%
%TO.N,VCC*%
X146050000Y-41910000D03*
%TO.P,U3,2,GND*%
%TO.N,GND*%
X146050000Y-39370000D03*
%TO.P,U3,3,GND*%
X146050000Y-36830000D03*
%TO.P,U3,4,BAT*%
%TO.N,/bat*%
X146050000Y-34290000D03*
%TO.P,U3,5,GND*%
%TO.N,GND*%
X146050000Y-31750000D03*
%TO.P,U3,6,OUT-5V*%
%TO.N,/5vout*%
X146050000Y-29210000D03*
%TD*%
D12*
%TO.P,SWLEFT1,2,2*%
%TO.N,+5V*%
X49620000Y-35600000D03*
X62120000Y-35600000D03*
%TO.P,SWLEFT1,1,1*%
%TO.N,Net-(U2-D12)*%
X49620000Y-40600000D03*
X62120000Y-40600000D03*
%TD*%
D13*
%TO.P,SW1,1,A*%
%TO.N,GND*%
X101600000Y-39160000D03*
D10*
%TO.P,SW1,2,B*%
%TO.N,/5vout*%
X101600000Y-35560000D03*
%TO.P,SW1,3,C*%
%TO.N,+5V*%
X101600000Y-31960000D03*
%TD*%
D19*
%TO.P,J1,1*%
%TO.N,VCC*%
X159062500Y-39020000D03*
D20*
%TO.P,J1,2*%
%TO.N,GND*%
X159062500Y-33020000D03*
D21*
%TO.P,J1,3*%
X154362500Y-36020000D03*
%TD*%
D10*
%TO.P,R3,1*%
%TO.N,GND*%
X57150000Y-48260000D03*
D11*
%TO.P,R3,2*%
%TO.N,Net-(U2-D12)*%
X49530000Y-48260000D03*
%TD*%
D16*
%TO.P,D2,1,K*%
%TO.N,GND*%
X152400000Y-50800000D03*
D17*
%TO.P,D2,2,A*%
%TO.N,Net-(D2-A)*%
X149860000Y-50800000D03*
%TD*%
%TO.P,BluetoothHC1,1,STATE*%
%TO.N,unconnected-(BluetoothHC1-STATE-Pad1)*%
X48260000Y-77343000D03*
%TO.P,BluetoothHC1,2,RX*%
%TO.N,Net-(BluetoothHC1-RX)*%
X48260000Y-79883000D03*
%TO.P,BluetoothHC1,3,TX*%
%TO.N,Net-(BluetoothHC1-TX)*%
X48260000Y-82423000D03*
%TO.P,BluetoothHC1,4,GND*%
%TO.N,GND*%
X48260000Y-84963000D03*
%TO.P,BluetoothHC1,5,+5V*%
%TO.N,+5V*%
X48260000Y-87503000D03*
%TO.P,BluetoothHC1,6,EN*%
%TO.N,unconnected-(BluetoothHC1-EN-Pad6)*%
X48260000Y-90043000D03*
%TD*%
D10*
%TO.P,R1,1*%
%TO.N,GND*%
X62230000Y-71120000D03*
D11*
%TO.P,R1,2*%
%TO.N,Net-(U2-D14)*%
X54610000Y-71120000D03*
%TD*%
D18*
%TO.P,U4,8,INT*%
%TO.N,Net-(U2-D18)*%
X150495000Y-85217000D03*
%TO.P,U4,7,ADD*%
%TO.N,unconnected-(U4-ADD-Pad7)*%
X150495000Y-82677000D03*
%TO.P,U4,6,XCL*%
%TO.N,unconnected-(U4-XCL-Pad6)*%
X150495000Y-80137000D03*
%TO.P,U4,5,XDA*%
%TO.N,unconnected-(U4-XDA-Pad5)*%
X150495000Y-77597000D03*
%TO.P,U4,4,SDA*%
%TO.N,Net-(U2-D19)*%
X150495000Y-75057000D03*
%TO.P,U4,3,SCL*%
%TO.N,Net-(U2-D21)*%
X150495000Y-72517000D03*
%TO.P,U4,2,GND*%
%TO.N,GND*%
X150495000Y-69977000D03*
%TO.P,U4,1,VCC*%
%TO.N,+3.3V*%
X150495000Y-67437000D03*
%TD*%
D22*
%TO.N,Net-(U2-D27)*%
X87630000Y-43180000D02*
X87630000Y-48366000D01*
X87630000Y-48366000D02*
X88900000Y-49636000D01*
X88900000Y-49636000D02*
X86360000Y-49636000D01*
X108056000Y-49636000D02*
X88900000Y-49636000D01*
D23*
%TO.N,+5V*%
X86320000Y-35600000D02*
X91440000Y-30480000D01*
X82440000Y-35600000D02*
X86320000Y-35600000D01*
D22*
%TO.N,Net-(U2-D12)*%
X109220000Y-53340000D02*
X109220000Y-55880000D01*
X106680000Y-50800000D02*
X109220000Y-53340000D01*
X73660000Y-50800000D02*
X106680000Y-50800000D01*
X63460000Y-40600000D02*
X73660000Y-50800000D01*
X62120000Y-40600000D02*
X63460000Y-40600000D01*
D23*
%TO.N,+5V*%
X95860000Y-58750000D02*
X98730000Y-55880000D01*
X98730000Y-55880000D02*
X101600000Y-55880000D01*
X81610000Y-58750000D02*
X95860000Y-58750000D01*
X81280000Y-58420000D02*
X81610000Y-58750000D01*
D22*
%TO.N,Net-(BluetoothHC1-RX)*%
X49636000Y-81259000D02*
X48260000Y-79883000D01*
X76200000Y-78740000D02*
X73681000Y-81259000D01*
X73681000Y-81259000D02*
X49636000Y-81259000D01*
X81280000Y-78740000D02*
X76200000Y-78740000D01*
X87009855Y-76190000D02*
X86999855Y-76200000D01*
X83820000Y-76200000D02*
X81280000Y-78740000D01*
X132080000Y-81280000D02*
X126990000Y-76190000D01*
X126990000Y-76190000D02*
X87009855Y-76190000D01*
X86999855Y-76200000D02*
X83820000Y-76200000D01*
D23*
%TO.N,+5V*%
X101600000Y-31960000D02*
X100120000Y-30480000D01*
X100120000Y-30480000D02*
X91440000Y-30480000D01*
%TO.N,/5vout*%
X104140000Y-35560000D02*
X101600000Y-35560000D01*
X110490000Y-29210000D02*
X104140000Y-35560000D01*
X146050000Y-29210000D02*
X110490000Y-29210000D01*
D22*
%TO.N,Net-(U2-D14)*%
X51000000Y-71320000D02*
X51000000Y-68780000D01*
X54706000Y-75026000D02*
X51000000Y-71320000D01*
X111760000Y-68580000D02*
X105314000Y-75026000D01*
X111760000Y-55880000D02*
X111760000Y-68580000D01*
X105314000Y-75026000D02*
X54706000Y-75026000D01*
%TO.N,Net-(U2-D27)*%
X86360000Y-49636000D02*
X76200000Y-49636000D01*
X76200000Y-49636000D02*
X76200000Y-40600000D01*
X114300000Y-55880000D02*
X108056000Y-49636000D01*
X76200000Y-40600000D02*
X82440000Y-40600000D01*
X69940000Y-40600000D02*
X76200000Y-40600000D01*
D23*
%TO.N,+3.3V*%
X154417000Y-91440000D02*
X154417000Y-68057000D01*
X154417000Y-68057000D02*
X153797000Y-67437000D01*
X109460000Y-91440000D02*
X154417000Y-91440000D01*
X101600000Y-83580000D02*
X109460000Y-91440000D01*
X153797000Y-67437000D02*
X150495000Y-67437000D01*
X101600000Y-81280000D02*
X101600000Y-83580000D01*
D22*
%TO.N,Net-(U2-D18)*%
X148188000Y-87524000D02*
X150495000Y-85217000D01*
X128164000Y-87524000D02*
X148188000Y-87524000D01*
X121920000Y-81280000D02*
X128164000Y-87524000D01*
%TO.N,Net-(BluetoothHC1-TX)*%
X87492000Y-77354000D02*
X82423000Y-82423000D01*
X125614000Y-77354000D02*
X87492000Y-77354000D01*
X129540000Y-81280000D02*
X125614000Y-77354000D01*
X82423000Y-82423000D02*
X48260000Y-82423000D01*
D23*
%TO.N,+5V*%
X82440000Y-35600000D02*
X69940000Y-35600000D01*
X48260000Y-58420000D02*
X51000000Y-58420000D01*
X43180000Y-53340000D02*
X48260000Y-58420000D01*
X44323000Y-87503000D02*
X48260000Y-87503000D01*
X51000000Y-58420000D02*
X63500000Y-58420000D01*
X43180000Y-42040000D02*
X43180000Y-53340000D01*
X63500000Y-58420000D02*
X68780000Y-58420000D01*
X49620000Y-35600000D02*
X43180000Y-42040000D01*
X69940000Y-35600000D02*
X62120000Y-35600000D01*
X62120000Y-35600000D02*
X49620000Y-35600000D01*
X81280000Y-58420000D02*
X68780000Y-58420000D01*
X43180000Y-53340000D02*
X43180000Y-86360000D01*
X43180000Y-86360000D02*
X44323000Y-87503000D01*
D22*
%TO.N,Net-(D1-A)*%
X162560000Y-58420000D02*
X160020000Y-55880000D01*
X160020000Y-55880000D02*
X160020000Y-50800000D01*
X162560000Y-59690000D02*
X162560000Y-58420000D01*
X161290000Y-60960000D02*
X162560000Y-59690000D01*
%TO.N,Net-(D2-A)*%
X149860000Y-50800000D02*
X135890000Y-50800000D01*
X134620000Y-49530000D02*
X134620000Y-48260000D01*
X135890000Y-50800000D02*
X134620000Y-49530000D01*
D23*
%TO.N,/bat*%
X115570000Y-34290000D02*
X111760000Y-38100000D01*
X146050000Y-34290000D02*
X115570000Y-34290000D01*
D22*
%TO.N,Net-(U2-D12)*%
X49620000Y-40600000D02*
X62120000Y-40600000D01*
X49620000Y-40600000D02*
X49620000Y-48170000D01*
X49620000Y-48170000D02*
X49530000Y-48260000D01*
%TO.N,Net-(U2-D25)*%
X122050000Y-58550000D02*
X144650000Y-58550000D01*
X147060000Y-60960000D02*
X153670000Y-60960000D01*
X144650000Y-58550000D02*
X147060000Y-60960000D01*
X119380000Y-55880000D02*
X122050000Y-58550000D01*
%TO.N,Net-(U2-D14)*%
X51000000Y-63420000D02*
X51000000Y-68780000D01*
X51000000Y-68780000D02*
X53340000Y-71120000D01*
X51000000Y-63420000D02*
X63500000Y-63420000D01*
X53340000Y-71120000D02*
X54610000Y-71120000D01*
%TO.N,Net-(U2-D13)*%
X101680000Y-63420000D02*
X106680000Y-58420000D01*
X106680000Y-58420000D02*
X106680000Y-55880000D01*
X80010000Y-64690000D02*
X81280000Y-63420000D01*
X80010000Y-69850000D02*
X80010000Y-64690000D01*
X81280000Y-63420000D02*
X101680000Y-63420000D01*
X68580000Y-63420000D02*
X81080000Y-63420000D01*
X81280000Y-71120000D02*
X80010000Y-69850000D01*
%TO.N,Net-(U2-D35)*%
X127000000Y-48260000D02*
X127000000Y-55880000D01*
%TO.N,Net-(U2-D19)*%
X147320000Y-81280000D02*
X147320000Y-78232000D01*
X129540000Y-86360000D02*
X142240000Y-86360000D01*
X142240000Y-86360000D02*
X147320000Y-81280000D01*
X147320000Y-78232000D02*
X150495000Y-75057000D01*
X124460000Y-81280000D02*
X129540000Y-86360000D01*
%TO.N,Net-(U2-D21)*%
X144780000Y-80772000D02*
X144780000Y-78232000D01*
X129540000Y-83820000D02*
X141732000Y-83820000D01*
X144780000Y-78232000D02*
X150495000Y-72517000D01*
X141732000Y-83820000D02*
X144780000Y-80772000D01*
X127000000Y-81280000D02*
X129540000Y-83820000D01*
D23*
%TO.N,VCC*%
X146050000Y-41910000D02*
X156172500Y-41910000D01*
X156172500Y-41910000D02*
X159062500Y-39020000D01*
%TD*%
%TA.AperFunction,Conductor*%
%TO.N,GND*%
G36*
X153209539Y-68607185D02*
G01*
X153255294Y-68659989D01*
X153266500Y-68711500D01*
X153266500Y-90165500D01*
X153246815Y-90232539D01*
X153194011Y-90278294D01*
X153142500Y-90289500D01*
X109987914Y-90289500D01*
X109920875Y-90269815D01*
X109900233Y-90253181D01*
X102786819Y-83139766D01*
X102753334Y-83078443D01*
X102750500Y-83052085D01*
X102750500Y-82844142D01*
X102770185Y-82777103D01*
X102822989Y-82731348D01*
X102831169Y-82727959D01*
X102831453Y-82727853D01*
X102842331Y-82723796D01*
X102957546Y-82637546D01*
X103043796Y-82522331D01*
X103043796Y-82522328D01*
X103054480Y-82508058D01*
X103056250Y-82509383D01*
X103082917Y-82473756D01*
X103148379Y-82449335D01*
X103216653Y-82464182D01*
X103233396Y-82475164D01*
X103316767Y-82540054D01*
X103535393Y-82658368D01*
X103770506Y-82739083D01*
X104015707Y-82780000D01*
X104264293Y-82780000D01*
X104509493Y-82739083D01*
X104744606Y-82658368D01*
X104963233Y-82540053D01*
X105010056Y-82503609D01*
X104281366Y-81774918D01*
X104285161Y-81774373D01*
X104418562Y-81713451D01*
X104529395Y-81617413D01*
X104608682Y-81494040D01*
X104631132Y-81417581D01*
X105363434Y-82149882D01*
X105374862Y-82148697D01*
X105443574Y-82161360D01*
X105484273Y-82197780D01*
X105484877Y-82197225D01*
X105490599Y-82203441D01*
X105491462Y-82204213D01*
X105491836Y-82204785D01*
X105660256Y-82387738D01*
X105705559Y-82422999D01*
X105856485Y-82540470D01*
X105856487Y-82540471D01*
X105856491Y-82540474D01*
X106075190Y-82658828D01*
X106310386Y-82739571D01*
X106555665Y-82780500D01*
X106804335Y-82780500D01*
X107049614Y-82739571D01*
X107284810Y-82658828D01*
X107503509Y-82540474D01*
X107699744Y-82387738D01*
X107858771Y-82214988D01*
X107918657Y-82178999D01*
X107988495Y-82181099D01*
X108041228Y-82214988D01*
X108200256Y-82387738D01*
X108245559Y-82422999D01*
X108396485Y-82540470D01*
X108396487Y-82540471D01*
X108396491Y-82540474D01*
X108615190Y-82658828D01*
X108850386Y-82739571D01*
X109095665Y-82780500D01*
X109344335Y-82780500D01*
X109589614Y-82739571D01*
X109824810Y-82658828D01*
X110043509Y-82540474D01*
X110239744Y-82387738D01*
X110398771Y-82214988D01*
X110458657Y-82178999D01*
X110528495Y-82181099D01*
X110581228Y-82214988D01*
X110740256Y-82387738D01*
X110785559Y-82422999D01*
X110936485Y-82540470D01*
X110936487Y-82540471D01*
X110936491Y-82540474D01*
X111155190Y-82658828D01*
X111390386Y-82739571D01*
X111635665Y-82780500D01*
X111884335Y-82780500D01*
X112129614Y-82739571D01*
X112364810Y-82658828D01*
X112583509Y-82540474D01*
X112779744Y-82387738D01*
X112938771Y-82214988D01*
X112998657Y-82178999D01*
X113068495Y-82181099D01*
X113121228Y-82214988D01*
X113280256Y-82387738D01*
X113325559Y-82422999D01*
X113476485Y-82540470D01*
X113476487Y-82540471D01*
X113476491Y-82540474D01*
X113695190Y-82658828D01*
X113930386Y-82739571D01*
X114175665Y-82780500D01*
X114424335Y-82780500D01*
X114669614Y-82739571D01*
X114904810Y-82658828D01*
X115123509Y-82540474D01*
X115319744Y-82387738D01*
X115478771Y-82214988D01*
X115538657Y-82178999D01*
X115608495Y-82181099D01*
X115661228Y-82214988D01*
X115820256Y-82387738D01*
X115865559Y-82422999D01*
X116016485Y-82540470D01*
X116016487Y-82540471D01*
X116016491Y-82540474D01*
X116235190Y-82658828D01*
X116470386Y-82739571D01*
X116715665Y-82780500D01*
X116964335Y-82780500D01*
X117209614Y-82739571D01*
X117444810Y-82658828D01*
X117663509Y-82540474D01*
X117859744Y-82387738D01*
X118018771Y-82214988D01*
X118078657Y-82178999D01*
X118148495Y-82181099D01*
X118201228Y-82214988D01*
X118360256Y-82387738D01*
X118405559Y-82422999D01*
X118556485Y-82540470D01*
X118556487Y-82540471D01*
X118556491Y-82540474D01*
X118775190Y-82658828D01*
X119010386Y-82739571D01*
X119255665Y-82780500D01*
X119504335Y-82780500D01*
X119749614Y-82739571D01*
X119984810Y-82658828D01*
X120203509Y-82540474D01*
X120399744Y-82387738D01*
X120558771Y-82214988D01*
X120618657Y-82178999D01*
X120688495Y-82181099D01*
X120741228Y-82214988D01*
X120900256Y-82387738D01*
X120945559Y-82422999D01*
X121096485Y-82540470D01*
X121096487Y-82540471D01*
X121096491Y-82540474D01*
X121315190Y-82658828D01*
X121550386Y-82739571D01*
X121795665Y-82780500D01*
X122024928Y-82780500D01*
X122091967Y-82800185D01*
X122112609Y-82816819D01*
X127482255Y-88186465D01*
X127484411Y-88188675D01*
X127541677Y-88248919D01*
X127587493Y-88280808D01*
X127594982Y-88286454D01*
X127638249Y-88321733D01*
X127663523Y-88334935D01*
X127676934Y-88343061D01*
X127683291Y-88347485D01*
X127700339Y-88359352D01*
X127716183Y-88366151D01*
X127751642Y-88381367D01*
X127760132Y-88385399D01*
X127801340Y-88406925D01*
X127809593Y-88411236D01*
X127836990Y-88419075D01*
X127851779Y-88424340D01*
X127877988Y-88435587D01*
X127932657Y-88446821D01*
X127941805Y-88449066D01*
X127995448Y-88464416D01*
X128023865Y-88466579D01*
X128039412Y-88468760D01*
X128067342Y-88474500D01*
X128067344Y-88474500D01*
X128123160Y-88474500D01*
X128132574Y-88474858D01*
X128188203Y-88479094D01*
X128216470Y-88475493D01*
X128232136Y-88474500D01*
X148174374Y-88474500D01*
X148177516Y-88474540D01*
X148260542Y-88476644D01*
X148260542Y-88476643D01*
X148260546Y-88476644D01*
X148315497Y-88466794D01*
X148324788Y-88465491D01*
X148380321Y-88459845D01*
X148407535Y-88451305D01*
X148422760Y-88447569D01*
X148450828Y-88442539D01*
X148502658Y-88421834D01*
X148511515Y-88418682D01*
X148526853Y-88413869D01*
X148564768Y-88401974D01*
X148589701Y-88388134D01*
X148603868Y-88381406D01*
X148630348Y-88370830D01*
X148676951Y-88340114D01*
X148684995Y-88335242D01*
X148733789Y-88308160D01*
X148733788Y-88308160D01*
X148733791Y-88308159D01*
X148755423Y-88289586D01*
X148767952Y-88280139D01*
X148791759Y-88264451D01*
X148831215Y-88224994D01*
X148838127Y-88218588D01*
X148880468Y-88182240D01*
X148897923Y-88159688D01*
X148908285Y-88147923D01*
X150547346Y-86508862D01*
X150608667Y-86475379D01*
X150624210Y-86473018D01*
X150715068Y-86465070D01*
X150928450Y-86407894D01*
X151128662Y-86314534D01*
X151309620Y-86187826D01*
X151465826Y-86031620D01*
X151592534Y-85850662D01*
X151685894Y-85650450D01*
X151743070Y-85437068D01*
X151762323Y-85217000D01*
X151743070Y-84996932D01*
X151685894Y-84783550D01*
X151592534Y-84583339D01*
X151465826Y-84402380D01*
X151309620Y-84246174D01*
X151128662Y-84119466D01*
X150999811Y-84059382D01*
X150947372Y-84013210D01*
X150928220Y-83946016D01*
X150948436Y-83879135D01*
X150999811Y-83834618D01*
X151017087Y-83826562D01*
X151128662Y-83774534D01*
X151309620Y-83647826D01*
X151465826Y-83491620D01*
X151592534Y-83310662D01*
X151685894Y-83110450D01*
X151743070Y-82897068D01*
X151762323Y-82677000D01*
X151743070Y-82456932D01*
X151685894Y-82243550D01*
X151592534Y-82043339D01*
X151465826Y-81862380D01*
X151309620Y-81706174D01*
X151128662Y-81579466D01*
X151099810Y-81566012D01*
X150999811Y-81519381D01*
X150947372Y-81473208D01*
X150928220Y-81406015D01*
X150948436Y-81339133D01*
X150999810Y-81294618D01*
X151128662Y-81234534D01*
X151309620Y-81107826D01*
X151465826Y-80951620D01*
X151592534Y-80770662D01*
X151685894Y-80570450D01*
X151743070Y-80357068D01*
X151762323Y-80137000D01*
X151743070Y-79916932D01*
X151685894Y-79703550D01*
X151592534Y-79503339D01*
X151465826Y-79322380D01*
X151309620Y-79166174D01*
X151128662Y-79039466D01*
X150999811Y-78979382D01*
X150947372Y-78933210D01*
X150928220Y-78866016D01*
X150948436Y-78799135D01*
X150999811Y-78754618D01*
X151005027Y-78752185D01*
X151128662Y-78694534D01*
X151309620Y-78567826D01*
X151465826Y-78411620D01*
X151592534Y-78230662D01*
X151685894Y-78030450D01*
X151743070Y-77817068D01*
X151762323Y-77597000D01*
X151760337Y-77574305D01*
X151743070Y-77376934D01*
X151743070Y-77376932D01*
X151685894Y-77163550D01*
X151592534Y-76963339D01*
X151465826Y-76782380D01*
X151309620Y-76626174D01*
X151128662Y-76499466D01*
X151128662Y-76499465D01*
X150999811Y-76439381D01*
X150947372Y-76393208D01*
X150928220Y-76326015D01*
X150948436Y-76259133D01*
X150999810Y-76214618D01*
X151128662Y-76154534D01*
X151309620Y-76027826D01*
X151465826Y-75871620D01*
X151592534Y-75690662D01*
X151685894Y-75490450D01*
X151743070Y-75277068D01*
X151762323Y-75057000D01*
X151743070Y-74836932D01*
X151685894Y-74623550D01*
X151592534Y-74423339D01*
X151465826Y-74242380D01*
X151309620Y-74086174D01*
X151128662Y-73959466D01*
X150999811Y-73899382D01*
X150947372Y-73853210D01*
X150928220Y-73786016D01*
X150948436Y-73719135D01*
X150999811Y-73674618D01*
X151005027Y-73672185D01*
X151128662Y-73614534D01*
X151309620Y-73487826D01*
X151465826Y-73331620D01*
X151592534Y-73150662D01*
X151685894Y-72950450D01*
X151743070Y-72737068D01*
X151762323Y-72517000D01*
X151743070Y-72296932D01*
X151685894Y-72083550D01*
X151592534Y-71883339D01*
X151465826Y-71702380D01*
X151309620Y-71546174D01*
X151128662Y-71419466D01*
X151070932Y-71392546D01*
X150999218Y-71359105D01*
X150946779Y-71312932D01*
X150927627Y-71245739D01*
X150947843Y-71178858D01*
X150999220Y-71134340D01*
X151128411Y-71074098D01*
X151193187Y-71028740D01*
X150522448Y-70358000D01*
X150526569Y-70358000D01*
X150620421Y-70342339D01*
X150732251Y-70281820D01*
X150818371Y-70188269D01*
X150869448Y-70071823D01*
X150875105Y-70003552D01*
X151546740Y-70675186D01*
X151592100Y-70610408D01*
X151685420Y-70410281D01*
X151742575Y-70196978D01*
X151761821Y-69977000D01*
X151742575Y-69757021D01*
X151685421Y-69543720D01*
X151592098Y-69343589D01*
X151546740Y-69278811D01*
X150879903Y-69945648D01*
X150879949Y-69945102D01*
X150848734Y-69821838D01*
X150779187Y-69715388D01*
X150678843Y-69637287D01*
X150558578Y-69596000D01*
X150522447Y-69596000D01*
X151193187Y-68925258D01*
X151128408Y-68879900D01*
X151008277Y-68823882D01*
X150955838Y-68777710D01*
X150936686Y-68710516D01*
X150956902Y-68643635D01*
X151010067Y-68598301D01*
X151060682Y-68587500D01*
X153142500Y-68587500D01*
X153209539Y-68607185D01*
G37*
%TD.AperFunction*%
%TA.AperFunction,Conductor*%
G36*
X103671318Y-56094040D02*
G01*
X103750605Y-56217413D01*
X103861438Y-56313451D01*
X103994839Y-56374373D01*
X103998634Y-56374918D01*
X103269942Y-57103609D01*
X103269942Y-57103610D01*
X103316766Y-57140055D01*
X103535393Y-57258368D01*
X103770506Y-57339083D01*
X104015707Y-57380000D01*
X104264293Y-57380000D01*
X104509493Y-57339083D01*
X104744606Y-57258368D01*
X104963233Y-57140053D01*
X105010056Y-57103609D01*
X104281365Y-56374918D01*
X104285161Y-56374373D01*
X104418562Y-56313451D01*
X104529395Y-56217413D01*
X104608682Y-56094040D01*
X104631132Y-56017581D01*
X105363434Y-56749882D01*
X105374862Y-56748697D01*
X105443574Y-56761360D01*
X105484273Y-56797780D01*
X105484877Y-56797225D01*
X105490599Y-56803441D01*
X105491462Y-56804213D01*
X105491836Y-56804785D01*
X105660256Y-56987738D01*
X105660258Y-56987740D01*
X105681661Y-57004398D01*
X105722475Y-57061107D01*
X105729500Y-57102252D01*
X105729500Y-57974928D01*
X105709815Y-58041967D01*
X105693181Y-58062609D01*
X101322609Y-62433181D01*
X101261286Y-62466666D01*
X101234928Y-62469500D01*
X82997470Y-62469500D01*
X82930431Y-62449815D01*
X82904386Y-62427423D01*
X82868925Y-62387131D01*
X82680130Y-62234688D01*
X82468287Y-62116346D01*
X82239490Y-62035507D01*
X82000330Y-61994500D01*
X82000328Y-61994500D01*
X80620446Y-61994500D01*
X80617830Y-61994722D01*
X80617821Y-61994723D01*
X80439219Y-62009924D01*
X80204390Y-62071068D01*
X79983277Y-62171018D01*
X79782235Y-62306899D01*
X79698523Y-62387131D01*
X79656484Y-62427423D01*
X79648554Y-62435023D01*
X79586534Y-62467198D01*
X79562754Y-62469500D01*
X70497470Y-62469500D01*
X70430431Y-62449815D01*
X70404386Y-62427423D01*
X70368925Y-62387131D01*
X70180130Y-62234688D01*
X69968287Y-62116346D01*
X69739490Y-62035507D01*
X69500330Y-61994500D01*
X69500328Y-61994500D01*
X68120446Y-61994500D01*
X68117830Y-61994722D01*
X68117821Y-61994723D01*
X67939219Y-62009924D01*
X67704390Y-62071068D01*
X67483277Y-62171018D01*
X67282235Y-62306899D01*
X67107047Y-62474803D01*
X66962756Y-62669897D01*
X66853512Y-62886570D01*
X66782457Y-63118590D01*
X66751635Y-63359284D01*
X66761933Y-63601716D01*
X66813056Y-63838930D01*
X66900161Y-64055697D01*
X66903532Y-64064086D01*
X67007862Y-64233528D01*
X67030759Y-64270715D01*
X67191074Y-64452868D01*
X67379869Y-64605311D01*
X67591712Y-64723653D01*
X67820509Y-64804492D01*
X68059670Y-64845500D01*
X68059672Y-64845500D01*
X69436923Y-64845500D01*
X69439554Y-64845500D01*
X69620782Y-64830075D01*
X69795584Y-64784560D01*
X69855609Y-64768931D01*
X69976680Y-64714203D01*
X70076723Y-64668981D01*
X70277765Y-64533100D01*
X70411446Y-64404976D01*
X70473466Y-64372802D01*
X70497246Y-64370500D01*
X78948317Y-64370500D01*
X79015356Y-64390185D01*
X79061111Y-64442989D01*
X79071055Y-64512147D01*
X79069868Y-64517693D01*
X79067418Y-64549875D01*
X79065238Y-64565419D01*
X79059500Y-64593342D01*
X79059500Y-64649146D01*
X79059142Y-64658560D01*
X79054905Y-64714203D01*
X79058506Y-64742476D01*
X79059500Y-64758142D01*
X79059500Y-69836374D01*
X79059460Y-69839516D01*
X79057355Y-69922546D01*
X79067199Y-69977469D01*
X79068508Y-69986797D01*
X79074155Y-70042321D01*
X79082689Y-70069520D01*
X79086431Y-70084764D01*
X79091461Y-70112829D01*
X79112159Y-70164645D01*
X79115319Y-70173520D01*
X79132026Y-70226769D01*
X79145859Y-70251691D01*
X79152592Y-70265868D01*
X79163170Y-70292349D01*
X79193877Y-70338941D01*
X79198760Y-70347000D01*
X79225841Y-70395791D01*
X79244414Y-70417426D01*
X79253865Y-70429961D01*
X79269548Y-70453758D01*
X79309000Y-70493210D01*
X79315404Y-70500119D01*
X79351760Y-70542468D01*
X79374302Y-70559917D01*
X79386080Y-70570290D01*
X79946332Y-71130542D01*
X79979817Y-71191865D01*
X79982179Y-71207415D01*
X79994364Y-71346690D01*
X80053261Y-71566497D01*
X80149432Y-71772735D01*
X80279953Y-71959140D01*
X80440859Y-72120046D01*
X80627264Y-72250567D01*
X80627265Y-72250567D01*
X80627266Y-72250568D01*
X80833504Y-72346739D01*
X81053308Y-72405635D01*
X81280000Y-72425468D01*
X81506692Y-72405635D01*
X81726496Y-72346739D01*
X81932734Y-72250568D01*
X82119139Y-72120047D01*
X82280047Y-71959139D01*
X82410568Y-71772734D01*
X82506739Y-71566496D01*
X82565635Y-71346692D01*
X82585468Y-71120000D01*
X87595033Y-71120000D01*
X87614858Y-71346602D01*
X87673733Y-71566326D01*
X87769866Y-71772484D01*
X87820972Y-71845471D01*
X87820974Y-71845472D01*
X88502046Y-71164399D01*
X88514835Y-71245148D01*
X88572359Y-71358045D01*
X88661955Y-71447641D01*
X88774852Y-71505165D01*
X88855599Y-71517953D01*
X88174526Y-72199025D01*
X88174526Y-72199026D01*
X88247515Y-72250133D01*
X88453673Y-72346266D01*
X88673397Y-72405141D01*
X88900000Y-72424966D01*
X89126602Y-72405141D01*
X89346326Y-72346266D01*
X89552480Y-72250134D01*
X89625472Y-72199025D01*
X88944401Y-71517953D01*
X89025148Y-71505165D01*
X89138045Y-71447641D01*
X89227641Y-71358045D01*
X89285165Y-71245148D01*
X89297953Y-71164399D01*
X89979025Y-71845472D01*
X90030134Y-71772480D01*
X90126266Y-71566326D01*
X90185141Y-71346602D01*
X90204966Y-71120000D01*
X90185141Y-70893397D01*
X90126266Y-70673673D01*
X90030133Y-70467515D01*
X89979025Y-70394526D01*
X89297953Y-71075597D01*
X89285165Y-70994852D01*
X89227641Y-70881955D01*
X89138045Y-70792359D01*
X89025148Y-70734835D01*
X88944400Y-70722046D01*
X89625472Y-70040974D01*
X89625471Y-70040972D01*
X89552484Y-69989866D01*
X89346326Y-69893733D01*
X89126602Y-69834858D01*
X88900000Y-69815033D01*
X88673397Y-69834858D01*
X88453672Y-69893733D01*
X88247516Y-69989865D01*
X88174527Y-70040973D01*
X88174526Y-70040973D01*
X88855600Y-70722046D01*
X88774852Y-70734835D01*
X88661955Y-70792359D01*
X88572359Y-70881955D01*
X88514835Y-70994852D01*
X88502046Y-71075599D01*
X87820973Y-70394526D01*
X87820973Y-70394527D01*
X87769865Y-70467516D01*
X87673733Y-70673672D01*
X87614858Y-70893397D01*
X87595033Y-71120000D01*
X82585468Y-71120000D01*
X82565635Y-70893308D01*
X82506739Y-70673504D01*
X82410568Y-70467266D01*
X82401111Y-70453759D01*
X82280046Y-70280859D01*
X82119140Y-70119953D01*
X81932735Y-69989432D01*
X81726497Y-69893261D01*
X81506690Y-69834364D01*
X81367415Y-69822179D01*
X81302347Y-69796726D01*
X81290542Y-69786332D01*
X80996819Y-69492609D01*
X80963334Y-69431286D01*
X80960500Y-69404928D01*
X80960500Y-65135072D01*
X80980185Y-65068033D01*
X80996819Y-65047391D01*
X81162391Y-64881819D01*
X81223714Y-64848334D01*
X81250072Y-64845500D01*
X81936923Y-64845500D01*
X81939554Y-64845500D01*
X82120782Y-64830075D01*
X82295584Y-64784560D01*
X82355609Y-64768931D01*
X82476680Y-64714203D01*
X82576723Y-64668981D01*
X82777765Y-64533100D01*
X82911446Y-64404976D01*
X82973466Y-64372802D01*
X82997246Y-64370500D01*
X101666374Y-64370500D01*
X101669515Y-64370539D01*
X101678310Y-64370762D01*
X101752542Y-64372644D01*
X101752542Y-64372643D01*
X101752546Y-64372644D01*
X101807497Y-64362794D01*
X101816788Y-64361491D01*
X101872321Y-64355845D01*
X101899535Y-64347305D01*
X101914760Y-64343569D01*
X101942828Y-64338539D01*
X101994658Y-64317834D01*
X102003515Y-64314682D01*
X102018853Y-64309869D01*
X102056768Y-64297974D01*
X102081701Y-64284134D01*
X102095868Y-64277406D01*
X102122348Y-64266830D01*
X102168951Y-64236114D01*
X102176995Y-64231242D01*
X102225789Y-64204160D01*
X102225788Y-64204160D01*
X102225791Y-64204159D01*
X102247423Y-64185586D01*
X102259952Y-64176139D01*
X102283759Y-64160451D01*
X102323215Y-64120994D01*
X102330127Y-64114588D01*
X102372468Y-64078240D01*
X102389923Y-64055688D01*
X102400285Y-64043923D01*
X107342504Y-59101704D01*
X107344673Y-59099589D01*
X107404919Y-59042323D01*
X107436816Y-58996493D01*
X107442459Y-58989011D01*
X107477734Y-58945751D01*
X107490941Y-58920465D01*
X107499059Y-58907065D01*
X107515353Y-58883658D01*
X107537375Y-58832338D01*
X107541384Y-58823895D01*
X107567237Y-58774406D01*
X107575080Y-58746991D01*
X107580340Y-58732219D01*
X107591587Y-58706012D01*
X107602824Y-58651323D01*
X107605059Y-58642221D01*
X107620417Y-58588551D01*
X107622582Y-58560106D01*
X107624758Y-58544591D01*
X107630500Y-58516656D01*
X107630500Y-58460851D01*
X107630858Y-58451437D01*
X107635095Y-58395797D01*
X107631494Y-58367522D01*
X107630500Y-58351856D01*
X107630500Y-57727532D01*
X107630500Y-57102248D01*
X107650184Y-57035213D01*
X107678336Y-57004400D01*
X107699744Y-56987738D01*
X107858772Y-56814986D01*
X107918656Y-56778999D01*
X107988494Y-56781099D01*
X108041230Y-56814989D01*
X108200256Y-56987738D01*
X108221658Y-57004396D01*
X108396485Y-57140470D01*
X108396487Y-57140471D01*
X108396491Y-57140474D01*
X108615190Y-57258828D01*
X108850386Y-57339571D01*
X109095665Y-57380500D01*
X109344335Y-57380500D01*
X109589614Y-57339571D01*
X109824810Y-57258828D01*
X110043509Y-57140474D01*
X110239744Y-56987738D01*
X110398771Y-56814988D01*
X110458657Y-56778999D01*
X110528495Y-56781099D01*
X110581228Y-56814988D01*
X110740256Y-56987738D01*
X110740258Y-56987740D01*
X110761661Y-57004398D01*
X110802475Y-57061107D01*
X110809500Y-57102252D01*
X110809500Y-68134928D01*
X110789815Y-68201967D01*
X110773181Y-68222609D01*
X104956609Y-74039181D01*
X104895286Y-74072666D01*
X104868928Y-74075500D01*
X55151072Y-74075500D01*
X55084033Y-74055815D01*
X55063391Y-74039181D01*
X53307980Y-72283770D01*
X53274495Y-72222447D01*
X53279479Y-72152755D01*
X53321351Y-72096822D01*
X53379998Y-72073083D01*
X53392486Y-72071492D01*
X53408143Y-72070500D01*
X53669951Y-72070500D01*
X53736990Y-72090185D01*
X53757632Y-72106819D01*
X53770859Y-72120046D01*
X53957264Y-72250567D01*
X53957265Y-72250567D01*
X53957266Y-72250568D01*
X54163504Y-72346739D01*
X54383308Y-72405635D01*
X54610000Y-72425468D01*
X54836692Y-72405635D01*
X55056496Y-72346739D01*
X55262734Y-72250568D01*
X55449139Y-72120047D01*
X55610047Y-71959139D01*
X55740568Y-71772734D01*
X55836739Y-71566496D01*
X55895635Y-71346692D01*
X55915468Y-71120000D01*
X60925033Y-71120000D01*
X60944858Y-71346602D01*
X61003733Y-71566326D01*
X61099866Y-71772484D01*
X61150972Y-71845471D01*
X61150974Y-71845472D01*
X61832046Y-71164399D01*
X61844835Y-71245148D01*
X61902359Y-71358045D01*
X61991955Y-71447641D01*
X62104852Y-71505165D01*
X62185599Y-71517953D01*
X61504526Y-72199025D01*
X61504526Y-72199026D01*
X61577515Y-72250133D01*
X61783673Y-72346266D01*
X62003397Y-72405141D01*
X62230000Y-72424966D01*
X62456602Y-72405141D01*
X62676326Y-72346266D01*
X62882480Y-72250134D01*
X62955472Y-72199025D01*
X62274401Y-71517953D01*
X62355148Y-71505165D01*
X62468045Y-71447641D01*
X62557641Y-71358045D01*
X62615165Y-71245148D01*
X62627953Y-71164400D01*
X63309025Y-71845472D01*
X63360134Y-71772480D01*
X63456266Y-71566326D01*
X63515141Y-71346602D01*
X63534966Y-71120000D01*
X63515141Y-70893397D01*
X63456266Y-70673673D01*
X63360133Y-70467515D01*
X63309025Y-70394526D01*
X62627953Y-71075598D01*
X62615165Y-70994852D01*
X62557641Y-70881955D01*
X62468045Y-70792359D01*
X62355148Y-70734835D01*
X62274400Y-70722046D01*
X62955472Y-70040974D01*
X62955471Y-70040972D01*
X62882484Y-69989866D01*
X62676326Y-69893733D01*
X62456602Y-69834858D01*
X62230000Y-69815033D01*
X62003397Y-69834858D01*
X61783672Y-69893733D01*
X61577516Y-69989865D01*
X61504527Y-70040973D01*
X61504526Y-70040973D01*
X62185600Y-70722046D01*
X62104852Y-70734835D01*
X61991955Y-70792359D01*
X61902359Y-70881955D01*
X61844835Y-70994852D01*
X61832046Y-71075599D01*
X61150973Y-70394526D01*
X61150973Y-70394527D01*
X61099865Y-70467516D01*
X61003733Y-70673672D01*
X60944858Y-70893397D01*
X60925033Y-71120000D01*
X55915468Y-71120000D01*
X55895635Y-70893308D01*
X55836739Y-70673504D01*
X55740568Y-70467266D01*
X55731111Y-70453759D01*
X55610046Y-70280859D01*
X55449140Y-70119953D01*
X55262735Y-69989432D01*
X55056497Y-69893261D01*
X54836689Y-69834364D01*
X54609999Y-69814531D01*
X54383310Y-69834364D01*
X54163502Y-69893261D01*
X53957265Y-69989432D01*
X53805097Y-70095979D01*
X53738891Y-70118306D01*
X53671124Y-70101294D01*
X53646294Y-70082084D01*
X51986818Y-68422608D01*
X51953333Y-68361285D01*
X51950499Y-68334927D01*
X51950499Y-66622379D01*
X51950499Y-64897350D01*
X51970184Y-64830315D01*
X52022988Y-64784560D01*
X52043255Y-64777355D01*
X52075608Y-64768931D01*
X52099476Y-64758142D01*
X52296723Y-64668981D01*
X52497765Y-64533100D01*
X52631446Y-64404976D01*
X52693466Y-64372802D01*
X52717246Y-64370500D01*
X61782530Y-64370500D01*
X61849569Y-64390185D01*
X61875611Y-64412575D01*
X61904209Y-64445068D01*
X61911074Y-64452868D01*
X62099869Y-64605311D01*
X62311712Y-64723653D01*
X62540509Y-64804492D01*
X62779670Y-64845500D01*
X62779672Y-64845500D01*
X64156923Y-64845500D01*
X64159554Y-64845500D01*
X64340782Y-64830075D01*
X64515584Y-64784560D01*
X64575609Y-64768931D01*
X64696680Y-64714203D01*
X64796723Y-64668981D01*
X64997765Y-64533100D01*
X65172952Y-64365197D01*
X65317244Y-64170102D01*
X65426488Y-63953429D01*
X65497543Y-63721409D01*
X65528365Y-63480719D01*
X65518066Y-63238281D01*
X65466944Y-63001072D01*
X65376468Y-62775914D01*
X65249242Y-62569286D01*
X65088925Y-62387131D01*
X65088924Y-62387131D01*
X64900130Y-62234688D01*
X64688287Y-62116346D01*
X64459490Y-62035507D01*
X64220330Y-61994500D01*
X64220328Y-61994500D01*
X62840446Y-61994500D01*
X62837830Y-61994722D01*
X62837821Y-61994723D01*
X62659219Y-62009924D01*
X62424390Y-62071068D01*
X62203277Y-62171018D01*
X62002235Y-62306899D01*
X61918523Y-62387131D01*
X61876484Y-62427423D01*
X61868554Y-62435023D01*
X61806534Y-62467198D01*
X61782754Y-62469500D01*
X52717470Y-62469500D01*
X52650431Y-62449815D01*
X52624386Y-62427423D01*
X52588925Y-62387131D01*
X52400130Y-62234688D01*
X52188287Y-62116346D01*
X51959490Y-62035507D01*
X51720330Y-61994500D01*
X51720328Y-61994500D01*
X50340446Y-61994500D01*
X50337830Y-61994722D01*
X50337821Y-61994723D01*
X50159219Y-62009924D01*
X49924390Y-62071068D01*
X49703277Y-62171018D01*
X49502235Y-62306899D01*
X49327047Y-62474803D01*
X49182756Y-62669897D01*
X49073512Y-62886570D01*
X49002457Y-63118590D01*
X48971635Y-63359284D01*
X48981933Y-63601716D01*
X49033056Y-63838930D01*
X49120161Y-64055697D01*
X49123532Y-64064086D01*
X49227862Y-64233528D01*
X49250759Y-64270715D01*
X49411074Y-64452868D01*
X49599869Y-64605311D01*
X49811712Y-64723653D01*
X49966809Y-64778452D01*
X50023462Y-64819346D01*
X50049012Y-64884376D01*
X50049500Y-64895369D01*
X50049500Y-68766374D01*
X50049460Y-68769516D01*
X50047355Y-68852545D01*
X50047554Y-68853653D01*
X50049500Y-68875533D01*
X50049500Y-71306374D01*
X50049460Y-71309516D01*
X50047355Y-71392546D01*
X50057199Y-71447469D01*
X50058508Y-71456797D01*
X50064155Y-71512321D01*
X50072689Y-71539520D01*
X50076431Y-71554764D01*
X50081461Y-71582829D01*
X50102159Y-71634645D01*
X50105319Y-71643520D01*
X50122026Y-71696769D01*
X50135859Y-71721691D01*
X50142592Y-71735868D01*
X50153170Y-71762349D01*
X50183877Y-71808941D01*
X50188760Y-71817000D01*
X50215841Y-71865791D01*
X50234414Y-71887426D01*
X50243865Y-71899961D01*
X50259548Y-71923758D01*
X50299000Y-71963210D01*
X50305404Y-71970119D01*
X50341760Y-72012468D01*
X50364302Y-72029917D01*
X50376080Y-72040290D01*
X54024255Y-75688465D01*
X54026411Y-75690675D01*
X54083677Y-75750919D01*
X54129484Y-75782801D01*
X54136996Y-75788465D01*
X54180249Y-75823734D01*
X54205522Y-75836935D01*
X54218943Y-75845067D01*
X54242340Y-75861352D01*
X54242341Y-75861352D01*
X54242342Y-75861353D01*
X54293643Y-75883367D01*
X54302133Y-75887399D01*
X54351593Y-75913236D01*
X54351594Y-75913236D01*
X54378994Y-75921076D01*
X54393783Y-75926341D01*
X54419988Y-75937587D01*
X54474659Y-75948821D01*
X54483793Y-75951062D01*
X54537448Y-75966416D01*
X54565865Y-75968579D01*
X54581412Y-75970760D01*
X54609342Y-75976500D01*
X54609344Y-75976500D01*
X54665160Y-75976500D01*
X54674574Y-75976858D01*
X54730203Y-75981094D01*
X54758470Y-75977493D01*
X54774136Y-75976500D01*
X82399928Y-75976500D01*
X82466967Y-75996185D01*
X82512722Y-76048989D01*
X82522666Y-76118147D01*
X82493641Y-76181703D01*
X82487609Y-76188181D01*
X80922609Y-77753181D01*
X80861286Y-77786666D01*
X80834928Y-77789500D01*
X76213626Y-77789500D01*
X76210484Y-77789460D01*
X76127456Y-77787355D01*
X76072529Y-77797199D01*
X76063205Y-77798506D01*
X76007681Y-77804154D01*
X75980480Y-77812688D01*
X75965241Y-77816428D01*
X75937175Y-77821459D01*
X75885339Y-77842163D01*
X75876471Y-77845320D01*
X75823231Y-77862026D01*
X75798308Y-77875859D01*
X75784136Y-77882589D01*
X75757655Y-77893167D01*
X75711058Y-77923877D01*
X75703003Y-77928757D01*
X75654207Y-77955842D01*
X75632576Y-77974412D01*
X75620045Y-77983861D01*
X75596238Y-77999551D01*
X75556785Y-78039003D01*
X75549879Y-78045403D01*
X75507531Y-78081759D01*
X75490078Y-78104306D01*
X75479706Y-78116082D01*
X73323609Y-80272181D01*
X73262286Y-80305666D01*
X73235928Y-80308500D01*
X50081072Y-80308500D01*
X50014033Y-80288815D01*
X49993391Y-80272181D01*
X49701266Y-79980056D01*
X49667781Y-79918733D01*
X49665928Y-79890582D01*
X49665300Y-79882999D01*
X49646134Y-79651695D01*
X49589157Y-79426700D01*
X49495924Y-79214151D01*
X49368979Y-79019847D01*
X49211784Y-78849087D01*
X49034180Y-78710853D01*
X48993368Y-78654143D01*
X48989693Y-78584370D01*
X49024324Y-78523687D01*
X49034181Y-78515146D01*
X49211784Y-78376913D01*
X49368979Y-78206153D01*
X49495924Y-78011849D01*
X49589157Y-77799300D01*
X49646134Y-77574305D01*
X49665300Y-77343000D01*
X49646134Y-77111695D01*
X49589157Y-76886700D01*
X49495924Y-76674151D01*
X49368979Y-76479847D01*
X49211784Y-76309087D01*
X49028626Y-76166530D01*
X48824503Y-76056064D01*
X48824499Y-76056062D01*
X48824498Y-76056062D01*
X48604984Y-75980702D01*
X48427388Y-75951067D01*
X48376049Y-75942500D01*
X48143951Y-75942500D01*
X48106077Y-75948820D01*
X47915015Y-75980702D01*
X47695501Y-76056062D01*
X47491372Y-76166531D01*
X47308215Y-76309087D01*
X47151020Y-76479848D01*
X47024076Y-76674150D01*
X46930844Y-76886696D01*
X46930842Y-76886700D01*
X46930843Y-76886700D01*
X46911436Y-76963338D01*
X46873865Y-77111700D01*
X46854699Y-77342999D01*
X46873865Y-77574299D01*
X46873865Y-77574301D01*
X46873866Y-77574305D01*
X46930311Y-77797199D01*
X46930844Y-77799303D01*
X47009901Y-77979534D01*
X47024076Y-78011849D01*
X47151021Y-78206153D01*
X47259677Y-78324185D01*
X47308215Y-78376912D01*
X47485819Y-78515146D01*
X47526632Y-78571857D01*
X47530307Y-78641630D01*
X47495676Y-78702313D01*
X47485819Y-78710854D01*
X47308215Y-78849087D01*
X47151020Y-79019848D01*
X47024076Y-79214150D01*
X46930844Y-79426696D01*
X46930842Y-79426700D01*
X46930843Y-79426700D01*
X46878175Y-79634682D01*
X46873865Y-79651700D01*
X46854699Y-79882999D01*
X46873865Y-80114299D01*
X46873865Y-80114301D01*
X46873866Y-80114305D01*
X46927710Y-80326927D01*
X46930844Y-80339303D01*
X46947945Y-80378289D01*
X47024076Y-80551849D01*
X47151021Y-80746153D01*
X47303813Y-80912130D01*
X47308219Y-80916916D01*
X47485818Y-81055147D01*
X47526631Y-81111857D01*
X47530306Y-81181630D01*
X47495674Y-81242313D01*
X47485818Y-81250853D01*
X47308219Y-81389083D01*
X47151020Y-81559848D01*
X47024076Y-81754150D01*
X46930844Y-81966696D01*
X46930842Y-81966700D01*
X46930843Y-81966700D01*
X46876550Y-82181099D01*
X46873865Y-82191700D01*
X46854699Y-82422999D01*
X46873865Y-82654299D01*
X46873865Y-82654301D01*
X46873866Y-82654305D01*
X46930843Y-82879300D01*
X47024076Y-83091849D01*
X47151021Y-83286153D01*
X47308216Y-83456913D01*
X47486227Y-83595464D01*
X47527039Y-83652172D01*
X47530714Y-83721945D01*
X47496083Y-83782629D01*
X47486223Y-83791172D01*
X47461200Y-83810646D01*
X47461200Y-83810647D01*
X48232553Y-84582000D01*
X48228431Y-84582000D01*
X48134579Y-84597661D01*
X48022749Y-84658180D01*
X47936629Y-84751731D01*
X47885552Y-84868177D01*
X47879894Y-84936447D01*
X47108812Y-84165365D01*
X47024516Y-84294390D01*
X46931319Y-84506860D01*
X46874361Y-84731782D01*
X46855201Y-84962999D01*
X46874361Y-85194217D01*
X46931319Y-85419139D01*
X47024516Y-85631609D01*
X47108811Y-85760633D01*
X47875096Y-84994350D01*
X47875051Y-84994898D01*
X47906266Y-85118162D01*
X47975813Y-85224612D01*
X48076157Y-85302713D01*
X48196422Y-85344000D01*
X48232553Y-85344000D01*
X47461199Y-86115351D01*
X47480850Y-86130645D01*
X47521664Y-86187355D01*
X47525339Y-86257128D01*
X47490709Y-86317812D01*
X47428768Y-86350140D01*
X47404689Y-86352500D01*
X44850915Y-86352500D01*
X44783876Y-86332815D01*
X44763234Y-86316181D01*
X44366819Y-85919765D01*
X44333334Y-85858442D01*
X44330500Y-85832084D01*
X44330500Y-56416914D01*
X44350185Y-56349875D01*
X44402989Y-56304120D01*
X44472147Y-56294176D01*
X44535703Y-56323201D01*
X44542181Y-56329233D01*
X47425635Y-59212687D01*
X47429591Y-59216829D01*
X47481594Y-59273873D01*
X47543158Y-59320364D01*
X47547649Y-59323921D01*
X47607025Y-59373227D01*
X47622880Y-59382058D01*
X47637270Y-59391434D01*
X47651745Y-59402366D01*
X47698354Y-59425574D01*
X47720838Y-59436770D01*
X47725863Y-59439418D01*
X47793298Y-59476979D01*
X47810502Y-59482745D01*
X47826368Y-59489317D01*
X47831982Y-59492112D01*
X47842611Y-59497405D01*
X47916869Y-59518533D01*
X47922247Y-59520198D01*
X47995464Y-59544739D01*
X48013436Y-59547245D01*
X48030228Y-59550787D01*
X48047690Y-59555756D01*
X48124525Y-59562875D01*
X48130210Y-59563534D01*
X48206638Y-59574196D01*
X48283727Y-59570632D01*
X48289454Y-59570500D01*
X49512946Y-59570500D01*
X49579985Y-59590185D01*
X49590836Y-59598016D01*
X49599870Y-59605311D01*
X49775148Y-59703227D01*
X49811712Y-59723653D01*
X50040509Y-59804492D01*
X50279670Y-59845500D01*
X50279672Y-59845500D01*
X51656923Y-59845500D01*
X51659554Y-59845500D01*
X51840782Y-59830075D01*
X51997332Y-59789312D01*
X52075609Y-59768931D01*
X52220962Y-59703227D01*
X52296723Y-59668981D01*
X52401709Y-59598023D01*
X52410968Y-59591765D01*
X52477534Y-59570533D01*
X52480405Y-59570500D01*
X62012946Y-59570500D01*
X62079985Y-59590185D01*
X62090836Y-59598016D01*
X62099870Y-59605311D01*
X62275148Y-59703227D01*
X62311712Y-59723653D01*
X62540509Y-59804492D01*
X62779670Y-59845500D01*
X62779672Y-59845500D01*
X64156923Y-59845500D01*
X64159554Y-59845500D01*
X64340782Y-59830075D01*
X64497332Y-59789312D01*
X64575609Y-59768931D01*
X64720962Y-59703227D01*
X64796723Y-59668981D01*
X64901709Y-59598023D01*
X64910968Y-59591765D01*
X64977534Y-59570533D01*
X64980405Y-59570500D01*
X67292946Y-59570500D01*
X67359985Y-59590185D01*
X67370836Y-59598016D01*
X67379870Y-59605311D01*
X67555148Y-59703227D01*
X67591712Y-59723653D01*
X67820509Y-59804492D01*
X68059670Y-59845500D01*
X68059672Y-59845500D01*
X69436923Y-59845500D01*
X69439554Y-59845500D01*
X69620782Y-59830075D01*
X69777332Y-59789312D01*
X69855609Y-59768931D01*
X70000962Y-59703227D01*
X70076723Y-59668981D01*
X70181709Y-59598023D01*
X70190968Y-59591765D01*
X70257534Y-59570533D01*
X70260405Y-59570500D01*
X79792946Y-59570500D01*
X79859985Y-59590185D01*
X79870836Y-59598016D01*
X79879870Y-59605311D01*
X80055148Y-59703227D01*
X80091712Y-59723653D01*
X80320509Y-59804492D01*
X80559670Y-59845500D01*
X80559672Y-59845500D01*
X81238002Y-59845500D01*
X81277409Y-59851928D01*
X81345463Y-59874739D01*
X81348398Y-59875148D01*
X81363435Y-59877246D01*
X81380244Y-59880791D01*
X81397690Y-59885756D01*
X81474543Y-59892876D01*
X81480218Y-59893535D01*
X81556638Y-59904195D01*
X81633713Y-59900632D01*
X81639439Y-59900500D01*
X95830546Y-59900500D01*
X95836272Y-59900632D01*
X95913362Y-59904196D01*
X95989835Y-59893528D01*
X95995444Y-59892878D01*
X96072310Y-59885756D01*
X96089761Y-59880789D01*
X96106557Y-59877246D01*
X96124536Y-59874739D01*
X96197731Y-59850205D01*
X96203149Y-59848527D01*
X96277389Y-59827405D01*
X96293642Y-59819311D01*
X96309493Y-59812746D01*
X96326702Y-59806979D01*
X96394155Y-59769407D01*
X96399169Y-59766765D01*
X96468255Y-59732366D01*
X96482726Y-59721436D01*
X96497116Y-59712059D01*
X96512975Y-59703227D01*
X96572373Y-59653902D01*
X96576822Y-59650378D01*
X96638407Y-59603872D01*
X96690398Y-59546839D01*
X96694332Y-59542719D01*
X99170232Y-57066818D01*
X99231556Y-57033334D01*
X99257914Y-57030500D01*
X100592628Y-57030500D01*
X100659667Y-57050185D01*
X100668785Y-57056643D01*
X100776491Y-57140474D01*
X100995190Y-57258828D01*
X101230386Y-57339571D01*
X101475665Y-57380500D01*
X101724335Y-57380500D01*
X101969614Y-57339571D01*
X102204810Y-57258828D01*
X102423509Y-57140474D01*
X102619744Y-56987738D01*
X102788164Y-56804785D01*
X102788532Y-56804220D01*
X102789234Y-56803621D01*
X102795123Y-56797225D01*
X102795895Y-56797936D01*
X102841674Y-56758861D01*
X102905137Y-56748697D01*
X102916564Y-56749882D01*
X103648866Y-56017579D01*
X103671318Y-56094040D01*
G37*
%TD.AperFunction*%
%TA.AperFunction,Conductor*%
G36*
X167582539Y-22992185D02*
G01*
X167628294Y-23044989D01*
X167639500Y-23096500D01*
X167639500Y-93855500D01*
X167619815Y-93922539D01*
X167567011Y-93968294D01*
X167515500Y-93979500D01*
X40764500Y-93979500D01*
X40697461Y-93959815D01*
X40651706Y-93907011D01*
X40640500Y-93855500D01*
X40640500Y-86413362D01*
X42025804Y-86413362D01*
X42034454Y-86475379D01*
X42036463Y-86489778D01*
X42037123Y-86495466D01*
X42044243Y-86572308D01*
X42049209Y-86589759D01*
X42052753Y-86606558D01*
X42055261Y-86624536D01*
X42055261Y-86624538D01*
X42055262Y-86624539D01*
X42079785Y-86697708D01*
X42081479Y-86703178D01*
X42102594Y-86777387D01*
X42110684Y-86793635D01*
X42117252Y-86809493D01*
X42123019Y-86826698D01*
X42123020Y-86826700D01*
X42123021Y-86826702D01*
X42127169Y-86834150D01*
X42160571Y-86894118D01*
X42163241Y-86899185D01*
X42197632Y-86968253D01*
X42208566Y-86982731D01*
X42217941Y-86997119D01*
X42226773Y-87012975D01*
X42276087Y-87072363D01*
X42279642Y-87076851D01*
X42326128Y-87138407D01*
X42355077Y-87164798D01*
X42383157Y-87190397D01*
X42387299Y-87194352D01*
X43488645Y-88295698D01*
X43492600Y-88299840D01*
X43532005Y-88343064D01*
X43544593Y-88356872D01*
X43585997Y-88388139D01*
X43606163Y-88403368D01*
X43610628Y-88406904D01*
X43670025Y-88456227D01*
X43670026Y-88456228D01*
X43670028Y-88456229D01*
X43685882Y-88465060D01*
X43700269Y-88474435D01*
X43714741Y-88485364D01*
X43783838Y-88519770D01*
X43788863Y-88522418D01*
X43856298Y-88559979D01*
X43873502Y-88565745D01*
X43889368Y-88572317D01*
X43894982Y-88575112D01*
X43905611Y-88580405D01*
X43979869Y-88601533D01*
X43985247Y-88603198D01*
X44058464Y-88627739D01*
X44076432Y-88630244D01*
X44093235Y-88633789D01*
X44110690Y-88638756D01*
X44187544Y-88645876D01*
X44193219Y-88646535D01*
X44269638Y-88657195D01*
X44346713Y-88653632D01*
X44352439Y-88653500D01*
X47403876Y-88653500D01*
X47470915Y-88673185D01*
X47516670Y-88725989D01*
X47526614Y-88795147D01*
X47497589Y-88858703D01*
X47480043Y-88875349D01*
X47389162Y-88946083D01*
X47308215Y-89009087D01*
X47151020Y-89179848D01*
X47024076Y-89374150D01*
X46930844Y-89586696D01*
X46873865Y-89811700D01*
X46854699Y-90043000D01*
X46873865Y-90274299D01*
X46873865Y-90274301D01*
X46873866Y-90274305D01*
X46930843Y-90499300D01*
X47024076Y-90711849D01*
X47151021Y-90906153D01*
X47308216Y-91076913D01*
X47491374Y-91219470D01*
X47695497Y-91329936D01*
X47805257Y-91367616D01*
X47915015Y-91405297D01*
X47915017Y-91405297D01*
X47915019Y-91405298D01*
X48143951Y-91443500D01*
X48143952Y-91443500D01*
X48376048Y-91443500D01*
X48376049Y-91443500D01*
X48604981Y-91405298D01*
X48824503Y-91329936D01*
X49028626Y-91219470D01*
X49211784Y-91076913D01*
X49368979Y-90906153D01*
X49495924Y-90711849D01*
X49589157Y-90499300D01*
X49646134Y-90274305D01*
X49665300Y-90043000D01*
X49646134Y-89811695D01*
X49589157Y-89586700D01*
X49495924Y-89374151D01*
X49368979Y-89179847D01*
X49211784Y-89009087D01*
X49034180Y-88870853D01*
X48993368Y-88814143D01*
X48989693Y-88744370D01*
X49024324Y-88683687D01*
X49034181Y-88675146D01*
X49211784Y-88536913D01*
X49368979Y-88366153D01*
X49495924Y-88171849D01*
X49589157Y-87959300D01*
X49646134Y-87734305D01*
X49665300Y-87503000D01*
X49646134Y-87271695D01*
X49589157Y-87046700D01*
X49495924Y-86834151D01*
X49368979Y-86639847D01*
X49211784Y-86469087D01*
X49140190Y-86413363D01*
X49033774Y-86330536D01*
X48992961Y-86273826D01*
X48989286Y-86204053D01*
X49023918Y-86143370D01*
X49033773Y-86134830D01*
X49058798Y-86115351D01*
X48287447Y-85344000D01*
X48291569Y-85344000D01*
X48385421Y-85328339D01*
X48497251Y-85267820D01*
X48583371Y-85174269D01*
X48634448Y-85057823D01*
X48640105Y-84989553D01*
X49411186Y-85760634D01*
X49495483Y-85631607D01*
X49588680Y-85419138D01*
X49645638Y-85194217D01*
X49664798Y-84962999D01*
X49645638Y-84731782D01*
X49588680Y-84506860D01*
X49495484Y-84294392D01*
X49411186Y-84165364D01*
X48644903Y-84931648D01*
X48644949Y-84931102D01*
X48613734Y-84807838D01*
X48544187Y-84701388D01*
X48443843Y-84623287D01*
X48323578Y-84582000D01*
X48287448Y-84582000D01*
X49058799Y-83810648D01*
X49058798Y-83810647D01*
X49033775Y-83791171D01*
X48992961Y-83734461D01*
X48989286Y-83664688D01*
X49023916Y-83604004D01*
X49033760Y-83595473D01*
X49211784Y-83456913D01*
X49251732Y-83413517D01*
X49311620Y-83377527D01*
X49342963Y-83373500D01*
X82409374Y-83373500D01*
X82412516Y-83373540D01*
X82495542Y-83375644D01*
X82495542Y-83375643D01*
X82495546Y-83375644D01*
X82550497Y-83365794D01*
X82559788Y-83364491D01*
X82615321Y-83358845D01*
X82642535Y-83350305D01*
X82657760Y-83346569D01*
X82685828Y-83341539D01*
X82737658Y-83320834D01*
X82746515Y-83317682D01*
X82761853Y-83312869D01*
X82799768Y-83300974D01*
X82824701Y-83287134D01*
X82838868Y-83280406D01*
X82865348Y-83269830D01*
X82911951Y-83239114D01*
X82919995Y-83234242D01*
X82968789Y-83207160D01*
X82968788Y-83207160D01*
X82968791Y-83207159D01*
X82990423Y-83188586D01*
X83002952Y-83179139D01*
X83026759Y-83163451D01*
X83066215Y-83123994D01*
X83073127Y-83117588D01*
X83081442Y-83110450D01*
X83115468Y-83081240D01*
X83132923Y-83058688D01*
X83143285Y-83046923D01*
X85199026Y-80991182D01*
X91889500Y-80991182D01*
X91928604Y-81250615D01*
X92005937Y-81501323D01*
X92119772Y-81737704D01*
X92204775Y-81862380D01*
X92267571Y-81954485D01*
X92383592Y-82079525D01*
X92446019Y-82146805D01*
X92651143Y-82310386D01*
X92878357Y-82441568D01*
X93122584Y-82537420D01*
X93378370Y-82595802D01*
X93574506Y-82610500D01*
X93576823Y-82610500D01*
X93703177Y-82610500D01*
X93705494Y-82610500D01*
X93901630Y-82595802D01*
X94157416Y-82537420D01*
X94401643Y-82441568D01*
X94628857Y-82310386D01*
X94833981Y-82146805D01*
X94973347Y-81996604D01*
X95012428Y-81954485D01*
X95012429Y-81954482D01*
X95012433Y-81954479D01*
X95160228Y-81737704D01*
X95274063Y-81501323D01*
X95351396Y-81250615D01*
X95390500Y-80991182D01*
X95390500Y-80728818D01*
X95351396Y-80469385D01*
X95274063Y-80218677D01*
X95160228Y-79982296D01*
X95012433Y-79765521D01*
X95012432Y-79765520D01*
X95012428Y-79765514D01*
X94833984Y-79573198D01*
X94833983Y-79573197D01*
X94833981Y-79573195D01*
X94628857Y-79409614D01*
X94628856Y-79409613D01*
X94401641Y-79278431D01*
X94157418Y-79182580D01*
X93901627Y-79124197D01*
X93707808Y-79109673D01*
X93707797Y-79109672D01*
X93705494Y-79109500D01*
X93574506Y-79109500D01*
X93572203Y-79109672D01*
X93572191Y-79109673D01*
X93378372Y-79124197D01*
X93122581Y-79182580D01*
X92878358Y-79278431D01*
X92651143Y-79409613D01*
X92446015Y-79573198D01*
X92267571Y-79765514D01*
X92174769Y-79901631D01*
X92119772Y-79982296D01*
X92005937Y-80218677D01*
X91928604Y-80469385D01*
X91889500Y-80728818D01*
X91889500Y-80991182D01*
X85199026Y-80991182D01*
X87849390Y-78340819D01*
X87910714Y-78307334D01*
X87937072Y-78304500D01*
X125168928Y-78304500D01*
X125235967Y-78324185D01*
X125256609Y-78340819D01*
X126568708Y-79652918D01*
X126602193Y-79714241D01*
X126597209Y-79783933D01*
X126555337Y-79839866D01*
X126521291Y-79857880D01*
X126395192Y-79901171D01*
X126176485Y-80019529D01*
X125980255Y-80172261D01*
X125821228Y-80345010D01*
X125761341Y-80381001D01*
X125691503Y-80378900D01*
X125638770Y-80345011D01*
X125479744Y-80172262D01*
X125457612Y-80155036D01*
X125283514Y-80019529D01*
X125283510Y-80019526D01*
X125283509Y-80019526D01*
X125064810Y-79901172D01*
X125064806Y-79901170D01*
X125064805Y-79901170D01*
X124829615Y-79820429D01*
X124584335Y-79779500D01*
X124335665Y-79779500D01*
X124090384Y-79820429D01*
X123855194Y-79901170D01*
X123855190Y-79901171D01*
X123855190Y-79901172D01*
X123822740Y-79918733D01*
X123636485Y-80019529D01*
X123440255Y-80172261D01*
X123281228Y-80345010D01*
X123221341Y-80381001D01*
X123151503Y-80378900D01*
X123098770Y-80345011D01*
X122939744Y-80172262D01*
X122917612Y-80155036D01*
X122743514Y-80019529D01*
X122743510Y-80019526D01*
X122743509Y-80019526D01*
X122524810Y-79901172D01*
X122524806Y-79901170D01*
X122524805Y-79901170D01*
X122289615Y-79820429D01*
X122044335Y-79779500D01*
X121795665Y-79779500D01*
X121550384Y-79820429D01*
X121315194Y-79901170D01*
X121315190Y-79901171D01*
X121315190Y-79901172D01*
X121282740Y-79918733D01*
X121096485Y-80019529D01*
X120900259Y-80172259D01*
X120900256Y-80172261D01*
X120900256Y-80172262D01*
X120842088Y-80235449D01*
X120741230Y-80345010D01*
X120681343Y-80381001D01*
X120611504Y-80378900D01*
X120558770Y-80345010D01*
X120522551Y-80305666D01*
X120399744Y-80172262D01*
X120377612Y-80155036D01*
X120203514Y-80019529D01*
X120203510Y-80019526D01*
X120203509Y-80019526D01*
X119984810Y-79901172D01*
X119984806Y-79901170D01*
X119984805Y-79901170D01*
X119749615Y-79820429D01*
X119504335Y-79779500D01*
X119255665Y-79779500D01*
X119010384Y-79820429D01*
X118775194Y-79901170D01*
X118775190Y-79901171D01*
X118775190Y-79901172D01*
X118742740Y-79918733D01*
X118556485Y-80019529D01*
X118360259Y-80172259D01*
X118360256Y-80172261D01*
X118360256Y-80172262D01*
X118302088Y-80235449D01*
X118201230Y-80345010D01*
X118141343Y-80381001D01*
X118071504Y-80378900D01*
X118018770Y-80345010D01*
X117982551Y-80305666D01*
X117859744Y-80172262D01*
X117837612Y-80155036D01*
X117663514Y-80019529D01*
X117663510Y-80019526D01*
X117663509Y-80019526D01*
X117444810Y-79901172D01*
X117444806Y-79901170D01*
X117444805Y-79901170D01*
X117209615Y-79820429D01*
X116964335Y-79779500D01*
X116715665Y-79779500D01*
X116470384Y-79820429D01*
X116235194Y-79901170D01*
X116235190Y-79901171D01*
X116235190Y-79901172D01*
X116202740Y-79918733D01*
X116016485Y-80019529D01*
X115820259Y-80172259D01*
X115820256Y-80172261D01*
X115820256Y-80172262D01*
X115762088Y-80235449D01*
X115661230Y-80345010D01*
X115601343Y-80381001D01*
X115531504Y-80378900D01*
X115478770Y-80345010D01*
X115442551Y-80305666D01*
X115319744Y-80172262D01*
X115297612Y-80155036D01*
X115123514Y-80019529D01*
X115123510Y-80019526D01*
X115123509Y-80019526D01*
X114904810Y-79901172D01*
X114904806Y-79901170D01*
X114904805Y-79901170D01*
X114669615Y-79820429D01*
X114424335Y-79779500D01*
X114175665Y-79779500D01*
X113930384Y-79820429D01*
X113695194Y-79901170D01*
X113695190Y-79901171D01*
X113695190Y-79901172D01*
X113662740Y-79918733D01*
X113476485Y-80019529D01*
X113280259Y-80172259D01*
X113280256Y-80172261D01*
X113280256Y-80172262D01*
X113222088Y-80235449D01*
X113121230Y-80345010D01*
X113061343Y-80381001D01*
X112991504Y-80378900D01*
X112938770Y-80345010D01*
X112902551Y-80305666D01*
X112779744Y-80172262D01*
X112757612Y-80155036D01*
X112583514Y-80019529D01*
X112583510Y-80019526D01*
X112583509Y-80019526D01*
X112364810Y-79901172D01*
X112364806Y-79901170D01*
X112364805Y-79901170D01*
X112129615Y-79820429D01*
X111884335Y-79779500D01*
X111635665Y-79779500D01*
X111390384Y-79820429D01*
X111155194Y-79901170D01*
X111155190Y-79901171D01*
X111155190Y-79901172D01*
X111122740Y-79918733D01*
X110936485Y-80019529D01*
X110740259Y-80172259D01*
X110740256Y-80172261D01*
X110740256Y-80172262D01*
X110682088Y-80235449D01*
X110581230Y-80345010D01*
X110521343Y-80381001D01*
X110451504Y-80378900D01*
X110398770Y-80345010D01*
X110362551Y-80305666D01*
X110239744Y-80172262D01*
X110217612Y-80155036D01*
X110043514Y-80019529D01*
X110043510Y-80019526D01*
X110043509Y-80019526D01*
X109824810Y-79901172D01*
X109824806Y-79901170D01*
X109824805Y-79901170D01*
X109589615Y-79820429D01*
X109344335Y-79779500D01*
X109095665Y-79779500D01*
X108850384Y-79820429D01*
X108615194Y-79901170D01*
X108615190Y-79901171D01*
X108615190Y-79901172D01*
X108582740Y-79918733D01*
X108396485Y-80019529D01*
X108200259Y-80172259D01*
X108200256Y-80172261D01*
X108200256Y-80172262D01*
X108142088Y-80235449D01*
X108041230Y-80345010D01*
X107981343Y-80381001D01*
X107911504Y-80378900D01*
X107858770Y-80345010D01*
X107822551Y-80305666D01*
X107699744Y-80172262D01*
X107677612Y-80155036D01*
X107503514Y-80019529D01*
X107503510Y-80019526D01*
X107503509Y-80019526D01*
X107284810Y-79901172D01*
X107284806Y-79901170D01*
X107284805Y-79901170D01*
X107049615Y-79820429D01*
X106804335Y-79779500D01*
X106555665Y-79779500D01*
X106310384Y-79820429D01*
X106075194Y-79901170D01*
X106075190Y-79901171D01*
X106075190Y-79901172D01*
X106042740Y-79918733D01*
X105856485Y-80019529D01*
X105660259Y-80172259D01*
X105491832Y-80355218D01*
X105491459Y-80355790D01*
X105490746Y-80356397D01*
X105484877Y-80362774D01*
X105484106Y-80362064D01*
X105438311Y-80401144D01*
X105374864Y-80411302D01*
X105363434Y-80410116D01*
X104631132Y-81142417D01*
X104608682Y-81065960D01*
X104529395Y-80942587D01*
X104418562Y-80846549D01*
X104285161Y-80785627D01*
X104281365Y-80785081D01*
X105010057Y-80056389D01*
X105010056Y-80056388D01*
X104963235Y-80019947D01*
X104744606Y-79901631D01*
X104509493Y-79820916D01*
X104264293Y-79780000D01*
X104015707Y-79780000D01*
X103770506Y-79820916D01*
X103535393Y-79901631D01*
X103316766Y-80019946D01*
X103233396Y-80084835D01*
X103168401Y-80110477D01*
X103099862Y-80096910D01*
X103049537Y-80048441D01*
X103045662Y-80040163D01*
X103043797Y-80037671D01*
X103043796Y-80037669D01*
X102957546Y-79922454D01*
X102842331Y-79836204D01*
X102707483Y-79785909D01*
X102689104Y-79783933D01*
X102651166Y-79779854D01*
X102651165Y-79779853D01*
X102647873Y-79779500D01*
X102644550Y-79779500D01*
X100555439Y-79779500D01*
X100555420Y-79779500D01*
X100552128Y-79779501D01*
X100548848Y-79779853D01*
X100548840Y-79779854D01*
X100492515Y-79785909D01*
X100357669Y-79836204D01*
X100242454Y-79922454D01*
X100156204Y-80037668D01*
X100127621Y-80114305D01*
X100105909Y-80172517D01*
X100099500Y-80232127D01*
X100099500Y-80235448D01*
X100099500Y-80235449D01*
X100099500Y-82324560D01*
X100099500Y-82324578D01*
X100099501Y-82327872D01*
X100099853Y-82331152D01*
X100099854Y-82331159D01*
X100105909Y-82387484D01*
X100119156Y-82423000D01*
X100156204Y-82522331D01*
X100241630Y-82636445D01*
X100242454Y-82637546D01*
X100357669Y-82723796D01*
X100368828Y-82727958D01*
X100424763Y-82769827D01*
X100449183Y-82835290D01*
X100449499Y-82844141D01*
X100449499Y-83550548D01*
X100449367Y-83556272D01*
X100445804Y-83633363D01*
X100456463Y-83709779D01*
X100457123Y-83715467D01*
X100464243Y-83792308D01*
X100469209Y-83809759D01*
X100472753Y-83826558D01*
X100475261Y-83844536D01*
X100475261Y-83844538D01*
X100475262Y-83844539D01*
X100499785Y-83917708D01*
X100501479Y-83923178D01*
X100522594Y-83997387D01*
X100530684Y-84013635D01*
X100537252Y-84029493D01*
X100543019Y-84046698D01*
X100580571Y-84114118D01*
X100583241Y-84119185D01*
X100617632Y-84188253D01*
X100628566Y-84202731D01*
X100637941Y-84217119D01*
X100646773Y-84232975D01*
X100696087Y-84292363D01*
X100699642Y-84296851D01*
X100746128Y-84358407D01*
X100775077Y-84384798D01*
X100803157Y-84410397D01*
X100807299Y-84414352D01*
X108625635Y-92232687D01*
X108629591Y-92236829D01*
X108681594Y-92293873D01*
X108743158Y-92340364D01*
X108747649Y-92343921D01*
X108807025Y-92393227D01*
X108822880Y-92402058D01*
X108837270Y-92411434D01*
X108851745Y-92422366D01*
X108894427Y-92443619D01*
X108920838Y-92456770D01*
X108925863Y-92459418D01*
X108993298Y-92496979D01*
X109010502Y-92502745D01*
X109026368Y-92509317D01*
X109031982Y-92512112D01*
X109042611Y-92517405D01*
X109116869Y-92538533D01*
X109122247Y-92540198D01*
X109195464Y-92564739D01*
X109213436Y-92567245D01*
X109230228Y-92570787D01*
X109247690Y-92575756D01*
X109324525Y-92582875D01*
X109330210Y-92583534D01*
X109406638Y-92594196D01*
X109483727Y-92590632D01*
X109489454Y-92590500D01*
X154523613Y-92590500D01*
X154570483Y-92581738D01*
X154581822Y-92580156D01*
X154629310Y-92575756D01*
X154675179Y-92562703D01*
X154686331Y-92560081D01*
X154702697Y-92557022D01*
X154733195Y-92551322D01*
X154733198Y-92551321D01*
X154777679Y-92534088D01*
X154788513Y-92530457D01*
X154834389Y-92517405D01*
X154877087Y-92496143D01*
X154887533Y-92491530D01*
X154932019Y-92474298D01*
X154972565Y-92449192D01*
X154982558Y-92443625D01*
X155025255Y-92422366D01*
X155063311Y-92393626D01*
X155072743Y-92387164D01*
X155113302Y-92362052D01*
X155148559Y-92329909D01*
X155157335Y-92322622D01*
X155195407Y-92293872D01*
X155227547Y-92258615D01*
X155235615Y-92250547D01*
X155270872Y-92218407D01*
X155299622Y-92180335D01*
X155306909Y-92171559D01*
X155339052Y-92136302D01*
X155364164Y-92095743D01*
X155370626Y-92086311D01*
X155399366Y-92048255D01*
X155420625Y-92005558D01*
X155426196Y-91995558D01*
X155451297Y-91955020D01*
X155451298Y-91955019D01*
X155468530Y-91910533D01*
X155473143Y-91900087D01*
X155494405Y-91857389D01*
X155507457Y-91811513D01*
X155511088Y-91800679D01*
X155528321Y-91756198D01*
X155537081Y-91709331D01*
X155539704Y-91698179D01*
X155552756Y-91652310D01*
X155557155Y-91604830D01*
X155558738Y-91593483D01*
X155567500Y-91546612D01*
X155567500Y-68086439D01*
X155567632Y-68080714D01*
X155568097Y-68070662D01*
X155571195Y-68003638D01*
X155560535Y-67927218D01*
X155559876Y-67921535D01*
X155552756Y-67844691D01*
X155547792Y-67827246D01*
X155544246Y-67810435D01*
X155541739Y-67792466D01*
X155541739Y-67792463D01*
X155517197Y-67719243D01*
X155515535Y-67713877D01*
X155494405Y-67639611D01*
X155486315Y-67623365D01*
X155479748Y-67607511D01*
X155473979Y-67590298D01*
X155436416Y-67522859D01*
X155433781Y-67517860D01*
X155399366Y-67448745D01*
X155388429Y-67434262D01*
X155379055Y-67419876D01*
X155370226Y-67404025D01*
X155320911Y-67344637D01*
X155317363Y-67340157D01*
X155270870Y-67278591D01*
X155213840Y-67226600D01*
X155209698Y-67222645D01*
X154631352Y-66644299D01*
X154627397Y-66640157D01*
X154601798Y-66612077D01*
X154575407Y-66583128D01*
X154513851Y-66536642D01*
X154509363Y-66533087D01*
X154449975Y-66483773D01*
X154434119Y-66474941D01*
X154419731Y-66465566D01*
X154405253Y-66454632D01*
X154336185Y-66420241D01*
X154331129Y-66417577D01*
X154263702Y-66380021D01*
X154263700Y-66380020D01*
X154263698Y-66380019D01*
X154246493Y-66374252D01*
X154230635Y-66367684D01*
X154214387Y-66359594D01*
X154140178Y-66338479D01*
X154134708Y-66336785D01*
X154061539Y-66312262D01*
X154061538Y-66312261D01*
X154061536Y-66312261D01*
X154043558Y-66309753D01*
X154026761Y-66306209D01*
X154021100Y-66304598D01*
X154009308Y-66301243D01*
X153939172Y-66294744D01*
X153932462Y-66294122D01*
X153926783Y-66293463D01*
X153876860Y-66286500D01*
X153850363Y-66282804D01*
X153850362Y-66282804D01*
X153784952Y-66285828D01*
X153773272Y-66286368D01*
X153767546Y-66286500D01*
X151042565Y-66286500D01*
X150990161Y-66274882D01*
X150928450Y-66246106D01*
X150928450Y-66246105D01*
X150715065Y-66188929D01*
X150495000Y-66169676D01*
X150274934Y-66188929D01*
X150061548Y-66246106D01*
X149861338Y-66339466D01*
X149680379Y-66466174D01*
X149524174Y-66622379D01*
X149397466Y-66803338D01*
X149304106Y-67003548D01*
X149246929Y-67216934D01*
X149227676Y-67437000D01*
X149246929Y-67657065D01*
X149297203Y-67844690D01*
X149304106Y-67870450D01*
X149397466Y-68070662D01*
X149524174Y-68251620D01*
X149680380Y-68407826D01*
X149861338Y-68534534D01*
X149906933Y-68555795D01*
X149990780Y-68594894D01*
X150043219Y-68641066D01*
X150062371Y-68708260D01*
X150042155Y-68775141D01*
X149990780Y-68819658D01*
X149861589Y-68879900D01*
X149796812Y-68925258D01*
X149796811Y-68925258D01*
X150467554Y-69596000D01*
X150463431Y-69596000D01*
X150369579Y-69611661D01*
X150257749Y-69672180D01*
X150171629Y-69765731D01*
X150120552Y-69882177D01*
X150114894Y-69950447D01*
X149443258Y-69278811D01*
X149443258Y-69278812D01*
X149397900Y-69343589D01*
X149304578Y-69543719D01*
X149247424Y-69757021D01*
X149228178Y-69977000D01*
X149247424Y-70196978D01*
X149304579Y-70410281D01*
X149397898Y-70610406D01*
X149443258Y-70675187D01*
X150110096Y-70008349D01*
X150110051Y-70008898D01*
X150141266Y-70132162D01*
X150210813Y-70238612D01*
X150311157Y-70316713D01*
X150431422Y-70358000D01*
X150467553Y-70358000D01*
X149796812Y-71028740D01*
X149861592Y-71074100D01*
X149990780Y-71134341D01*
X150043220Y-71180513D01*
X150062372Y-71247706D01*
X150042157Y-71314587D01*
X149990782Y-71359105D01*
X149861336Y-71419467D01*
X149680379Y-71546174D01*
X149524174Y-71702379D01*
X149397466Y-71883338D01*
X149304106Y-72083548D01*
X149246929Y-72296934D01*
X149238981Y-72387781D01*
X149213528Y-72452849D01*
X149203134Y-72464654D01*
X144117551Y-77550237D01*
X144115304Y-77552429D01*
X144055081Y-77609676D01*
X144039036Y-77632727D01*
X144023193Y-77655489D01*
X144017531Y-77662998D01*
X143982266Y-77706248D01*
X143969067Y-77731516D01*
X143960936Y-77744937D01*
X143944646Y-77768342D01*
X143922639Y-77819624D01*
X143918599Y-77828132D01*
X143892762Y-77877595D01*
X143884919Y-77905003D01*
X143879658Y-77919779D01*
X143868413Y-77945985D01*
X143857178Y-78000653D01*
X143854933Y-78009800D01*
X143839582Y-78063448D01*
X143837418Y-78091875D01*
X143835238Y-78107419D01*
X143829500Y-78135342D01*
X143829500Y-78191146D01*
X143829142Y-78200560D01*
X143824905Y-78256203D01*
X143828506Y-78284476D01*
X143829500Y-78300142D01*
X143829500Y-80326927D01*
X143809815Y-80393966D01*
X143793181Y-80414608D01*
X142274243Y-81933545D01*
X142212920Y-81967030D01*
X142143228Y-81962046D01*
X142087295Y-81920174D01*
X142062878Y-81854710D01*
X142077730Y-81786437D01*
X142084098Y-81776029D01*
X142110228Y-81737704D01*
X142224063Y-81501323D01*
X142301396Y-81250615D01*
X142340500Y-80991182D01*
X142340500Y-80728818D01*
X142301396Y-80469385D01*
X142224063Y-80218677D01*
X142110228Y-79982296D01*
X141962433Y-79765521D01*
X141962432Y-79765520D01*
X141962428Y-79765514D01*
X141783984Y-79573198D01*
X141783983Y-79573197D01*
X141783981Y-79573195D01*
X141578857Y-79409614D01*
X141578856Y-79409613D01*
X141351641Y-79278431D01*
X141107418Y-79182580D01*
X140851627Y-79124197D01*
X140657808Y-79109673D01*
X140657797Y-79109672D01*
X140655494Y-79109500D01*
X140524506Y-79109500D01*
X140522203Y-79109672D01*
X140522191Y-79109673D01*
X140328372Y-79124197D01*
X140072581Y-79182580D01*
X139828358Y-79278431D01*
X139601143Y-79409613D01*
X139396015Y-79573198D01*
X139217571Y-79765514D01*
X139124769Y-79901631D01*
X139071300Y-79980056D01*
X139069771Y-79982298D01*
X138955937Y-80218677D01*
X138878604Y-80469385D01*
X138839500Y-80728818D01*
X138839500Y-80805030D01*
X138819815Y-80872069D01*
X138767011Y-80917824D01*
X138697853Y-80927768D01*
X138634297Y-80898743D01*
X138596523Y-80839965D01*
X138595295Y-80835471D01*
X138587182Y-80803437D01*
X138584063Y-80791119D01*
X138487269Y-80570451D01*
X138484174Y-80563395D01*
X138476631Y-80551849D01*
X138348164Y-80355215D01*
X138179744Y-80172262D01*
X138157612Y-80155036D01*
X137983514Y-80019529D01*
X137983510Y-80019526D01*
X137983509Y-80019526D01*
X137764810Y-79901172D01*
X137764806Y-79901170D01*
X137764805Y-79901170D01*
X137529615Y-79820429D01*
X137284335Y-79779500D01*
X137035665Y-79779500D01*
X136790384Y-79820429D01*
X136555194Y-79901170D01*
X136555190Y-79901171D01*
X136555190Y-79901172D01*
X136522740Y-79918733D01*
X136336485Y-80019529D01*
X136140259Y-80172259D01*
X136140256Y-80172261D01*
X136140256Y-80172262D01*
X136082088Y-80235449D01*
X135981230Y-80345010D01*
X135921343Y-80381001D01*
X135851504Y-80378900D01*
X135798770Y-80345010D01*
X135762551Y-80305666D01*
X135639744Y-80172262D01*
X135617612Y-80155036D01*
X135443514Y-80019529D01*
X135443510Y-80019526D01*
X135443509Y-80019526D01*
X135224810Y-79901172D01*
X135224806Y-79901170D01*
X135224805Y-79901170D01*
X134989615Y-79820429D01*
X134744335Y-79779500D01*
X134495665Y-79779500D01*
X134250384Y-79820429D01*
X134015194Y-79901170D01*
X134015190Y-79901171D01*
X134015190Y-79901172D01*
X133982740Y-79918733D01*
X133796485Y-80019529D01*
X133600255Y-80172261D01*
X133441228Y-80345010D01*
X133381341Y-80381001D01*
X133311503Y-80378900D01*
X133258770Y-80345011D01*
X133099744Y-80172262D01*
X133077612Y-80155036D01*
X132903514Y-80019529D01*
X132903510Y-80019526D01*
X132903509Y-80019526D01*
X132684810Y-79901172D01*
X132684806Y-79901170D01*
X132684805Y-79901170D01*
X132449615Y-79820429D01*
X132204335Y-79779500D01*
X131975072Y-79779500D01*
X131908033Y-79759815D01*
X131887391Y-79743181D01*
X127671743Y-75527533D01*
X127669588Y-75525324D01*
X127612323Y-75465081D01*
X127566518Y-75433199D01*
X127558996Y-75427527D01*
X127515752Y-75392267D01*
X127515751Y-75392266D01*
X127490477Y-75379064D01*
X127477062Y-75370937D01*
X127453658Y-75354647D01*
X127453655Y-75354645D01*
X127453654Y-75354645D01*
X127402373Y-75332638D01*
X127393864Y-75328597D01*
X127344406Y-75302763D01*
X127344405Y-75302763D01*
X127316992Y-75294918D01*
X127302215Y-75289657D01*
X127276012Y-75278413D01*
X127276010Y-75278412D01*
X127221346Y-75267178D01*
X127212208Y-75264935D01*
X127158552Y-75249583D01*
X127158549Y-75249582D01*
X127130124Y-75247418D01*
X127114579Y-75245238D01*
X127086656Y-75239500D01*
X127030853Y-75239500D01*
X127021439Y-75239142D01*
X127012756Y-75238480D01*
X126965797Y-75234905D01*
X126965796Y-75234905D01*
X126965795Y-75234905D01*
X126937523Y-75238506D01*
X126921857Y-75239500D01*
X106744072Y-75239500D01*
X106677033Y-75219815D01*
X106631278Y-75167011D01*
X106621334Y-75097853D01*
X106650359Y-75034297D01*
X106656391Y-75027819D01*
X108069677Y-73614533D01*
X112422504Y-69261704D01*
X112424673Y-69259589D01*
X112484919Y-69202323D01*
X112516816Y-69156493D01*
X112522459Y-69149011D01*
X112557734Y-69105751D01*
X112570941Y-69080465D01*
X112579059Y-69067065D01*
X112595353Y-69043658D01*
X112617375Y-68992338D01*
X112621384Y-68983895D01*
X112647237Y-68934406D01*
X112655080Y-68906991D01*
X112660340Y-68892219D01*
X112671587Y-68866012D01*
X112682824Y-68811323D01*
X112685059Y-68802221D01*
X112700417Y-68748551D01*
X112702582Y-68720106D01*
X112704758Y-68704591D01*
X112710500Y-68676656D01*
X112710500Y-68620851D01*
X112710858Y-68611437D01*
X112711858Y-68598301D01*
X112715095Y-68555797D01*
X112711494Y-68527522D01*
X112710500Y-68511856D01*
X112710500Y-59800000D01*
X136100000Y-59800000D01*
X136100000Y-77490000D01*
X142590000Y-77490000D01*
X142590000Y-59800000D01*
X136100000Y-59800000D01*
X112710500Y-59800000D01*
X112710500Y-57102252D01*
X112730185Y-57035213D01*
X112758339Y-57004398D01*
X112759387Y-57003582D01*
X112779744Y-56987738D01*
X112938772Y-56814986D01*
X112998656Y-56778999D01*
X113068494Y-56781099D01*
X113121230Y-56814989D01*
X113280256Y-56987738D01*
X113301658Y-57004396D01*
X113476485Y-57140470D01*
X113476487Y-57140471D01*
X113476491Y-57140474D01*
X113695190Y-57258828D01*
X113930386Y-57339571D01*
X114175665Y-57380500D01*
X114424335Y-57380500D01*
X114669614Y-57339571D01*
X114904810Y-57258828D01*
X115123509Y-57140474D01*
X115319744Y-56987738D01*
X115478771Y-56814988D01*
X115538657Y-56778999D01*
X115608495Y-56781099D01*
X115661228Y-56814988D01*
X115820256Y-56987738D01*
X115841658Y-57004396D01*
X116016485Y-57140470D01*
X116016487Y-57140471D01*
X116016491Y-57140474D01*
X116235190Y-57258828D01*
X116470386Y-57339571D01*
X116715665Y-57380500D01*
X116964335Y-57380500D01*
X117209614Y-57339571D01*
X117444810Y-57258828D01*
X117663509Y-57140474D01*
X117859744Y-56987738D01*
X118018771Y-56814988D01*
X118078657Y-56778999D01*
X118148495Y-56781099D01*
X118201228Y-56814988D01*
X118360256Y-56987738D01*
X118381658Y-57004396D01*
X118556485Y-57140470D01*
X118556487Y-57140471D01*
X118556491Y-57140474D01*
X118775190Y-57258828D01*
X119010386Y-57339571D01*
X119255665Y-57380500D01*
X119484928Y-57380500D01*
X119551967Y-57400185D01*
X119572609Y-57416819D01*
X121368255Y-59212465D01*
X121370411Y-59214675D01*
X121427677Y-59274919D01*
X121473486Y-59306803D01*
X121480992Y-59312463D01*
X121524249Y-59347734D01*
X121549522Y-59360935D01*
X121562943Y-59369067D01*
X121586340Y-59385352D01*
X121586341Y-59385352D01*
X121586342Y-59385353D01*
X121637643Y-59407367D01*
X121646143Y-59411404D01*
X121695594Y-59437236D01*
X121722995Y-59445076D01*
X121737781Y-59450341D01*
X121763986Y-59461587D01*
X121791182Y-59467175D01*
X121818662Y-59472822D01*
X121827780Y-59475060D01*
X121881448Y-59490417D01*
X121909894Y-59492582D01*
X121925405Y-59494758D01*
X121953344Y-59500500D01*
X122009147Y-59500500D01*
X122018561Y-59500858D01*
X122074203Y-59505095D01*
X122102477Y-59501493D01*
X122118143Y-59500500D01*
X144204928Y-59500500D01*
X144271967Y-59520185D01*
X144292609Y-59536819D01*
X146378255Y-61622465D01*
X146380411Y-61624675D01*
X146437677Y-61684919D01*
X146483486Y-61716803D01*
X146490988Y-61722460D01*
X146534249Y-61757734D01*
X146559522Y-61770935D01*
X146572942Y-61779066D01*
X146596342Y-61795353D01*
X146647623Y-61817359D01*
X146656126Y-61821396D01*
X146705594Y-61847237D01*
X146733001Y-61855079D01*
X146747790Y-61860344D01*
X146773988Y-61871587D01*
X146805103Y-61877980D01*
X146828647Y-61882819D01*
X146837796Y-61885064D01*
X146891449Y-61900417D01*
X146919894Y-61902582D01*
X146935405Y-61904758D01*
X146963344Y-61910500D01*
X147019148Y-61910500D01*
X147028561Y-61910857D01*
X147084203Y-61915095D01*
X147112477Y-61911493D01*
X147128143Y-61910500D01*
X152729951Y-61910500D01*
X152796990Y-61930185D01*
X152817632Y-61946819D01*
X152830859Y-61960046D01*
X153017264Y-62090567D01*
X153017265Y-62090567D01*
X153017266Y-62090568D01*
X153223504Y-62186739D01*
X153443308Y-62245635D01*
X153594435Y-62258856D01*
X153669999Y-62265468D01*
X153669999Y-62265467D01*
X153670000Y-62265468D01*
X153896692Y-62245635D01*
X154116496Y-62186739D01*
X154322734Y-62090568D01*
X154509139Y-61960047D01*
X154670047Y-61799139D01*
X154800568Y-61612734D01*
X154896739Y-61406496D01*
X154955635Y-61186692D01*
X154975468Y-60960000D01*
X154955635Y-60733308D01*
X154896739Y-60513504D01*
X154800568Y-60307266D01*
X154693013Y-60153659D01*
X154670046Y-60120859D01*
X154509140Y-59959953D01*
X154322735Y-59829432D01*
X154116497Y-59733261D01*
X153896689Y-59674364D01*
X153670000Y-59654531D01*
X153443310Y-59674364D01*
X153223502Y-59733261D01*
X153017264Y-59829432D01*
X152830859Y-59959953D01*
X152817632Y-59973181D01*
X152756309Y-60006666D01*
X152729951Y-60009500D01*
X147505072Y-60009500D01*
X147438033Y-59989815D01*
X147417391Y-59973181D01*
X145331743Y-57887533D01*
X145329588Y-57885324D01*
X145272323Y-57825081D01*
X145259622Y-57816241D01*
X145226518Y-57793199D01*
X145218996Y-57787527D01*
X145175752Y-57752267D01*
X145175751Y-57752266D01*
X145150477Y-57739064D01*
X145137062Y-57730937D01*
X145113658Y-57714647D01*
X145113655Y-57714645D01*
X145113654Y-57714645D01*
X145062373Y-57692638D01*
X145053864Y-57688597D01*
X145004406Y-57662763D01*
X144976992Y-57654918D01*
X144962215Y-57649657D01*
X144936012Y-57638413D01*
X144936010Y-57638412D01*
X144881346Y-57627178D01*
X144872208Y-57624935D01*
X144818552Y-57609583D01*
X144818549Y-57609582D01*
X144790124Y-57607418D01*
X144774579Y-57605238D01*
X144746656Y-57599500D01*
X144690853Y-57599500D01*
X144681439Y-57599142D01*
X144672756Y-57598480D01*
X144625797Y-57594905D01*
X144625796Y-57594905D01*
X144625795Y-57594905D01*
X144597523Y-57598506D01*
X144581857Y-57599500D01*
X142091361Y-57599500D01*
X142024322Y-57579815D01*
X141978567Y-57527011D01*
X141968623Y-57457853D01*
X141988906Y-57405649D01*
X142110228Y-57227704D01*
X142224063Y-56991323D01*
X142301396Y-56740615D01*
X142340500Y-56481182D01*
X142340500Y-56218818D01*
X142301396Y-55959385D01*
X142224063Y-55708677D01*
X142110228Y-55472296D01*
X141962433Y-55255521D01*
X141962432Y-55255520D01*
X141962428Y-55255514D01*
X141783984Y-55063198D01*
X141783983Y-55063197D01*
X141783981Y-55063195D01*
X141596588Y-54913754D01*
X141578856Y-54899613D01*
X141358275Y-54772261D01*
X141351643Y-54768432D01*
X141351642Y-54768431D01*
X141351641Y-54768431D01*
X141107418Y-54672580D01*
X140851627Y-54614197D01*
X140657808Y-54599673D01*
X140657797Y-54599672D01*
X140655494Y-54599500D01*
X140524506Y-54599500D01*
X140522203Y-54599672D01*
X140522191Y-54599673D01*
X140328372Y-54614197D01*
X140072581Y-54672580D01*
X139828358Y-54768431D01*
X139601143Y-54899613D01*
X139396015Y-55063198D01*
X139217571Y-55255514D01*
X139069771Y-55472298D01*
X138955936Y-55708677D01*
X138905013Y-55873766D01*
X138866442Y-55932025D01*
X138802498Y-55960183D01*
X138733481Y-55949299D01*
X138681304Y-55902830D01*
X138662946Y-55847460D01*
X138645108Y-55632179D01*
X138584063Y-55391119D01*
X138484173Y-55163393D01*
X138348164Y-54955215D01*
X138179744Y-54772262D01*
X138143747Y-54744244D01*
X137983514Y-54619529D01*
X137983510Y-54619526D01*
X137983509Y-54619526D01*
X137764810Y-54501172D01*
X137764806Y-54501170D01*
X137764805Y-54501170D01*
X137529615Y-54420429D01*
X137284335Y-54379500D01*
X137035665Y-54379500D01*
X136790384Y-54420429D01*
X136555194Y-54501170D01*
X136336485Y-54619529D01*
X136140259Y-54772259D01*
X135981230Y-54945010D01*
X135921343Y-54981001D01*
X135851504Y-54978900D01*
X135798770Y-54945010D01*
X135723491Y-54863236D01*
X135639744Y-54772262D01*
X135603747Y-54744244D01*
X135443514Y-54619529D01*
X135443510Y-54619526D01*
X135443509Y-54619526D01*
X135224810Y-54501172D01*
X135224806Y-54501170D01*
X135224805Y-54501170D01*
X134989615Y-54420429D01*
X134744335Y-54379500D01*
X134495665Y-54379500D01*
X134250384Y-54420429D01*
X134015194Y-54501170D01*
X133796485Y-54619529D01*
X133600259Y-54772259D01*
X133441230Y-54945010D01*
X133381343Y-54981001D01*
X133311504Y-54978900D01*
X133258770Y-54945010D01*
X133183491Y-54863236D01*
X133099744Y-54772262D01*
X133063747Y-54744244D01*
X132903514Y-54619529D01*
X132903510Y-54619526D01*
X132903509Y-54619526D01*
X132684810Y-54501172D01*
X132684806Y-54501170D01*
X132684805Y-54501170D01*
X132449615Y-54420429D01*
X132204335Y-54379500D01*
X131955665Y-54379500D01*
X131710384Y-54420429D01*
X131475194Y-54501170D01*
X131256485Y-54619529D01*
X131060259Y-54772259D01*
X130901230Y-54945010D01*
X130841343Y-54981001D01*
X130771504Y-54978900D01*
X130718770Y-54945010D01*
X130643491Y-54863236D01*
X130559744Y-54772262D01*
X130523747Y-54744244D01*
X130363514Y-54619529D01*
X130363510Y-54619526D01*
X130363509Y-54619526D01*
X130144810Y-54501172D01*
X130144806Y-54501170D01*
X130144805Y-54501170D01*
X129909615Y-54420429D01*
X129664335Y-54379500D01*
X129415665Y-54379500D01*
X129170384Y-54420429D01*
X128935194Y-54501170D01*
X128716485Y-54619529D01*
X128520259Y-54772259D01*
X128361230Y-54945010D01*
X128301343Y-54981001D01*
X128231504Y-54978900D01*
X128178770Y-54945010D01*
X128103491Y-54863236D01*
X128019744Y-54772262D01*
X127998335Y-54755598D01*
X127957524Y-54698889D01*
X127950500Y-54657747D01*
X127950500Y-51942088D01*
X127950500Y-49200044D01*
X127970184Y-49133009D01*
X127986817Y-49112368D01*
X128000047Y-49099139D01*
X128130568Y-48912734D01*
X128226739Y-48706496D01*
X128285635Y-48486692D01*
X128305468Y-48260000D01*
X128305468Y-48259999D01*
X133314531Y-48259999D01*
X133334364Y-48486689D01*
X133393261Y-48706497D01*
X133489432Y-48912735D01*
X133619952Y-49099138D01*
X133633179Y-49112365D01*
X133666666Y-49173687D01*
X133669500Y-49200048D01*
X133669500Y-49516374D01*
X133669460Y-49519516D01*
X133667355Y-49602546D01*
X133677199Y-49657469D01*
X133678508Y-49666797D01*
X133684155Y-49722321D01*
X133692689Y-49749520D01*
X133696431Y-49764764D01*
X133701461Y-49792829D01*
X133722159Y-49844645D01*
X133725319Y-49853520D01*
X133742026Y-49906769D01*
X133755859Y-49931691D01*
X133762592Y-49945868D01*
X133773170Y-49972349D01*
X133803877Y-50018941D01*
X133808760Y-50027000D01*
X133835841Y-50075791D01*
X133854414Y-50097426D01*
X133863865Y-50109961D01*
X133879548Y-50133758D01*
X133919000Y-50173210D01*
X133925404Y-50180119D01*
X133961760Y-50222468D01*
X133984302Y-50239917D01*
X133996080Y-50250290D01*
X135208255Y-51462465D01*
X135210411Y-51464675D01*
X135267677Y-51524919D01*
X135313486Y-51556803D01*
X135320992Y-51562463D01*
X135364249Y-51597734D01*
X135389522Y-51610935D01*
X135402943Y-51619067D01*
X135426340Y-51635352D01*
X135426341Y-51635352D01*
X135426342Y-51635353D01*
X135477643Y-51657367D01*
X135486143Y-51661404D01*
X135535594Y-51687236D01*
X135562995Y-51695076D01*
X135577781Y-51700341D01*
X135603986Y-51711587D01*
X135631182Y-51717175D01*
X135658662Y-51722822D01*
X135667780Y-51725060D01*
X135721448Y-51740417D01*
X135749894Y-51742582D01*
X135765405Y-51744758D01*
X135793344Y-51750500D01*
X135849147Y-51750500D01*
X135858561Y-51750858D01*
X135914203Y-51755095D01*
X135942477Y-51751493D01*
X135958143Y-51750500D01*
X148777037Y-51750500D01*
X148844076Y-51770185D01*
X148868267Y-51790517D01*
X148908215Y-51833913D01*
X148948258Y-51865079D01*
X149091374Y-51976470D01*
X149295497Y-52086936D01*
X149405258Y-52124617D01*
X149515015Y-52162297D01*
X149515017Y-52162297D01*
X149515019Y-52162298D01*
X149743951Y-52200500D01*
X149743952Y-52200500D01*
X149976048Y-52200500D01*
X149976049Y-52200500D01*
X150204981Y-52162298D01*
X150424503Y-52086936D01*
X150628626Y-51976470D01*
X150811784Y-51833913D01*
X150820511Y-51824432D01*
X150880394Y-51788441D01*
X150950233Y-51790538D01*
X151007850Y-51830060D01*
X151027924Y-51865079D01*
X151056647Y-51942088D01*
X151142811Y-52057188D01*
X151257910Y-52143352D01*
X151392628Y-52193599D01*
X151448867Y-52199645D01*
X151455482Y-52200000D01*
X152150000Y-52200000D01*
X152150000Y-51174189D01*
X152202547Y-51210016D01*
X152332173Y-51250000D01*
X152433724Y-51250000D01*
X152534138Y-51234865D01*
X152650000Y-51179068D01*
X152650000Y-52200000D01*
X153344518Y-52200000D01*
X153351132Y-52199645D01*
X153407371Y-52193599D01*
X153542089Y-52143352D01*
X153657188Y-52057188D01*
X153743352Y-51942089D01*
X153793599Y-51807371D01*
X153799645Y-51751132D01*
X153800000Y-51744518D01*
X153800000Y-51050000D01*
X152775278Y-51050000D01*
X152823625Y-50966260D01*
X152853810Y-50834008D01*
X152851261Y-50799999D01*
X158614699Y-50799999D01*
X158633865Y-51031299D01*
X158633865Y-51031301D01*
X158633866Y-51031305D01*
X158690843Y-51256300D01*
X158784076Y-51468849D01*
X158911021Y-51663153D01*
X159036731Y-51799711D01*
X159067652Y-51862364D01*
X159069500Y-51883692D01*
X159069500Y-55866374D01*
X159069460Y-55869516D01*
X159067355Y-55952546D01*
X159077199Y-56007469D01*
X159078508Y-56016797D01*
X159084155Y-56072321D01*
X159090969Y-56094040D01*
X159092689Y-56099520D01*
X159096431Y-56114764D01*
X159101461Y-56142829D01*
X159122159Y-56194645D01*
X159125319Y-56203520D01*
X159142026Y-56256769D01*
X159155859Y-56281691D01*
X159162592Y-56295868D01*
X159173170Y-56322349D01*
X159203877Y-56368941D01*
X159208760Y-56377000D01*
X159235841Y-56425791D01*
X159254414Y-56447426D01*
X159263865Y-56459961D01*
X159279548Y-56483758D01*
X159319000Y-56523210D01*
X159325404Y-56530119D01*
X159361760Y-56572468D01*
X159384302Y-56589917D01*
X159396079Y-56600290D01*
X161573182Y-58777392D01*
X161606666Y-58838713D01*
X161609500Y-58865071D01*
X161609500Y-59244927D01*
X161589815Y-59311966D01*
X161573181Y-59332608D01*
X161279456Y-59626332D01*
X161218133Y-59659817D01*
X161202583Y-59662179D01*
X161063310Y-59674364D01*
X160843502Y-59733261D01*
X160637264Y-59829432D01*
X160450859Y-59959953D01*
X160289953Y-60120859D01*
X160159432Y-60307264D01*
X160063261Y-60513502D01*
X160004364Y-60733310D01*
X159984531Y-60960000D01*
X160004364Y-61186689D01*
X160063261Y-61406497D01*
X160159432Y-61612735D01*
X160289953Y-61799140D01*
X160450859Y-61960046D01*
X160637264Y-62090567D01*
X160637265Y-62090567D01*
X160637266Y-62090568D01*
X160843504Y-62186739D01*
X161063308Y-62245635D01*
X161290000Y-62265468D01*
X161516692Y-62245635D01*
X161736496Y-62186739D01*
X161942734Y-62090568D01*
X162129139Y-61960047D01*
X162290047Y-61799139D01*
X162420568Y-61612734D01*
X162516739Y-61406496D01*
X162575635Y-61186692D01*
X162587819Y-61047415D01*
X162613271Y-60982348D01*
X162623658Y-60970550D01*
X163222504Y-60371704D01*
X163224673Y-60369589D01*
X163284919Y-60312323D01*
X163316816Y-60266493D01*
X163322445Y-60259027D01*
X163357734Y-60215751D01*
X163370933Y-60190479D01*
X163379067Y-60177056D01*
X163395352Y-60153659D01*
X163395353Y-60153658D01*
X163417367Y-60102354D01*
X163421394Y-60093875D01*
X163447236Y-60044406D01*
X163455076Y-60017007D01*
X163460342Y-60002217D01*
X163471587Y-59976013D01*
X163482820Y-59921349D01*
X163485067Y-59912194D01*
X163487356Y-59904194D01*
X163500417Y-59858552D01*
X163502582Y-59830106D01*
X163504758Y-59814591D01*
X163510500Y-59786656D01*
X163510500Y-59730851D01*
X163510858Y-59721437D01*
X163511572Y-59712057D01*
X163515095Y-59665797D01*
X163511494Y-59637522D01*
X163510500Y-59621856D01*
X163510500Y-58433608D01*
X163510540Y-58430466D01*
X163512644Y-58347457D01*
X163512643Y-58347456D01*
X163512644Y-58347453D01*
X163502793Y-58292496D01*
X163501491Y-58283211D01*
X163495845Y-58227679D01*
X163487305Y-58200464D01*
X163483568Y-58185234D01*
X163478539Y-58157172D01*
X163478538Y-58157169D01*
X163457837Y-58105344D01*
X163454677Y-58096468D01*
X163451704Y-58086994D01*
X163437974Y-58043232D01*
X163424139Y-58018306D01*
X163417405Y-58004127D01*
X163406830Y-57977651D01*
X163376119Y-57931053D01*
X163371239Y-57922996D01*
X163344160Y-57874210D01*
X163325589Y-57852578D01*
X163316144Y-57840053D01*
X163300451Y-57816241D01*
X163260998Y-57776788D01*
X163254594Y-57769878D01*
X163218240Y-57727532D01*
X163195698Y-57710083D01*
X163183918Y-57699708D01*
X161006819Y-55522608D01*
X160973334Y-55461285D01*
X160970500Y-55434927D01*
X160970500Y-51969428D01*
X160990185Y-51902389D01*
X161042989Y-51856634D01*
X161112147Y-51846690D01*
X161175703Y-51875715D01*
X161210682Y-51926095D01*
X161216647Y-51942088D01*
X161302811Y-52057188D01*
X161417910Y-52143352D01*
X161552628Y-52193599D01*
X161608867Y-52199645D01*
X161615482Y-52200000D01*
X162310000Y-52200000D01*
X162310000Y-51174189D01*
X162362547Y-51210016D01*
X162492173Y-51250000D01*
X162593724Y-51250000D01*
X162694138Y-51234865D01*
X162810000Y-51179068D01*
X162810000Y-52200000D01*
X163504518Y-52200000D01*
X163511132Y-52199645D01*
X163567371Y-52193599D01*
X163702089Y-52143352D01*
X163817188Y-52057188D01*
X163903352Y-51942089D01*
X163953599Y-51807371D01*
X163959645Y-51751132D01*
X163960000Y-51744518D01*
X163960000Y-51050000D01*
X162935278Y-51050000D01*
X162983625Y-50966260D01*
X163013810Y-50834008D01*
X163003673Y-50698735D01*
X162954113Y-50572459D01*
X162936203Y-50550000D01*
X163960000Y-50550000D01*
X163960000Y-49855481D01*
X163959645Y-49848867D01*
X163953599Y-49792628D01*
X163903352Y-49657910D01*
X163817188Y-49542811D01*
X163702089Y-49456647D01*
X163567371Y-49406400D01*
X163511132Y-49400354D01*
X163504518Y-49400000D01*
X162810000Y-49400000D01*
X162810000Y-50425810D01*
X162757453Y-50389984D01*
X162627827Y-50350000D01*
X162526276Y-50350000D01*
X162425862Y-50365135D01*
X162310000Y-50420931D01*
X162310000Y-49400000D01*
X161615482Y-49400000D01*
X161608867Y-49400354D01*
X161552628Y-49406400D01*
X161417910Y-49456647D01*
X161302811Y-49542811D01*
X161216645Y-49657913D01*
X161187923Y-49734920D01*
X161146052Y-49790854D01*
X161080587Y-49815270D01*
X161012314Y-49800418D01*
X160980513Y-49775570D01*
X160971784Y-49766087D01*
X160788626Y-49623530D01*
X160584503Y-49513064D01*
X160584499Y-49513062D01*
X160584498Y-49513062D01*
X160364984Y-49437702D01*
X160177398Y-49406400D01*
X160136049Y-49399500D01*
X159903951Y-49399500D01*
X159862602Y-49406400D01*
X159675015Y-49437702D01*
X159455501Y-49513062D01*
X159455497Y-49513063D01*
X159455497Y-49513064D01*
X159396224Y-49545141D01*
X159251372Y-49623531D01*
X159068215Y-49766087D01*
X158911020Y-49936848D01*
X158784076Y-50131150D01*
X158690844Y-50343696D01*
X158690842Y-50343700D01*
X158690843Y-50343700D01*
X158638601Y-50550000D01*
X158633865Y-50568700D01*
X158614699Y-50799999D01*
X152851261Y-50799999D01*
X152843673Y-50698735D01*
X152794113Y-50572459D01*
X152776203Y-50550000D01*
X153800000Y-50550000D01*
X153800000Y-49855481D01*
X153799645Y-49848867D01*
X153793599Y-49792628D01*
X153743352Y-49657910D01*
X153657188Y-49542811D01*
X153542089Y-49456647D01*
X153407371Y-49406400D01*
X153351132Y-49400354D01*
X153344518Y-49400000D01*
X152650000Y-49400000D01*
X152650000Y-50425810D01*
X152597453Y-50389984D01*
X152467827Y-50350000D01*
X152366276Y-50350000D01*
X152265862Y-50365135D01*
X152150000Y-50420931D01*
X152150000Y-49400000D01*
X151455482Y-49400000D01*
X151448867Y-49400354D01*
X151392628Y-49406400D01*
X151257910Y-49456647D01*
X151142811Y-49542811D01*
X151056645Y-49657913D01*
X151027923Y-49734920D01*
X150986052Y-49790854D01*
X150920587Y-49815270D01*
X150852314Y-49800418D01*
X150820513Y-49775570D01*
X150811784Y-49766087D01*
X150628626Y-49623530D01*
X150424503Y-49513064D01*
X150424499Y-49513062D01*
X150424498Y-49513062D01*
X150204984Y-49437702D01*
X150017398Y-49406400D01*
X149976049Y-49399500D01*
X149743951Y-49399500D01*
X149702602Y-49406400D01*
X149515015Y-49437702D01*
X149295501Y-49513062D01*
X149295497Y-49513063D01*
X149295497Y-49513064D01*
X149236224Y-49545141D01*
X149091372Y-49623531D01*
X148908215Y-49766086D01*
X148868267Y-49809483D01*
X148808380Y-49845473D01*
X148777037Y-49849500D01*
X136335072Y-49849500D01*
X136268033Y-49829815D01*
X136247391Y-49813181D01*
X135657915Y-49223704D01*
X135624430Y-49162381D01*
X135629414Y-49092689D01*
X135644021Y-49064900D01*
X135750568Y-48912734D01*
X135846739Y-48706496D01*
X135905635Y-48486692D01*
X135925468Y-48260000D01*
X135905635Y-48033308D01*
X135846739Y-47813504D01*
X135750568Y-47607266D01*
X135699636Y-47534526D01*
X135620046Y-47420859D01*
X135459140Y-47259953D01*
X135272735Y-47129432D01*
X135066497Y-47033261D01*
X134846689Y-46974364D01*
X134620000Y-46954531D01*
X134393310Y-46974364D01*
X134173502Y-47033261D01*
X133967264Y-47129432D01*
X133780859Y-47259953D01*
X133619953Y-47420859D01*
X133489432Y-47607264D01*
X133393261Y-47813502D01*
X133334364Y-48033310D01*
X133314531Y-48259999D01*
X128305468Y-48259999D01*
X128285635Y-48033308D01*
X128226739Y-47813504D01*
X128130568Y-47607266D01*
X128079636Y-47534526D01*
X128000046Y-47420859D01*
X127839140Y-47259953D01*
X127652735Y-47129432D01*
X127446497Y-47033261D01*
X127226689Y-46974364D01*
X127000000Y-46954531D01*
X126773310Y-46974364D01*
X126553502Y-47033261D01*
X126347264Y-47129432D01*
X126160859Y-47259953D01*
X125999953Y-47420859D01*
X125869432Y-47607264D01*
X125773261Y-47813502D01*
X125714364Y-48033310D01*
X125694531Y-48259999D01*
X125714364Y-48486689D01*
X125773261Y-48706497D01*
X125869432Y-48912735D01*
X125999952Y-49099138D01*
X126013178Y-49112364D01*
X126046665Y-49173686D01*
X126049499Y-49200047D01*
X126049499Y-54657747D01*
X126029814Y-54724786D01*
X126001664Y-54755598D01*
X125980255Y-54772261D01*
X125821228Y-54945010D01*
X125761341Y-54981001D01*
X125691503Y-54978900D01*
X125638770Y-54945011D01*
X125479744Y-54772262D01*
X125443747Y-54744244D01*
X125283514Y-54619529D01*
X125283510Y-54619526D01*
X125283509Y-54619526D01*
X125064810Y-54501172D01*
X125064806Y-54501170D01*
X125064805Y-54501170D01*
X124829615Y-54420429D01*
X124584335Y-54379500D01*
X124335665Y-54379500D01*
X124090384Y-54420429D01*
X123855194Y-54501170D01*
X123636485Y-54619529D01*
X123440259Y-54772259D01*
X123281230Y-54945010D01*
X123221343Y-54981001D01*
X123151504Y-54978900D01*
X123098770Y-54945010D01*
X123023491Y-54863236D01*
X122939744Y-54772262D01*
X122903747Y-54744244D01*
X122743514Y-54619529D01*
X122743510Y-54619526D01*
X122743509Y-54619526D01*
X122524810Y-54501172D01*
X122524806Y-54501170D01*
X122524805Y-54501170D01*
X122289615Y-54420429D01*
X122044335Y-54379500D01*
X121795665Y-54379500D01*
X121550384Y-54420429D01*
X121315194Y-54501170D01*
X121096485Y-54619529D01*
X120900259Y-54772259D01*
X120741230Y-54945010D01*
X120681343Y-54981001D01*
X120611504Y-54978900D01*
X120558770Y-54945010D01*
X120483491Y-54863236D01*
X120399744Y-54772262D01*
X120363747Y-54744244D01*
X120203514Y-54619529D01*
X120203510Y-54619526D01*
X120203509Y-54619526D01*
X119984810Y-54501172D01*
X119984806Y-54501170D01*
X119984805Y-54501170D01*
X119749615Y-54420429D01*
X119504335Y-54379500D01*
X119255665Y-54379500D01*
X119010384Y-54420429D01*
X118775194Y-54501170D01*
X118556485Y-54619529D01*
X118360259Y-54772259D01*
X118201230Y-54945010D01*
X118141343Y-54981001D01*
X118071504Y-54978900D01*
X118018770Y-54945010D01*
X117943491Y-54863236D01*
X117859744Y-54772262D01*
X117823747Y-54744244D01*
X117663514Y-54619529D01*
X117663510Y-54619526D01*
X117663509Y-54619526D01*
X117444810Y-54501172D01*
X117444806Y-54501170D01*
X117444805Y-54501170D01*
X117209615Y-54420429D01*
X116964335Y-54379500D01*
X116715665Y-54379500D01*
X116470384Y-54420429D01*
X116235194Y-54501170D01*
X116016485Y-54619529D01*
X115820259Y-54772259D01*
X115661230Y-54945010D01*
X115601343Y-54981001D01*
X115531504Y-54978900D01*
X115478770Y-54945010D01*
X115403491Y-54863236D01*
X115319744Y-54772262D01*
X115283747Y-54744244D01*
X115123514Y-54619529D01*
X115123510Y-54619526D01*
X115123509Y-54619526D01*
X114904810Y-54501172D01*
X114904806Y-54501170D01*
X114904805Y-54501170D01*
X114669615Y-54420429D01*
X114424335Y-54379500D01*
X114195072Y-54379500D01*
X114128033Y-54359815D01*
X114107391Y-54343181D01*
X108737743Y-48973533D01*
X108735588Y-48971324D01*
X108678323Y-48911081D01*
X108632518Y-48879199D01*
X108624996Y-48873527D01*
X108581752Y-48838267D01*
X108581751Y-48838266D01*
X108556477Y-48825064D01*
X108543062Y-48816937D01*
X108519658Y-48800647D01*
X108519655Y-48800645D01*
X108519654Y-48800645D01*
X108468373Y-48778638D01*
X108459864Y-48774597D01*
X108410406Y-48748763D01*
X108382992Y-48740918D01*
X108368215Y-48735657D01*
X108342012Y-48724413D01*
X108342010Y-48724412D01*
X108287346Y-48713178D01*
X108278208Y-48710935D01*
X108224552Y-48695583D01*
X108224549Y-48695582D01*
X108196124Y-48693418D01*
X108180579Y-48691238D01*
X108152656Y-48685500D01*
X108096853Y-48685500D01*
X108087439Y-48685142D01*
X108078756Y-48684480D01*
X108031797Y-48680905D01*
X108031796Y-48680905D01*
X108031795Y-48680905D01*
X108003523Y-48684506D01*
X107987857Y-48685500D01*
X89345072Y-48685500D01*
X89278033Y-48665815D01*
X89257391Y-48649181D01*
X88616818Y-48008608D01*
X88583333Y-47947285D01*
X88580499Y-47920936D01*
X88580499Y-44120047D01*
X88600184Y-44053009D01*
X88616816Y-44032368D01*
X88630047Y-44019139D01*
X88760568Y-43832734D01*
X88856739Y-43626496D01*
X88909390Y-43430000D01*
X93971128Y-43430000D01*
X94023733Y-43626326D01*
X94119865Y-43832480D01*
X94250341Y-44018819D01*
X94411180Y-44179658D01*
X94597519Y-44310134D01*
X94803673Y-44406266D01*
X94999999Y-44458871D01*
X95000000Y-44458871D01*
X95000000Y-43495686D01*
X95011955Y-43507641D01*
X95124852Y-43565165D01*
X95218519Y-43580000D01*
X95281481Y-43580000D01*
X95375148Y-43565165D01*
X95488045Y-43507641D01*
X95500000Y-43495686D01*
X95500000Y-44458871D01*
X95696326Y-44406266D01*
X95902480Y-44310134D01*
X96088819Y-44179658D01*
X96249658Y-44018819D01*
X96380134Y-43832480D01*
X96476266Y-43626326D01*
X96528872Y-43430000D01*
X95565686Y-43430000D01*
X95577641Y-43418045D01*
X95635165Y-43305148D01*
X95654986Y-43180000D01*
X95635165Y-43054852D01*
X95577641Y-42941955D01*
X95565686Y-42930000D01*
X96528872Y-42930000D01*
X96528871Y-42929999D01*
X96476266Y-42733673D01*
X96380134Y-42527519D01*
X96249658Y-42341180D01*
X96088819Y-42180341D01*
X95902480Y-42049865D01*
X95696326Y-41953733D01*
X95500000Y-41901126D01*
X95500000Y-42864313D01*
X95488045Y-42852359D01*
X95375148Y-42794835D01*
X95281481Y-42780000D01*
X95218519Y-42780000D01*
X95124852Y-42794835D01*
X95011955Y-42852359D01*
X95000000Y-42864313D01*
X95000000Y-41901127D01*
X94999999Y-41901126D01*
X94803673Y-41953733D01*
X94597519Y-42049865D01*
X94411180Y-42180341D01*
X94250341Y-42341180D01*
X94119865Y-42527519D01*
X94023733Y-42733673D01*
X93971128Y-42929999D01*
X93971128Y-42930000D01*
X94934314Y-42930000D01*
X94922359Y-42941955D01*
X94864835Y-43054852D01*
X94845014Y-43180000D01*
X94864835Y-43305148D01*
X94922359Y-43418045D01*
X94934314Y-43430000D01*
X93971128Y-43430000D01*
X88909390Y-43430000D01*
X88915635Y-43406692D01*
X88935468Y-43180000D01*
X88915635Y-42953308D01*
X88856739Y-42733504D01*
X88760568Y-42527266D01*
X88727636Y-42480233D01*
X88630046Y-42340859D01*
X88469140Y-42179953D01*
X88282735Y-42049432D01*
X88076497Y-41953261D01*
X87856689Y-41894364D01*
X87629999Y-41874531D01*
X87403310Y-41894364D01*
X87183502Y-41953261D01*
X86977264Y-42049432D01*
X86790859Y-42179953D01*
X86629953Y-42340859D01*
X86499432Y-42527264D01*
X86403261Y-42733502D01*
X86344364Y-42953310D01*
X86324531Y-43179999D01*
X86344364Y-43406689D01*
X86403261Y-43626497D01*
X86499432Y-43832735D01*
X86629952Y-44019138D01*
X86643179Y-44032365D01*
X86676666Y-44093687D01*
X86679500Y-44120048D01*
X86679500Y-48352374D01*
X86679460Y-48355516D01*
X86677355Y-48438546D01*
X86687199Y-48493469D01*
X86688507Y-48502795D01*
X86693202Y-48548951D01*
X86680403Y-48617639D01*
X86632501Y-48668502D01*
X86569839Y-48685500D01*
X77274500Y-48685500D01*
X77207461Y-48665815D01*
X77161706Y-48613011D01*
X77150500Y-48561500D01*
X77150500Y-41674500D01*
X77170185Y-41607461D01*
X77222989Y-41561706D01*
X77274500Y-41550500D01*
X80722530Y-41550500D01*
X80789569Y-41570185D01*
X80815611Y-41592575D01*
X80844209Y-41625068D01*
X80851074Y-41632868D01*
X81039869Y-41785311D01*
X81251712Y-41903653D01*
X81480509Y-41984492D01*
X81719670Y-42025500D01*
X81719672Y-42025500D01*
X83096923Y-42025500D01*
X83099554Y-42025500D01*
X83280782Y-42010075D01*
X83455584Y-41964560D01*
X83515609Y-41948931D01*
X83644224Y-41890793D01*
X83736723Y-41848981D01*
X83937765Y-41713100D01*
X84112952Y-41545197D01*
X84257244Y-41350102D01*
X84366488Y-41133429D01*
X84437543Y-40901409D01*
X84468365Y-40660719D01*
X84458066Y-40418281D01*
X84406944Y-40181072D01*
X84316468Y-39955914D01*
X84189242Y-39749286D01*
X84028925Y-39567131D01*
X83976948Y-39525162D01*
X83840130Y-39414688D01*
X83831738Y-39410000D01*
X100300001Y-39410000D01*
X100300001Y-39756829D01*
X100300321Y-39763111D01*
X100310493Y-39862695D01*
X100365642Y-40029122D01*
X100457683Y-40178345D01*
X100581654Y-40302316D01*
X100730877Y-40394357D01*
X100897303Y-40449506D01*
X100996890Y-40459680D01*
X101003168Y-40459999D01*
X101349999Y-40459999D01*
X101350000Y-40459998D01*
X101350000Y-39410000D01*
X100300001Y-39410000D01*
X83831738Y-39410000D01*
X83628287Y-39296346D01*
X83399490Y-39215507D01*
X83160330Y-39174500D01*
X83160328Y-39174500D01*
X81780446Y-39174500D01*
X81777830Y-39174722D01*
X81777821Y-39174723D01*
X81599219Y-39189924D01*
X81364390Y-39251068D01*
X81143277Y-39351018D01*
X80942235Y-39486899D01*
X80858523Y-39567131D01*
X80816484Y-39607423D01*
X80808554Y-39615023D01*
X80746534Y-39647198D01*
X80722754Y-39649500D01*
X76227240Y-39649500D01*
X76220960Y-39649341D01*
X76218361Y-39649209D01*
X76151610Y-39645823D01*
X76139417Y-39647691D01*
X76136947Y-39648070D01*
X76118171Y-39649500D01*
X71657470Y-39649500D01*
X71590431Y-39629815D01*
X71564386Y-39607423D01*
X71528925Y-39567131D01*
X71340130Y-39414688D01*
X71128287Y-39296346D01*
X70899490Y-39215507D01*
X70660330Y-39174500D01*
X70660328Y-39174500D01*
X69280446Y-39174500D01*
X69277830Y-39174722D01*
X69277821Y-39174723D01*
X69099219Y-39189924D01*
X68864390Y-39251068D01*
X68643277Y-39351018D01*
X68442235Y-39486899D01*
X68267047Y-39654803D01*
X68122756Y-39849897D01*
X68013512Y-40066570D01*
X67978447Y-40181072D01*
X67942457Y-40298591D01*
X67920879Y-40467100D01*
X67911635Y-40539284D01*
X67921933Y-40781716D01*
X67973056Y-41018930D01*
X68051360Y-41213795D01*
X68063532Y-41244086D01*
X68190758Y-41450714D01*
X68237113Y-41503383D01*
X68351074Y-41632868D01*
X68539869Y-41785311D01*
X68751712Y-41903653D01*
X68980509Y-41984492D01*
X69219670Y-42025500D01*
X69219672Y-42025500D01*
X70596923Y-42025500D01*
X70599554Y-42025500D01*
X70780782Y-42010075D01*
X70955584Y-41964560D01*
X71015609Y-41948931D01*
X71144224Y-41890793D01*
X71236723Y-41848981D01*
X71437765Y-41713100D01*
X71571446Y-41584976D01*
X71633466Y-41552802D01*
X71657246Y-41550500D01*
X75125500Y-41550500D01*
X75192539Y-41570185D01*
X75238294Y-41622989D01*
X75249500Y-41674500D01*
X75249500Y-49608759D01*
X75249341Y-49615038D01*
X75245824Y-49684393D01*
X75249245Y-49706725D01*
X75239938Y-49775972D01*
X75194671Y-49829195D01*
X75127815Y-49849495D01*
X75126675Y-49849500D01*
X74105072Y-49849500D01*
X74038033Y-49829815D01*
X74017391Y-49813181D01*
X64141743Y-39937533D01*
X64139588Y-39935324D01*
X64082323Y-39875081D01*
X64064529Y-39862696D01*
X64036518Y-39843199D01*
X64028996Y-39837527D01*
X63985752Y-39802267D01*
X63985751Y-39802266D01*
X63960477Y-39789064D01*
X63947062Y-39780937D01*
X63923658Y-39764647D01*
X63923656Y-39764646D01*
X63923653Y-39764644D01*
X63883642Y-39747474D01*
X63839459Y-39715447D01*
X63834412Y-39709713D01*
X63708925Y-39567131D01*
X63656948Y-39525162D01*
X63520130Y-39414688D01*
X63308287Y-39296346D01*
X63079490Y-39215507D01*
X62840330Y-39174500D01*
X62840328Y-39174500D01*
X61460446Y-39174500D01*
X61457830Y-39174722D01*
X61457821Y-39174723D01*
X61279219Y-39189924D01*
X61044390Y-39251068D01*
X60823277Y-39351018D01*
X60622235Y-39486899D01*
X60538523Y-39567131D01*
X60496484Y-39607423D01*
X60488554Y-39615023D01*
X60426534Y-39647198D01*
X60402754Y-39649500D01*
X51337470Y-39649500D01*
X51270431Y-39629815D01*
X51244386Y-39607423D01*
X51208925Y-39567131D01*
X51020130Y-39414688D01*
X50808287Y-39296346D01*
X50579490Y-39215507D01*
X50340330Y-39174500D01*
X50340328Y-39174500D01*
X48960446Y-39174500D01*
X48957830Y-39174722D01*
X48957821Y-39174723D01*
X48779219Y-39189924D01*
X48544390Y-39251068D01*
X48323277Y-39351018D01*
X48122235Y-39486899D01*
X47947047Y-39654803D01*
X47802756Y-39849897D01*
X47693512Y-40066570D01*
X47658447Y-40181072D01*
X47622457Y-40298591D01*
X47600879Y-40467100D01*
X47591635Y-40539284D01*
X47601933Y-40781716D01*
X47653056Y-41018930D01*
X47731360Y-41213795D01*
X47743532Y-41244086D01*
X47870758Y-41450714D01*
X47917113Y-41503383D01*
X48031074Y-41632868D01*
X48219869Y-41785311D01*
X48431712Y-41903653D01*
X48586809Y-41958452D01*
X48643462Y-41999346D01*
X48669012Y-42064376D01*
X48669500Y-42075369D01*
X48669500Y-47229951D01*
X48649815Y-47296990D01*
X48633181Y-47317632D01*
X48529953Y-47420859D01*
X48399432Y-47607264D01*
X48303261Y-47813502D01*
X48244364Y-48033310D01*
X48224531Y-48260000D01*
X48244364Y-48486689D01*
X48303261Y-48706497D01*
X48399432Y-48912735D01*
X48529953Y-49099140D01*
X48690859Y-49260046D01*
X48877264Y-49390567D01*
X48877265Y-49390567D01*
X48877266Y-49390568D01*
X49083504Y-49486739D01*
X49303308Y-49545635D01*
X49454435Y-49558856D01*
X49529999Y-49565468D01*
X49529999Y-49565467D01*
X49530000Y-49565468D01*
X49756692Y-49545635D01*
X49976496Y-49486739D01*
X50182734Y-49390568D01*
X50369139Y-49260047D01*
X50530047Y-49099139D01*
X50660568Y-48912734D01*
X50756739Y-48706496D01*
X50815635Y-48486692D01*
X50835468Y-48260000D01*
X55845033Y-48260000D01*
X55864858Y-48486602D01*
X55923733Y-48706326D01*
X56019866Y-48912484D01*
X56070972Y-48985471D01*
X56070974Y-48985472D01*
X56752046Y-48304399D01*
X56764835Y-48385148D01*
X56822359Y-48498045D01*
X56911955Y-48587641D01*
X57024852Y-48645165D01*
X57105599Y-48657953D01*
X56424526Y-49339025D01*
X56424526Y-49339026D01*
X56497515Y-49390133D01*
X56703673Y-49486266D01*
X56923397Y-49545141D01*
X57150000Y-49564966D01*
X57376602Y-49545141D01*
X57596326Y-49486266D01*
X57802480Y-49390134D01*
X57875472Y-49339025D01*
X57194401Y-48657953D01*
X57275148Y-48645165D01*
X57388045Y-48587641D01*
X57477641Y-48498045D01*
X57535165Y-48385148D01*
X57547953Y-48304400D01*
X58229025Y-48985472D01*
X58280134Y-48912480D01*
X58376266Y-48706326D01*
X58435141Y-48486602D01*
X58454966Y-48260000D01*
X58435141Y-48033397D01*
X58376266Y-47813673D01*
X58280133Y-47607515D01*
X58229025Y-47534526D01*
X57547953Y-48215598D01*
X57535165Y-48134852D01*
X57477641Y-48021955D01*
X57388045Y-47932359D01*
X57275148Y-47874835D01*
X57194400Y-47862046D01*
X57875472Y-47180974D01*
X57875471Y-47180972D01*
X57802484Y-47129866D01*
X57596326Y-47033733D01*
X57376602Y-46974858D01*
X57150000Y-46955033D01*
X56923397Y-46974858D01*
X56703672Y-47033733D01*
X56497516Y-47129865D01*
X56424527Y-47180973D01*
X56424526Y-47180973D01*
X57105600Y-47862046D01*
X57024852Y-47874835D01*
X56911955Y-47932359D01*
X56822359Y-48021955D01*
X56764835Y-48134852D01*
X56752046Y-48215599D01*
X56070973Y-47534526D01*
X56070973Y-47534527D01*
X56019865Y-47607516D01*
X55923733Y-47813672D01*
X55864858Y-48033397D01*
X55845033Y-48260000D01*
X50835468Y-48260000D01*
X50815635Y-48033308D01*
X50756739Y-47813504D01*
X50660568Y-47607266D01*
X50660567Y-47607264D01*
X50592925Y-47510660D01*
X50570597Y-47444453D01*
X50570500Y-47439537D01*
X50570500Y-42077354D01*
X50590185Y-42010315D01*
X50642989Y-41964560D01*
X50663256Y-41957355D01*
X50681734Y-41952543D01*
X50695608Y-41948931D01*
X50916723Y-41848981D01*
X51117765Y-41713100D01*
X51251446Y-41584976D01*
X51313466Y-41552802D01*
X51337246Y-41550500D01*
X60402530Y-41550500D01*
X60469569Y-41570185D01*
X60495611Y-41592575D01*
X60524209Y-41625068D01*
X60531074Y-41632868D01*
X60719869Y-41785311D01*
X60931712Y-41903653D01*
X61160509Y-41984492D01*
X61399670Y-42025500D01*
X61399672Y-42025500D01*
X62776923Y-42025500D01*
X62779554Y-42025500D01*
X62960782Y-42010075D01*
X63195608Y-41948931D01*
X63302817Y-41900469D01*
X63372009Y-41890793D01*
X63435453Y-41920062D01*
X63441571Y-41925781D01*
X72978255Y-51462465D01*
X72980411Y-51464675D01*
X73037677Y-51524919D01*
X73083486Y-51556803D01*
X73090992Y-51562463D01*
X73134249Y-51597734D01*
X73159522Y-51610935D01*
X73172943Y-51619067D01*
X73196340Y-51635352D01*
X73196341Y-51635352D01*
X73196342Y-51635353D01*
X73247643Y-51657367D01*
X73256133Y-51661399D01*
X73305592Y-51687235D01*
X73305594Y-51687236D01*
X73332994Y-51695076D01*
X73347783Y-51700341D01*
X73373988Y-51711587D01*
X73428659Y-51722821D01*
X73437793Y-51725062D01*
X73491448Y-51740416D01*
X73506485Y-51741560D01*
X73519869Y-51742580D01*
X73535415Y-51744760D01*
X73563344Y-51750500D01*
X73619149Y-51750500D01*
X73628564Y-51750858D01*
X73632163Y-51751132D01*
X73684203Y-51755095D01*
X73712477Y-51751493D01*
X73728143Y-51750500D01*
X106234928Y-51750500D01*
X106301967Y-51770185D01*
X106322609Y-51786819D01*
X108233181Y-53697391D01*
X108266666Y-53758714D01*
X108269500Y-53785072D01*
X108269500Y-54657747D01*
X108249815Y-54724786D01*
X108221665Y-54755597D01*
X108200256Y-54772262D01*
X108200254Y-54772263D01*
X108200254Y-54772264D01*
X108041230Y-54945010D01*
X107981343Y-54981001D01*
X107911504Y-54978900D01*
X107858770Y-54945010D01*
X107783491Y-54863236D01*
X107699744Y-54772262D01*
X107663747Y-54744244D01*
X107503514Y-54619529D01*
X107503510Y-54619526D01*
X107503509Y-54619526D01*
X107284810Y-54501172D01*
X107284806Y-54501170D01*
X107284805Y-54501170D01*
X107049615Y-54420429D01*
X106804335Y-54379500D01*
X106555665Y-54379500D01*
X106310384Y-54420429D01*
X106075194Y-54501170D01*
X105856485Y-54619529D01*
X105660259Y-54772259D01*
X105491832Y-54955218D01*
X105491459Y-54955790D01*
X105490746Y-54956397D01*
X105484877Y-54962774D01*
X105484106Y-54962064D01*
X105438311Y-55001144D01*
X105374864Y-55011302D01*
X105363434Y-55010116D01*
X104631132Y-55742417D01*
X104608682Y-55665960D01*
X104529395Y-55542587D01*
X104418562Y-55446549D01*
X104285161Y-55385627D01*
X104281363Y-55385081D01*
X105010056Y-54656389D01*
X105010056Y-54656387D01*
X104963235Y-54619947D01*
X104744606Y-54501631D01*
X104509493Y-54420916D01*
X104264293Y-54380000D01*
X104015707Y-54380000D01*
X103770506Y-54420916D01*
X103535393Y-54501631D01*
X103316764Y-54619946D01*
X103269942Y-54656388D01*
X103269941Y-54656389D01*
X103998634Y-55385081D01*
X103994839Y-55385627D01*
X103861438Y-55446549D01*
X103750605Y-55542587D01*
X103671318Y-55665960D01*
X103648866Y-55742419D01*
X102916564Y-55010116D01*
X102905135Y-55011302D01*
X102836423Y-54998637D01*
X102795726Y-54962219D01*
X102795123Y-54962775D01*
X102789401Y-54956559D01*
X102788538Y-54955787D01*
X102788166Y-54955217D01*
X102749996Y-54913754D01*
X102619744Y-54772262D01*
X102583747Y-54744244D01*
X102423514Y-54619529D01*
X102423510Y-54619526D01*
X102423509Y-54619526D01*
X102204810Y-54501172D01*
X102204806Y-54501170D01*
X102204805Y-54501170D01*
X101969615Y-54420429D01*
X101724335Y-54379500D01*
X101475665Y-54379500D01*
X101230384Y-54420429D01*
X100995194Y-54501170D01*
X100776489Y-54619527D01*
X100668791Y-54703353D01*
X100603796Y-54728996D01*
X100592628Y-54729500D01*
X98759454Y-54729500D01*
X98753728Y-54729368D01*
X98745681Y-54728996D01*
X98676638Y-54725804D01*
X98676637Y-54725804D01*
X98676636Y-54725804D01*
X98600220Y-54736463D01*
X98594532Y-54737123D01*
X98517686Y-54744244D01*
X98500231Y-54749210D01*
X98483436Y-54752753D01*
X98465467Y-54755260D01*
X98392289Y-54779786D01*
X98386821Y-54781479D01*
X98312607Y-54802595D01*
X98296356Y-54810687D01*
X98280504Y-54817253D01*
X98263297Y-54823020D01*
X98195888Y-54860566D01*
X98190824Y-54863236D01*
X98121741Y-54897635D01*
X98107267Y-54908566D01*
X98092885Y-54917937D01*
X98077025Y-54926771D01*
X98017655Y-54976072D01*
X98013166Y-54979628D01*
X97951595Y-55026125D01*
X97899602Y-55083158D01*
X97895647Y-55087299D01*
X95419766Y-57563181D01*
X95358443Y-57596666D01*
X95332085Y-57599500D01*
X95141361Y-57599500D01*
X95074322Y-57579815D01*
X95028567Y-57527011D01*
X95018623Y-57457853D01*
X95038906Y-57405649D01*
X95160228Y-57227704D01*
X95274063Y-56991323D01*
X95351396Y-56740615D01*
X95390500Y-56481182D01*
X95390500Y-56218818D01*
X95351396Y-55959385D01*
X95274063Y-55708677D01*
X95160228Y-55472296D01*
X95012433Y-55255521D01*
X95012432Y-55255520D01*
X95012428Y-55255514D01*
X94833984Y-55063198D01*
X94833983Y-55063197D01*
X94833981Y-55063195D01*
X94646588Y-54913754D01*
X94628856Y-54899613D01*
X94408275Y-54772261D01*
X94401643Y-54768432D01*
X94401642Y-54768431D01*
X94401641Y-54768431D01*
X94157418Y-54672580D01*
X93901627Y-54614197D01*
X93707808Y-54599673D01*
X93707797Y-54599672D01*
X93705494Y-54599500D01*
X93574506Y-54599500D01*
X93572203Y-54599672D01*
X93572191Y-54599673D01*
X93378372Y-54614197D01*
X93122581Y-54672580D01*
X92878358Y-54768431D01*
X92651143Y-54899613D01*
X92446015Y-55063198D01*
X92267571Y-55255514D01*
X92189516Y-55370000D01*
X92119772Y-55472296D01*
X92005937Y-55708677D01*
X91928604Y-55959385D01*
X91889500Y-56218818D01*
X91889500Y-56481182D01*
X91928604Y-56740615D01*
X92005937Y-56991323D01*
X92119772Y-57227704D01*
X92241093Y-57405649D01*
X92262593Y-57472128D01*
X92244739Y-57539678D01*
X92193199Y-57586852D01*
X92138639Y-57599500D01*
X83111886Y-57599500D01*
X83044847Y-57579815D01*
X83018803Y-57557424D01*
X82868926Y-57387131D01*
X82680130Y-57234688D01*
X82468287Y-57116346D01*
X82239490Y-57035507D01*
X82000330Y-56994500D01*
X82000328Y-56994500D01*
X80620446Y-56994500D01*
X80617830Y-56994722D01*
X80617821Y-56994723D01*
X80439219Y-57009924D01*
X80204390Y-57071068D01*
X79983277Y-57171018D01*
X79869032Y-57248235D01*
X79802466Y-57269467D01*
X79799595Y-57269500D01*
X70267054Y-57269500D01*
X70200015Y-57249815D01*
X70189163Y-57241983D01*
X70180130Y-57234689D01*
X70061787Y-57168578D01*
X69968287Y-57116346D01*
X69739490Y-57035507D01*
X69500330Y-56994500D01*
X69500328Y-56994500D01*
X68120446Y-56994500D01*
X68117830Y-56994722D01*
X68117821Y-56994723D01*
X67939219Y-57009924D01*
X67704390Y-57071068D01*
X67483277Y-57171018D01*
X67369032Y-57248235D01*
X67302466Y-57269467D01*
X67299595Y-57269500D01*
X64987054Y-57269500D01*
X64920015Y-57249815D01*
X64909163Y-57241983D01*
X64900130Y-57234689D01*
X64781787Y-57168578D01*
X64688287Y-57116346D01*
X64459490Y-57035507D01*
X64220330Y-56994500D01*
X64220328Y-56994500D01*
X62840446Y-56994500D01*
X62837830Y-56994722D01*
X62837821Y-56994723D01*
X62659219Y-57009924D01*
X62424390Y-57071068D01*
X62203277Y-57171018D01*
X62089032Y-57248235D01*
X62022466Y-57269467D01*
X62019595Y-57269500D01*
X52487054Y-57269500D01*
X52420015Y-57249815D01*
X52409163Y-57241983D01*
X52400130Y-57234689D01*
X52281787Y-57168578D01*
X52188287Y-57116346D01*
X51959490Y-57035507D01*
X51720330Y-56994500D01*
X51720328Y-56994500D01*
X50340446Y-56994500D01*
X50337830Y-56994722D01*
X50337821Y-56994723D01*
X50159219Y-57009924D01*
X49924390Y-57071068D01*
X49703277Y-57171018D01*
X49589032Y-57248235D01*
X49522466Y-57269467D01*
X49519595Y-57269500D01*
X48787914Y-57269500D01*
X48720875Y-57249815D01*
X48700233Y-57233181D01*
X44366819Y-52899766D01*
X44333334Y-52838443D01*
X44330500Y-52812085D01*
X44330500Y-42567914D01*
X44350185Y-42500875D01*
X44366819Y-42480233D01*
X47715213Y-39131840D01*
X101296105Y-39131840D01*
X101306454Y-39243521D01*
X101356448Y-39343922D01*
X101439334Y-39419484D01*
X101543920Y-39460000D01*
X101627802Y-39460000D01*
X101710250Y-39444588D01*
X101766111Y-39410000D01*
X101850000Y-39410000D01*
X101850000Y-40459999D01*
X102196829Y-40459999D01*
X102203111Y-40459678D01*
X102302695Y-40449506D01*
X102469122Y-40394357D01*
X102618345Y-40302316D01*
X102742316Y-40178345D01*
X102834357Y-40029122D01*
X102889506Y-39862696D01*
X102899680Y-39763109D01*
X102900000Y-39756831D01*
X102900000Y-39410000D01*
X101850000Y-39410000D01*
X101766111Y-39410000D01*
X101805610Y-39385543D01*
X101873201Y-39296038D01*
X101903895Y-39188160D01*
X101893546Y-39076479D01*
X101843552Y-38976078D01*
X101760666Y-38900516D01*
X101656080Y-38860000D01*
X101572198Y-38860000D01*
X101489750Y-38875412D01*
X101394390Y-38934457D01*
X101326799Y-39023962D01*
X101296105Y-39131840D01*
X47715213Y-39131840D01*
X47937053Y-38910000D01*
X100300000Y-38910000D01*
X101350000Y-38910000D01*
X101350000Y-37860000D01*
X101850000Y-37860000D01*
X101850000Y-38910000D01*
X102899999Y-38910000D01*
X102899999Y-38563170D01*
X102899678Y-38556888D01*
X102889506Y-38457304D01*
X102834357Y-38290877D01*
X102742316Y-38141654D01*
X102618345Y-38017683D01*
X102469122Y-37925642D01*
X102302696Y-37870493D01*
X102203109Y-37860319D01*
X102196832Y-37860000D01*
X101850000Y-37860000D01*
X101350000Y-37860000D01*
X101003171Y-37860000D01*
X100996888Y-37860321D01*
X100897304Y-37870493D01*
X100730877Y-37925642D01*
X100581654Y-38017683D01*
X100457683Y-38141654D01*
X100365642Y-38290877D01*
X100310493Y-38457303D01*
X100300319Y-38556890D01*
X100300000Y-38563168D01*
X100300000Y-38910000D01*
X47937053Y-38910000D01*
X49785234Y-37061819D01*
X49846557Y-37028334D01*
X49872915Y-37025500D01*
X50276923Y-37025500D01*
X50279554Y-37025500D01*
X50460782Y-37010075D01*
X50663513Y-36957288D01*
X50695609Y-36948931D01*
X50806165Y-36898955D01*
X50916723Y-36848981D01*
X51021709Y-36778023D01*
X51030968Y-36771765D01*
X51097534Y-36750533D01*
X51100405Y-36750500D01*
X60632946Y-36750500D01*
X60699985Y-36770185D01*
X60710836Y-36778016D01*
X60719870Y-36785311D01*
X60862853Y-36865186D01*
X60931712Y-36903653D01*
X61160509Y-36984492D01*
X61399670Y-37025500D01*
X61399672Y-37025500D01*
X62776923Y-37025500D01*
X62779554Y-37025500D01*
X62960782Y-37010075D01*
X63163513Y-36957288D01*
X63195609Y-36948931D01*
X63306165Y-36898955D01*
X63416723Y-36848981D01*
X63521709Y-36778023D01*
X63530968Y-36771765D01*
X63597534Y-36750533D01*
X63600405Y-36750500D01*
X68452946Y-36750500D01*
X68519985Y-36770185D01*
X68530836Y-36778016D01*
X68539870Y-36785311D01*
X68682853Y-36865186D01*
X68751712Y-36903653D01*
X68980509Y-36984492D01*
X69219670Y-37025500D01*
X69219672Y-37025500D01*
X70596923Y-37025500D01*
X70599554Y-37025500D01*
X70780782Y-37010075D01*
X70983513Y-36957288D01*
X71015609Y-36948931D01*
X71126165Y-36898955D01*
X71236723Y-36848981D01*
X71341709Y-36778023D01*
X71350968Y-36771765D01*
X71417534Y-36750533D01*
X71420405Y-36750500D01*
X80952946Y-36750500D01*
X81019985Y-36770185D01*
X81030836Y-36778016D01*
X81039870Y-36785311D01*
X81182853Y-36865186D01*
X81251712Y-36903653D01*
X81480509Y-36984492D01*
X81719670Y-37025500D01*
X81719672Y-37025500D01*
X83096923Y-37025500D01*
X83099554Y-37025500D01*
X83280782Y-37010075D01*
X83483513Y-36957288D01*
X83515609Y-36948931D01*
X83626165Y-36898955D01*
X83736723Y-36848981D01*
X83841709Y-36778023D01*
X83850968Y-36771765D01*
X83917534Y-36750533D01*
X83920405Y-36750500D01*
X86290546Y-36750500D01*
X86296272Y-36750632D01*
X86373362Y-36754196D01*
X86449835Y-36743528D01*
X86455444Y-36742878D01*
X86532310Y-36735756D01*
X86549761Y-36730789D01*
X86566557Y-36727246D01*
X86584536Y-36724739D01*
X86657731Y-36700205D01*
X86663149Y-36698527D01*
X86737389Y-36677405D01*
X86753642Y-36669311D01*
X86769493Y-36662746D01*
X86786702Y-36656979D01*
X86854155Y-36619407D01*
X86859169Y-36616765D01*
X86928255Y-36582366D01*
X86942726Y-36571436D01*
X86957116Y-36562059D01*
X86972975Y-36553227D01*
X87032373Y-36503902D01*
X87036822Y-36500378D01*
X87098407Y-36453872D01*
X87150398Y-36396839D01*
X87154332Y-36392719D01*
X87987052Y-35559999D01*
X100294531Y-35559999D01*
X100314364Y-35786689D01*
X100373261Y-36006497D01*
X100469432Y-36212735D01*
X100599953Y-36399140D01*
X100760859Y-36560046D01*
X100947264Y-36690567D01*
X100947265Y-36690567D01*
X100947266Y-36690568D01*
X101153504Y-36786739D01*
X101373308Y-36845635D01*
X101600000Y-36865468D01*
X101826692Y-36845635D01*
X102046496Y-36786739D01*
X102185075Y-36722117D01*
X102237480Y-36710500D01*
X104110546Y-36710500D01*
X104116272Y-36710632D01*
X104193362Y-36714196D01*
X104269835Y-36703528D01*
X104275444Y-36702878D01*
X104352310Y-36695756D01*
X104369761Y-36690789D01*
X104386557Y-36687246D01*
X104404536Y-36684739D01*
X104477731Y-36660205D01*
X104483149Y-36658527D01*
X104557389Y-36637405D01*
X104573642Y-36629311D01*
X104589493Y-36622746D01*
X104606702Y-36616979D01*
X104674155Y-36579407D01*
X104679169Y-36576765D01*
X104748255Y-36542366D01*
X104762726Y-36531436D01*
X104777116Y-36522059D01*
X104792975Y-36513227D01*
X104852373Y-36463902D01*
X104856822Y-36460378D01*
X104918407Y-36413872D01*
X104970398Y-36356839D01*
X104974332Y-36352719D01*
X106827051Y-34500000D01*
X110455033Y-34500000D01*
X110474858Y-34726602D01*
X110533733Y-34946326D01*
X110629866Y-35152484D01*
X110680972Y-35225471D01*
X110680974Y-35225472D01*
X111406446Y-34500000D01*
X111406446Y-34499999D01*
X110680973Y-33774526D01*
X110680973Y-33774527D01*
X110629865Y-33847516D01*
X110533733Y-34053672D01*
X110474858Y-34273397D01*
X110455033Y-34500000D01*
X106827051Y-34500000D01*
X107906078Y-33420973D01*
X111034526Y-33420973D01*
X111760000Y-34146446D01*
X111760001Y-34146446D01*
X112485472Y-33420974D01*
X112485471Y-33420972D01*
X112412484Y-33369866D01*
X112206326Y-33273733D01*
X111986602Y-33214858D01*
X111760000Y-33195033D01*
X111533397Y-33214858D01*
X111313672Y-33273733D01*
X111107516Y-33369865D01*
X111034527Y-33420973D01*
X111034526Y-33420973D01*
X107906078Y-33420973D01*
X110930233Y-30396819D01*
X110991557Y-30363334D01*
X111017915Y-30360500D01*
X145484318Y-30360500D01*
X145551357Y-30380185D01*
X145597112Y-30432989D01*
X145607056Y-30502147D01*
X145578031Y-30565703D01*
X145536723Y-30596882D01*
X145416589Y-30652900D01*
X145351812Y-30698258D01*
X145351811Y-30698258D01*
X146022554Y-31369000D01*
X146018431Y-31369000D01*
X145924579Y-31384661D01*
X145812749Y-31445180D01*
X145726629Y-31538731D01*
X145675552Y-31655177D01*
X145669894Y-31723446D01*
X144998258Y-31051811D01*
X144998258Y-31051812D01*
X144952900Y-31116589D01*
X144859578Y-31316719D01*
X144802424Y-31530021D01*
X144783178Y-31749999D01*
X144802424Y-31969978D01*
X144859579Y-32183281D01*
X144952898Y-32383406D01*
X144998258Y-32448187D01*
X145665096Y-31781349D01*
X145665051Y-31781898D01*
X145696266Y-31905162D01*
X145765813Y-32011612D01*
X145866157Y-32089713D01*
X145986422Y-32131000D01*
X146022553Y-32131000D01*
X145351812Y-32801740D01*
X145416591Y-32847099D01*
X145536723Y-32903118D01*
X145589162Y-32949290D01*
X145608314Y-33016484D01*
X145588098Y-33083365D01*
X145534933Y-33128699D01*
X145484318Y-33139500D01*
X115599454Y-33139500D01*
X115593728Y-33139368D01*
X115587408Y-33139075D01*
X115516638Y-33135804D01*
X115516637Y-33135804D01*
X115516636Y-33135804D01*
X115440220Y-33146463D01*
X115434532Y-33147123D01*
X115357686Y-33154244D01*
X115340231Y-33159210D01*
X115323436Y-33162753D01*
X115305467Y-33165260D01*
X115232289Y-33189786D01*
X115226821Y-33191479D01*
X115152607Y-33212595D01*
X115136356Y-33220687D01*
X115120504Y-33227253D01*
X115103297Y-33233020D01*
X115035888Y-33270566D01*
X115030824Y-33273236D01*
X114961741Y-33307635D01*
X114947267Y-33318566D01*
X114932885Y-33327937D01*
X114917025Y-33336771D01*
X114857655Y-33386072D01*
X114853166Y-33389628D01*
X114791595Y-33436125D01*
X114739602Y-33493158D01*
X114735647Y-33497299D01*
X113203560Y-35029386D01*
X113142237Y-35062871D01*
X113072545Y-35057887D01*
X113016612Y-35016015D01*
X112992195Y-34950551D01*
X112996104Y-34909611D01*
X113045141Y-34726602D01*
X113064966Y-34500000D01*
X113045141Y-34273397D01*
X112986266Y-34053673D01*
X112890133Y-33847515D01*
X112839025Y-33774526D01*
X112055346Y-34558206D01*
X112063895Y-34528160D01*
X112053546Y-34416479D01*
X112003552Y-34316078D01*
X111920666Y-34240516D01*
X111816080Y-34200000D01*
X111732198Y-34200000D01*
X111649750Y-34215412D01*
X111554390Y-34274457D01*
X111486799Y-34363962D01*
X111456105Y-34471840D01*
X111466454Y-34583521D01*
X111516448Y-34683922D01*
X111599334Y-34759484D01*
X111703920Y-34800000D01*
X111787802Y-34800000D01*
X111819473Y-34794079D01*
X111760000Y-34853553D01*
X111034526Y-35579025D01*
X111034526Y-35579026D01*
X111107515Y-35630133D01*
X111313673Y-35726266D01*
X111533397Y-35785141D01*
X111760000Y-35804966D01*
X111986602Y-35785141D01*
X112169610Y-35736104D01*
X112239460Y-35737767D01*
X112297322Y-35776929D01*
X112324827Y-35841157D01*
X112313241Y-35910060D01*
X112289385Y-35943560D01*
X111469764Y-36763181D01*
X111408441Y-36796666D01*
X111382084Y-36799500D01*
X111163141Y-36799500D01*
X111163121Y-36799500D01*
X111159992Y-36799501D01*
X111156860Y-36799820D01*
X111156858Y-36799821D01*
X111057203Y-36810000D01*
X110890665Y-36865186D01*
X110741342Y-36957288D01*
X110617288Y-37081342D01*
X110525186Y-37230665D01*
X110470000Y-37397202D01*
X110459819Y-37496858D01*
X110459817Y-37496878D01*
X110459500Y-37499991D01*
X110459500Y-37503138D01*
X110459500Y-37503139D01*
X110459500Y-38696859D01*
X110459500Y-38696878D01*
X110459501Y-38700008D01*
X110459820Y-38703140D01*
X110459821Y-38703141D01*
X110470000Y-38802796D01*
X110525186Y-38969334D01*
X110617288Y-39118657D01*
X110741342Y-39242711D01*
X110754891Y-39251068D01*
X110890666Y-39334814D01*
X110996844Y-39369998D01*
X111057202Y-39389999D01*
X111156858Y-39400180D01*
X111156859Y-39400180D01*
X111159991Y-39400500D01*
X112360008Y-39400499D01*
X112462797Y-39389999D01*
X112629334Y-39334814D01*
X112778656Y-39242712D01*
X112902712Y-39118656D01*
X112994814Y-38969334D01*
X113049999Y-38802797D01*
X113060500Y-38700009D01*
X113060499Y-38477914D01*
X113080183Y-38410875D01*
X113096813Y-38390238D01*
X116010232Y-35476819D01*
X116071556Y-35443334D01*
X116097914Y-35440500D01*
X145484318Y-35440500D01*
X145551357Y-35460185D01*
X145597112Y-35512989D01*
X145607056Y-35582147D01*
X145578031Y-35645703D01*
X145536723Y-35676882D01*
X145416589Y-35732900D01*
X145351812Y-35778258D01*
X145351811Y-35778258D01*
X146022554Y-36449000D01*
X146018431Y-36449000D01*
X145924579Y-36464661D01*
X145812749Y-36525180D01*
X145726629Y-36618731D01*
X145675552Y-36735177D01*
X145669894Y-36803446D01*
X144998258Y-36131811D01*
X144998258Y-36131812D01*
X144952900Y-36196589D01*
X144859578Y-36396719D01*
X144802424Y-36610021D01*
X144783178Y-36830000D01*
X144802424Y-37049978D01*
X144859579Y-37263281D01*
X144952898Y-37463406D01*
X144998258Y-37528187D01*
X145665096Y-36861349D01*
X145665051Y-36861898D01*
X145696266Y-36985162D01*
X145765813Y-37091612D01*
X145866157Y-37169713D01*
X145986422Y-37211000D01*
X146022553Y-37211000D01*
X145351812Y-37881740D01*
X145416592Y-37927100D01*
X145546372Y-37987617D01*
X145598812Y-38033789D01*
X145617964Y-38100982D01*
X145597749Y-38167863D01*
X145546373Y-38212381D01*
X145416589Y-38272900D01*
X145351812Y-38318258D01*
X145351811Y-38318258D01*
X146022554Y-38989000D01*
X146018431Y-38989000D01*
X145924579Y-39004661D01*
X145812749Y-39065180D01*
X145726629Y-39158731D01*
X145675552Y-39275177D01*
X145669894Y-39343446D01*
X144998258Y-38671811D01*
X144998258Y-38671812D01*
X144952900Y-38736589D01*
X144859578Y-38936719D01*
X144802424Y-39150021D01*
X144783178Y-39370000D01*
X144802424Y-39589978D01*
X144859579Y-39803281D01*
X144952898Y-40003406D01*
X144998258Y-40068187D01*
X145665096Y-39401349D01*
X145665051Y-39401898D01*
X145696266Y-39525162D01*
X145765813Y-39631612D01*
X145866157Y-39709713D01*
X145986422Y-39751000D01*
X146022553Y-39751000D01*
X145351812Y-40421740D01*
X145416592Y-40467100D01*
X145545780Y-40527341D01*
X145598220Y-40573513D01*
X145617372Y-40640706D01*
X145597157Y-40707587D01*
X145545782Y-40752105D01*
X145416336Y-40812467D01*
X145235379Y-40939174D01*
X145079174Y-41095379D01*
X144952466Y-41276338D01*
X144859106Y-41476548D01*
X144801929Y-41689934D01*
X144782676Y-41910000D01*
X144801929Y-42130065D01*
X144859106Y-42343451D01*
X144944820Y-42527266D01*
X144952466Y-42543662D01*
X145079174Y-42724620D01*
X145235380Y-42880826D01*
X145416338Y-43007534D01*
X145616550Y-43100894D01*
X145829932Y-43158070D01*
X146050000Y-43177323D01*
X146270068Y-43158070D01*
X146483450Y-43100894D01*
X146545161Y-43072117D01*
X146597565Y-43060500D01*
X156143046Y-43060500D01*
X156148772Y-43060632D01*
X156225862Y-43064196D01*
X156302335Y-43053528D01*
X156307944Y-43052878D01*
X156384810Y-43045756D01*
X156402261Y-43040789D01*
X156419057Y-43037246D01*
X156437036Y-43034739D01*
X156510231Y-43010205D01*
X156515649Y-43008527D01*
X156589889Y-42987405D01*
X156606142Y-42979311D01*
X156621993Y-42972746D01*
X156639202Y-42966979D01*
X156706655Y-42929407D01*
X156711669Y-42926765D01*
X156780755Y-42892366D01*
X156795226Y-42881436D01*
X156809616Y-42872059D01*
X156825475Y-42863227D01*
X156884873Y-42813902D01*
X156889322Y-42810378D01*
X156950907Y-42763872D01*
X157002898Y-42706839D01*
X157006832Y-42702719D01*
X158402734Y-41306817D01*
X158464057Y-41273333D01*
X158490415Y-41270499D01*
X160857061Y-41270499D01*
X160860372Y-41270499D01*
X160919983Y-41264091D01*
X161054831Y-41213796D01*
X161170046Y-41127546D01*
X161256296Y-41012331D01*
X161306591Y-40877483D01*
X161313000Y-40817873D01*
X161312999Y-37222128D01*
X161306591Y-37162517D01*
X161256296Y-37027669D01*
X161170046Y-36912454D01*
X161054831Y-36826204D01*
X160919983Y-36775909D01*
X160881440Y-36771765D01*
X160863666Y-36769854D01*
X160863665Y-36769853D01*
X160860373Y-36769500D01*
X160857050Y-36769500D01*
X157267939Y-36769500D01*
X157267920Y-36769500D01*
X157264628Y-36769501D01*
X157261348Y-36769853D01*
X157261340Y-36769854D01*
X157205015Y-36775909D01*
X157070168Y-36826203D01*
X157070169Y-36826204D01*
X156954954Y-36912454D01*
X156869508Y-37026596D01*
X156868703Y-37027671D01*
X156850486Y-37076511D01*
X156808614Y-37132444D01*
X156743149Y-37156860D01*
X156674877Y-37142007D01*
X156625472Y-37092601D01*
X156610480Y-37026596D01*
X156612412Y-36990229D01*
X156612500Y-36986942D01*
X156612500Y-36270000D01*
X154862500Y-36270000D01*
X154862500Y-35770000D01*
X156612499Y-35770000D01*
X156612499Y-35053069D01*
X156612411Y-35049769D01*
X156609932Y-35003076D01*
X156608894Y-34994616D01*
X156565262Y-34769013D01*
X156482619Y-34550023D01*
X156364159Y-34348158D01*
X156213286Y-34169213D01*
X156034341Y-34018340D01*
X155832476Y-33899880D01*
X155613486Y-33817237D01*
X155387891Y-33773607D01*
X155379408Y-33772566D01*
X155332737Y-33770087D01*
X155329443Y-33770000D01*
X154612500Y-33770000D01*
X154612500Y-34586313D01*
X154572344Y-34560507D01*
X154434389Y-34520000D01*
X154290611Y-34520000D01*
X154152656Y-34560507D01*
X154112500Y-34586313D01*
X154112500Y-33770000D01*
X153395569Y-33770000D01*
X153392269Y-33770088D01*
X153345576Y-33772567D01*
X153337116Y-33773605D01*
X153111513Y-33817237D01*
X152892523Y-33899880D01*
X152690658Y-34018340D01*
X152511713Y-34169213D01*
X152360840Y-34348158D01*
X152242380Y-34550023D01*
X152159737Y-34769013D01*
X152116107Y-34994608D01*
X152115066Y-35003091D01*
X152112587Y-35049762D01*
X152112500Y-35053057D01*
X152112500Y-35770000D01*
X153862500Y-35770000D01*
X153862500Y-36270000D01*
X152112501Y-36270000D01*
X152112501Y-36986930D01*
X152112588Y-36990230D01*
X152115067Y-37036923D01*
X152116105Y-37045383D01*
X152159737Y-37270986D01*
X152242380Y-37489976D01*
X152360840Y-37691841D01*
X152511713Y-37870786D01*
X152690658Y-38021659D01*
X152892523Y-38140119D01*
X153111513Y-38222762D01*
X153337108Y-38266392D01*
X153345591Y-38267433D01*
X153392262Y-38269912D01*
X153395557Y-38269999D01*
X154112499Y-38269999D01*
X154112500Y-38269998D01*
X154112500Y-37453686D01*
X154152656Y-37479493D01*
X154290611Y-37520000D01*
X154434389Y-37520000D01*
X154572344Y-37479493D01*
X154612500Y-37453686D01*
X154612500Y-38269999D01*
X155329431Y-38269999D01*
X155332730Y-38269911D01*
X155379423Y-38267432D01*
X155387883Y-38266394D01*
X155613486Y-38222762D01*
X155832476Y-38140119D01*
X156034341Y-38021659D01*
X156213286Y-37870786D01*
X156364159Y-37691841D01*
X156482619Y-37489976D01*
X156565262Y-37270985D01*
X156566256Y-37265849D01*
X156598311Y-37203767D01*
X156658843Y-37168871D01*
X156728631Y-37172240D01*
X156785519Y-37212804D01*
X156811446Y-37277686D01*
X156812000Y-37289394D01*
X156812000Y-39592084D01*
X156792315Y-39659123D01*
X156775681Y-39679765D01*
X155732266Y-40723181D01*
X155670943Y-40756666D01*
X155644585Y-40759500D01*
X146615682Y-40759500D01*
X146548643Y-40739815D01*
X146502888Y-40687011D01*
X146492944Y-40617853D01*
X146521969Y-40554297D01*
X146563278Y-40523118D01*
X146683408Y-40467100D01*
X146748187Y-40421740D01*
X146077448Y-39751000D01*
X146081569Y-39751000D01*
X146175421Y-39735339D01*
X146287251Y-39674820D01*
X146373371Y-39581269D01*
X146424448Y-39464823D01*
X146430105Y-39396550D01*
X147101740Y-40068186D01*
X147147100Y-40003408D01*
X147240420Y-39803281D01*
X147297575Y-39589978D01*
X147316821Y-39370000D01*
X147297575Y-39150021D01*
X147240421Y-38936720D01*
X147147098Y-38736589D01*
X147101740Y-38671811D01*
X146434903Y-39338647D01*
X146434949Y-39338102D01*
X146403734Y-39214838D01*
X146334187Y-39108388D01*
X146233843Y-39030287D01*
X146113578Y-38989000D01*
X146077447Y-38989000D01*
X146748187Y-38318258D01*
X146683407Y-38272898D01*
X146553627Y-38212382D01*
X146501187Y-38166210D01*
X146482035Y-38099017D01*
X146502250Y-38032135D01*
X146553627Y-37987618D01*
X146683408Y-37927100D01*
X146748187Y-37881740D01*
X146077448Y-37211000D01*
X146081569Y-37211000D01*
X146175421Y-37195339D01*
X146287251Y-37134820D01*
X146373371Y-37041269D01*
X146424448Y-36924823D01*
X146430105Y-36856552D01*
X147101740Y-37528186D01*
X147147100Y-37463408D01*
X147240420Y-37263281D01*
X147297575Y-37049978D01*
X147316821Y-36830000D01*
X147297575Y-36610021D01*
X147240421Y-36396720D01*
X147147098Y-36196589D01*
X147101740Y-36131811D01*
X146434903Y-36798648D01*
X146434949Y-36798102D01*
X146403734Y-36674838D01*
X146334187Y-36568388D01*
X146233843Y-36490287D01*
X146113578Y-36449000D01*
X146077447Y-36449000D01*
X146748187Y-35778258D01*
X146683406Y-35732898D01*
X146554219Y-35672658D01*
X146501779Y-35626486D01*
X146482627Y-35559293D01*
X146502843Y-35492411D01*
X146554219Y-35447894D01*
X146563998Y-35443334D01*
X146683662Y-35387534D01*
X146864620Y-35260826D01*
X147020826Y-35104620D01*
X147147534Y-34923662D01*
X147240894Y-34723450D01*
X147298070Y-34510068D01*
X147317323Y-34290000D01*
X147315870Y-34273397D01*
X147298070Y-34069934D01*
X147298070Y-34069932D01*
X147240894Y-33856550D01*
X147147534Y-33656339D01*
X147020826Y-33475380D01*
X146864620Y-33319174D01*
X146683662Y-33192466D01*
X146671378Y-33186738D01*
X146554218Y-33132105D01*
X146501779Y-33085932D01*
X146482627Y-33018739D01*
X146502843Y-32951858D01*
X146554220Y-32907340D01*
X146683411Y-32847098D01*
X146748187Y-32801740D01*
X146716447Y-32770000D01*
X156812500Y-32770000D01*
X157628814Y-32770000D01*
X157603007Y-32810156D01*
X157562500Y-32948111D01*
X157562500Y-33091889D01*
X157603007Y-33229844D01*
X157628814Y-33270000D01*
X156812501Y-33270000D01*
X156812501Y-33831744D01*
X156812692Y-33836625D01*
X156822900Y-33966331D01*
X156877877Y-34184518D01*
X156970930Y-34389379D01*
X157099065Y-34574332D01*
X157258167Y-34733434D01*
X157443120Y-34861569D01*
X157647981Y-34954622D01*
X157866168Y-35009599D01*
X157995874Y-35019808D01*
X158000754Y-35019999D01*
X158812499Y-35019999D01*
X158812500Y-35019998D01*
X158812500Y-33520000D01*
X159312500Y-33520000D01*
X159312500Y-35019999D01*
X160124244Y-35019999D01*
X160129125Y-35019807D01*
X160258831Y-35009599D01*
X160477018Y-34954622D01*
X160681879Y-34861569D01*
X160866832Y-34733434D01*
X161025934Y-34574332D01*
X161154069Y-34389379D01*
X161247122Y-34184518D01*
X161302099Y-33966331D01*
X161312308Y-33836625D01*
X161312500Y-33831745D01*
X161312500Y-33270000D01*
X160496186Y-33270000D01*
X160521993Y-33229844D01*
X160562500Y-33091889D01*
X160562500Y-32948111D01*
X160521993Y-32810156D01*
X160496186Y-32770000D01*
X161312499Y-32770000D01*
X161312499Y-32208255D01*
X161312307Y-32203374D01*
X161302099Y-32073668D01*
X161247122Y-31855481D01*
X161154069Y-31650620D01*
X161025934Y-31465667D01*
X160866832Y-31306565D01*
X160681879Y-31178430D01*
X160477018Y-31085377D01*
X160258831Y-31030400D01*
X160129125Y-31020191D01*
X160124246Y-31020000D01*
X159312500Y-31020000D01*
X159312500Y-32520000D01*
X158812500Y-32520000D01*
X158812500Y-31020000D01*
X158000755Y-31020000D01*
X157995874Y-31020192D01*
X157866168Y-31030400D01*
X157647981Y-31085377D01*
X157443120Y-31178430D01*
X157258167Y-31306565D01*
X157099065Y-31465667D01*
X156970930Y-31650620D01*
X156877877Y-31855481D01*
X156822900Y-32073668D01*
X156812691Y-32203374D01*
X156812500Y-32208254D01*
X156812500Y-32770000D01*
X146716447Y-32770000D01*
X146077448Y-32131000D01*
X146081569Y-32131000D01*
X146175421Y-32115339D01*
X146287251Y-32054820D01*
X146373371Y-31961269D01*
X146424448Y-31844823D01*
X146430105Y-31776552D01*
X147101740Y-32448186D01*
X147147100Y-32383408D01*
X147240420Y-32183281D01*
X147297575Y-31969978D01*
X147316821Y-31749999D01*
X147297575Y-31530021D01*
X147240421Y-31316720D01*
X147147098Y-31116589D01*
X147101740Y-31051811D01*
X146434903Y-31718648D01*
X146434949Y-31718102D01*
X146403734Y-31594838D01*
X146334187Y-31488388D01*
X146233843Y-31410287D01*
X146113578Y-31369000D01*
X146077447Y-31369000D01*
X146748187Y-30698258D01*
X146683406Y-30652898D01*
X146554219Y-30592658D01*
X146501779Y-30546486D01*
X146482627Y-30479293D01*
X146502843Y-30412411D01*
X146554219Y-30367894D01*
X146563998Y-30363334D01*
X146683662Y-30307534D01*
X146864620Y-30180826D01*
X147020826Y-30024620D01*
X147147534Y-29843662D01*
X147240894Y-29643450D01*
X147298070Y-29430068D01*
X147317323Y-29210000D01*
X147298070Y-28989932D01*
X147240894Y-28776550D01*
X147147534Y-28576339D01*
X147020826Y-28395380D01*
X146864620Y-28239174D01*
X146683662Y-28112466D01*
X146677917Y-28109787D01*
X146483451Y-28019106D01*
X146270065Y-27961929D01*
X146050000Y-27942676D01*
X145829934Y-27961929D01*
X145616548Y-28019106D01*
X145554840Y-28047882D01*
X145502435Y-28059500D01*
X110519439Y-28059500D01*
X110513714Y-28059368D01*
X110505901Y-28059006D01*
X110436638Y-28055805D01*
X110436637Y-28055805D01*
X110436634Y-28055805D01*
X110360230Y-28066461D01*
X110354545Y-28067121D01*
X110277688Y-28074243D01*
X110260228Y-28079211D01*
X110243436Y-28082753D01*
X110225467Y-28085260D01*
X110225464Y-28085260D01*
X110225463Y-28085261D01*
X110201577Y-28093266D01*
X110152285Y-28109787D01*
X110146818Y-28111480D01*
X110072607Y-28132596D01*
X110056361Y-28140685D01*
X110040513Y-28147250D01*
X110023298Y-28153021D01*
X109955887Y-28190567D01*
X109950824Y-28193236D01*
X109881741Y-28227635D01*
X109867267Y-28238566D01*
X109852885Y-28247938D01*
X109837024Y-28256772D01*
X109777646Y-28306079D01*
X109773159Y-28309633D01*
X109711592Y-28356128D01*
X109659611Y-28413147D01*
X109655657Y-28417288D01*
X103699766Y-34373181D01*
X103638443Y-34406666D01*
X103612085Y-34409500D01*
X102237480Y-34409500D01*
X102185075Y-34397882D01*
X102046497Y-34333261D01*
X101826689Y-34274364D01*
X101600000Y-34254531D01*
X101373310Y-34274364D01*
X101153502Y-34333261D01*
X100947264Y-34429432D01*
X100760859Y-34559953D01*
X100599953Y-34720859D01*
X100469432Y-34907264D01*
X100373261Y-35113502D01*
X100314364Y-35333310D01*
X100294531Y-35559999D01*
X87987052Y-35559999D01*
X91880233Y-31666819D01*
X91941557Y-31633334D01*
X91967915Y-31630500D01*
X99592085Y-31630500D01*
X99659124Y-31650185D01*
X99679766Y-31666819D01*
X100332862Y-32319915D01*
X100364956Y-32375502D01*
X100373261Y-32406497D01*
X100469432Y-32612735D01*
X100599953Y-32799140D01*
X100760859Y-32960046D01*
X100947264Y-33090567D01*
X100947265Y-33090567D01*
X100947266Y-33090568D01*
X101153504Y-33186739D01*
X101373308Y-33245635D01*
X101600000Y-33265468D01*
X101826692Y-33245635D01*
X102046496Y-33186739D01*
X102252734Y-33090568D01*
X102439139Y-32960047D01*
X102600047Y-32799139D01*
X102730568Y-32612734D01*
X102826739Y-32406496D01*
X102885635Y-32186692D01*
X102905468Y-31960000D01*
X102885635Y-31733308D01*
X102826739Y-31513504D01*
X102730568Y-31307266D01*
X102730078Y-31306565D01*
X102600046Y-31120859D01*
X102439140Y-30959953D01*
X102252735Y-30829432D01*
X102046497Y-30733261D01*
X102015502Y-30724956D01*
X101959915Y-30692862D01*
X100954352Y-29687299D01*
X100950397Y-29683157D01*
X100914198Y-29643450D01*
X100898407Y-29626128D01*
X100836851Y-29579642D01*
X100832363Y-29576087D01*
X100772975Y-29526773D01*
X100757119Y-29517941D01*
X100742731Y-29508566D01*
X100728253Y-29497632D01*
X100659185Y-29463241D01*
X100654129Y-29460577D01*
X100586702Y-29423021D01*
X100586700Y-29423020D01*
X100586698Y-29423019D01*
X100569493Y-29417252D01*
X100553635Y-29410684D01*
X100537387Y-29402594D01*
X100463178Y-29381479D01*
X100457708Y-29379785D01*
X100384539Y-29355262D01*
X100384538Y-29355261D01*
X100384536Y-29355261D01*
X100366558Y-29352753D01*
X100349761Y-29349209D01*
X100344100Y-29347598D01*
X100332308Y-29344243D01*
X100262172Y-29337744D01*
X100255462Y-29337122D01*
X100249783Y-29336463D01*
X100199860Y-29329500D01*
X100173363Y-29325804D01*
X100173362Y-29325804D01*
X100107952Y-29328828D01*
X100096272Y-29329368D01*
X100090546Y-29329500D01*
X91469439Y-29329500D01*
X91463714Y-29329368D01*
X91455901Y-29329006D01*
X91386638Y-29325805D01*
X91386637Y-29325805D01*
X91386634Y-29325805D01*
X91310230Y-29336461D01*
X91304545Y-29337121D01*
X91227688Y-29344243D01*
X91210228Y-29349211D01*
X91193436Y-29352753D01*
X91175467Y-29355260D01*
X91175464Y-29355260D01*
X91175463Y-29355261D01*
X91151577Y-29363266D01*
X91102285Y-29379787D01*
X91096818Y-29381480D01*
X91022607Y-29402596D01*
X91006361Y-29410685D01*
X90990513Y-29417250D01*
X90973295Y-29423022D01*
X90905883Y-29460568D01*
X90900821Y-29463236D01*
X90831745Y-29497632D01*
X90817260Y-29508571D01*
X90802880Y-29517942D01*
X90787023Y-29526774D01*
X90727652Y-29576074D01*
X90723167Y-29579627D01*
X90661590Y-29626130D01*
X90609611Y-29683147D01*
X90605657Y-29687288D01*
X85879766Y-34413181D01*
X85818443Y-34446666D01*
X85792085Y-34449500D01*
X83927054Y-34449500D01*
X83860015Y-34429815D01*
X83849163Y-34421983D01*
X83840130Y-34414689D01*
X83694367Y-34333261D01*
X83628287Y-34296346D01*
X83399490Y-34215507D01*
X83160330Y-34174500D01*
X83160328Y-34174500D01*
X81780446Y-34174500D01*
X81777830Y-34174722D01*
X81777821Y-34174723D01*
X81599219Y-34189924D01*
X81364390Y-34251068D01*
X81143277Y-34351018D01*
X81029032Y-34428235D01*
X80962466Y-34449467D01*
X80959595Y-34449500D01*
X71427054Y-34449500D01*
X71360015Y-34429815D01*
X71349163Y-34421983D01*
X71340130Y-34414689D01*
X71194367Y-34333261D01*
X71128287Y-34296346D01*
X70899490Y-34215507D01*
X70660330Y-34174500D01*
X70660328Y-34174500D01*
X69280446Y-34174500D01*
X69277830Y-34174722D01*
X69277821Y-34174723D01*
X69099219Y-34189924D01*
X68864390Y-34251068D01*
X68643277Y-34351018D01*
X68529032Y-34428235D01*
X68462466Y-34449467D01*
X68459595Y-34449500D01*
X63607054Y-34449500D01*
X63540015Y-34429815D01*
X63529163Y-34421983D01*
X63520130Y-34414689D01*
X63374367Y-34333261D01*
X63308287Y-34296346D01*
X63079490Y-34215507D01*
X62840330Y-34174500D01*
X62840328Y-34174500D01*
X61460446Y-34174500D01*
X61457830Y-34174722D01*
X61457821Y-34174723D01*
X61279219Y-34189924D01*
X61044390Y-34251068D01*
X60823277Y-34351018D01*
X60709032Y-34428235D01*
X60642466Y-34449467D01*
X60639595Y-34449500D01*
X51107054Y-34449500D01*
X51040015Y-34429815D01*
X51029163Y-34421983D01*
X51020130Y-34414689D01*
X50874367Y-34333261D01*
X50808287Y-34296346D01*
X50579490Y-34215507D01*
X50340330Y-34174500D01*
X50340328Y-34174500D01*
X48960446Y-34174500D01*
X48957830Y-34174722D01*
X48957821Y-34174723D01*
X48779219Y-34189924D01*
X48544390Y-34251068D01*
X48323277Y-34351018D01*
X48122235Y-34486899D01*
X47947047Y-34654803D01*
X47802756Y-34849897D01*
X47693512Y-35066570D01*
X47622457Y-35298590D01*
X47591635Y-35539284D01*
X47595494Y-35630133D01*
X47601934Y-35781719D01*
X47603005Y-35786689D01*
X47624810Y-35887867D01*
X47619691Y-35957549D01*
X47591274Y-36001671D01*
X42387288Y-41205657D01*
X42383147Y-41209611D01*
X42326128Y-41261592D01*
X42279633Y-41323159D01*
X42276079Y-41327646D01*
X42226772Y-41387024D01*
X42217938Y-41402885D01*
X42208566Y-41417267D01*
X42197635Y-41431741D01*
X42163236Y-41500824D01*
X42160566Y-41505888D01*
X42123020Y-41573297D01*
X42117253Y-41590504D01*
X42110687Y-41606356D01*
X42102595Y-41622607D01*
X42081479Y-41696821D01*
X42079786Y-41702289D01*
X42055260Y-41775467D01*
X42052753Y-41793436D01*
X42049210Y-41810231D01*
X42044244Y-41827686D01*
X42037123Y-41904532D01*
X42036463Y-41910220D01*
X42025804Y-41986635D01*
X42029368Y-42063727D01*
X42029500Y-42069453D01*
X42029500Y-53310545D01*
X42029368Y-53316271D01*
X42025804Y-53393363D01*
X42028311Y-53411334D01*
X42029500Y-53428464D01*
X42029500Y-86330545D01*
X42029368Y-86336271D01*
X42025804Y-86413362D01*
X40640500Y-86413362D01*
X40640500Y-23096500D01*
X40660185Y-23029461D01*
X40712989Y-22983706D01*
X40764500Y-22972500D01*
X167515500Y-22972500D01*
X167582539Y-22992185D01*
G37*
%TD.AperFunction*%
%TD*%
M02*
