%TF.GenerationSoftware,KiCad,Pcbnew,7.0.2*%
%TF.CreationDate,2023-06-13T20:31:05-05:00*%
%TF.ProjectId,LUCES,4c554345-532e-46b6-9963-61645f706362,rev?*%
%TF.SameCoordinates,Original*%
%TF.FileFunction,Plated,1,2,PTH,Mixed*%
%TF.FilePolarity,Positive*%
%FSLAX46Y46*%
G04 Gerber Fmt 4.6, Leading zero omitted, Abs format (unit mm)*
G04 Created by KiCad (PCBNEW 7.0.2) date 2023-06-13 20:31:05*
%MOMM*%
%LPD*%
G01*
G04 APERTURE LIST*
%TA.AperFunction,ComponentDrill*%
%ADD10C,0.600000*%
%TD*%
%TA.AperFunction,ComponentDrill*%
%ADD11C,0.700000*%
%TD*%
%TA.AperFunction,ComponentDrill*%
%ADD12C,0.762000*%
%TD*%
%TA.AperFunction,ComponentDrill*%
%ADD13C,0.800000*%
%TD*%
%TA.AperFunction,ComponentDrill*%
%ADD14C,1.000000*%
%TD*%
G04 aperture for slot hole*
%TA.AperFunction,ComponentDrill*%
%ADD15O,1.000000X3.000000*%
%TD*%
G04 aperture for slot hole*
%TA.AperFunction,ComponentDrill*%
%ADD16O,3.000000X1.000000*%
%TD*%
G04 APERTURE END LIST*
D10*
%TO.C,D1*%
X104560000Y-124460000D03*
%TO.C,BT1*%
X107950000Y-90170000D03*
%TO.C,D1*%
X108160000Y-124460000D03*
%TO.C,BT1*%
X111550000Y-90170000D03*
%TO.C,D1*%
X111760000Y-124460000D03*
X115360000Y-124460000D03*
%TO.C,D2*%
X128900000Y-121920000D03*
%TO.C,SW1*%
X129960000Y-101600000D03*
%TO.C,D2*%
X132500000Y-121920000D03*
%TO.C,SW1*%
X133560000Y-101600000D03*
%TO.C,D2*%
X136100000Y-121920000D03*
%TO.C,SW1*%
X137160000Y-101600000D03*
%TO.C,D2*%
X139700000Y-121920000D03*
D11*
%TO.C,R2*%
X124460000Y-114300000D03*
X129540000Y-114300000D03*
%TO.C,R3*%
X139700000Y-109220000D03*
X139700000Y-114300000D03*
D12*
%TO.C,BluetoothHC1*%
X75057000Y-88900000D03*
X77597000Y-88900000D03*
X80137000Y-88900000D03*
X82677000Y-88900000D03*
X85217000Y-88900000D03*
X87757000Y-88900000D03*
%TO.C,U1*%
X102870000Y-93980000D03*
X102870000Y-96520000D03*
X102870000Y-99060000D03*
X102870000Y-101600000D03*
X102870000Y-104140000D03*
X102870000Y-106680000D03*
D13*
%TO.C,C1*%
X101600000Y-111760000D03*
X101600000Y-113760000D03*
%TO.C,C2*%
X114300000Y-111760000D03*
X114300000Y-113760000D03*
D14*
%TO.C,A1*%
X92460000Y-81280000D03*
X95000000Y-81280000D03*
X97540000Y-81280000D03*
X100080000Y-81280000D03*
X101600000Y-33020000D03*
X102620000Y-81280000D03*
X104140000Y-33020000D03*
X105160000Y-81280000D03*
X106680000Y-33020000D03*
X107700000Y-81280000D03*
X109220000Y-33020000D03*
X110240000Y-81280000D03*
X111760000Y-33020000D03*
X112780000Y-81280000D03*
X114300000Y-33020000D03*
X115320000Y-81280000D03*
X116840000Y-33020000D03*
X119380000Y-33020000D03*
X119380000Y-81280000D03*
X121920000Y-81280000D03*
X124460000Y-33020000D03*
X124460000Y-81280000D03*
X127000000Y-33020000D03*
X127000000Y-81280000D03*
X129540000Y-33020000D03*
X129540000Y-81280000D03*
D15*
%TO.C,J1*%
X131160000Y-91440000D03*
D14*
%TO.C,A1*%
X132080000Y-33020000D03*
X132080000Y-81280000D03*
D16*
%TO.C,J1*%
X134160000Y-86740000D03*
D14*
%TO.C,A1*%
X134620000Y-33020000D03*
X134620000Y-81280000D03*
X137160000Y-33020000D03*
X137160000Y-81280000D03*
D15*
%TO.C,J1*%
X137160000Y-91440000D03*
M02*
