M48
; DRILL file {KiCad 7.0.2} date Tue Jun 13 20:31:08 2023
; FORMAT={-:-/ absolute / metric / decimal}
; #@! TF.CreationDate,2023-06-13T20:31:08-05:00
; #@! TF.GenerationSoftware,Kicad,Pcbnew,7.0.2
; #@! TF.FileFunction,Plated,1,2,PTH
FMAT,2
METRIC
; #@! TA.AperFunction,Plated,PTH,ComponentDrill
T1C0.600
; #@! TA.AperFunction,Plated,PTH,ComponentDrill
T2C0.700
; #@! TA.AperFunction,Plated,PTH,ComponentDrill
T3C0.762
; #@! TA.AperFunction,Plated,PTH,ComponentDrill
T4C0.800
; #@! TA.AperFunction,Plated,PTH,ComponentDrill
T5C1.000
%
G90
G05
T1
X104.56Y-124.46
X107.95Y-90.17
X108.16Y-124.46
X111.55Y-90.17
X111.76Y-124.46
X115.36Y-124.46
X128.9Y-121.92
X129.96Y-101.6
X132.5Y-121.92
X133.56Y-101.6
X136.1Y-121.92
X137.16Y-101.6
X139.7Y-121.92
T2
X124.46Y-114.3
X129.54Y-114.3
X139.7Y-109.22
X139.7Y-114.3
T3
X75.057Y-88.9
X77.597Y-88.9
X80.137Y-88.9
X82.677Y-88.9
X85.217Y-88.9
X87.757Y-88.9
X102.87Y-93.98
X102.87Y-96.52
X102.87Y-99.06
X102.87Y-101.6
X102.87Y-104.14
X102.87Y-106.68
T4
X101.6Y-111.76
X101.6Y-113.76
X114.3Y-111.76
X114.3Y-113.76
T5
X92.46Y-81.28
X95.0Y-81.28
X97.54Y-81.28
X100.08Y-81.28
X101.6Y-33.02
X102.62Y-81.28
X104.14Y-33.02
X105.16Y-81.28
X106.68Y-33.02
X107.7Y-81.28
X109.22Y-33.02
X110.24Y-81.28
X111.76Y-33.02
X112.78Y-81.28
X114.3Y-33.02
X115.32Y-81.28
X116.84Y-33.02
X119.38Y-33.02
X119.38Y-81.28
X121.92Y-81.28
X124.46Y-33.02
X124.46Y-81.28
X127.0Y-33.02
X127.0Y-81.28
X129.54Y-33.02
X129.54Y-81.28
X132.08Y-33.02
X132.08Y-81.28
X134.62Y-33.02
X134.62Y-81.28
X137.16Y-33.02
X137.16Y-81.28
T5
G00X131.16Y-92.44
M15
G01X131.16Y-90.44
M16
G05
G00X135.16Y-86.74
M15
G01X133.16Y-86.74
M16
G05
G00X137.16Y-92.44
M15
G01X137.16Y-90.44
M16
G05
T0
M30
