%TF.GenerationSoftware,KiCad,Pcbnew,7.0.2*%
%TF.CreationDate,2023-06-14T14:54:56-05:00*%
%TF.ProjectId,ControlRemoto,436f6e74-726f-46c5-9265-6d6f746f2e6b,rev?*%
%TF.SameCoordinates,Original*%
%TF.FileFunction,Drillmap*%
%TF.FilePolarity,Positive*%
%FSLAX45Y45*%
G04 Gerber Fmt 4.5, Leading zero omitted, Abs format (unit mm)*
G04 Created by KiCad (PCBNEW 7.0.2) date 2023-06-14 14:54:56*
%MOMM*%
%LPD*%
G01*
G04 APERTURE LIST*
%ADD10C,0.100000*%
%ADD11C,0.200000*%
%ADD12C,0.060000*%
%ADD13C,0.076200*%
%ADD14C,0.080000*%
%ADD15C,0.090000*%
%ADD16C,0.102000*%
%ADD17C,0.130000*%
G04 APERTURE END LIST*
D10*
X4064000Y-2297200D02*
X16764000Y-2297200D01*
X16764000Y-9398000D01*
X4064000Y-9398000D01*
X4064000Y-2297200D01*
D11*
D12*
X10130000Y-3166000D02*
X10190000Y-3226000D01*
X10190000Y-3166000D02*
X10130000Y-3226000D01*
X10130000Y-3526000D02*
X10190000Y-3586000D01*
X10190000Y-3526000D02*
X10130000Y-3586000D01*
X10130000Y-3886000D02*
X10190000Y-3946000D01*
X10190000Y-3886000D02*
X10130000Y-3946000D01*
X11146000Y-3420000D02*
X11206000Y-3480000D01*
X11206000Y-3420000D02*
X11146000Y-3480000D01*
X11146000Y-3780000D02*
X11206000Y-3840000D01*
X11206000Y-3780000D02*
X11146000Y-3840000D01*
D13*
X4864100Y-7734300D02*
G75*
G03*
X4864100Y-7734300I-38100J0D01*
G01*
X4864100Y-7988300D02*
G75*
G03*
X4864100Y-7988300I-38100J0D01*
G01*
X4864100Y-8242300D02*
G75*
G03*
X4864100Y-8242300I-38100J0D01*
G01*
X4864100Y-8496300D02*
G75*
G03*
X4864100Y-8496300I-38100J0D01*
G01*
X4864100Y-8750300D02*
G75*
G03*
X4864100Y-8750300I-38100J0D01*
G01*
X4864100Y-9004300D02*
G75*
G03*
X4864100Y-9004300I-38100J0D01*
G01*
X14643100Y-2921000D02*
G75*
G03*
X14643100Y-2921000I-38100J0D01*
G01*
X14643100Y-3175000D02*
G75*
G03*
X14643100Y-3175000I-38100J0D01*
G01*
X14643100Y-3429000D02*
G75*
G03*
X14643100Y-3429000I-38100J0D01*
G01*
X14643100Y-3683000D02*
G75*
G03*
X14643100Y-3683000I-38100J0D01*
G01*
X14643100Y-3937000D02*
G75*
G03*
X14643100Y-3937000I-38100J0D01*
G01*
X14643100Y-4191000D02*
G75*
G03*
X14643100Y-4191000I-38100J0D01*
G01*
X15087600Y-6743700D02*
G75*
G03*
X15087600Y-6743700I-38100J0D01*
G01*
X15087600Y-6997700D02*
G75*
G03*
X15087600Y-6997700I-38100J0D01*
G01*
X15087600Y-7251700D02*
G75*
G03*
X15087600Y-7251700I-38100J0D01*
G01*
X15087600Y-7505700D02*
G75*
G03*
X15087600Y-7505700I-38100J0D01*
G01*
X15087600Y-7759700D02*
G75*
G03*
X15087600Y-7759700I-38100J0D01*
G01*
X15087600Y-8013700D02*
G75*
G03*
X15087600Y-8013700I-38100J0D01*
G01*
X15087600Y-8267700D02*
G75*
G03*
X15087600Y-8267700I-38100J0D01*
G01*
X15087600Y-8521700D02*
G75*
G03*
X15087600Y-8521700I-38100J0D01*
G01*
D14*
X4953000Y-4786000D02*
X4953000Y-4866000D01*
X4913000Y-4826000D02*
X4993000Y-4826000D01*
X5461000Y-7072000D02*
X5461000Y-7152000D01*
X5421000Y-7112000D02*
X5501000Y-7112000D01*
X5715000Y-4786000D02*
X5715000Y-4866000D01*
X5675000Y-4826000D02*
X5755000Y-4826000D01*
X6223000Y-7072000D02*
X6223000Y-7152000D01*
X6183000Y-7112000D02*
X6263000Y-7112000D01*
X8128000Y-7072000D02*
X8128000Y-7152000D01*
X8088000Y-7112000D02*
X8168000Y-7112000D01*
X8763000Y-4278000D02*
X8763000Y-4358000D01*
X8723000Y-4318000D02*
X8803000Y-4318000D01*
X8890000Y-7072000D02*
X8890000Y-7152000D01*
X8850000Y-7112000D02*
X8930000Y-7112000D01*
X9525000Y-4278000D02*
X9525000Y-4358000D01*
X9485000Y-4318000D02*
X9565000Y-4318000D01*
X12700000Y-4786000D02*
X12700000Y-4866000D01*
X12660000Y-4826000D02*
X12740000Y-4826000D01*
X13462000Y-4786000D02*
X13462000Y-4866000D01*
X13422000Y-4826000D02*
X13502000Y-4826000D01*
X15367000Y-6056000D02*
X15367000Y-6136000D01*
X15327000Y-6096000D02*
X15407000Y-6096000D01*
X16129000Y-6056000D02*
X16129000Y-6136000D01*
X16089000Y-6096000D02*
X16169000Y-6096000D01*
D15*
X15017820Y-5111820D02*
X15017820Y-5048180D01*
X14954180Y-5048180D01*
X14954180Y-5111820D01*
X15017820Y-5111820D01*
X15271820Y-5111820D02*
X15271820Y-5048180D01*
X15208180Y-5048180D01*
X15208180Y-5111820D01*
X15271820Y-5111820D01*
X16033820Y-5111820D02*
X16033820Y-5048180D01*
X15970180Y-5048180D01*
X15970180Y-5111820D01*
X16033820Y-5111820D01*
X16287820Y-5111820D02*
X16287820Y-5048180D01*
X16224180Y-5048180D01*
X16224180Y-5111820D01*
X16287820Y-5111820D01*
D10*
X15436250Y-3652000D02*
X15486250Y-3602000D01*
X15436250Y-3552000D01*
X15386250Y-3602000D01*
X15436250Y-3652000D01*
D11*
X15386250Y-3502000D02*
X15386250Y-3702000D01*
X15386250Y-3702000D02*
G75*
G03*
X15486250Y-3702000I50000J0D01*
G01*
X15486250Y-3702000D02*
X15486250Y-3502000D01*
X15486250Y-3502000D02*
G75*
G03*
X15386250Y-3502000I-50000J0D01*
G01*
D10*
X15906250Y-3352000D02*
X15956250Y-3302000D01*
X15906250Y-3252000D01*
X15856250Y-3302000D01*
X15906250Y-3352000D01*
D11*
X16006250Y-3252000D02*
X15806250Y-3252000D01*
X15806250Y-3252000D02*
G75*
G03*
X15806250Y-3352000I0J-50000D01*
G01*
X15806250Y-3352000D02*
X16006250Y-3352000D01*
X16006250Y-3352000D02*
G75*
G03*
X16006250Y-3252000I0J50000D01*
G01*
D10*
X15906250Y-3952000D02*
X15956250Y-3902000D01*
X15906250Y-3852000D01*
X15856250Y-3902000D01*
X15906250Y-3952000D01*
D11*
X16006250Y-3852000D02*
X15806250Y-3852000D01*
X15806250Y-3852000D02*
G75*
G03*
X15806250Y-3952000I0J-50000D01*
G01*
X15806250Y-3952000D02*
X16006250Y-3952000D01*
X16006250Y-3952000D02*
G75*
G03*
X16006250Y-3852000I0J50000D01*
G01*
D16*
X10109000Y-5537000D02*
X10211000Y-5639000D01*
X10211000Y-5537000D02*
X10109000Y-5639000D01*
X10211000Y-5588000D02*
G75*
G03*
X10211000Y-5588000I-51000J0D01*
G01*
X10109000Y-8077000D02*
X10211000Y-8179000D01*
X10211000Y-8077000D02*
X10109000Y-8179000D01*
X10211000Y-8128000D02*
G75*
G03*
X10211000Y-8128000I-51000J0D01*
G01*
X10363000Y-5537000D02*
X10465000Y-5639000D01*
X10465000Y-5537000D02*
X10363000Y-5639000D01*
X10465000Y-5588000D02*
G75*
G03*
X10465000Y-5588000I-51000J0D01*
G01*
X10363000Y-8077000D02*
X10465000Y-8179000D01*
X10465000Y-8077000D02*
X10363000Y-8179000D01*
X10465000Y-8128000D02*
G75*
G03*
X10465000Y-8128000I-51000J0D01*
G01*
X10617000Y-5537000D02*
X10719000Y-5639000D01*
X10719000Y-5537000D02*
X10617000Y-5639000D01*
X10719000Y-5588000D02*
G75*
G03*
X10719000Y-5588000I-51000J0D01*
G01*
X10617000Y-8077000D02*
X10719000Y-8179000D01*
X10719000Y-8077000D02*
X10617000Y-8179000D01*
X10719000Y-8128000D02*
G75*
G03*
X10719000Y-8128000I-51000J0D01*
G01*
X10871000Y-5537000D02*
X10973000Y-5639000D01*
X10973000Y-5537000D02*
X10871000Y-5639000D01*
X10973000Y-5588000D02*
G75*
G03*
X10973000Y-5588000I-51000J0D01*
G01*
X10871000Y-8077000D02*
X10973000Y-8179000D01*
X10973000Y-8077000D02*
X10871000Y-8179000D01*
X10973000Y-8128000D02*
G75*
G03*
X10973000Y-8128000I-51000J0D01*
G01*
X11125000Y-5537000D02*
X11227000Y-5639000D01*
X11227000Y-5537000D02*
X11125000Y-5639000D01*
X11227000Y-5588000D02*
G75*
G03*
X11227000Y-5588000I-51000J0D01*
G01*
X11125000Y-8077000D02*
X11227000Y-8179000D01*
X11227000Y-8077000D02*
X11125000Y-8179000D01*
X11227000Y-8128000D02*
G75*
G03*
X11227000Y-8128000I-51000J0D01*
G01*
X11379000Y-5537000D02*
X11481000Y-5639000D01*
X11481000Y-5537000D02*
X11379000Y-5639000D01*
X11481000Y-5588000D02*
G75*
G03*
X11481000Y-5588000I-51000J0D01*
G01*
X11379000Y-8077000D02*
X11481000Y-8179000D01*
X11481000Y-8077000D02*
X11379000Y-8179000D01*
X11481000Y-8128000D02*
G75*
G03*
X11481000Y-8128000I-51000J0D01*
G01*
X11633000Y-5537000D02*
X11735000Y-5639000D01*
X11735000Y-5537000D02*
X11633000Y-5639000D01*
X11735000Y-5588000D02*
G75*
G03*
X11735000Y-5588000I-51000J0D01*
G01*
X11633000Y-8077000D02*
X11735000Y-8179000D01*
X11735000Y-8077000D02*
X11633000Y-8179000D01*
X11735000Y-8128000D02*
G75*
G03*
X11735000Y-8128000I-51000J0D01*
G01*
X11887000Y-5537000D02*
X11989000Y-5639000D01*
X11989000Y-5537000D02*
X11887000Y-5639000D01*
X11989000Y-5588000D02*
G75*
G03*
X11989000Y-5588000I-51000J0D01*
G01*
X11887000Y-8077000D02*
X11989000Y-8179000D01*
X11989000Y-8077000D02*
X11887000Y-8179000D01*
X11989000Y-8128000D02*
G75*
G03*
X11989000Y-8128000I-51000J0D01*
G01*
X12141000Y-5537000D02*
X12243000Y-5639000D01*
X12243000Y-5537000D02*
X12141000Y-5639000D01*
X12243000Y-5588000D02*
G75*
G03*
X12243000Y-5588000I-51000J0D01*
G01*
X12141000Y-8077000D02*
X12243000Y-8179000D01*
X12243000Y-8077000D02*
X12141000Y-8179000D01*
X12243000Y-8128000D02*
G75*
G03*
X12243000Y-8128000I-51000J0D01*
G01*
X12395000Y-5537000D02*
X12497000Y-5639000D01*
X12497000Y-5537000D02*
X12395000Y-5639000D01*
X12497000Y-5588000D02*
G75*
G03*
X12497000Y-5588000I-51000J0D01*
G01*
X12395000Y-8077000D02*
X12497000Y-8179000D01*
X12497000Y-8077000D02*
X12395000Y-8179000D01*
X12497000Y-8128000D02*
G75*
G03*
X12497000Y-8128000I-51000J0D01*
G01*
X12649000Y-5537000D02*
X12751000Y-5639000D01*
X12751000Y-5537000D02*
X12649000Y-5639000D01*
X12751000Y-5588000D02*
G75*
G03*
X12751000Y-5588000I-51000J0D01*
G01*
X12649000Y-8077000D02*
X12751000Y-8179000D01*
X12751000Y-8077000D02*
X12649000Y-8179000D01*
X12751000Y-8128000D02*
G75*
G03*
X12751000Y-8128000I-51000J0D01*
G01*
X12903000Y-5537000D02*
X13005000Y-5639000D01*
X13005000Y-5537000D02*
X12903000Y-5639000D01*
X13005000Y-5588000D02*
G75*
G03*
X13005000Y-5588000I-51000J0D01*
G01*
X12903000Y-8077000D02*
X13005000Y-8179000D01*
X13005000Y-8077000D02*
X12903000Y-8179000D01*
X13005000Y-8128000D02*
G75*
G03*
X13005000Y-8128000I-51000J0D01*
G01*
X13157000Y-5537000D02*
X13259000Y-5639000D01*
X13259000Y-5537000D02*
X13157000Y-5639000D01*
X13259000Y-5588000D02*
G75*
G03*
X13259000Y-5588000I-51000J0D01*
G01*
X13157000Y-8077000D02*
X13259000Y-8179000D01*
X13259000Y-8077000D02*
X13157000Y-8179000D01*
X13259000Y-8128000D02*
G75*
G03*
X13259000Y-8128000I-51000J0D01*
G01*
X13411000Y-5537000D02*
X13513000Y-5639000D01*
X13513000Y-5537000D02*
X13411000Y-5639000D01*
X13513000Y-5588000D02*
G75*
G03*
X13513000Y-5588000I-51000J0D01*
G01*
X13411000Y-8077000D02*
X13513000Y-8179000D01*
X13513000Y-8077000D02*
X13411000Y-8179000D01*
X13513000Y-8128000D02*
G75*
G03*
X13513000Y-8128000I-51000J0D01*
G01*
X13665000Y-5537000D02*
X13767000Y-5639000D01*
X13767000Y-5537000D02*
X13665000Y-5639000D01*
X13767000Y-5588000D02*
G75*
G03*
X13767000Y-5588000I-51000J0D01*
G01*
X13665000Y-8077000D02*
X13767000Y-8179000D01*
X13767000Y-8077000D02*
X13665000Y-8179000D01*
X13767000Y-8128000D02*
G75*
G03*
X13767000Y-8128000I-51000J0D01*
G01*
D17*
X4897000Y-3495000D02*
X5027000Y-3625000D01*
X5027000Y-3495000D02*
X4897000Y-3625000D01*
X4962000Y-3495000D02*
X4962000Y-3625000D01*
X4897000Y-3560000D02*
X5027000Y-3560000D01*
X4897000Y-3995000D02*
X5027000Y-4125000D01*
X5027000Y-3995000D02*
X4897000Y-4125000D01*
X4962000Y-3995000D02*
X4962000Y-4125000D01*
X4897000Y-4060000D02*
X5027000Y-4060000D01*
X5035000Y-5777000D02*
X5165000Y-5907000D01*
X5165000Y-5777000D02*
X5035000Y-5907000D01*
X5100000Y-5777000D02*
X5100000Y-5907000D01*
X5035000Y-5842000D02*
X5165000Y-5842000D01*
X5035000Y-6277000D02*
X5165000Y-6407000D01*
X5165000Y-6277000D02*
X5035000Y-6407000D01*
X5100000Y-6277000D02*
X5100000Y-6407000D01*
X5035000Y-6342000D02*
X5165000Y-6342000D01*
X6147000Y-3495000D02*
X6277000Y-3625000D01*
X6277000Y-3495000D02*
X6147000Y-3625000D01*
X6212000Y-3495000D02*
X6212000Y-3625000D01*
X6147000Y-3560000D02*
X6277000Y-3560000D01*
X6147000Y-3995000D02*
X6277000Y-4125000D01*
X6277000Y-3995000D02*
X6147000Y-4125000D01*
X6212000Y-3995000D02*
X6212000Y-4125000D01*
X6147000Y-4060000D02*
X6277000Y-4060000D01*
X6285000Y-5777000D02*
X6415000Y-5907000D01*
X6415000Y-5777000D02*
X6285000Y-5907000D01*
X6350000Y-5777000D02*
X6350000Y-5907000D01*
X6285000Y-5842000D02*
X6415000Y-5842000D01*
X6285000Y-6277000D02*
X6415000Y-6407000D01*
X6415000Y-6277000D02*
X6285000Y-6407000D01*
X6350000Y-6277000D02*
X6350000Y-6407000D01*
X6285000Y-6342000D02*
X6415000Y-6342000D01*
X6813000Y-5777000D02*
X6943000Y-5907000D01*
X6943000Y-5777000D02*
X6813000Y-5907000D01*
X6878000Y-5777000D02*
X6878000Y-5907000D01*
X6813000Y-5842000D02*
X6943000Y-5842000D01*
X6813000Y-6277000D02*
X6943000Y-6407000D01*
X6943000Y-6277000D02*
X6813000Y-6407000D01*
X6878000Y-6277000D02*
X6878000Y-6407000D01*
X6813000Y-6342000D02*
X6943000Y-6342000D01*
X6929000Y-3495000D02*
X7059000Y-3625000D01*
X7059000Y-3495000D02*
X6929000Y-3625000D01*
X6994000Y-3495000D02*
X6994000Y-3625000D01*
X6929000Y-3560000D02*
X7059000Y-3560000D01*
X6929000Y-3995000D02*
X7059000Y-4125000D01*
X7059000Y-3995000D02*
X6929000Y-4125000D01*
X6994000Y-3995000D02*
X6994000Y-4125000D01*
X6929000Y-4060000D02*
X7059000Y-4060000D01*
X8063000Y-5777000D02*
X8193000Y-5907000D01*
X8193000Y-5777000D02*
X8063000Y-5907000D01*
X8128000Y-5777000D02*
X8128000Y-5907000D01*
X8063000Y-5842000D02*
X8193000Y-5842000D01*
X8063000Y-6277000D02*
X8193000Y-6407000D01*
X8193000Y-6277000D02*
X8063000Y-6407000D01*
X8128000Y-6277000D02*
X8128000Y-6407000D01*
X8063000Y-6342000D02*
X8193000Y-6342000D01*
X8179000Y-3495000D02*
X8309000Y-3625000D01*
X8309000Y-3495000D02*
X8179000Y-3625000D01*
X8244000Y-3495000D02*
X8244000Y-3625000D01*
X8179000Y-3560000D02*
X8309000Y-3560000D01*
X8179000Y-3995000D02*
X8309000Y-4125000D01*
X8309000Y-3995000D02*
X8179000Y-4125000D01*
X8244000Y-3995000D02*
X8244000Y-4125000D01*
X8179000Y-4060000D02*
X8309000Y-4060000D01*
D11*
X4306619Y-9715524D02*
X4306619Y-9515524D01*
X4306619Y-9515524D02*
X4354238Y-9515524D01*
X4354238Y-9515524D02*
X4382810Y-9525048D01*
X4382810Y-9525048D02*
X4401857Y-9544095D01*
X4401857Y-9544095D02*
X4411381Y-9563143D01*
X4411381Y-9563143D02*
X4420905Y-9601238D01*
X4420905Y-9601238D02*
X4420905Y-9629810D01*
X4420905Y-9629810D02*
X4411381Y-9667905D01*
X4411381Y-9667905D02*
X4401857Y-9686952D01*
X4401857Y-9686952D02*
X4382810Y-9706000D01*
X4382810Y-9706000D02*
X4354238Y-9715524D01*
X4354238Y-9715524D02*
X4306619Y-9715524D01*
X4506619Y-9715524D02*
X4506619Y-9582190D01*
X4506619Y-9620286D02*
X4516143Y-9601238D01*
X4516143Y-9601238D02*
X4525667Y-9591714D01*
X4525667Y-9591714D02*
X4544714Y-9582190D01*
X4544714Y-9582190D02*
X4563762Y-9582190D01*
X4630429Y-9715524D02*
X4630429Y-9582190D01*
X4630429Y-9515524D02*
X4620905Y-9525048D01*
X4620905Y-9525048D02*
X4630429Y-9534571D01*
X4630429Y-9534571D02*
X4639952Y-9525048D01*
X4639952Y-9525048D02*
X4630429Y-9515524D01*
X4630429Y-9515524D02*
X4630429Y-9534571D01*
X4754238Y-9715524D02*
X4735190Y-9706000D01*
X4735190Y-9706000D02*
X4725667Y-9686952D01*
X4725667Y-9686952D02*
X4725667Y-9515524D01*
X4859000Y-9715524D02*
X4839952Y-9706000D01*
X4839952Y-9706000D02*
X4830429Y-9686952D01*
X4830429Y-9686952D02*
X4830429Y-9515524D01*
X5087571Y-9715524D02*
X5087571Y-9515524D01*
X5087571Y-9515524D02*
X5154238Y-9658381D01*
X5154238Y-9658381D02*
X5220905Y-9515524D01*
X5220905Y-9515524D02*
X5220905Y-9715524D01*
X5401857Y-9715524D02*
X5401857Y-9610762D01*
X5401857Y-9610762D02*
X5392333Y-9591714D01*
X5392333Y-9591714D02*
X5373286Y-9582190D01*
X5373286Y-9582190D02*
X5335190Y-9582190D01*
X5335190Y-9582190D02*
X5316143Y-9591714D01*
X5401857Y-9706000D02*
X5382810Y-9715524D01*
X5382810Y-9715524D02*
X5335190Y-9715524D01*
X5335190Y-9715524D02*
X5316143Y-9706000D01*
X5316143Y-9706000D02*
X5306619Y-9686952D01*
X5306619Y-9686952D02*
X5306619Y-9667905D01*
X5306619Y-9667905D02*
X5316143Y-9648857D01*
X5316143Y-9648857D02*
X5335190Y-9639333D01*
X5335190Y-9639333D02*
X5382810Y-9639333D01*
X5382810Y-9639333D02*
X5401857Y-9629810D01*
X5497095Y-9582190D02*
X5497095Y-9782190D01*
X5497095Y-9591714D02*
X5516143Y-9582190D01*
X5516143Y-9582190D02*
X5554238Y-9582190D01*
X5554238Y-9582190D02*
X5573286Y-9591714D01*
X5573286Y-9591714D02*
X5582810Y-9601238D01*
X5582810Y-9601238D02*
X5592333Y-9620286D01*
X5592333Y-9620286D02*
X5592333Y-9677429D01*
X5592333Y-9677429D02*
X5582810Y-9696476D01*
X5582810Y-9696476D02*
X5573286Y-9706000D01*
X5573286Y-9706000D02*
X5554238Y-9715524D01*
X5554238Y-9715524D02*
X5516143Y-9715524D01*
X5516143Y-9715524D02*
X5497095Y-9706000D01*
X5678048Y-9696476D02*
X5687571Y-9706000D01*
X5687571Y-9706000D02*
X5678048Y-9715524D01*
X5678048Y-9715524D02*
X5668524Y-9706000D01*
X5668524Y-9706000D02*
X5678048Y-9696476D01*
X5678048Y-9696476D02*
X5678048Y-9715524D01*
X5678048Y-9591714D02*
X5687571Y-9601238D01*
X5687571Y-9601238D02*
X5678048Y-9610762D01*
X5678048Y-9610762D02*
X5668524Y-9601238D01*
X5668524Y-9601238D02*
X5678048Y-9591714D01*
X5678048Y-9591714D02*
X5678048Y-9610762D01*
D12*
X3999000Y-10013000D02*
X4059000Y-10073000D01*
X4059000Y-10013000D02*
X3999000Y-10073000D01*
D11*
X4344714Y-9935524D02*
X4363762Y-9935524D01*
X4363762Y-9935524D02*
X4382810Y-9945048D01*
X4382810Y-9945048D02*
X4392333Y-9954571D01*
X4392333Y-9954571D02*
X4401857Y-9973619D01*
X4401857Y-9973619D02*
X4411381Y-10011714D01*
X4411381Y-10011714D02*
X4411381Y-10059333D01*
X4411381Y-10059333D02*
X4401857Y-10097429D01*
X4401857Y-10097429D02*
X4392333Y-10116476D01*
X4392333Y-10116476D02*
X4382810Y-10126000D01*
X4382810Y-10126000D02*
X4363762Y-10135524D01*
X4363762Y-10135524D02*
X4344714Y-10135524D01*
X4344714Y-10135524D02*
X4325667Y-10126000D01*
X4325667Y-10126000D02*
X4316143Y-10116476D01*
X4316143Y-10116476D02*
X4306619Y-10097429D01*
X4306619Y-10097429D02*
X4297095Y-10059333D01*
X4297095Y-10059333D02*
X4297095Y-10011714D01*
X4297095Y-10011714D02*
X4306619Y-9973619D01*
X4306619Y-9973619D02*
X4316143Y-9954571D01*
X4316143Y-9954571D02*
X4325667Y-9945048D01*
X4325667Y-9945048D02*
X4344714Y-9935524D01*
X4497095Y-10116476D02*
X4506619Y-10126000D01*
X4506619Y-10126000D02*
X4497095Y-10135524D01*
X4497095Y-10135524D02*
X4487571Y-10126000D01*
X4487571Y-10126000D02*
X4497095Y-10116476D01*
X4497095Y-10116476D02*
X4497095Y-10135524D01*
X4678048Y-9935524D02*
X4639952Y-9935524D01*
X4639952Y-9935524D02*
X4620905Y-9945048D01*
X4620905Y-9945048D02*
X4611381Y-9954571D01*
X4611381Y-9954571D02*
X4592333Y-9983143D01*
X4592333Y-9983143D02*
X4582810Y-10021238D01*
X4582810Y-10021238D02*
X4582810Y-10097429D01*
X4582810Y-10097429D02*
X4592333Y-10116476D01*
X4592333Y-10116476D02*
X4601857Y-10126000D01*
X4601857Y-10126000D02*
X4620905Y-10135524D01*
X4620905Y-10135524D02*
X4659000Y-10135524D01*
X4659000Y-10135524D02*
X4678048Y-10126000D01*
X4678048Y-10126000D02*
X4687571Y-10116476D01*
X4687571Y-10116476D02*
X4697095Y-10097429D01*
X4697095Y-10097429D02*
X4697095Y-10049810D01*
X4697095Y-10049810D02*
X4687571Y-10030762D01*
X4687571Y-10030762D02*
X4678048Y-10021238D01*
X4678048Y-10021238D02*
X4659000Y-10011714D01*
X4659000Y-10011714D02*
X4620905Y-10011714D01*
X4620905Y-10011714D02*
X4601857Y-10021238D01*
X4601857Y-10021238D02*
X4592333Y-10030762D01*
X4592333Y-10030762D02*
X4582810Y-10049810D01*
X4820905Y-9935524D02*
X4839952Y-9935524D01*
X4839952Y-9935524D02*
X4859000Y-9945048D01*
X4859000Y-9945048D02*
X4868524Y-9954571D01*
X4868524Y-9954571D02*
X4878048Y-9973619D01*
X4878048Y-9973619D02*
X4887571Y-10011714D01*
X4887571Y-10011714D02*
X4887571Y-10059333D01*
X4887571Y-10059333D02*
X4878048Y-10097429D01*
X4878048Y-10097429D02*
X4868524Y-10116476D01*
X4868524Y-10116476D02*
X4859000Y-10126000D01*
X4859000Y-10126000D02*
X4839952Y-10135524D01*
X4839952Y-10135524D02*
X4820905Y-10135524D01*
X4820905Y-10135524D02*
X4801857Y-10126000D01*
X4801857Y-10126000D02*
X4792333Y-10116476D01*
X4792333Y-10116476D02*
X4782810Y-10097429D01*
X4782810Y-10097429D02*
X4773286Y-10059333D01*
X4773286Y-10059333D02*
X4773286Y-10011714D01*
X4773286Y-10011714D02*
X4782810Y-9973619D01*
X4782810Y-9973619D02*
X4792333Y-9954571D01*
X4792333Y-9954571D02*
X4801857Y-9945048D01*
X4801857Y-9945048D02*
X4820905Y-9935524D01*
X5011381Y-9935524D02*
X5030429Y-9935524D01*
X5030429Y-9935524D02*
X5049476Y-9945048D01*
X5049476Y-9945048D02*
X5059000Y-9954571D01*
X5059000Y-9954571D02*
X5068524Y-9973619D01*
X5068524Y-9973619D02*
X5078048Y-10011714D01*
X5078048Y-10011714D02*
X5078048Y-10059333D01*
X5078048Y-10059333D02*
X5068524Y-10097429D01*
X5068524Y-10097429D02*
X5059000Y-10116476D01*
X5059000Y-10116476D02*
X5049476Y-10126000D01*
X5049476Y-10126000D02*
X5030429Y-10135524D01*
X5030429Y-10135524D02*
X5011381Y-10135524D01*
X5011381Y-10135524D02*
X4992333Y-10126000D01*
X4992333Y-10126000D02*
X4982810Y-10116476D01*
X4982810Y-10116476D02*
X4973286Y-10097429D01*
X4973286Y-10097429D02*
X4963762Y-10059333D01*
X4963762Y-10059333D02*
X4963762Y-10011714D01*
X4963762Y-10011714D02*
X4973286Y-9973619D01*
X4973286Y-9973619D02*
X4982810Y-9954571D01*
X4982810Y-9954571D02*
X4992333Y-9945048D01*
X4992333Y-9945048D02*
X5011381Y-9935524D01*
X5163762Y-10135524D02*
X5163762Y-10002190D01*
X5163762Y-10021238D02*
X5173286Y-10011714D01*
X5173286Y-10011714D02*
X5192333Y-10002190D01*
X5192333Y-10002190D02*
X5220905Y-10002190D01*
X5220905Y-10002190D02*
X5239952Y-10011714D01*
X5239952Y-10011714D02*
X5249476Y-10030762D01*
X5249476Y-10030762D02*
X5249476Y-10135524D01*
X5249476Y-10030762D02*
X5259000Y-10011714D01*
X5259000Y-10011714D02*
X5278048Y-10002190D01*
X5278048Y-10002190D02*
X5306619Y-10002190D01*
X5306619Y-10002190D02*
X5325667Y-10011714D01*
X5325667Y-10011714D02*
X5335191Y-10030762D01*
X5335191Y-10030762D02*
X5335191Y-10135524D01*
X5430429Y-10135524D02*
X5430429Y-10002190D01*
X5430429Y-10021238D02*
X5439952Y-10011714D01*
X5439952Y-10011714D02*
X5459000Y-10002190D01*
X5459000Y-10002190D02*
X5487572Y-10002190D01*
X5487572Y-10002190D02*
X5506619Y-10011714D01*
X5506619Y-10011714D02*
X5516143Y-10030762D01*
X5516143Y-10030762D02*
X5516143Y-10135524D01*
X5516143Y-10030762D02*
X5525667Y-10011714D01*
X5525667Y-10011714D02*
X5544714Y-10002190D01*
X5544714Y-10002190D02*
X5573286Y-10002190D01*
X5573286Y-10002190D02*
X5592333Y-10011714D01*
X5592333Y-10011714D02*
X5601857Y-10030762D01*
X5601857Y-10030762D02*
X5601857Y-10135524D01*
X5992333Y-9926000D02*
X5820905Y-10183143D01*
X6249476Y-9935524D02*
X6268524Y-9935524D01*
X6268524Y-9935524D02*
X6287572Y-9945048D01*
X6287572Y-9945048D02*
X6297095Y-9954571D01*
X6297095Y-9954571D02*
X6306619Y-9973619D01*
X6306619Y-9973619D02*
X6316143Y-10011714D01*
X6316143Y-10011714D02*
X6316143Y-10059333D01*
X6316143Y-10059333D02*
X6306619Y-10097429D01*
X6306619Y-10097429D02*
X6297095Y-10116476D01*
X6297095Y-10116476D02*
X6287572Y-10126000D01*
X6287572Y-10126000D02*
X6268524Y-10135524D01*
X6268524Y-10135524D02*
X6249476Y-10135524D01*
X6249476Y-10135524D02*
X6230429Y-10126000D01*
X6230429Y-10126000D02*
X6220905Y-10116476D01*
X6220905Y-10116476D02*
X6211381Y-10097429D01*
X6211381Y-10097429D02*
X6201857Y-10059333D01*
X6201857Y-10059333D02*
X6201857Y-10011714D01*
X6201857Y-10011714D02*
X6211381Y-9973619D01*
X6211381Y-9973619D02*
X6220905Y-9954571D01*
X6220905Y-9954571D02*
X6230429Y-9945048D01*
X6230429Y-9945048D02*
X6249476Y-9935524D01*
X6401857Y-10116476D02*
X6411381Y-10126000D01*
X6411381Y-10126000D02*
X6401857Y-10135524D01*
X6401857Y-10135524D02*
X6392333Y-10126000D01*
X6392333Y-10126000D02*
X6401857Y-10116476D01*
X6401857Y-10116476D02*
X6401857Y-10135524D01*
X6535191Y-9935524D02*
X6554238Y-9935524D01*
X6554238Y-9935524D02*
X6573286Y-9945048D01*
X6573286Y-9945048D02*
X6582810Y-9954571D01*
X6582810Y-9954571D02*
X6592333Y-9973619D01*
X6592333Y-9973619D02*
X6601857Y-10011714D01*
X6601857Y-10011714D02*
X6601857Y-10059333D01*
X6601857Y-10059333D02*
X6592333Y-10097429D01*
X6592333Y-10097429D02*
X6582810Y-10116476D01*
X6582810Y-10116476D02*
X6573286Y-10126000D01*
X6573286Y-10126000D02*
X6554238Y-10135524D01*
X6554238Y-10135524D02*
X6535191Y-10135524D01*
X6535191Y-10135524D02*
X6516143Y-10126000D01*
X6516143Y-10126000D02*
X6506619Y-10116476D01*
X6506619Y-10116476D02*
X6497095Y-10097429D01*
X6497095Y-10097429D02*
X6487572Y-10059333D01*
X6487572Y-10059333D02*
X6487572Y-10011714D01*
X6487572Y-10011714D02*
X6497095Y-9973619D01*
X6497095Y-9973619D02*
X6506619Y-9954571D01*
X6506619Y-9954571D02*
X6516143Y-9945048D01*
X6516143Y-9945048D02*
X6535191Y-9935524D01*
X6678048Y-9954571D02*
X6687572Y-9945048D01*
X6687572Y-9945048D02*
X6706619Y-9935524D01*
X6706619Y-9935524D02*
X6754238Y-9935524D01*
X6754238Y-9935524D02*
X6773286Y-9945048D01*
X6773286Y-9945048D02*
X6782810Y-9954571D01*
X6782810Y-9954571D02*
X6792333Y-9973619D01*
X6792333Y-9973619D02*
X6792333Y-9992667D01*
X6792333Y-9992667D02*
X6782810Y-10021238D01*
X6782810Y-10021238D02*
X6668524Y-10135524D01*
X6668524Y-10135524D02*
X6792333Y-10135524D01*
X6859000Y-9935524D02*
X6982810Y-9935524D01*
X6982810Y-9935524D02*
X6916143Y-10011714D01*
X6916143Y-10011714D02*
X6944714Y-10011714D01*
X6944714Y-10011714D02*
X6963762Y-10021238D01*
X6963762Y-10021238D02*
X6973286Y-10030762D01*
X6973286Y-10030762D02*
X6982810Y-10049810D01*
X6982810Y-10049810D02*
X6982810Y-10097429D01*
X6982810Y-10097429D02*
X6973286Y-10116476D01*
X6973286Y-10116476D02*
X6963762Y-10126000D01*
X6963762Y-10126000D02*
X6944714Y-10135524D01*
X6944714Y-10135524D02*
X6887572Y-10135524D01*
X6887572Y-10135524D02*
X6868524Y-10126000D01*
X6868524Y-10126000D02*
X6859000Y-10116476D01*
X7154238Y-9935524D02*
X7116143Y-9935524D01*
X7116143Y-9935524D02*
X7097095Y-9945048D01*
X7097095Y-9945048D02*
X7087572Y-9954571D01*
X7087572Y-9954571D02*
X7068524Y-9983143D01*
X7068524Y-9983143D02*
X7059000Y-10021238D01*
X7059000Y-10021238D02*
X7059000Y-10097429D01*
X7059000Y-10097429D02*
X7068524Y-10116476D01*
X7068524Y-10116476D02*
X7078048Y-10126000D01*
X7078048Y-10126000D02*
X7097095Y-10135524D01*
X7097095Y-10135524D02*
X7135191Y-10135524D01*
X7135191Y-10135524D02*
X7154238Y-10126000D01*
X7154238Y-10126000D02*
X7163762Y-10116476D01*
X7163762Y-10116476D02*
X7173286Y-10097429D01*
X7173286Y-10097429D02*
X7173286Y-10049810D01*
X7173286Y-10049810D02*
X7163762Y-10030762D01*
X7163762Y-10030762D02*
X7154238Y-10021238D01*
X7154238Y-10021238D02*
X7135191Y-10011714D01*
X7135191Y-10011714D02*
X7097095Y-10011714D01*
X7097095Y-10011714D02*
X7078048Y-10021238D01*
X7078048Y-10021238D02*
X7068524Y-10030762D01*
X7068524Y-10030762D02*
X7059000Y-10049810D01*
X7249476Y-9935524D02*
X7249476Y-9973619D01*
X7325667Y-9935524D02*
X7325667Y-9973619D01*
X7620905Y-10211714D02*
X7611381Y-10202190D01*
X7611381Y-10202190D02*
X7592334Y-10173619D01*
X7592334Y-10173619D02*
X7582810Y-10154571D01*
X7582810Y-10154571D02*
X7573286Y-10126000D01*
X7573286Y-10126000D02*
X7563762Y-10078381D01*
X7563762Y-10078381D02*
X7563762Y-10040286D01*
X7563762Y-10040286D02*
X7573286Y-9992667D01*
X7573286Y-9992667D02*
X7582810Y-9964095D01*
X7582810Y-9964095D02*
X7592334Y-9945048D01*
X7592334Y-9945048D02*
X7611381Y-9916476D01*
X7611381Y-9916476D02*
X7620905Y-9906952D01*
X7792334Y-9935524D02*
X7697095Y-9935524D01*
X7697095Y-9935524D02*
X7687572Y-10030762D01*
X7687572Y-10030762D02*
X7697095Y-10021238D01*
X7697095Y-10021238D02*
X7716143Y-10011714D01*
X7716143Y-10011714D02*
X7763762Y-10011714D01*
X7763762Y-10011714D02*
X7782810Y-10021238D01*
X7782810Y-10021238D02*
X7792334Y-10030762D01*
X7792334Y-10030762D02*
X7801857Y-10049810D01*
X7801857Y-10049810D02*
X7801857Y-10097429D01*
X7801857Y-10097429D02*
X7792334Y-10116476D01*
X7792334Y-10116476D02*
X7782810Y-10126000D01*
X7782810Y-10126000D02*
X7763762Y-10135524D01*
X7763762Y-10135524D02*
X7716143Y-10135524D01*
X7716143Y-10135524D02*
X7697095Y-10126000D01*
X7697095Y-10126000D02*
X7687572Y-10116476D01*
X8039953Y-10135524D02*
X8039953Y-9935524D01*
X8125667Y-10135524D02*
X8125667Y-10030762D01*
X8125667Y-10030762D02*
X8116143Y-10011714D01*
X8116143Y-10011714D02*
X8097096Y-10002190D01*
X8097096Y-10002190D02*
X8068524Y-10002190D01*
X8068524Y-10002190D02*
X8049476Y-10011714D01*
X8049476Y-10011714D02*
X8039953Y-10021238D01*
X8249476Y-10135524D02*
X8230429Y-10126000D01*
X8230429Y-10126000D02*
X8220905Y-10116476D01*
X8220905Y-10116476D02*
X8211381Y-10097429D01*
X8211381Y-10097429D02*
X8211381Y-10040286D01*
X8211381Y-10040286D02*
X8220905Y-10021238D01*
X8220905Y-10021238D02*
X8230429Y-10011714D01*
X8230429Y-10011714D02*
X8249476Y-10002190D01*
X8249476Y-10002190D02*
X8278048Y-10002190D01*
X8278048Y-10002190D02*
X8297096Y-10011714D01*
X8297096Y-10011714D02*
X8306619Y-10021238D01*
X8306619Y-10021238D02*
X8316143Y-10040286D01*
X8316143Y-10040286D02*
X8316143Y-10097429D01*
X8316143Y-10097429D02*
X8306619Y-10116476D01*
X8306619Y-10116476D02*
X8297096Y-10126000D01*
X8297096Y-10126000D02*
X8278048Y-10135524D01*
X8278048Y-10135524D02*
X8249476Y-10135524D01*
X8430429Y-10135524D02*
X8411381Y-10126000D01*
X8411381Y-10126000D02*
X8401858Y-10106952D01*
X8401858Y-10106952D02*
X8401858Y-9935524D01*
X8582810Y-10126000D02*
X8563762Y-10135524D01*
X8563762Y-10135524D02*
X8525667Y-10135524D01*
X8525667Y-10135524D02*
X8506619Y-10126000D01*
X8506619Y-10126000D02*
X8497096Y-10106952D01*
X8497096Y-10106952D02*
X8497096Y-10030762D01*
X8497096Y-10030762D02*
X8506619Y-10011714D01*
X8506619Y-10011714D02*
X8525667Y-10002190D01*
X8525667Y-10002190D02*
X8563762Y-10002190D01*
X8563762Y-10002190D02*
X8582810Y-10011714D01*
X8582810Y-10011714D02*
X8592334Y-10030762D01*
X8592334Y-10030762D02*
X8592334Y-10049810D01*
X8592334Y-10049810D02*
X8497096Y-10068857D01*
X8668524Y-10126000D02*
X8687572Y-10135524D01*
X8687572Y-10135524D02*
X8725667Y-10135524D01*
X8725667Y-10135524D02*
X8744715Y-10126000D01*
X8744715Y-10126000D02*
X8754239Y-10106952D01*
X8754239Y-10106952D02*
X8754239Y-10097429D01*
X8754239Y-10097429D02*
X8744715Y-10078381D01*
X8744715Y-10078381D02*
X8725667Y-10068857D01*
X8725667Y-10068857D02*
X8697096Y-10068857D01*
X8697096Y-10068857D02*
X8678048Y-10059333D01*
X8678048Y-10059333D02*
X8668524Y-10040286D01*
X8668524Y-10040286D02*
X8668524Y-10030762D01*
X8668524Y-10030762D02*
X8678048Y-10011714D01*
X8678048Y-10011714D02*
X8697096Y-10002190D01*
X8697096Y-10002190D02*
X8725667Y-10002190D01*
X8725667Y-10002190D02*
X8744715Y-10011714D01*
X8820905Y-10211714D02*
X8830429Y-10202190D01*
X8830429Y-10202190D02*
X8849477Y-10173619D01*
X8849477Y-10173619D02*
X8859000Y-10154571D01*
X8859000Y-10154571D02*
X8868524Y-10126000D01*
X8868524Y-10126000D02*
X8878048Y-10078381D01*
X8878048Y-10078381D02*
X8878048Y-10040286D01*
X8878048Y-10040286D02*
X8868524Y-9992667D01*
X8868524Y-9992667D02*
X8859000Y-9964095D01*
X8859000Y-9964095D02*
X8849477Y-9945048D01*
X8849477Y-9945048D02*
X8830429Y-9916476D01*
X8830429Y-9916476D02*
X8820905Y-9906952D01*
D13*
X4059000Y-10307000D02*
G75*
G03*
X4059000Y-10307000I-38100J0D01*
G01*
D11*
X4344714Y-10199524D02*
X4363762Y-10199524D01*
X4363762Y-10199524D02*
X4382810Y-10209048D01*
X4382810Y-10209048D02*
X4392333Y-10218571D01*
X4392333Y-10218571D02*
X4401857Y-10237619D01*
X4401857Y-10237619D02*
X4411381Y-10275714D01*
X4411381Y-10275714D02*
X4411381Y-10323333D01*
X4411381Y-10323333D02*
X4401857Y-10361429D01*
X4401857Y-10361429D02*
X4392333Y-10380476D01*
X4392333Y-10380476D02*
X4382810Y-10390000D01*
X4382810Y-10390000D02*
X4363762Y-10399524D01*
X4363762Y-10399524D02*
X4344714Y-10399524D01*
X4344714Y-10399524D02*
X4325667Y-10390000D01*
X4325667Y-10390000D02*
X4316143Y-10380476D01*
X4316143Y-10380476D02*
X4306619Y-10361429D01*
X4306619Y-10361429D02*
X4297095Y-10323333D01*
X4297095Y-10323333D02*
X4297095Y-10275714D01*
X4297095Y-10275714D02*
X4306619Y-10237619D01*
X4306619Y-10237619D02*
X4316143Y-10218571D01*
X4316143Y-10218571D02*
X4325667Y-10209048D01*
X4325667Y-10209048D02*
X4344714Y-10199524D01*
X4497095Y-10380476D02*
X4506619Y-10390000D01*
X4506619Y-10390000D02*
X4497095Y-10399524D01*
X4497095Y-10399524D02*
X4487571Y-10390000D01*
X4487571Y-10390000D02*
X4497095Y-10380476D01*
X4497095Y-10380476D02*
X4497095Y-10399524D01*
X4573286Y-10199524D02*
X4706619Y-10199524D01*
X4706619Y-10199524D02*
X4620905Y-10399524D01*
X4868524Y-10199524D02*
X4830429Y-10199524D01*
X4830429Y-10199524D02*
X4811381Y-10209048D01*
X4811381Y-10209048D02*
X4801857Y-10218571D01*
X4801857Y-10218571D02*
X4782810Y-10247143D01*
X4782810Y-10247143D02*
X4773286Y-10285238D01*
X4773286Y-10285238D02*
X4773286Y-10361429D01*
X4773286Y-10361429D02*
X4782810Y-10380476D01*
X4782810Y-10380476D02*
X4792333Y-10390000D01*
X4792333Y-10390000D02*
X4811381Y-10399524D01*
X4811381Y-10399524D02*
X4849476Y-10399524D01*
X4849476Y-10399524D02*
X4868524Y-10390000D01*
X4868524Y-10390000D02*
X4878048Y-10380476D01*
X4878048Y-10380476D02*
X4887571Y-10361429D01*
X4887571Y-10361429D02*
X4887571Y-10313810D01*
X4887571Y-10313810D02*
X4878048Y-10294762D01*
X4878048Y-10294762D02*
X4868524Y-10285238D01*
X4868524Y-10285238D02*
X4849476Y-10275714D01*
X4849476Y-10275714D02*
X4811381Y-10275714D01*
X4811381Y-10275714D02*
X4792333Y-10285238D01*
X4792333Y-10285238D02*
X4782810Y-10294762D01*
X4782810Y-10294762D02*
X4773286Y-10313810D01*
X4963762Y-10218571D02*
X4973286Y-10209048D01*
X4973286Y-10209048D02*
X4992333Y-10199524D01*
X4992333Y-10199524D02*
X5039952Y-10199524D01*
X5039952Y-10199524D02*
X5059000Y-10209048D01*
X5059000Y-10209048D02*
X5068524Y-10218571D01*
X5068524Y-10218571D02*
X5078048Y-10237619D01*
X5078048Y-10237619D02*
X5078048Y-10256667D01*
X5078048Y-10256667D02*
X5068524Y-10285238D01*
X5068524Y-10285238D02*
X4954238Y-10399524D01*
X4954238Y-10399524D02*
X5078048Y-10399524D01*
X5163762Y-10399524D02*
X5163762Y-10266190D01*
X5163762Y-10285238D02*
X5173286Y-10275714D01*
X5173286Y-10275714D02*
X5192333Y-10266190D01*
X5192333Y-10266190D02*
X5220905Y-10266190D01*
X5220905Y-10266190D02*
X5239952Y-10275714D01*
X5239952Y-10275714D02*
X5249476Y-10294762D01*
X5249476Y-10294762D02*
X5249476Y-10399524D01*
X5249476Y-10294762D02*
X5259000Y-10275714D01*
X5259000Y-10275714D02*
X5278048Y-10266190D01*
X5278048Y-10266190D02*
X5306619Y-10266190D01*
X5306619Y-10266190D02*
X5325667Y-10275714D01*
X5325667Y-10275714D02*
X5335191Y-10294762D01*
X5335191Y-10294762D02*
X5335191Y-10399524D01*
X5430429Y-10399524D02*
X5430429Y-10266190D01*
X5430429Y-10285238D02*
X5439952Y-10275714D01*
X5439952Y-10275714D02*
X5459000Y-10266190D01*
X5459000Y-10266190D02*
X5487572Y-10266190D01*
X5487572Y-10266190D02*
X5506619Y-10275714D01*
X5506619Y-10275714D02*
X5516143Y-10294762D01*
X5516143Y-10294762D02*
X5516143Y-10399524D01*
X5516143Y-10294762D02*
X5525667Y-10275714D01*
X5525667Y-10275714D02*
X5544714Y-10266190D01*
X5544714Y-10266190D02*
X5573286Y-10266190D01*
X5573286Y-10266190D02*
X5592333Y-10275714D01*
X5592333Y-10275714D02*
X5601857Y-10294762D01*
X5601857Y-10294762D02*
X5601857Y-10399524D01*
X5992333Y-10190000D02*
X5820905Y-10447143D01*
X6249476Y-10199524D02*
X6268524Y-10199524D01*
X6268524Y-10199524D02*
X6287572Y-10209048D01*
X6287572Y-10209048D02*
X6297095Y-10218571D01*
X6297095Y-10218571D02*
X6306619Y-10237619D01*
X6306619Y-10237619D02*
X6316143Y-10275714D01*
X6316143Y-10275714D02*
X6316143Y-10323333D01*
X6316143Y-10323333D02*
X6306619Y-10361429D01*
X6306619Y-10361429D02*
X6297095Y-10380476D01*
X6297095Y-10380476D02*
X6287572Y-10390000D01*
X6287572Y-10390000D02*
X6268524Y-10399524D01*
X6268524Y-10399524D02*
X6249476Y-10399524D01*
X6249476Y-10399524D02*
X6230429Y-10390000D01*
X6230429Y-10390000D02*
X6220905Y-10380476D01*
X6220905Y-10380476D02*
X6211381Y-10361429D01*
X6211381Y-10361429D02*
X6201857Y-10323333D01*
X6201857Y-10323333D02*
X6201857Y-10275714D01*
X6201857Y-10275714D02*
X6211381Y-10237619D01*
X6211381Y-10237619D02*
X6220905Y-10218571D01*
X6220905Y-10218571D02*
X6230429Y-10209048D01*
X6230429Y-10209048D02*
X6249476Y-10199524D01*
X6401857Y-10380476D02*
X6411381Y-10390000D01*
X6411381Y-10390000D02*
X6401857Y-10399524D01*
X6401857Y-10399524D02*
X6392333Y-10390000D01*
X6392333Y-10390000D02*
X6401857Y-10380476D01*
X6401857Y-10380476D02*
X6401857Y-10399524D01*
X6535191Y-10199524D02*
X6554238Y-10199524D01*
X6554238Y-10199524D02*
X6573286Y-10209048D01*
X6573286Y-10209048D02*
X6582810Y-10218571D01*
X6582810Y-10218571D02*
X6592333Y-10237619D01*
X6592333Y-10237619D02*
X6601857Y-10275714D01*
X6601857Y-10275714D02*
X6601857Y-10323333D01*
X6601857Y-10323333D02*
X6592333Y-10361429D01*
X6592333Y-10361429D02*
X6582810Y-10380476D01*
X6582810Y-10380476D02*
X6573286Y-10390000D01*
X6573286Y-10390000D02*
X6554238Y-10399524D01*
X6554238Y-10399524D02*
X6535191Y-10399524D01*
X6535191Y-10399524D02*
X6516143Y-10390000D01*
X6516143Y-10390000D02*
X6506619Y-10380476D01*
X6506619Y-10380476D02*
X6497095Y-10361429D01*
X6497095Y-10361429D02*
X6487572Y-10323333D01*
X6487572Y-10323333D02*
X6487572Y-10275714D01*
X6487572Y-10275714D02*
X6497095Y-10237619D01*
X6497095Y-10237619D02*
X6506619Y-10218571D01*
X6506619Y-10218571D02*
X6516143Y-10209048D01*
X6516143Y-10209048D02*
X6535191Y-10199524D01*
X6668524Y-10199524D02*
X6792333Y-10199524D01*
X6792333Y-10199524D02*
X6725667Y-10275714D01*
X6725667Y-10275714D02*
X6754238Y-10275714D01*
X6754238Y-10275714D02*
X6773286Y-10285238D01*
X6773286Y-10285238D02*
X6782810Y-10294762D01*
X6782810Y-10294762D02*
X6792333Y-10313810D01*
X6792333Y-10313810D02*
X6792333Y-10361429D01*
X6792333Y-10361429D02*
X6782810Y-10380476D01*
X6782810Y-10380476D02*
X6773286Y-10390000D01*
X6773286Y-10390000D02*
X6754238Y-10399524D01*
X6754238Y-10399524D02*
X6697095Y-10399524D01*
X6697095Y-10399524D02*
X6678048Y-10390000D01*
X6678048Y-10390000D02*
X6668524Y-10380476D01*
X6916143Y-10199524D02*
X6935191Y-10199524D01*
X6935191Y-10199524D02*
X6954238Y-10209048D01*
X6954238Y-10209048D02*
X6963762Y-10218571D01*
X6963762Y-10218571D02*
X6973286Y-10237619D01*
X6973286Y-10237619D02*
X6982810Y-10275714D01*
X6982810Y-10275714D02*
X6982810Y-10323333D01*
X6982810Y-10323333D02*
X6973286Y-10361429D01*
X6973286Y-10361429D02*
X6963762Y-10380476D01*
X6963762Y-10380476D02*
X6954238Y-10390000D01*
X6954238Y-10390000D02*
X6935191Y-10399524D01*
X6935191Y-10399524D02*
X6916143Y-10399524D01*
X6916143Y-10399524D02*
X6897095Y-10390000D01*
X6897095Y-10390000D02*
X6887572Y-10380476D01*
X6887572Y-10380476D02*
X6878048Y-10361429D01*
X6878048Y-10361429D02*
X6868524Y-10323333D01*
X6868524Y-10323333D02*
X6868524Y-10275714D01*
X6868524Y-10275714D02*
X6878048Y-10237619D01*
X6878048Y-10237619D02*
X6887572Y-10218571D01*
X6887572Y-10218571D02*
X6897095Y-10209048D01*
X6897095Y-10209048D02*
X6916143Y-10199524D01*
X7106619Y-10199524D02*
X7125667Y-10199524D01*
X7125667Y-10199524D02*
X7144714Y-10209048D01*
X7144714Y-10209048D02*
X7154238Y-10218571D01*
X7154238Y-10218571D02*
X7163762Y-10237619D01*
X7163762Y-10237619D02*
X7173286Y-10275714D01*
X7173286Y-10275714D02*
X7173286Y-10323333D01*
X7173286Y-10323333D02*
X7163762Y-10361429D01*
X7163762Y-10361429D02*
X7154238Y-10380476D01*
X7154238Y-10380476D02*
X7144714Y-10390000D01*
X7144714Y-10390000D02*
X7125667Y-10399524D01*
X7125667Y-10399524D02*
X7106619Y-10399524D01*
X7106619Y-10399524D02*
X7087572Y-10390000D01*
X7087572Y-10390000D02*
X7078048Y-10380476D01*
X7078048Y-10380476D02*
X7068524Y-10361429D01*
X7068524Y-10361429D02*
X7059000Y-10323333D01*
X7059000Y-10323333D02*
X7059000Y-10275714D01*
X7059000Y-10275714D02*
X7068524Y-10237619D01*
X7068524Y-10237619D02*
X7078048Y-10218571D01*
X7078048Y-10218571D02*
X7087572Y-10209048D01*
X7087572Y-10209048D02*
X7106619Y-10199524D01*
X7249476Y-10199524D02*
X7249476Y-10237619D01*
X7325667Y-10199524D02*
X7325667Y-10237619D01*
X7620905Y-10475714D02*
X7611381Y-10466190D01*
X7611381Y-10466190D02*
X7592334Y-10437619D01*
X7592334Y-10437619D02*
X7582810Y-10418571D01*
X7582810Y-10418571D02*
X7573286Y-10390000D01*
X7573286Y-10390000D02*
X7563762Y-10342381D01*
X7563762Y-10342381D02*
X7563762Y-10304286D01*
X7563762Y-10304286D02*
X7573286Y-10256667D01*
X7573286Y-10256667D02*
X7582810Y-10228095D01*
X7582810Y-10228095D02*
X7592334Y-10209048D01*
X7592334Y-10209048D02*
X7611381Y-10180476D01*
X7611381Y-10180476D02*
X7620905Y-10170952D01*
X7687572Y-10218571D02*
X7697095Y-10209048D01*
X7697095Y-10209048D02*
X7716143Y-10199524D01*
X7716143Y-10199524D02*
X7763762Y-10199524D01*
X7763762Y-10199524D02*
X7782810Y-10209048D01*
X7782810Y-10209048D02*
X7792334Y-10218571D01*
X7792334Y-10218571D02*
X7801857Y-10237619D01*
X7801857Y-10237619D02*
X7801857Y-10256667D01*
X7801857Y-10256667D02*
X7792334Y-10285238D01*
X7792334Y-10285238D02*
X7678048Y-10399524D01*
X7678048Y-10399524D02*
X7801857Y-10399524D01*
X7925667Y-10199524D02*
X7944715Y-10199524D01*
X7944715Y-10199524D02*
X7963762Y-10209048D01*
X7963762Y-10209048D02*
X7973286Y-10218571D01*
X7973286Y-10218571D02*
X7982810Y-10237619D01*
X7982810Y-10237619D02*
X7992334Y-10275714D01*
X7992334Y-10275714D02*
X7992334Y-10323333D01*
X7992334Y-10323333D02*
X7982810Y-10361429D01*
X7982810Y-10361429D02*
X7973286Y-10380476D01*
X7973286Y-10380476D02*
X7963762Y-10390000D01*
X7963762Y-10390000D02*
X7944715Y-10399524D01*
X7944715Y-10399524D02*
X7925667Y-10399524D01*
X7925667Y-10399524D02*
X7906619Y-10390000D01*
X7906619Y-10390000D02*
X7897095Y-10380476D01*
X7897095Y-10380476D02*
X7887572Y-10361429D01*
X7887572Y-10361429D02*
X7878048Y-10323333D01*
X7878048Y-10323333D02*
X7878048Y-10275714D01*
X7878048Y-10275714D02*
X7887572Y-10237619D01*
X7887572Y-10237619D02*
X7897095Y-10218571D01*
X7897095Y-10218571D02*
X7906619Y-10209048D01*
X7906619Y-10209048D02*
X7925667Y-10199524D01*
X8230429Y-10399524D02*
X8230429Y-10199524D01*
X8316143Y-10399524D02*
X8316143Y-10294762D01*
X8316143Y-10294762D02*
X8306619Y-10275714D01*
X8306619Y-10275714D02*
X8287572Y-10266190D01*
X8287572Y-10266190D02*
X8259000Y-10266190D01*
X8259000Y-10266190D02*
X8239953Y-10275714D01*
X8239953Y-10275714D02*
X8230429Y-10285238D01*
X8439953Y-10399524D02*
X8420905Y-10390000D01*
X8420905Y-10390000D02*
X8411381Y-10380476D01*
X8411381Y-10380476D02*
X8401858Y-10361429D01*
X8401858Y-10361429D02*
X8401858Y-10304286D01*
X8401858Y-10304286D02*
X8411381Y-10285238D01*
X8411381Y-10285238D02*
X8420905Y-10275714D01*
X8420905Y-10275714D02*
X8439953Y-10266190D01*
X8439953Y-10266190D02*
X8468524Y-10266190D01*
X8468524Y-10266190D02*
X8487572Y-10275714D01*
X8487572Y-10275714D02*
X8497096Y-10285238D01*
X8497096Y-10285238D02*
X8506619Y-10304286D01*
X8506619Y-10304286D02*
X8506619Y-10361429D01*
X8506619Y-10361429D02*
X8497096Y-10380476D01*
X8497096Y-10380476D02*
X8487572Y-10390000D01*
X8487572Y-10390000D02*
X8468524Y-10399524D01*
X8468524Y-10399524D02*
X8439953Y-10399524D01*
X8620905Y-10399524D02*
X8601858Y-10390000D01*
X8601858Y-10390000D02*
X8592334Y-10370952D01*
X8592334Y-10370952D02*
X8592334Y-10199524D01*
X8773286Y-10390000D02*
X8754239Y-10399524D01*
X8754239Y-10399524D02*
X8716143Y-10399524D01*
X8716143Y-10399524D02*
X8697096Y-10390000D01*
X8697096Y-10390000D02*
X8687572Y-10370952D01*
X8687572Y-10370952D02*
X8687572Y-10294762D01*
X8687572Y-10294762D02*
X8697096Y-10275714D01*
X8697096Y-10275714D02*
X8716143Y-10266190D01*
X8716143Y-10266190D02*
X8754239Y-10266190D01*
X8754239Y-10266190D02*
X8773286Y-10275714D01*
X8773286Y-10275714D02*
X8782810Y-10294762D01*
X8782810Y-10294762D02*
X8782810Y-10313810D01*
X8782810Y-10313810D02*
X8687572Y-10332857D01*
X8859000Y-10390000D02*
X8878048Y-10399524D01*
X8878048Y-10399524D02*
X8916143Y-10399524D01*
X8916143Y-10399524D02*
X8935191Y-10390000D01*
X8935191Y-10390000D02*
X8944715Y-10370952D01*
X8944715Y-10370952D02*
X8944715Y-10361429D01*
X8944715Y-10361429D02*
X8935191Y-10342381D01*
X8935191Y-10342381D02*
X8916143Y-10332857D01*
X8916143Y-10332857D02*
X8887572Y-10332857D01*
X8887572Y-10332857D02*
X8868524Y-10323333D01*
X8868524Y-10323333D02*
X8859000Y-10304286D01*
X8859000Y-10304286D02*
X8859000Y-10294762D01*
X8859000Y-10294762D02*
X8868524Y-10275714D01*
X8868524Y-10275714D02*
X8887572Y-10266190D01*
X8887572Y-10266190D02*
X8916143Y-10266190D01*
X8916143Y-10266190D02*
X8935191Y-10275714D01*
X9011381Y-10475714D02*
X9020905Y-10466190D01*
X9020905Y-10466190D02*
X9039953Y-10437619D01*
X9039953Y-10437619D02*
X9049477Y-10418571D01*
X9049477Y-10418571D02*
X9059000Y-10390000D01*
X9059000Y-10390000D02*
X9068524Y-10342381D01*
X9068524Y-10342381D02*
X9068524Y-10304286D01*
X9068524Y-10304286D02*
X9059000Y-10256667D01*
X9059000Y-10256667D02*
X9049477Y-10228095D01*
X9049477Y-10228095D02*
X9039953Y-10209048D01*
X9039953Y-10209048D02*
X9020905Y-10180476D01*
X9020905Y-10180476D02*
X9011381Y-10170952D01*
D14*
X4019000Y-10531000D02*
X4019000Y-10611000D01*
X3979000Y-10571000D02*
X4059000Y-10571000D01*
D11*
X4344714Y-10463524D02*
X4363762Y-10463524D01*
X4363762Y-10463524D02*
X4382810Y-10473048D01*
X4382810Y-10473048D02*
X4392333Y-10482571D01*
X4392333Y-10482571D02*
X4401857Y-10501619D01*
X4401857Y-10501619D02*
X4411381Y-10539714D01*
X4411381Y-10539714D02*
X4411381Y-10587333D01*
X4411381Y-10587333D02*
X4401857Y-10625429D01*
X4401857Y-10625429D02*
X4392333Y-10644476D01*
X4392333Y-10644476D02*
X4382810Y-10654000D01*
X4382810Y-10654000D02*
X4363762Y-10663524D01*
X4363762Y-10663524D02*
X4344714Y-10663524D01*
X4344714Y-10663524D02*
X4325667Y-10654000D01*
X4325667Y-10654000D02*
X4316143Y-10644476D01*
X4316143Y-10644476D02*
X4306619Y-10625429D01*
X4306619Y-10625429D02*
X4297095Y-10587333D01*
X4297095Y-10587333D02*
X4297095Y-10539714D01*
X4297095Y-10539714D02*
X4306619Y-10501619D01*
X4306619Y-10501619D02*
X4316143Y-10482571D01*
X4316143Y-10482571D02*
X4325667Y-10473048D01*
X4325667Y-10473048D02*
X4344714Y-10463524D01*
X4497095Y-10644476D02*
X4506619Y-10654000D01*
X4506619Y-10654000D02*
X4497095Y-10663524D01*
X4497095Y-10663524D02*
X4487571Y-10654000D01*
X4487571Y-10654000D02*
X4497095Y-10644476D01*
X4497095Y-10644476D02*
X4497095Y-10663524D01*
X4620905Y-10549238D02*
X4601857Y-10539714D01*
X4601857Y-10539714D02*
X4592333Y-10530190D01*
X4592333Y-10530190D02*
X4582810Y-10511143D01*
X4582810Y-10511143D02*
X4582810Y-10501619D01*
X4582810Y-10501619D02*
X4592333Y-10482571D01*
X4592333Y-10482571D02*
X4601857Y-10473048D01*
X4601857Y-10473048D02*
X4620905Y-10463524D01*
X4620905Y-10463524D02*
X4659000Y-10463524D01*
X4659000Y-10463524D02*
X4678048Y-10473048D01*
X4678048Y-10473048D02*
X4687571Y-10482571D01*
X4687571Y-10482571D02*
X4697095Y-10501619D01*
X4697095Y-10501619D02*
X4697095Y-10511143D01*
X4697095Y-10511143D02*
X4687571Y-10530190D01*
X4687571Y-10530190D02*
X4678048Y-10539714D01*
X4678048Y-10539714D02*
X4659000Y-10549238D01*
X4659000Y-10549238D02*
X4620905Y-10549238D01*
X4620905Y-10549238D02*
X4601857Y-10558762D01*
X4601857Y-10558762D02*
X4592333Y-10568286D01*
X4592333Y-10568286D02*
X4582810Y-10587333D01*
X4582810Y-10587333D02*
X4582810Y-10625429D01*
X4582810Y-10625429D02*
X4592333Y-10644476D01*
X4592333Y-10644476D02*
X4601857Y-10654000D01*
X4601857Y-10654000D02*
X4620905Y-10663524D01*
X4620905Y-10663524D02*
X4659000Y-10663524D01*
X4659000Y-10663524D02*
X4678048Y-10654000D01*
X4678048Y-10654000D02*
X4687571Y-10644476D01*
X4687571Y-10644476D02*
X4697095Y-10625429D01*
X4697095Y-10625429D02*
X4697095Y-10587333D01*
X4697095Y-10587333D02*
X4687571Y-10568286D01*
X4687571Y-10568286D02*
X4678048Y-10558762D01*
X4678048Y-10558762D02*
X4659000Y-10549238D01*
X4820905Y-10463524D02*
X4839952Y-10463524D01*
X4839952Y-10463524D02*
X4859000Y-10473048D01*
X4859000Y-10473048D02*
X4868524Y-10482571D01*
X4868524Y-10482571D02*
X4878048Y-10501619D01*
X4878048Y-10501619D02*
X4887571Y-10539714D01*
X4887571Y-10539714D02*
X4887571Y-10587333D01*
X4887571Y-10587333D02*
X4878048Y-10625429D01*
X4878048Y-10625429D02*
X4868524Y-10644476D01*
X4868524Y-10644476D02*
X4859000Y-10654000D01*
X4859000Y-10654000D02*
X4839952Y-10663524D01*
X4839952Y-10663524D02*
X4820905Y-10663524D01*
X4820905Y-10663524D02*
X4801857Y-10654000D01*
X4801857Y-10654000D02*
X4792333Y-10644476D01*
X4792333Y-10644476D02*
X4782810Y-10625429D01*
X4782810Y-10625429D02*
X4773286Y-10587333D01*
X4773286Y-10587333D02*
X4773286Y-10539714D01*
X4773286Y-10539714D02*
X4782810Y-10501619D01*
X4782810Y-10501619D02*
X4792333Y-10482571D01*
X4792333Y-10482571D02*
X4801857Y-10473048D01*
X4801857Y-10473048D02*
X4820905Y-10463524D01*
X5011381Y-10463524D02*
X5030429Y-10463524D01*
X5030429Y-10463524D02*
X5049476Y-10473048D01*
X5049476Y-10473048D02*
X5059000Y-10482571D01*
X5059000Y-10482571D02*
X5068524Y-10501619D01*
X5068524Y-10501619D02*
X5078048Y-10539714D01*
X5078048Y-10539714D02*
X5078048Y-10587333D01*
X5078048Y-10587333D02*
X5068524Y-10625429D01*
X5068524Y-10625429D02*
X5059000Y-10644476D01*
X5059000Y-10644476D02*
X5049476Y-10654000D01*
X5049476Y-10654000D02*
X5030429Y-10663524D01*
X5030429Y-10663524D02*
X5011381Y-10663524D01*
X5011381Y-10663524D02*
X4992333Y-10654000D01*
X4992333Y-10654000D02*
X4982810Y-10644476D01*
X4982810Y-10644476D02*
X4973286Y-10625429D01*
X4973286Y-10625429D02*
X4963762Y-10587333D01*
X4963762Y-10587333D02*
X4963762Y-10539714D01*
X4963762Y-10539714D02*
X4973286Y-10501619D01*
X4973286Y-10501619D02*
X4982810Y-10482571D01*
X4982810Y-10482571D02*
X4992333Y-10473048D01*
X4992333Y-10473048D02*
X5011381Y-10463524D01*
X5163762Y-10663524D02*
X5163762Y-10530190D01*
X5163762Y-10549238D02*
X5173286Y-10539714D01*
X5173286Y-10539714D02*
X5192333Y-10530190D01*
X5192333Y-10530190D02*
X5220905Y-10530190D01*
X5220905Y-10530190D02*
X5239952Y-10539714D01*
X5239952Y-10539714D02*
X5249476Y-10558762D01*
X5249476Y-10558762D02*
X5249476Y-10663524D01*
X5249476Y-10558762D02*
X5259000Y-10539714D01*
X5259000Y-10539714D02*
X5278048Y-10530190D01*
X5278048Y-10530190D02*
X5306619Y-10530190D01*
X5306619Y-10530190D02*
X5325667Y-10539714D01*
X5325667Y-10539714D02*
X5335191Y-10558762D01*
X5335191Y-10558762D02*
X5335191Y-10663524D01*
X5430429Y-10663524D02*
X5430429Y-10530190D01*
X5430429Y-10549238D02*
X5439952Y-10539714D01*
X5439952Y-10539714D02*
X5459000Y-10530190D01*
X5459000Y-10530190D02*
X5487572Y-10530190D01*
X5487572Y-10530190D02*
X5506619Y-10539714D01*
X5506619Y-10539714D02*
X5516143Y-10558762D01*
X5516143Y-10558762D02*
X5516143Y-10663524D01*
X5516143Y-10558762D02*
X5525667Y-10539714D01*
X5525667Y-10539714D02*
X5544714Y-10530190D01*
X5544714Y-10530190D02*
X5573286Y-10530190D01*
X5573286Y-10530190D02*
X5592333Y-10539714D01*
X5592333Y-10539714D02*
X5601857Y-10558762D01*
X5601857Y-10558762D02*
X5601857Y-10663524D01*
X5992333Y-10454000D02*
X5820905Y-10711143D01*
X6249476Y-10463524D02*
X6268524Y-10463524D01*
X6268524Y-10463524D02*
X6287572Y-10473048D01*
X6287572Y-10473048D02*
X6297095Y-10482571D01*
X6297095Y-10482571D02*
X6306619Y-10501619D01*
X6306619Y-10501619D02*
X6316143Y-10539714D01*
X6316143Y-10539714D02*
X6316143Y-10587333D01*
X6316143Y-10587333D02*
X6306619Y-10625429D01*
X6306619Y-10625429D02*
X6297095Y-10644476D01*
X6297095Y-10644476D02*
X6287572Y-10654000D01*
X6287572Y-10654000D02*
X6268524Y-10663524D01*
X6268524Y-10663524D02*
X6249476Y-10663524D01*
X6249476Y-10663524D02*
X6230429Y-10654000D01*
X6230429Y-10654000D02*
X6220905Y-10644476D01*
X6220905Y-10644476D02*
X6211381Y-10625429D01*
X6211381Y-10625429D02*
X6201857Y-10587333D01*
X6201857Y-10587333D02*
X6201857Y-10539714D01*
X6201857Y-10539714D02*
X6211381Y-10501619D01*
X6211381Y-10501619D02*
X6220905Y-10482571D01*
X6220905Y-10482571D02*
X6230429Y-10473048D01*
X6230429Y-10473048D02*
X6249476Y-10463524D01*
X6401857Y-10644476D02*
X6411381Y-10654000D01*
X6411381Y-10654000D02*
X6401857Y-10663524D01*
X6401857Y-10663524D02*
X6392333Y-10654000D01*
X6392333Y-10654000D02*
X6401857Y-10644476D01*
X6401857Y-10644476D02*
X6401857Y-10663524D01*
X6535191Y-10463524D02*
X6554238Y-10463524D01*
X6554238Y-10463524D02*
X6573286Y-10473048D01*
X6573286Y-10473048D02*
X6582810Y-10482571D01*
X6582810Y-10482571D02*
X6592333Y-10501619D01*
X6592333Y-10501619D02*
X6601857Y-10539714D01*
X6601857Y-10539714D02*
X6601857Y-10587333D01*
X6601857Y-10587333D02*
X6592333Y-10625429D01*
X6592333Y-10625429D02*
X6582810Y-10644476D01*
X6582810Y-10644476D02*
X6573286Y-10654000D01*
X6573286Y-10654000D02*
X6554238Y-10663524D01*
X6554238Y-10663524D02*
X6535191Y-10663524D01*
X6535191Y-10663524D02*
X6516143Y-10654000D01*
X6516143Y-10654000D02*
X6506619Y-10644476D01*
X6506619Y-10644476D02*
X6497095Y-10625429D01*
X6497095Y-10625429D02*
X6487572Y-10587333D01*
X6487572Y-10587333D02*
X6487572Y-10539714D01*
X6487572Y-10539714D02*
X6497095Y-10501619D01*
X6497095Y-10501619D02*
X6506619Y-10482571D01*
X6506619Y-10482571D02*
X6516143Y-10473048D01*
X6516143Y-10473048D02*
X6535191Y-10463524D01*
X6668524Y-10463524D02*
X6792333Y-10463524D01*
X6792333Y-10463524D02*
X6725667Y-10539714D01*
X6725667Y-10539714D02*
X6754238Y-10539714D01*
X6754238Y-10539714D02*
X6773286Y-10549238D01*
X6773286Y-10549238D02*
X6782810Y-10558762D01*
X6782810Y-10558762D02*
X6792333Y-10577810D01*
X6792333Y-10577810D02*
X6792333Y-10625429D01*
X6792333Y-10625429D02*
X6782810Y-10644476D01*
X6782810Y-10644476D02*
X6773286Y-10654000D01*
X6773286Y-10654000D02*
X6754238Y-10663524D01*
X6754238Y-10663524D02*
X6697095Y-10663524D01*
X6697095Y-10663524D02*
X6678048Y-10654000D01*
X6678048Y-10654000D02*
X6668524Y-10644476D01*
X6982810Y-10663524D02*
X6868524Y-10663524D01*
X6925667Y-10663524D02*
X6925667Y-10463524D01*
X6925667Y-10463524D02*
X6906619Y-10492095D01*
X6906619Y-10492095D02*
X6887572Y-10511143D01*
X6887572Y-10511143D02*
X6868524Y-10520667D01*
X7163762Y-10463524D02*
X7068524Y-10463524D01*
X7068524Y-10463524D02*
X7059000Y-10558762D01*
X7059000Y-10558762D02*
X7068524Y-10549238D01*
X7068524Y-10549238D02*
X7087572Y-10539714D01*
X7087572Y-10539714D02*
X7135191Y-10539714D01*
X7135191Y-10539714D02*
X7154238Y-10549238D01*
X7154238Y-10549238D02*
X7163762Y-10558762D01*
X7163762Y-10558762D02*
X7173286Y-10577810D01*
X7173286Y-10577810D02*
X7173286Y-10625429D01*
X7173286Y-10625429D02*
X7163762Y-10644476D01*
X7163762Y-10644476D02*
X7154238Y-10654000D01*
X7154238Y-10654000D02*
X7135191Y-10663524D01*
X7135191Y-10663524D02*
X7087572Y-10663524D01*
X7087572Y-10663524D02*
X7068524Y-10654000D01*
X7068524Y-10654000D02*
X7059000Y-10644476D01*
X7249476Y-10463524D02*
X7249476Y-10501619D01*
X7325667Y-10463524D02*
X7325667Y-10501619D01*
X7620905Y-10739714D02*
X7611381Y-10730190D01*
X7611381Y-10730190D02*
X7592334Y-10701619D01*
X7592334Y-10701619D02*
X7582810Y-10682571D01*
X7582810Y-10682571D02*
X7573286Y-10654000D01*
X7573286Y-10654000D02*
X7563762Y-10606381D01*
X7563762Y-10606381D02*
X7563762Y-10568286D01*
X7563762Y-10568286D02*
X7573286Y-10520667D01*
X7573286Y-10520667D02*
X7582810Y-10492095D01*
X7582810Y-10492095D02*
X7592334Y-10473048D01*
X7592334Y-10473048D02*
X7611381Y-10444476D01*
X7611381Y-10444476D02*
X7620905Y-10434952D01*
X7801857Y-10663524D02*
X7687572Y-10663524D01*
X7744714Y-10663524D02*
X7744714Y-10463524D01*
X7744714Y-10463524D02*
X7725667Y-10492095D01*
X7725667Y-10492095D02*
X7706619Y-10511143D01*
X7706619Y-10511143D02*
X7687572Y-10520667D01*
X7878048Y-10482571D02*
X7887572Y-10473048D01*
X7887572Y-10473048D02*
X7906619Y-10463524D01*
X7906619Y-10463524D02*
X7954238Y-10463524D01*
X7954238Y-10463524D02*
X7973286Y-10473048D01*
X7973286Y-10473048D02*
X7982810Y-10482571D01*
X7982810Y-10482571D02*
X7992334Y-10501619D01*
X7992334Y-10501619D02*
X7992334Y-10520667D01*
X7992334Y-10520667D02*
X7982810Y-10549238D01*
X7982810Y-10549238D02*
X7868524Y-10663524D01*
X7868524Y-10663524D02*
X7992334Y-10663524D01*
X8230429Y-10663524D02*
X8230429Y-10463524D01*
X8316143Y-10663524D02*
X8316143Y-10558762D01*
X8316143Y-10558762D02*
X8306619Y-10539714D01*
X8306619Y-10539714D02*
X8287572Y-10530190D01*
X8287572Y-10530190D02*
X8259000Y-10530190D01*
X8259000Y-10530190D02*
X8239953Y-10539714D01*
X8239953Y-10539714D02*
X8230429Y-10549238D01*
X8439953Y-10663524D02*
X8420905Y-10654000D01*
X8420905Y-10654000D02*
X8411381Y-10644476D01*
X8411381Y-10644476D02*
X8401858Y-10625429D01*
X8401858Y-10625429D02*
X8401858Y-10568286D01*
X8401858Y-10568286D02*
X8411381Y-10549238D01*
X8411381Y-10549238D02*
X8420905Y-10539714D01*
X8420905Y-10539714D02*
X8439953Y-10530190D01*
X8439953Y-10530190D02*
X8468524Y-10530190D01*
X8468524Y-10530190D02*
X8487572Y-10539714D01*
X8487572Y-10539714D02*
X8497096Y-10549238D01*
X8497096Y-10549238D02*
X8506619Y-10568286D01*
X8506619Y-10568286D02*
X8506619Y-10625429D01*
X8506619Y-10625429D02*
X8497096Y-10644476D01*
X8497096Y-10644476D02*
X8487572Y-10654000D01*
X8487572Y-10654000D02*
X8468524Y-10663524D01*
X8468524Y-10663524D02*
X8439953Y-10663524D01*
X8620905Y-10663524D02*
X8601858Y-10654000D01*
X8601858Y-10654000D02*
X8592334Y-10634952D01*
X8592334Y-10634952D02*
X8592334Y-10463524D01*
X8773286Y-10654000D02*
X8754239Y-10663524D01*
X8754239Y-10663524D02*
X8716143Y-10663524D01*
X8716143Y-10663524D02*
X8697096Y-10654000D01*
X8697096Y-10654000D02*
X8687572Y-10634952D01*
X8687572Y-10634952D02*
X8687572Y-10558762D01*
X8687572Y-10558762D02*
X8697096Y-10539714D01*
X8697096Y-10539714D02*
X8716143Y-10530190D01*
X8716143Y-10530190D02*
X8754239Y-10530190D01*
X8754239Y-10530190D02*
X8773286Y-10539714D01*
X8773286Y-10539714D02*
X8782810Y-10558762D01*
X8782810Y-10558762D02*
X8782810Y-10577810D01*
X8782810Y-10577810D02*
X8687572Y-10596857D01*
X8859000Y-10654000D02*
X8878048Y-10663524D01*
X8878048Y-10663524D02*
X8916143Y-10663524D01*
X8916143Y-10663524D02*
X8935191Y-10654000D01*
X8935191Y-10654000D02*
X8944715Y-10634952D01*
X8944715Y-10634952D02*
X8944715Y-10625429D01*
X8944715Y-10625429D02*
X8935191Y-10606381D01*
X8935191Y-10606381D02*
X8916143Y-10596857D01*
X8916143Y-10596857D02*
X8887572Y-10596857D01*
X8887572Y-10596857D02*
X8868524Y-10587333D01*
X8868524Y-10587333D02*
X8859000Y-10568286D01*
X8859000Y-10568286D02*
X8859000Y-10558762D01*
X8859000Y-10558762D02*
X8868524Y-10539714D01*
X8868524Y-10539714D02*
X8887572Y-10530190D01*
X8887572Y-10530190D02*
X8916143Y-10530190D01*
X8916143Y-10530190D02*
X8935191Y-10539714D01*
X9011381Y-10739714D02*
X9020905Y-10730190D01*
X9020905Y-10730190D02*
X9039953Y-10701619D01*
X9039953Y-10701619D02*
X9049477Y-10682571D01*
X9049477Y-10682571D02*
X9059000Y-10654000D01*
X9059000Y-10654000D02*
X9068524Y-10606381D01*
X9068524Y-10606381D02*
X9068524Y-10568286D01*
X9068524Y-10568286D02*
X9059000Y-10520667D01*
X9059000Y-10520667D02*
X9049477Y-10492095D01*
X9049477Y-10492095D02*
X9039953Y-10473048D01*
X9039953Y-10473048D02*
X9020905Y-10444476D01*
X9020905Y-10444476D02*
X9011381Y-10434952D01*
D15*
X4045820Y-10866820D02*
X4045820Y-10803180D01*
X3982180Y-10803180D01*
X3982180Y-10866820D01*
X4045820Y-10866820D01*
D11*
X4344714Y-10727524D02*
X4363762Y-10727524D01*
X4363762Y-10727524D02*
X4382810Y-10737048D01*
X4382810Y-10737048D02*
X4392333Y-10746571D01*
X4392333Y-10746571D02*
X4401857Y-10765619D01*
X4401857Y-10765619D02*
X4411381Y-10803714D01*
X4411381Y-10803714D02*
X4411381Y-10851333D01*
X4411381Y-10851333D02*
X4401857Y-10889429D01*
X4401857Y-10889429D02*
X4392333Y-10908476D01*
X4392333Y-10908476D02*
X4382810Y-10918000D01*
X4382810Y-10918000D02*
X4363762Y-10927524D01*
X4363762Y-10927524D02*
X4344714Y-10927524D01*
X4344714Y-10927524D02*
X4325667Y-10918000D01*
X4325667Y-10918000D02*
X4316143Y-10908476D01*
X4316143Y-10908476D02*
X4306619Y-10889429D01*
X4306619Y-10889429D02*
X4297095Y-10851333D01*
X4297095Y-10851333D02*
X4297095Y-10803714D01*
X4297095Y-10803714D02*
X4306619Y-10765619D01*
X4306619Y-10765619D02*
X4316143Y-10746571D01*
X4316143Y-10746571D02*
X4325667Y-10737048D01*
X4325667Y-10737048D02*
X4344714Y-10727524D01*
X4497095Y-10908476D02*
X4506619Y-10918000D01*
X4506619Y-10918000D02*
X4497095Y-10927524D01*
X4497095Y-10927524D02*
X4487571Y-10918000D01*
X4487571Y-10918000D02*
X4497095Y-10908476D01*
X4497095Y-10908476D02*
X4497095Y-10927524D01*
X4601857Y-10927524D02*
X4639952Y-10927524D01*
X4639952Y-10927524D02*
X4659000Y-10918000D01*
X4659000Y-10918000D02*
X4668524Y-10908476D01*
X4668524Y-10908476D02*
X4687571Y-10879905D01*
X4687571Y-10879905D02*
X4697095Y-10841810D01*
X4697095Y-10841810D02*
X4697095Y-10765619D01*
X4697095Y-10765619D02*
X4687571Y-10746571D01*
X4687571Y-10746571D02*
X4678048Y-10737048D01*
X4678048Y-10737048D02*
X4659000Y-10727524D01*
X4659000Y-10727524D02*
X4620905Y-10727524D01*
X4620905Y-10727524D02*
X4601857Y-10737048D01*
X4601857Y-10737048D02*
X4592333Y-10746571D01*
X4592333Y-10746571D02*
X4582810Y-10765619D01*
X4582810Y-10765619D02*
X4582810Y-10813238D01*
X4582810Y-10813238D02*
X4592333Y-10832286D01*
X4592333Y-10832286D02*
X4601857Y-10841810D01*
X4601857Y-10841810D02*
X4620905Y-10851333D01*
X4620905Y-10851333D02*
X4659000Y-10851333D01*
X4659000Y-10851333D02*
X4678048Y-10841810D01*
X4678048Y-10841810D02*
X4687571Y-10832286D01*
X4687571Y-10832286D02*
X4697095Y-10813238D01*
X4820905Y-10727524D02*
X4839952Y-10727524D01*
X4839952Y-10727524D02*
X4859000Y-10737048D01*
X4859000Y-10737048D02*
X4868524Y-10746571D01*
X4868524Y-10746571D02*
X4878048Y-10765619D01*
X4878048Y-10765619D02*
X4887571Y-10803714D01*
X4887571Y-10803714D02*
X4887571Y-10851333D01*
X4887571Y-10851333D02*
X4878048Y-10889429D01*
X4878048Y-10889429D02*
X4868524Y-10908476D01*
X4868524Y-10908476D02*
X4859000Y-10918000D01*
X4859000Y-10918000D02*
X4839952Y-10927524D01*
X4839952Y-10927524D02*
X4820905Y-10927524D01*
X4820905Y-10927524D02*
X4801857Y-10918000D01*
X4801857Y-10918000D02*
X4792333Y-10908476D01*
X4792333Y-10908476D02*
X4782810Y-10889429D01*
X4782810Y-10889429D02*
X4773286Y-10851333D01*
X4773286Y-10851333D02*
X4773286Y-10803714D01*
X4773286Y-10803714D02*
X4782810Y-10765619D01*
X4782810Y-10765619D02*
X4792333Y-10746571D01*
X4792333Y-10746571D02*
X4801857Y-10737048D01*
X4801857Y-10737048D02*
X4820905Y-10727524D01*
X5011381Y-10727524D02*
X5030429Y-10727524D01*
X5030429Y-10727524D02*
X5049476Y-10737048D01*
X5049476Y-10737048D02*
X5059000Y-10746571D01*
X5059000Y-10746571D02*
X5068524Y-10765619D01*
X5068524Y-10765619D02*
X5078048Y-10803714D01*
X5078048Y-10803714D02*
X5078048Y-10851333D01*
X5078048Y-10851333D02*
X5068524Y-10889429D01*
X5068524Y-10889429D02*
X5059000Y-10908476D01*
X5059000Y-10908476D02*
X5049476Y-10918000D01*
X5049476Y-10918000D02*
X5030429Y-10927524D01*
X5030429Y-10927524D02*
X5011381Y-10927524D01*
X5011381Y-10927524D02*
X4992333Y-10918000D01*
X4992333Y-10918000D02*
X4982810Y-10908476D01*
X4982810Y-10908476D02*
X4973286Y-10889429D01*
X4973286Y-10889429D02*
X4963762Y-10851333D01*
X4963762Y-10851333D02*
X4963762Y-10803714D01*
X4963762Y-10803714D02*
X4973286Y-10765619D01*
X4973286Y-10765619D02*
X4982810Y-10746571D01*
X4982810Y-10746571D02*
X4992333Y-10737048D01*
X4992333Y-10737048D02*
X5011381Y-10727524D01*
X5163762Y-10927524D02*
X5163762Y-10794190D01*
X5163762Y-10813238D02*
X5173286Y-10803714D01*
X5173286Y-10803714D02*
X5192333Y-10794190D01*
X5192333Y-10794190D02*
X5220905Y-10794190D01*
X5220905Y-10794190D02*
X5239952Y-10803714D01*
X5239952Y-10803714D02*
X5249476Y-10822762D01*
X5249476Y-10822762D02*
X5249476Y-10927524D01*
X5249476Y-10822762D02*
X5259000Y-10803714D01*
X5259000Y-10803714D02*
X5278048Y-10794190D01*
X5278048Y-10794190D02*
X5306619Y-10794190D01*
X5306619Y-10794190D02*
X5325667Y-10803714D01*
X5325667Y-10803714D02*
X5335191Y-10822762D01*
X5335191Y-10822762D02*
X5335191Y-10927524D01*
X5430429Y-10927524D02*
X5430429Y-10794190D01*
X5430429Y-10813238D02*
X5439952Y-10803714D01*
X5439952Y-10803714D02*
X5459000Y-10794190D01*
X5459000Y-10794190D02*
X5487572Y-10794190D01*
X5487572Y-10794190D02*
X5506619Y-10803714D01*
X5506619Y-10803714D02*
X5516143Y-10822762D01*
X5516143Y-10822762D02*
X5516143Y-10927524D01*
X5516143Y-10822762D02*
X5525667Y-10803714D01*
X5525667Y-10803714D02*
X5544714Y-10794190D01*
X5544714Y-10794190D02*
X5573286Y-10794190D01*
X5573286Y-10794190D02*
X5592333Y-10803714D01*
X5592333Y-10803714D02*
X5601857Y-10822762D01*
X5601857Y-10822762D02*
X5601857Y-10927524D01*
X5992333Y-10718000D02*
X5820905Y-10975143D01*
X6249476Y-10727524D02*
X6268524Y-10727524D01*
X6268524Y-10727524D02*
X6287572Y-10737048D01*
X6287572Y-10737048D02*
X6297095Y-10746571D01*
X6297095Y-10746571D02*
X6306619Y-10765619D01*
X6306619Y-10765619D02*
X6316143Y-10803714D01*
X6316143Y-10803714D02*
X6316143Y-10851333D01*
X6316143Y-10851333D02*
X6306619Y-10889429D01*
X6306619Y-10889429D02*
X6297095Y-10908476D01*
X6297095Y-10908476D02*
X6287572Y-10918000D01*
X6287572Y-10918000D02*
X6268524Y-10927524D01*
X6268524Y-10927524D02*
X6249476Y-10927524D01*
X6249476Y-10927524D02*
X6230429Y-10918000D01*
X6230429Y-10918000D02*
X6220905Y-10908476D01*
X6220905Y-10908476D02*
X6211381Y-10889429D01*
X6211381Y-10889429D02*
X6201857Y-10851333D01*
X6201857Y-10851333D02*
X6201857Y-10803714D01*
X6201857Y-10803714D02*
X6211381Y-10765619D01*
X6211381Y-10765619D02*
X6220905Y-10746571D01*
X6220905Y-10746571D02*
X6230429Y-10737048D01*
X6230429Y-10737048D02*
X6249476Y-10727524D01*
X6401857Y-10908476D02*
X6411381Y-10918000D01*
X6411381Y-10918000D02*
X6401857Y-10927524D01*
X6401857Y-10927524D02*
X6392333Y-10918000D01*
X6392333Y-10918000D02*
X6401857Y-10908476D01*
X6401857Y-10908476D02*
X6401857Y-10927524D01*
X6535191Y-10727524D02*
X6554238Y-10727524D01*
X6554238Y-10727524D02*
X6573286Y-10737048D01*
X6573286Y-10737048D02*
X6582810Y-10746571D01*
X6582810Y-10746571D02*
X6592333Y-10765619D01*
X6592333Y-10765619D02*
X6601857Y-10803714D01*
X6601857Y-10803714D02*
X6601857Y-10851333D01*
X6601857Y-10851333D02*
X6592333Y-10889429D01*
X6592333Y-10889429D02*
X6582810Y-10908476D01*
X6582810Y-10908476D02*
X6573286Y-10918000D01*
X6573286Y-10918000D02*
X6554238Y-10927524D01*
X6554238Y-10927524D02*
X6535191Y-10927524D01*
X6535191Y-10927524D02*
X6516143Y-10918000D01*
X6516143Y-10918000D02*
X6506619Y-10908476D01*
X6506619Y-10908476D02*
X6497095Y-10889429D01*
X6497095Y-10889429D02*
X6487572Y-10851333D01*
X6487572Y-10851333D02*
X6487572Y-10803714D01*
X6487572Y-10803714D02*
X6497095Y-10765619D01*
X6497095Y-10765619D02*
X6506619Y-10746571D01*
X6506619Y-10746571D02*
X6516143Y-10737048D01*
X6516143Y-10737048D02*
X6535191Y-10727524D01*
X6668524Y-10727524D02*
X6792333Y-10727524D01*
X6792333Y-10727524D02*
X6725667Y-10803714D01*
X6725667Y-10803714D02*
X6754238Y-10803714D01*
X6754238Y-10803714D02*
X6773286Y-10813238D01*
X6773286Y-10813238D02*
X6782810Y-10822762D01*
X6782810Y-10822762D02*
X6792333Y-10841810D01*
X6792333Y-10841810D02*
X6792333Y-10889429D01*
X6792333Y-10889429D02*
X6782810Y-10908476D01*
X6782810Y-10908476D02*
X6773286Y-10918000D01*
X6773286Y-10918000D02*
X6754238Y-10927524D01*
X6754238Y-10927524D02*
X6697095Y-10927524D01*
X6697095Y-10927524D02*
X6678048Y-10918000D01*
X6678048Y-10918000D02*
X6668524Y-10908476D01*
X6973286Y-10727524D02*
X6878048Y-10727524D01*
X6878048Y-10727524D02*
X6868524Y-10822762D01*
X6868524Y-10822762D02*
X6878048Y-10813238D01*
X6878048Y-10813238D02*
X6897095Y-10803714D01*
X6897095Y-10803714D02*
X6944714Y-10803714D01*
X6944714Y-10803714D02*
X6963762Y-10813238D01*
X6963762Y-10813238D02*
X6973286Y-10822762D01*
X6973286Y-10822762D02*
X6982810Y-10841810D01*
X6982810Y-10841810D02*
X6982810Y-10889429D01*
X6982810Y-10889429D02*
X6973286Y-10908476D01*
X6973286Y-10908476D02*
X6963762Y-10918000D01*
X6963762Y-10918000D02*
X6944714Y-10927524D01*
X6944714Y-10927524D02*
X6897095Y-10927524D01*
X6897095Y-10927524D02*
X6878048Y-10918000D01*
X6878048Y-10918000D02*
X6868524Y-10908476D01*
X7154238Y-10794190D02*
X7154238Y-10927524D01*
X7106619Y-10718000D02*
X7059000Y-10860857D01*
X7059000Y-10860857D02*
X7182810Y-10860857D01*
X7249476Y-10727524D02*
X7249476Y-10765619D01*
X7325667Y-10727524D02*
X7325667Y-10765619D01*
X7620905Y-11003714D02*
X7611381Y-10994190D01*
X7611381Y-10994190D02*
X7592334Y-10965619D01*
X7592334Y-10965619D02*
X7582810Y-10946571D01*
X7582810Y-10946571D02*
X7573286Y-10918000D01*
X7573286Y-10918000D02*
X7563762Y-10870381D01*
X7563762Y-10870381D02*
X7563762Y-10832286D01*
X7563762Y-10832286D02*
X7573286Y-10784667D01*
X7573286Y-10784667D02*
X7582810Y-10756095D01*
X7582810Y-10756095D02*
X7592334Y-10737048D01*
X7592334Y-10737048D02*
X7611381Y-10708476D01*
X7611381Y-10708476D02*
X7620905Y-10698952D01*
X7782810Y-10794190D02*
X7782810Y-10927524D01*
X7735191Y-10718000D02*
X7687572Y-10860857D01*
X7687572Y-10860857D02*
X7811381Y-10860857D01*
X8039953Y-10927524D02*
X8039953Y-10727524D01*
X8125667Y-10927524D02*
X8125667Y-10822762D01*
X8125667Y-10822762D02*
X8116143Y-10803714D01*
X8116143Y-10803714D02*
X8097096Y-10794190D01*
X8097096Y-10794190D02*
X8068524Y-10794190D01*
X8068524Y-10794190D02*
X8049476Y-10803714D01*
X8049476Y-10803714D02*
X8039953Y-10813238D01*
X8249476Y-10927524D02*
X8230429Y-10918000D01*
X8230429Y-10918000D02*
X8220905Y-10908476D01*
X8220905Y-10908476D02*
X8211381Y-10889429D01*
X8211381Y-10889429D02*
X8211381Y-10832286D01*
X8211381Y-10832286D02*
X8220905Y-10813238D01*
X8220905Y-10813238D02*
X8230429Y-10803714D01*
X8230429Y-10803714D02*
X8249476Y-10794190D01*
X8249476Y-10794190D02*
X8278048Y-10794190D01*
X8278048Y-10794190D02*
X8297096Y-10803714D01*
X8297096Y-10803714D02*
X8306619Y-10813238D01*
X8306619Y-10813238D02*
X8316143Y-10832286D01*
X8316143Y-10832286D02*
X8316143Y-10889429D01*
X8316143Y-10889429D02*
X8306619Y-10908476D01*
X8306619Y-10908476D02*
X8297096Y-10918000D01*
X8297096Y-10918000D02*
X8278048Y-10927524D01*
X8278048Y-10927524D02*
X8249476Y-10927524D01*
X8430429Y-10927524D02*
X8411381Y-10918000D01*
X8411381Y-10918000D02*
X8401858Y-10898952D01*
X8401858Y-10898952D02*
X8401858Y-10727524D01*
X8582810Y-10918000D02*
X8563762Y-10927524D01*
X8563762Y-10927524D02*
X8525667Y-10927524D01*
X8525667Y-10927524D02*
X8506619Y-10918000D01*
X8506619Y-10918000D02*
X8497096Y-10898952D01*
X8497096Y-10898952D02*
X8497096Y-10822762D01*
X8497096Y-10822762D02*
X8506619Y-10803714D01*
X8506619Y-10803714D02*
X8525667Y-10794190D01*
X8525667Y-10794190D02*
X8563762Y-10794190D01*
X8563762Y-10794190D02*
X8582810Y-10803714D01*
X8582810Y-10803714D02*
X8592334Y-10822762D01*
X8592334Y-10822762D02*
X8592334Y-10841810D01*
X8592334Y-10841810D02*
X8497096Y-10860857D01*
X8668524Y-10918000D02*
X8687572Y-10927524D01*
X8687572Y-10927524D02*
X8725667Y-10927524D01*
X8725667Y-10927524D02*
X8744715Y-10918000D01*
X8744715Y-10918000D02*
X8754239Y-10898952D01*
X8754239Y-10898952D02*
X8754239Y-10889429D01*
X8754239Y-10889429D02*
X8744715Y-10870381D01*
X8744715Y-10870381D02*
X8725667Y-10860857D01*
X8725667Y-10860857D02*
X8697096Y-10860857D01*
X8697096Y-10860857D02*
X8678048Y-10851333D01*
X8678048Y-10851333D02*
X8668524Y-10832286D01*
X8668524Y-10832286D02*
X8668524Y-10822762D01*
X8668524Y-10822762D02*
X8678048Y-10803714D01*
X8678048Y-10803714D02*
X8697096Y-10794190D01*
X8697096Y-10794190D02*
X8725667Y-10794190D01*
X8725667Y-10794190D02*
X8744715Y-10803714D01*
X8820905Y-11003714D02*
X8830429Y-10994190D01*
X8830429Y-10994190D02*
X8849477Y-10965619D01*
X8849477Y-10965619D02*
X8859000Y-10946571D01*
X8859000Y-10946571D02*
X8868524Y-10918000D01*
X8868524Y-10918000D02*
X8878048Y-10870381D01*
X8878048Y-10870381D02*
X8878048Y-10832286D01*
X8878048Y-10832286D02*
X8868524Y-10784667D01*
X8868524Y-10784667D02*
X8859000Y-10756095D01*
X8859000Y-10756095D02*
X8849477Y-10737048D01*
X8849477Y-10737048D02*
X8830429Y-10708476D01*
X8830429Y-10708476D02*
X8820905Y-10698952D01*
D10*
X4009000Y-11149000D02*
X4059000Y-11099000D01*
X4009000Y-11049000D01*
X3959000Y-11099000D01*
X4009000Y-11149000D01*
D11*
X4411381Y-11191524D02*
X4297095Y-11191524D01*
X4354238Y-11191524D02*
X4354238Y-10991524D01*
X4354238Y-10991524D02*
X4335190Y-11020095D01*
X4335190Y-11020095D02*
X4316143Y-11039143D01*
X4316143Y-11039143D02*
X4297095Y-11048667D01*
X4497095Y-11172476D02*
X4506619Y-11182000D01*
X4506619Y-11182000D02*
X4497095Y-11191524D01*
X4497095Y-11191524D02*
X4487571Y-11182000D01*
X4487571Y-11182000D02*
X4497095Y-11172476D01*
X4497095Y-11172476D02*
X4497095Y-11191524D01*
X4630429Y-10991524D02*
X4649476Y-10991524D01*
X4649476Y-10991524D02*
X4668524Y-11001048D01*
X4668524Y-11001048D02*
X4678048Y-11010571D01*
X4678048Y-11010571D02*
X4687571Y-11029619D01*
X4687571Y-11029619D02*
X4697095Y-11067714D01*
X4697095Y-11067714D02*
X4697095Y-11115333D01*
X4697095Y-11115333D02*
X4687571Y-11153429D01*
X4687571Y-11153429D02*
X4678048Y-11172476D01*
X4678048Y-11172476D02*
X4668524Y-11182000D01*
X4668524Y-11182000D02*
X4649476Y-11191524D01*
X4649476Y-11191524D02*
X4630429Y-11191524D01*
X4630429Y-11191524D02*
X4611381Y-11182000D01*
X4611381Y-11182000D02*
X4601857Y-11172476D01*
X4601857Y-11172476D02*
X4592333Y-11153429D01*
X4592333Y-11153429D02*
X4582810Y-11115333D01*
X4582810Y-11115333D02*
X4582810Y-11067714D01*
X4582810Y-11067714D02*
X4592333Y-11029619D01*
X4592333Y-11029619D02*
X4601857Y-11010571D01*
X4601857Y-11010571D02*
X4611381Y-11001048D01*
X4611381Y-11001048D02*
X4630429Y-10991524D01*
X4820905Y-10991524D02*
X4839952Y-10991524D01*
X4839952Y-10991524D02*
X4859000Y-11001048D01*
X4859000Y-11001048D02*
X4868524Y-11010571D01*
X4868524Y-11010571D02*
X4878048Y-11029619D01*
X4878048Y-11029619D02*
X4887571Y-11067714D01*
X4887571Y-11067714D02*
X4887571Y-11115333D01*
X4887571Y-11115333D02*
X4878048Y-11153429D01*
X4878048Y-11153429D02*
X4868524Y-11172476D01*
X4868524Y-11172476D02*
X4859000Y-11182000D01*
X4859000Y-11182000D02*
X4839952Y-11191524D01*
X4839952Y-11191524D02*
X4820905Y-11191524D01*
X4820905Y-11191524D02*
X4801857Y-11182000D01*
X4801857Y-11182000D02*
X4792333Y-11172476D01*
X4792333Y-11172476D02*
X4782810Y-11153429D01*
X4782810Y-11153429D02*
X4773286Y-11115333D01*
X4773286Y-11115333D02*
X4773286Y-11067714D01*
X4773286Y-11067714D02*
X4782810Y-11029619D01*
X4782810Y-11029619D02*
X4792333Y-11010571D01*
X4792333Y-11010571D02*
X4801857Y-11001048D01*
X4801857Y-11001048D02*
X4820905Y-10991524D01*
X5011381Y-10991524D02*
X5030429Y-10991524D01*
X5030429Y-10991524D02*
X5049476Y-11001048D01*
X5049476Y-11001048D02*
X5059000Y-11010571D01*
X5059000Y-11010571D02*
X5068524Y-11029619D01*
X5068524Y-11029619D02*
X5078048Y-11067714D01*
X5078048Y-11067714D02*
X5078048Y-11115333D01*
X5078048Y-11115333D02*
X5068524Y-11153429D01*
X5068524Y-11153429D02*
X5059000Y-11172476D01*
X5059000Y-11172476D02*
X5049476Y-11182000D01*
X5049476Y-11182000D02*
X5030429Y-11191524D01*
X5030429Y-11191524D02*
X5011381Y-11191524D01*
X5011381Y-11191524D02*
X4992333Y-11182000D01*
X4992333Y-11182000D02*
X4982810Y-11172476D01*
X4982810Y-11172476D02*
X4973286Y-11153429D01*
X4973286Y-11153429D02*
X4963762Y-11115333D01*
X4963762Y-11115333D02*
X4963762Y-11067714D01*
X4963762Y-11067714D02*
X4973286Y-11029619D01*
X4973286Y-11029619D02*
X4982810Y-11010571D01*
X4982810Y-11010571D02*
X4992333Y-11001048D01*
X4992333Y-11001048D02*
X5011381Y-10991524D01*
X5163762Y-11191524D02*
X5163762Y-11058190D01*
X5163762Y-11077238D02*
X5173286Y-11067714D01*
X5173286Y-11067714D02*
X5192333Y-11058190D01*
X5192333Y-11058190D02*
X5220905Y-11058190D01*
X5220905Y-11058190D02*
X5239952Y-11067714D01*
X5239952Y-11067714D02*
X5249476Y-11086762D01*
X5249476Y-11086762D02*
X5249476Y-11191524D01*
X5249476Y-11086762D02*
X5259000Y-11067714D01*
X5259000Y-11067714D02*
X5278048Y-11058190D01*
X5278048Y-11058190D02*
X5306619Y-11058190D01*
X5306619Y-11058190D02*
X5325667Y-11067714D01*
X5325667Y-11067714D02*
X5335191Y-11086762D01*
X5335191Y-11086762D02*
X5335191Y-11191524D01*
X5430429Y-11191524D02*
X5430429Y-11058190D01*
X5430429Y-11077238D02*
X5439952Y-11067714D01*
X5439952Y-11067714D02*
X5459000Y-11058190D01*
X5459000Y-11058190D02*
X5487572Y-11058190D01*
X5487572Y-11058190D02*
X5506619Y-11067714D01*
X5506619Y-11067714D02*
X5516143Y-11086762D01*
X5516143Y-11086762D02*
X5516143Y-11191524D01*
X5516143Y-11086762D02*
X5525667Y-11067714D01*
X5525667Y-11067714D02*
X5544714Y-11058190D01*
X5544714Y-11058190D02*
X5573286Y-11058190D01*
X5573286Y-11058190D02*
X5592333Y-11067714D01*
X5592333Y-11067714D02*
X5601857Y-11086762D01*
X5601857Y-11086762D02*
X5601857Y-11191524D01*
X5992333Y-10982000D02*
X5820905Y-11239143D01*
X6249476Y-10991524D02*
X6268524Y-10991524D01*
X6268524Y-10991524D02*
X6287572Y-11001048D01*
X6287572Y-11001048D02*
X6297095Y-11010571D01*
X6297095Y-11010571D02*
X6306619Y-11029619D01*
X6306619Y-11029619D02*
X6316143Y-11067714D01*
X6316143Y-11067714D02*
X6316143Y-11115333D01*
X6316143Y-11115333D02*
X6306619Y-11153429D01*
X6306619Y-11153429D02*
X6297095Y-11172476D01*
X6297095Y-11172476D02*
X6287572Y-11182000D01*
X6287572Y-11182000D02*
X6268524Y-11191524D01*
X6268524Y-11191524D02*
X6249476Y-11191524D01*
X6249476Y-11191524D02*
X6230429Y-11182000D01*
X6230429Y-11182000D02*
X6220905Y-11172476D01*
X6220905Y-11172476D02*
X6211381Y-11153429D01*
X6211381Y-11153429D02*
X6201857Y-11115333D01*
X6201857Y-11115333D02*
X6201857Y-11067714D01*
X6201857Y-11067714D02*
X6211381Y-11029619D01*
X6211381Y-11029619D02*
X6220905Y-11010571D01*
X6220905Y-11010571D02*
X6230429Y-11001048D01*
X6230429Y-11001048D02*
X6249476Y-10991524D01*
X6401857Y-11172476D02*
X6411381Y-11182000D01*
X6411381Y-11182000D02*
X6401857Y-11191524D01*
X6401857Y-11191524D02*
X6392333Y-11182000D01*
X6392333Y-11182000D02*
X6401857Y-11172476D01*
X6401857Y-11172476D02*
X6401857Y-11191524D01*
X6535191Y-10991524D02*
X6554238Y-10991524D01*
X6554238Y-10991524D02*
X6573286Y-11001048D01*
X6573286Y-11001048D02*
X6582810Y-11010571D01*
X6582810Y-11010571D02*
X6592333Y-11029619D01*
X6592333Y-11029619D02*
X6601857Y-11067714D01*
X6601857Y-11067714D02*
X6601857Y-11115333D01*
X6601857Y-11115333D02*
X6592333Y-11153429D01*
X6592333Y-11153429D02*
X6582810Y-11172476D01*
X6582810Y-11172476D02*
X6573286Y-11182000D01*
X6573286Y-11182000D02*
X6554238Y-11191524D01*
X6554238Y-11191524D02*
X6535191Y-11191524D01*
X6535191Y-11191524D02*
X6516143Y-11182000D01*
X6516143Y-11182000D02*
X6506619Y-11172476D01*
X6506619Y-11172476D02*
X6497095Y-11153429D01*
X6497095Y-11153429D02*
X6487572Y-11115333D01*
X6487572Y-11115333D02*
X6487572Y-11067714D01*
X6487572Y-11067714D02*
X6497095Y-11029619D01*
X6497095Y-11029619D02*
X6506619Y-11010571D01*
X6506619Y-11010571D02*
X6516143Y-11001048D01*
X6516143Y-11001048D02*
X6535191Y-10991524D01*
X6668524Y-10991524D02*
X6792333Y-10991524D01*
X6792333Y-10991524D02*
X6725667Y-11067714D01*
X6725667Y-11067714D02*
X6754238Y-11067714D01*
X6754238Y-11067714D02*
X6773286Y-11077238D01*
X6773286Y-11077238D02*
X6782810Y-11086762D01*
X6782810Y-11086762D02*
X6792333Y-11105810D01*
X6792333Y-11105810D02*
X6792333Y-11153429D01*
X6792333Y-11153429D02*
X6782810Y-11172476D01*
X6782810Y-11172476D02*
X6773286Y-11182000D01*
X6773286Y-11182000D02*
X6754238Y-11191524D01*
X6754238Y-11191524D02*
X6697095Y-11191524D01*
X6697095Y-11191524D02*
X6678048Y-11182000D01*
X6678048Y-11182000D02*
X6668524Y-11172476D01*
X6887572Y-11191524D02*
X6925667Y-11191524D01*
X6925667Y-11191524D02*
X6944714Y-11182000D01*
X6944714Y-11182000D02*
X6954238Y-11172476D01*
X6954238Y-11172476D02*
X6973286Y-11143905D01*
X6973286Y-11143905D02*
X6982810Y-11105810D01*
X6982810Y-11105810D02*
X6982810Y-11029619D01*
X6982810Y-11029619D02*
X6973286Y-11010571D01*
X6973286Y-11010571D02*
X6963762Y-11001048D01*
X6963762Y-11001048D02*
X6944714Y-10991524D01*
X6944714Y-10991524D02*
X6906619Y-10991524D01*
X6906619Y-10991524D02*
X6887572Y-11001048D01*
X6887572Y-11001048D02*
X6878048Y-11010571D01*
X6878048Y-11010571D02*
X6868524Y-11029619D01*
X6868524Y-11029619D02*
X6868524Y-11077238D01*
X6868524Y-11077238D02*
X6878048Y-11096286D01*
X6878048Y-11096286D02*
X6887572Y-11105810D01*
X6887572Y-11105810D02*
X6906619Y-11115333D01*
X6906619Y-11115333D02*
X6944714Y-11115333D01*
X6944714Y-11115333D02*
X6963762Y-11105810D01*
X6963762Y-11105810D02*
X6973286Y-11096286D01*
X6973286Y-11096286D02*
X6982810Y-11077238D01*
X7154238Y-11058190D02*
X7154238Y-11191524D01*
X7106619Y-10982000D02*
X7059000Y-11124857D01*
X7059000Y-11124857D02*
X7182810Y-11124857D01*
X7249476Y-10991524D02*
X7249476Y-11029619D01*
X7325667Y-10991524D02*
X7325667Y-11029619D01*
X7620905Y-11267714D02*
X7611381Y-11258190D01*
X7611381Y-11258190D02*
X7592334Y-11229619D01*
X7592334Y-11229619D02*
X7582810Y-11210571D01*
X7582810Y-11210571D02*
X7573286Y-11182000D01*
X7573286Y-11182000D02*
X7563762Y-11134381D01*
X7563762Y-11134381D02*
X7563762Y-11096286D01*
X7563762Y-11096286D02*
X7573286Y-11048667D01*
X7573286Y-11048667D02*
X7582810Y-11020095D01*
X7582810Y-11020095D02*
X7592334Y-11001048D01*
X7592334Y-11001048D02*
X7611381Y-10972476D01*
X7611381Y-10972476D02*
X7620905Y-10962952D01*
X7735191Y-10991524D02*
X7754238Y-10991524D01*
X7754238Y-10991524D02*
X7773286Y-11001048D01*
X7773286Y-11001048D02*
X7782810Y-11010571D01*
X7782810Y-11010571D02*
X7792334Y-11029619D01*
X7792334Y-11029619D02*
X7801857Y-11067714D01*
X7801857Y-11067714D02*
X7801857Y-11115333D01*
X7801857Y-11115333D02*
X7792334Y-11153429D01*
X7792334Y-11153429D02*
X7782810Y-11172476D01*
X7782810Y-11172476D02*
X7773286Y-11182000D01*
X7773286Y-11182000D02*
X7754238Y-11191524D01*
X7754238Y-11191524D02*
X7735191Y-11191524D01*
X7735191Y-11191524D02*
X7716143Y-11182000D01*
X7716143Y-11182000D02*
X7706619Y-11172476D01*
X7706619Y-11172476D02*
X7697095Y-11153429D01*
X7697095Y-11153429D02*
X7687572Y-11115333D01*
X7687572Y-11115333D02*
X7687572Y-11067714D01*
X7687572Y-11067714D02*
X7697095Y-11029619D01*
X7697095Y-11029619D02*
X7706619Y-11010571D01*
X7706619Y-11010571D02*
X7716143Y-11001048D01*
X7716143Y-11001048D02*
X7735191Y-10991524D01*
X8039953Y-11191524D02*
X8039953Y-10991524D01*
X8125667Y-11191524D02*
X8125667Y-11086762D01*
X8125667Y-11086762D02*
X8116143Y-11067714D01*
X8116143Y-11067714D02*
X8097096Y-11058190D01*
X8097096Y-11058190D02*
X8068524Y-11058190D01*
X8068524Y-11058190D02*
X8049476Y-11067714D01*
X8049476Y-11067714D02*
X8039953Y-11077238D01*
X8249476Y-11191524D02*
X8230429Y-11182000D01*
X8230429Y-11182000D02*
X8220905Y-11172476D01*
X8220905Y-11172476D02*
X8211381Y-11153429D01*
X8211381Y-11153429D02*
X8211381Y-11096286D01*
X8211381Y-11096286D02*
X8220905Y-11077238D01*
X8220905Y-11077238D02*
X8230429Y-11067714D01*
X8230429Y-11067714D02*
X8249476Y-11058190D01*
X8249476Y-11058190D02*
X8278048Y-11058190D01*
X8278048Y-11058190D02*
X8297096Y-11067714D01*
X8297096Y-11067714D02*
X8306619Y-11077238D01*
X8306619Y-11077238D02*
X8316143Y-11096286D01*
X8316143Y-11096286D02*
X8316143Y-11153429D01*
X8316143Y-11153429D02*
X8306619Y-11172476D01*
X8306619Y-11172476D02*
X8297096Y-11182000D01*
X8297096Y-11182000D02*
X8278048Y-11191524D01*
X8278048Y-11191524D02*
X8249476Y-11191524D01*
X8430429Y-11191524D02*
X8411381Y-11182000D01*
X8411381Y-11182000D02*
X8401858Y-11162952D01*
X8401858Y-11162952D02*
X8401858Y-10991524D01*
X8582810Y-11182000D02*
X8563762Y-11191524D01*
X8563762Y-11191524D02*
X8525667Y-11191524D01*
X8525667Y-11191524D02*
X8506619Y-11182000D01*
X8506619Y-11182000D02*
X8497096Y-11162952D01*
X8497096Y-11162952D02*
X8497096Y-11086762D01*
X8497096Y-11086762D02*
X8506619Y-11067714D01*
X8506619Y-11067714D02*
X8525667Y-11058190D01*
X8525667Y-11058190D02*
X8563762Y-11058190D01*
X8563762Y-11058190D02*
X8582810Y-11067714D01*
X8582810Y-11067714D02*
X8592334Y-11086762D01*
X8592334Y-11086762D02*
X8592334Y-11105810D01*
X8592334Y-11105810D02*
X8497096Y-11124857D01*
X8668524Y-11182000D02*
X8687572Y-11191524D01*
X8687572Y-11191524D02*
X8725667Y-11191524D01*
X8725667Y-11191524D02*
X8744715Y-11182000D01*
X8744715Y-11182000D02*
X8754239Y-11162952D01*
X8754239Y-11162952D02*
X8754239Y-11153429D01*
X8754239Y-11153429D02*
X8744715Y-11134381D01*
X8744715Y-11134381D02*
X8725667Y-11124857D01*
X8725667Y-11124857D02*
X8697096Y-11124857D01*
X8697096Y-11124857D02*
X8678048Y-11115333D01*
X8678048Y-11115333D02*
X8668524Y-11096286D01*
X8668524Y-11096286D02*
X8668524Y-11086762D01*
X8668524Y-11086762D02*
X8678048Y-11067714D01*
X8678048Y-11067714D02*
X8697096Y-11058190D01*
X8697096Y-11058190D02*
X8725667Y-11058190D01*
X8725667Y-11058190D02*
X8744715Y-11067714D01*
X8992334Y-11115333D02*
X9144715Y-11115333D01*
X9068524Y-11191524D02*
X9068524Y-11039143D01*
X9373286Y-10991524D02*
X9497096Y-10991524D01*
X9497096Y-10991524D02*
X9430429Y-11067714D01*
X9430429Y-11067714D02*
X9459001Y-11067714D01*
X9459001Y-11067714D02*
X9478048Y-11077238D01*
X9478048Y-11077238D02*
X9487572Y-11086762D01*
X9487572Y-11086762D02*
X9497096Y-11105810D01*
X9497096Y-11105810D02*
X9497096Y-11153429D01*
X9497096Y-11153429D02*
X9487572Y-11172476D01*
X9487572Y-11172476D02*
X9478048Y-11182000D01*
X9478048Y-11182000D02*
X9459001Y-11191524D01*
X9459001Y-11191524D02*
X9401858Y-11191524D01*
X9401858Y-11191524D02*
X9382810Y-11182000D01*
X9382810Y-11182000D02*
X9373286Y-11172476D01*
X9725667Y-11182000D02*
X9744715Y-11191524D01*
X9744715Y-11191524D02*
X9782810Y-11191524D01*
X9782810Y-11191524D02*
X9801858Y-11182000D01*
X9801858Y-11182000D02*
X9811382Y-11162952D01*
X9811382Y-11162952D02*
X9811382Y-11153429D01*
X9811382Y-11153429D02*
X9801858Y-11134381D01*
X9801858Y-11134381D02*
X9782810Y-11124857D01*
X9782810Y-11124857D02*
X9754239Y-11124857D01*
X9754239Y-11124857D02*
X9735191Y-11115333D01*
X9735191Y-11115333D02*
X9725667Y-11096286D01*
X9725667Y-11096286D02*
X9725667Y-11086762D01*
X9725667Y-11086762D02*
X9735191Y-11067714D01*
X9735191Y-11067714D02*
X9754239Y-11058190D01*
X9754239Y-11058190D02*
X9782810Y-11058190D01*
X9782810Y-11058190D02*
X9801858Y-11067714D01*
X9925667Y-11191524D02*
X9906620Y-11182000D01*
X9906620Y-11182000D02*
X9897096Y-11162952D01*
X9897096Y-11162952D02*
X9897096Y-10991524D01*
X10030429Y-11191524D02*
X10011382Y-11182000D01*
X10011382Y-11182000D02*
X10001858Y-11172476D01*
X10001858Y-11172476D02*
X9992334Y-11153429D01*
X9992334Y-11153429D02*
X9992334Y-11096286D01*
X9992334Y-11096286D02*
X10001858Y-11077238D01*
X10001858Y-11077238D02*
X10011382Y-11067714D01*
X10011382Y-11067714D02*
X10030429Y-11058190D01*
X10030429Y-11058190D02*
X10059001Y-11058190D01*
X10059001Y-11058190D02*
X10078048Y-11067714D01*
X10078048Y-11067714D02*
X10087572Y-11077238D01*
X10087572Y-11077238D02*
X10097096Y-11096286D01*
X10097096Y-11096286D02*
X10097096Y-11153429D01*
X10097096Y-11153429D02*
X10087572Y-11172476D01*
X10087572Y-11172476D02*
X10078048Y-11182000D01*
X10078048Y-11182000D02*
X10059001Y-11191524D01*
X10059001Y-11191524D02*
X10030429Y-11191524D01*
X10154239Y-11058190D02*
X10230429Y-11058190D01*
X10182810Y-10991524D02*
X10182810Y-11162952D01*
X10182810Y-11162952D02*
X10192334Y-11182000D01*
X10192334Y-11182000D02*
X10211382Y-11191524D01*
X10211382Y-11191524D02*
X10230429Y-11191524D01*
X10287572Y-11182000D02*
X10306620Y-11191524D01*
X10306620Y-11191524D02*
X10344715Y-11191524D01*
X10344715Y-11191524D02*
X10363763Y-11182000D01*
X10363763Y-11182000D02*
X10373286Y-11162952D01*
X10373286Y-11162952D02*
X10373286Y-11153429D01*
X10373286Y-11153429D02*
X10363763Y-11134381D01*
X10363763Y-11134381D02*
X10344715Y-11124857D01*
X10344715Y-11124857D02*
X10316143Y-11124857D01*
X10316143Y-11124857D02*
X10297096Y-11115333D01*
X10297096Y-11115333D02*
X10287572Y-11096286D01*
X10287572Y-11096286D02*
X10287572Y-11086762D01*
X10287572Y-11086762D02*
X10297096Y-11067714D01*
X10297096Y-11067714D02*
X10316143Y-11058190D01*
X10316143Y-11058190D02*
X10344715Y-11058190D01*
X10344715Y-11058190D02*
X10363763Y-11067714D01*
X10439953Y-11267714D02*
X10449477Y-11258190D01*
X10449477Y-11258190D02*
X10468524Y-11229619D01*
X10468524Y-11229619D02*
X10478048Y-11210571D01*
X10478048Y-11210571D02*
X10487572Y-11182000D01*
X10487572Y-11182000D02*
X10497096Y-11134381D01*
X10497096Y-11134381D02*
X10497096Y-11096286D01*
X10497096Y-11096286D02*
X10487572Y-11048667D01*
X10487572Y-11048667D02*
X10478048Y-11020095D01*
X10478048Y-11020095D02*
X10468524Y-11001048D01*
X10468524Y-11001048D02*
X10449477Y-10972476D01*
X10449477Y-10972476D02*
X10439953Y-10962952D01*
D16*
X3957000Y-11312000D02*
X4059000Y-11414000D01*
X4059000Y-11312000D02*
X3957000Y-11414000D01*
X4059000Y-11363000D02*
G75*
G03*
X4059000Y-11363000I-51000J0D01*
G01*
D11*
X4411381Y-11455524D02*
X4297095Y-11455524D01*
X4354238Y-11455524D02*
X4354238Y-11255524D01*
X4354238Y-11255524D02*
X4335190Y-11284095D01*
X4335190Y-11284095D02*
X4316143Y-11303143D01*
X4316143Y-11303143D02*
X4297095Y-11312667D01*
X4497095Y-11436476D02*
X4506619Y-11446000D01*
X4506619Y-11446000D02*
X4497095Y-11455524D01*
X4497095Y-11455524D02*
X4487571Y-11446000D01*
X4487571Y-11446000D02*
X4497095Y-11436476D01*
X4497095Y-11436476D02*
X4497095Y-11455524D01*
X4630429Y-11255524D02*
X4649476Y-11255524D01*
X4649476Y-11255524D02*
X4668524Y-11265048D01*
X4668524Y-11265048D02*
X4678048Y-11274571D01*
X4678048Y-11274571D02*
X4687571Y-11293619D01*
X4687571Y-11293619D02*
X4697095Y-11331714D01*
X4697095Y-11331714D02*
X4697095Y-11379333D01*
X4697095Y-11379333D02*
X4687571Y-11417428D01*
X4687571Y-11417428D02*
X4678048Y-11436476D01*
X4678048Y-11436476D02*
X4668524Y-11446000D01*
X4668524Y-11446000D02*
X4649476Y-11455524D01*
X4649476Y-11455524D02*
X4630429Y-11455524D01*
X4630429Y-11455524D02*
X4611381Y-11446000D01*
X4611381Y-11446000D02*
X4601857Y-11436476D01*
X4601857Y-11436476D02*
X4592333Y-11417428D01*
X4592333Y-11417428D02*
X4582810Y-11379333D01*
X4582810Y-11379333D02*
X4582810Y-11331714D01*
X4582810Y-11331714D02*
X4592333Y-11293619D01*
X4592333Y-11293619D02*
X4601857Y-11274571D01*
X4601857Y-11274571D02*
X4611381Y-11265048D01*
X4611381Y-11265048D02*
X4630429Y-11255524D01*
X4773286Y-11274571D02*
X4782810Y-11265048D01*
X4782810Y-11265048D02*
X4801857Y-11255524D01*
X4801857Y-11255524D02*
X4849476Y-11255524D01*
X4849476Y-11255524D02*
X4868524Y-11265048D01*
X4868524Y-11265048D02*
X4878048Y-11274571D01*
X4878048Y-11274571D02*
X4887571Y-11293619D01*
X4887571Y-11293619D02*
X4887571Y-11312667D01*
X4887571Y-11312667D02*
X4878048Y-11341238D01*
X4878048Y-11341238D02*
X4763762Y-11455524D01*
X4763762Y-11455524D02*
X4887571Y-11455524D01*
X5011381Y-11255524D02*
X5030429Y-11255524D01*
X5030429Y-11255524D02*
X5049476Y-11265048D01*
X5049476Y-11265048D02*
X5059000Y-11274571D01*
X5059000Y-11274571D02*
X5068524Y-11293619D01*
X5068524Y-11293619D02*
X5078048Y-11331714D01*
X5078048Y-11331714D02*
X5078048Y-11379333D01*
X5078048Y-11379333D02*
X5068524Y-11417428D01*
X5068524Y-11417428D02*
X5059000Y-11436476D01*
X5059000Y-11436476D02*
X5049476Y-11446000D01*
X5049476Y-11446000D02*
X5030429Y-11455524D01*
X5030429Y-11455524D02*
X5011381Y-11455524D01*
X5011381Y-11455524D02*
X4992333Y-11446000D01*
X4992333Y-11446000D02*
X4982810Y-11436476D01*
X4982810Y-11436476D02*
X4973286Y-11417428D01*
X4973286Y-11417428D02*
X4963762Y-11379333D01*
X4963762Y-11379333D02*
X4963762Y-11331714D01*
X4963762Y-11331714D02*
X4973286Y-11293619D01*
X4973286Y-11293619D02*
X4982810Y-11274571D01*
X4982810Y-11274571D02*
X4992333Y-11265048D01*
X4992333Y-11265048D02*
X5011381Y-11255524D01*
X5163762Y-11455524D02*
X5163762Y-11322190D01*
X5163762Y-11341238D02*
X5173286Y-11331714D01*
X5173286Y-11331714D02*
X5192333Y-11322190D01*
X5192333Y-11322190D02*
X5220905Y-11322190D01*
X5220905Y-11322190D02*
X5239952Y-11331714D01*
X5239952Y-11331714D02*
X5249476Y-11350762D01*
X5249476Y-11350762D02*
X5249476Y-11455524D01*
X5249476Y-11350762D02*
X5259000Y-11331714D01*
X5259000Y-11331714D02*
X5278048Y-11322190D01*
X5278048Y-11322190D02*
X5306619Y-11322190D01*
X5306619Y-11322190D02*
X5325667Y-11331714D01*
X5325667Y-11331714D02*
X5335191Y-11350762D01*
X5335191Y-11350762D02*
X5335191Y-11455524D01*
X5430429Y-11455524D02*
X5430429Y-11322190D01*
X5430429Y-11341238D02*
X5439952Y-11331714D01*
X5439952Y-11331714D02*
X5459000Y-11322190D01*
X5459000Y-11322190D02*
X5487572Y-11322190D01*
X5487572Y-11322190D02*
X5506619Y-11331714D01*
X5506619Y-11331714D02*
X5516143Y-11350762D01*
X5516143Y-11350762D02*
X5516143Y-11455524D01*
X5516143Y-11350762D02*
X5525667Y-11331714D01*
X5525667Y-11331714D02*
X5544714Y-11322190D01*
X5544714Y-11322190D02*
X5573286Y-11322190D01*
X5573286Y-11322190D02*
X5592333Y-11331714D01*
X5592333Y-11331714D02*
X5601857Y-11350762D01*
X5601857Y-11350762D02*
X5601857Y-11455524D01*
X5992333Y-11246000D02*
X5820905Y-11503143D01*
X6249476Y-11255524D02*
X6268524Y-11255524D01*
X6268524Y-11255524D02*
X6287572Y-11265048D01*
X6287572Y-11265048D02*
X6297095Y-11274571D01*
X6297095Y-11274571D02*
X6306619Y-11293619D01*
X6306619Y-11293619D02*
X6316143Y-11331714D01*
X6316143Y-11331714D02*
X6316143Y-11379333D01*
X6316143Y-11379333D02*
X6306619Y-11417428D01*
X6306619Y-11417428D02*
X6297095Y-11436476D01*
X6297095Y-11436476D02*
X6287572Y-11446000D01*
X6287572Y-11446000D02*
X6268524Y-11455524D01*
X6268524Y-11455524D02*
X6249476Y-11455524D01*
X6249476Y-11455524D02*
X6230429Y-11446000D01*
X6230429Y-11446000D02*
X6220905Y-11436476D01*
X6220905Y-11436476D02*
X6211381Y-11417428D01*
X6211381Y-11417428D02*
X6201857Y-11379333D01*
X6201857Y-11379333D02*
X6201857Y-11331714D01*
X6201857Y-11331714D02*
X6211381Y-11293619D01*
X6211381Y-11293619D02*
X6220905Y-11274571D01*
X6220905Y-11274571D02*
X6230429Y-11265048D01*
X6230429Y-11265048D02*
X6249476Y-11255524D01*
X6401857Y-11436476D02*
X6411381Y-11446000D01*
X6411381Y-11446000D02*
X6401857Y-11455524D01*
X6401857Y-11455524D02*
X6392333Y-11446000D01*
X6392333Y-11446000D02*
X6401857Y-11436476D01*
X6401857Y-11436476D02*
X6401857Y-11455524D01*
X6535191Y-11255524D02*
X6554238Y-11255524D01*
X6554238Y-11255524D02*
X6573286Y-11265048D01*
X6573286Y-11265048D02*
X6582810Y-11274571D01*
X6582810Y-11274571D02*
X6592333Y-11293619D01*
X6592333Y-11293619D02*
X6601857Y-11331714D01*
X6601857Y-11331714D02*
X6601857Y-11379333D01*
X6601857Y-11379333D02*
X6592333Y-11417428D01*
X6592333Y-11417428D02*
X6582810Y-11436476D01*
X6582810Y-11436476D02*
X6573286Y-11446000D01*
X6573286Y-11446000D02*
X6554238Y-11455524D01*
X6554238Y-11455524D02*
X6535191Y-11455524D01*
X6535191Y-11455524D02*
X6516143Y-11446000D01*
X6516143Y-11446000D02*
X6506619Y-11436476D01*
X6506619Y-11436476D02*
X6497095Y-11417428D01*
X6497095Y-11417428D02*
X6487572Y-11379333D01*
X6487572Y-11379333D02*
X6487572Y-11331714D01*
X6487572Y-11331714D02*
X6497095Y-11293619D01*
X6497095Y-11293619D02*
X6506619Y-11274571D01*
X6506619Y-11274571D02*
X6516143Y-11265048D01*
X6516143Y-11265048D02*
X6535191Y-11255524D01*
X6773286Y-11322190D02*
X6773286Y-11455524D01*
X6725667Y-11246000D02*
X6678048Y-11388857D01*
X6678048Y-11388857D02*
X6801857Y-11388857D01*
X6916143Y-11255524D02*
X6935191Y-11255524D01*
X6935191Y-11255524D02*
X6954238Y-11265048D01*
X6954238Y-11265048D02*
X6963762Y-11274571D01*
X6963762Y-11274571D02*
X6973286Y-11293619D01*
X6973286Y-11293619D02*
X6982810Y-11331714D01*
X6982810Y-11331714D02*
X6982810Y-11379333D01*
X6982810Y-11379333D02*
X6973286Y-11417428D01*
X6973286Y-11417428D02*
X6963762Y-11436476D01*
X6963762Y-11436476D02*
X6954238Y-11446000D01*
X6954238Y-11446000D02*
X6935191Y-11455524D01*
X6935191Y-11455524D02*
X6916143Y-11455524D01*
X6916143Y-11455524D02*
X6897095Y-11446000D01*
X6897095Y-11446000D02*
X6887572Y-11436476D01*
X6887572Y-11436476D02*
X6878048Y-11417428D01*
X6878048Y-11417428D02*
X6868524Y-11379333D01*
X6868524Y-11379333D02*
X6868524Y-11331714D01*
X6868524Y-11331714D02*
X6878048Y-11293619D01*
X6878048Y-11293619D02*
X6887572Y-11274571D01*
X6887572Y-11274571D02*
X6897095Y-11265048D01*
X6897095Y-11265048D02*
X6916143Y-11255524D01*
X7059000Y-11274571D02*
X7068524Y-11265048D01*
X7068524Y-11265048D02*
X7087572Y-11255524D01*
X7087572Y-11255524D02*
X7135191Y-11255524D01*
X7135191Y-11255524D02*
X7154238Y-11265048D01*
X7154238Y-11265048D02*
X7163762Y-11274571D01*
X7163762Y-11274571D02*
X7173286Y-11293619D01*
X7173286Y-11293619D02*
X7173286Y-11312667D01*
X7173286Y-11312667D02*
X7163762Y-11341238D01*
X7163762Y-11341238D02*
X7049476Y-11455524D01*
X7049476Y-11455524D02*
X7173286Y-11455524D01*
X7249476Y-11255524D02*
X7249476Y-11293619D01*
X7325667Y-11255524D02*
X7325667Y-11293619D01*
X7620905Y-11531714D02*
X7611381Y-11522190D01*
X7611381Y-11522190D02*
X7592334Y-11493619D01*
X7592334Y-11493619D02*
X7582810Y-11474571D01*
X7582810Y-11474571D02*
X7573286Y-11446000D01*
X7573286Y-11446000D02*
X7563762Y-11398381D01*
X7563762Y-11398381D02*
X7563762Y-11360286D01*
X7563762Y-11360286D02*
X7573286Y-11312667D01*
X7573286Y-11312667D02*
X7582810Y-11284095D01*
X7582810Y-11284095D02*
X7592334Y-11265048D01*
X7592334Y-11265048D02*
X7611381Y-11236476D01*
X7611381Y-11236476D02*
X7620905Y-11226952D01*
X7678048Y-11255524D02*
X7801857Y-11255524D01*
X7801857Y-11255524D02*
X7735191Y-11331714D01*
X7735191Y-11331714D02*
X7763762Y-11331714D01*
X7763762Y-11331714D02*
X7782810Y-11341238D01*
X7782810Y-11341238D02*
X7792334Y-11350762D01*
X7792334Y-11350762D02*
X7801857Y-11369809D01*
X7801857Y-11369809D02*
X7801857Y-11417428D01*
X7801857Y-11417428D02*
X7792334Y-11436476D01*
X7792334Y-11436476D02*
X7782810Y-11446000D01*
X7782810Y-11446000D02*
X7763762Y-11455524D01*
X7763762Y-11455524D02*
X7706619Y-11455524D01*
X7706619Y-11455524D02*
X7687572Y-11446000D01*
X7687572Y-11446000D02*
X7678048Y-11436476D01*
X7925667Y-11255524D02*
X7944715Y-11255524D01*
X7944715Y-11255524D02*
X7963762Y-11265048D01*
X7963762Y-11265048D02*
X7973286Y-11274571D01*
X7973286Y-11274571D02*
X7982810Y-11293619D01*
X7982810Y-11293619D02*
X7992334Y-11331714D01*
X7992334Y-11331714D02*
X7992334Y-11379333D01*
X7992334Y-11379333D02*
X7982810Y-11417428D01*
X7982810Y-11417428D02*
X7973286Y-11436476D01*
X7973286Y-11436476D02*
X7963762Y-11446000D01*
X7963762Y-11446000D02*
X7944715Y-11455524D01*
X7944715Y-11455524D02*
X7925667Y-11455524D01*
X7925667Y-11455524D02*
X7906619Y-11446000D01*
X7906619Y-11446000D02*
X7897095Y-11436476D01*
X7897095Y-11436476D02*
X7887572Y-11417428D01*
X7887572Y-11417428D02*
X7878048Y-11379333D01*
X7878048Y-11379333D02*
X7878048Y-11331714D01*
X7878048Y-11331714D02*
X7887572Y-11293619D01*
X7887572Y-11293619D02*
X7897095Y-11274571D01*
X7897095Y-11274571D02*
X7906619Y-11265048D01*
X7906619Y-11265048D02*
X7925667Y-11255524D01*
X8230429Y-11455524D02*
X8230429Y-11255524D01*
X8316143Y-11455524D02*
X8316143Y-11350762D01*
X8316143Y-11350762D02*
X8306619Y-11331714D01*
X8306619Y-11331714D02*
X8287572Y-11322190D01*
X8287572Y-11322190D02*
X8259000Y-11322190D01*
X8259000Y-11322190D02*
X8239953Y-11331714D01*
X8239953Y-11331714D02*
X8230429Y-11341238D01*
X8439953Y-11455524D02*
X8420905Y-11446000D01*
X8420905Y-11446000D02*
X8411381Y-11436476D01*
X8411381Y-11436476D02*
X8401858Y-11417428D01*
X8401858Y-11417428D02*
X8401858Y-11360286D01*
X8401858Y-11360286D02*
X8411381Y-11341238D01*
X8411381Y-11341238D02*
X8420905Y-11331714D01*
X8420905Y-11331714D02*
X8439953Y-11322190D01*
X8439953Y-11322190D02*
X8468524Y-11322190D01*
X8468524Y-11322190D02*
X8487572Y-11331714D01*
X8487572Y-11331714D02*
X8497096Y-11341238D01*
X8497096Y-11341238D02*
X8506619Y-11360286D01*
X8506619Y-11360286D02*
X8506619Y-11417428D01*
X8506619Y-11417428D02*
X8497096Y-11436476D01*
X8497096Y-11436476D02*
X8487572Y-11446000D01*
X8487572Y-11446000D02*
X8468524Y-11455524D01*
X8468524Y-11455524D02*
X8439953Y-11455524D01*
X8620905Y-11455524D02*
X8601858Y-11446000D01*
X8601858Y-11446000D02*
X8592334Y-11426952D01*
X8592334Y-11426952D02*
X8592334Y-11255524D01*
X8773286Y-11446000D02*
X8754239Y-11455524D01*
X8754239Y-11455524D02*
X8716143Y-11455524D01*
X8716143Y-11455524D02*
X8697096Y-11446000D01*
X8697096Y-11446000D02*
X8687572Y-11426952D01*
X8687572Y-11426952D02*
X8687572Y-11350762D01*
X8687572Y-11350762D02*
X8697096Y-11331714D01*
X8697096Y-11331714D02*
X8716143Y-11322190D01*
X8716143Y-11322190D02*
X8754239Y-11322190D01*
X8754239Y-11322190D02*
X8773286Y-11331714D01*
X8773286Y-11331714D02*
X8782810Y-11350762D01*
X8782810Y-11350762D02*
X8782810Y-11369809D01*
X8782810Y-11369809D02*
X8687572Y-11388857D01*
X8859000Y-11446000D02*
X8878048Y-11455524D01*
X8878048Y-11455524D02*
X8916143Y-11455524D01*
X8916143Y-11455524D02*
X8935191Y-11446000D01*
X8935191Y-11446000D02*
X8944715Y-11426952D01*
X8944715Y-11426952D02*
X8944715Y-11417428D01*
X8944715Y-11417428D02*
X8935191Y-11398381D01*
X8935191Y-11398381D02*
X8916143Y-11388857D01*
X8916143Y-11388857D02*
X8887572Y-11388857D01*
X8887572Y-11388857D02*
X8868524Y-11379333D01*
X8868524Y-11379333D02*
X8859000Y-11360286D01*
X8859000Y-11360286D02*
X8859000Y-11350762D01*
X8859000Y-11350762D02*
X8868524Y-11331714D01*
X8868524Y-11331714D02*
X8887572Y-11322190D01*
X8887572Y-11322190D02*
X8916143Y-11322190D01*
X8916143Y-11322190D02*
X8935191Y-11331714D01*
X9011381Y-11531714D02*
X9020905Y-11522190D01*
X9020905Y-11522190D02*
X9039953Y-11493619D01*
X9039953Y-11493619D02*
X9049477Y-11474571D01*
X9049477Y-11474571D02*
X9059000Y-11446000D01*
X9059000Y-11446000D02*
X9068524Y-11398381D01*
X9068524Y-11398381D02*
X9068524Y-11360286D01*
X9068524Y-11360286D02*
X9059000Y-11312667D01*
X9059000Y-11312667D02*
X9049477Y-11284095D01*
X9049477Y-11284095D02*
X9039953Y-11265048D01*
X9039953Y-11265048D02*
X9020905Y-11236476D01*
X9020905Y-11236476D02*
X9011381Y-11226952D01*
D17*
X3929000Y-11562000D02*
X4059000Y-11692000D01*
X4059000Y-11562000D02*
X3929000Y-11692000D01*
X3994000Y-11562000D02*
X3994000Y-11692000D01*
X3929000Y-11627000D02*
X4059000Y-11627000D01*
D11*
X4411381Y-11719524D02*
X4297095Y-11719524D01*
X4354238Y-11719524D02*
X4354238Y-11519524D01*
X4354238Y-11519524D02*
X4335190Y-11548095D01*
X4335190Y-11548095D02*
X4316143Y-11567143D01*
X4316143Y-11567143D02*
X4297095Y-11576667D01*
X4497095Y-11700476D02*
X4506619Y-11710000D01*
X4506619Y-11710000D02*
X4497095Y-11719524D01*
X4497095Y-11719524D02*
X4487571Y-11710000D01*
X4487571Y-11710000D02*
X4497095Y-11700476D01*
X4497095Y-11700476D02*
X4497095Y-11719524D01*
X4573286Y-11519524D02*
X4697095Y-11519524D01*
X4697095Y-11519524D02*
X4630429Y-11595714D01*
X4630429Y-11595714D02*
X4659000Y-11595714D01*
X4659000Y-11595714D02*
X4678048Y-11605238D01*
X4678048Y-11605238D02*
X4687571Y-11614762D01*
X4687571Y-11614762D02*
X4697095Y-11633809D01*
X4697095Y-11633809D02*
X4697095Y-11681428D01*
X4697095Y-11681428D02*
X4687571Y-11700476D01*
X4687571Y-11700476D02*
X4678048Y-11710000D01*
X4678048Y-11710000D02*
X4659000Y-11719524D01*
X4659000Y-11719524D02*
X4601857Y-11719524D01*
X4601857Y-11719524D02*
X4582810Y-11710000D01*
X4582810Y-11710000D02*
X4573286Y-11700476D01*
X4820905Y-11519524D02*
X4839952Y-11519524D01*
X4839952Y-11519524D02*
X4859000Y-11529048D01*
X4859000Y-11529048D02*
X4868524Y-11538571D01*
X4868524Y-11538571D02*
X4878048Y-11557619D01*
X4878048Y-11557619D02*
X4887571Y-11595714D01*
X4887571Y-11595714D02*
X4887571Y-11643333D01*
X4887571Y-11643333D02*
X4878048Y-11681428D01*
X4878048Y-11681428D02*
X4868524Y-11700476D01*
X4868524Y-11700476D02*
X4859000Y-11710000D01*
X4859000Y-11710000D02*
X4839952Y-11719524D01*
X4839952Y-11719524D02*
X4820905Y-11719524D01*
X4820905Y-11719524D02*
X4801857Y-11710000D01*
X4801857Y-11710000D02*
X4792333Y-11700476D01*
X4792333Y-11700476D02*
X4782810Y-11681428D01*
X4782810Y-11681428D02*
X4773286Y-11643333D01*
X4773286Y-11643333D02*
X4773286Y-11595714D01*
X4773286Y-11595714D02*
X4782810Y-11557619D01*
X4782810Y-11557619D02*
X4792333Y-11538571D01*
X4792333Y-11538571D02*
X4801857Y-11529048D01*
X4801857Y-11529048D02*
X4820905Y-11519524D01*
X5011381Y-11519524D02*
X5030429Y-11519524D01*
X5030429Y-11519524D02*
X5049476Y-11529048D01*
X5049476Y-11529048D02*
X5059000Y-11538571D01*
X5059000Y-11538571D02*
X5068524Y-11557619D01*
X5068524Y-11557619D02*
X5078048Y-11595714D01*
X5078048Y-11595714D02*
X5078048Y-11643333D01*
X5078048Y-11643333D02*
X5068524Y-11681428D01*
X5068524Y-11681428D02*
X5059000Y-11700476D01*
X5059000Y-11700476D02*
X5049476Y-11710000D01*
X5049476Y-11710000D02*
X5030429Y-11719524D01*
X5030429Y-11719524D02*
X5011381Y-11719524D01*
X5011381Y-11719524D02*
X4992333Y-11710000D01*
X4992333Y-11710000D02*
X4982810Y-11700476D01*
X4982810Y-11700476D02*
X4973286Y-11681428D01*
X4973286Y-11681428D02*
X4963762Y-11643333D01*
X4963762Y-11643333D02*
X4963762Y-11595714D01*
X4963762Y-11595714D02*
X4973286Y-11557619D01*
X4973286Y-11557619D02*
X4982810Y-11538571D01*
X4982810Y-11538571D02*
X4992333Y-11529048D01*
X4992333Y-11529048D02*
X5011381Y-11519524D01*
X5163762Y-11719524D02*
X5163762Y-11586190D01*
X5163762Y-11605238D02*
X5173286Y-11595714D01*
X5173286Y-11595714D02*
X5192333Y-11586190D01*
X5192333Y-11586190D02*
X5220905Y-11586190D01*
X5220905Y-11586190D02*
X5239952Y-11595714D01*
X5239952Y-11595714D02*
X5249476Y-11614762D01*
X5249476Y-11614762D02*
X5249476Y-11719524D01*
X5249476Y-11614762D02*
X5259000Y-11595714D01*
X5259000Y-11595714D02*
X5278048Y-11586190D01*
X5278048Y-11586190D02*
X5306619Y-11586190D01*
X5306619Y-11586190D02*
X5325667Y-11595714D01*
X5325667Y-11595714D02*
X5335191Y-11614762D01*
X5335191Y-11614762D02*
X5335191Y-11719524D01*
X5430429Y-11719524D02*
X5430429Y-11586190D01*
X5430429Y-11605238D02*
X5439952Y-11595714D01*
X5439952Y-11595714D02*
X5459000Y-11586190D01*
X5459000Y-11586190D02*
X5487572Y-11586190D01*
X5487572Y-11586190D02*
X5506619Y-11595714D01*
X5506619Y-11595714D02*
X5516143Y-11614762D01*
X5516143Y-11614762D02*
X5516143Y-11719524D01*
X5516143Y-11614762D02*
X5525667Y-11595714D01*
X5525667Y-11595714D02*
X5544714Y-11586190D01*
X5544714Y-11586190D02*
X5573286Y-11586190D01*
X5573286Y-11586190D02*
X5592333Y-11595714D01*
X5592333Y-11595714D02*
X5601857Y-11614762D01*
X5601857Y-11614762D02*
X5601857Y-11719524D01*
X5992333Y-11510000D02*
X5820905Y-11767143D01*
X6249476Y-11519524D02*
X6268524Y-11519524D01*
X6268524Y-11519524D02*
X6287572Y-11529048D01*
X6287572Y-11529048D02*
X6297095Y-11538571D01*
X6297095Y-11538571D02*
X6306619Y-11557619D01*
X6306619Y-11557619D02*
X6316143Y-11595714D01*
X6316143Y-11595714D02*
X6316143Y-11643333D01*
X6316143Y-11643333D02*
X6306619Y-11681428D01*
X6306619Y-11681428D02*
X6297095Y-11700476D01*
X6297095Y-11700476D02*
X6287572Y-11710000D01*
X6287572Y-11710000D02*
X6268524Y-11719524D01*
X6268524Y-11719524D02*
X6249476Y-11719524D01*
X6249476Y-11719524D02*
X6230429Y-11710000D01*
X6230429Y-11710000D02*
X6220905Y-11700476D01*
X6220905Y-11700476D02*
X6211381Y-11681428D01*
X6211381Y-11681428D02*
X6201857Y-11643333D01*
X6201857Y-11643333D02*
X6201857Y-11595714D01*
X6201857Y-11595714D02*
X6211381Y-11557619D01*
X6211381Y-11557619D02*
X6220905Y-11538571D01*
X6220905Y-11538571D02*
X6230429Y-11529048D01*
X6230429Y-11529048D02*
X6249476Y-11519524D01*
X6401857Y-11700476D02*
X6411381Y-11710000D01*
X6411381Y-11710000D02*
X6401857Y-11719524D01*
X6401857Y-11719524D02*
X6392333Y-11710000D01*
X6392333Y-11710000D02*
X6401857Y-11700476D01*
X6401857Y-11700476D02*
X6401857Y-11719524D01*
X6535191Y-11519524D02*
X6554238Y-11519524D01*
X6554238Y-11519524D02*
X6573286Y-11529048D01*
X6573286Y-11529048D02*
X6582810Y-11538571D01*
X6582810Y-11538571D02*
X6592333Y-11557619D01*
X6592333Y-11557619D02*
X6601857Y-11595714D01*
X6601857Y-11595714D02*
X6601857Y-11643333D01*
X6601857Y-11643333D02*
X6592333Y-11681428D01*
X6592333Y-11681428D02*
X6582810Y-11700476D01*
X6582810Y-11700476D02*
X6573286Y-11710000D01*
X6573286Y-11710000D02*
X6554238Y-11719524D01*
X6554238Y-11719524D02*
X6535191Y-11719524D01*
X6535191Y-11719524D02*
X6516143Y-11710000D01*
X6516143Y-11710000D02*
X6506619Y-11700476D01*
X6506619Y-11700476D02*
X6497095Y-11681428D01*
X6497095Y-11681428D02*
X6487572Y-11643333D01*
X6487572Y-11643333D02*
X6487572Y-11595714D01*
X6487572Y-11595714D02*
X6497095Y-11557619D01*
X6497095Y-11557619D02*
X6506619Y-11538571D01*
X6506619Y-11538571D02*
X6516143Y-11529048D01*
X6516143Y-11529048D02*
X6535191Y-11519524D01*
X6782810Y-11519524D02*
X6687572Y-11519524D01*
X6687572Y-11519524D02*
X6678048Y-11614762D01*
X6678048Y-11614762D02*
X6687572Y-11605238D01*
X6687572Y-11605238D02*
X6706619Y-11595714D01*
X6706619Y-11595714D02*
X6754238Y-11595714D01*
X6754238Y-11595714D02*
X6773286Y-11605238D01*
X6773286Y-11605238D02*
X6782810Y-11614762D01*
X6782810Y-11614762D02*
X6792333Y-11633809D01*
X6792333Y-11633809D02*
X6792333Y-11681428D01*
X6792333Y-11681428D02*
X6782810Y-11700476D01*
X6782810Y-11700476D02*
X6773286Y-11710000D01*
X6773286Y-11710000D02*
X6754238Y-11719524D01*
X6754238Y-11719524D02*
X6706619Y-11719524D01*
X6706619Y-11719524D02*
X6687572Y-11710000D01*
X6687572Y-11710000D02*
X6678048Y-11700476D01*
X6982810Y-11719524D02*
X6868524Y-11719524D01*
X6925667Y-11719524D02*
X6925667Y-11519524D01*
X6925667Y-11519524D02*
X6906619Y-11548095D01*
X6906619Y-11548095D02*
X6887572Y-11567143D01*
X6887572Y-11567143D02*
X6868524Y-11576667D01*
X7059000Y-11538571D02*
X7068524Y-11529048D01*
X7068524Y-11529048D02*
X7087572Y-11519524D01*
X7087572Y-11519524D02*
X7135191Y-11519524D01*
X7135191Y-11519524D02*
X7154238Y-11529048D01*
X7154238Y-11529048D02*
X7163762Y-11538571D01*
X7163762Y-11538571D02*
X7173286Y-11557619D01*
X7173286Y-11557619D02*
X7173286Y-11576667D01*
X7173286Y-11576667D02*
X7163762Y-11605238D01*
X7163762Y-11605238D02*
X7049476Y-11719524D01*
X7049476Y-11719524D02*
X7173286Y-11719524D01*
X7249476Y-11519524D02*
X7249476Y-11557619D01*
X7325667Y-11519524D02*
X7325667Y-11557619D01*
X7620905Y-11795714D02*
X7611381Y-11786190D01*
X7611381Y-11786190D02*
X7592334Y-11757619D01*
X7592334Y-11757619D02*
X7582810Y-11738571D01*
X7582810Y-11738571D02*
X7573286Y-11710000D01*
X7573286Y-11710000D02*
X7563762Y-11662381D01*
X7563762Y-11662381D02*
X7563762Y-11624286D01*
X7563762Y-11624286D02*
X7573286Y-11576667D01*
X7573286Y-11576667D02*
X7582810Y-11548095D01*
X7582810Y-11548095D02*
X7592334Y-11529048D01*
X7592334Y-11529048D02*
X7611381Y-11500476D01*
X7611381Y-11500476D02*
X7620905Y-11490952D01*
X7801857Y-11719524D02*
X7687572Y-11719524D01*
X7744714Y-11719524D02*
X7744714Y-11519524D01*
X7744714Y-11519524D02*
X7725667Y-11548095D01*
X7725667Y-11548095D02*
X7706619Y-11567143D01*
X7706619Y-11567143D02*
X7687572Y-11576667D01*
X7973286Y-11519524D02*
X7935191Y-11519524D01*
X7935191Y-11519524D02*
X7916143Y-11529048D01*
X7916143Y-11529048D02*
X7906619Y-11538571D01*
X7906619Y-11538571D02*
X7887572Y-11567143D01*
X7887572Y-11567143D02*
X7878048Y-11605238D01*
X7878048Y-11605238D02*
X7878048Y-11681428D01*
X7878048Y-11681428D02*
X7887572Y-11700476D01*
X7887572Y-11700476D02*
X7897095Y-11710000D01*
X7897095Y-11710000D02*
X7916143Y-11719524D01*
X7916143Y-11719524D02*
X7954238Y-11719524D01*
X7954238Y-11719524D02*
X7973286Y-11710000D01*
X7973286Y-11710000D02*
X7982810Y-11700476D01*
X7982810Y-11700476D02*
X7992334Y-11681428D01*
X7992334Y-11681428D02*
X7992334Y-11633809D01*
X7992334Y-11633809D02*
X7982810Y-11614762D01*
X7982810Y-11614762D02*
X7973286Y-11605238D01*
X7973286Y-11605238D02*
X7954238Y-11595714D01*
X7954238Y-11595714D02*
X7916143Y-11595714D01*
X7916143Y-11595714D02*
X7897095Y-11605238D01*
X7897095Y-11605238D02*
X7887572Y-11614762D01*
X7887572Y-11614762D02*
X7878048Y-11633809D01*
X8230429Y-11719524D02*
X8230429Y-11519524D01*
X8316143Y-11719524D02*
X8316143Y-11614762D01*
X8316143Y-11614762D02*
X8306619Y-11595714D01*
X8306619Y-11595714D02*
X8287572Y-11586190D01*
X8287572Y-11586190D02*
X8259000Y-11586190D01*
X8259000Y-11586190D02*
X8239953Y-11595714D01*
X8239953Y-11595714D02*
X8230429Y-11605238D01*
X8439953Y-11719524D02*
X8420905Y-11710000D01*
X8420905Y-11710000D02*
X8411381Y-11700476D01*
X8411381Y-11700476D02*
X8401858Y-11681428D01*
X8401858Y-11681428D02*
X8401858Y-11624286D01*
X8401858Y-11624286D02*
X8411381Y-11605238D01*
X8411381Y-11605238D02*
X8420905Y-11595714D01*
X8420905Y-11595714D02*
X8439953Y-11586190D01*
X8439953Y-11586190D02*
X8468524Y-11586190D01*
X8468524Y-11586190D02*
X8487572Y-11595714D01*
X8487572Y-11595714D02*
X8497096Y-11605238D01*
X8497096Y-11605238D02*
X8506619Y-11624286D01*
X8506619Y-11624286D02*
X8506619Y-11681428D01*
X8506619Y-11681428D02*
X8497096Y-11700476D01*
X8497096Y-11700476D02*
X8487572Y-11710000D01*
X8487572Y-11710000D02*
X8468524Y-11719524D01*
X8468524Y-11719524D02*
X8439953Y-11719524D01*
X8620905Y-11719524D02*
X8601858Y-11710000D01*
X8601858Y-11710000D02*
X8592334Y-11690952D01*
X8592334Y-11690952D02*
X8592334Y-11519524D01*
X8773286Y-11710000D02*
X8754239Y-11719524D01*
X8754239Y-11719524D02*
X8716143Y-11719524D01*
X8716143Y-11719524D02*
X8697096Y-11710000D01*
X8697096Y-11710000D02*
X8687572Y-11690952D01*
X8687572Y-11690952D02*
X8687572Y-11614762D01*
X8687572Y-11614762D02*
X8697096Y-11595714D01*
X8697096Y-11595714D02*
X8716143Y-11586190D01*
X8716143Y-11586190D02*
X8754239Y-11586190D01*
X8754239Y-11586190D02*
X8773286Y-11595714D01*
X8773286Y-11595714D02*
X8782810Y-11614762D01*
X8782810Y-11614762D02*
X8782810Y-11633809D01*
X8782810Y-11633809D02*
X8687572Y-11652857D01*
X8859000Y-11710000D02*
X8878048Y-11719524D01*
X8878048Y-11719524D02*
X8916143Y-11719524D01*
X8916143Y-11719524D02*
X8935191Y-11710000D01*
X8935191Y-11710000D02*
X8944715Y-11690952D01*
X8944715Y-11690952D02*
X8944715Y-11681428D01*
X8944715Y-11681428D02*
X8935191Y-11662381D01*
X8935191Y-11662381D02*
X8916143Y-11652857D01*
X8916143Y-11652857D02*
X8887572Y-11652857D01*
X8887572Y-11652857D02*
X8868524Y-11643333D01*
X8868524Y-11643333D02*
X8859000Y-11624286D01*
X8859000Y-11624286D02*
X8859000Y-11614762D01*
X8859000Y-11614762D02*
X8868524Y-11595714D01*
X8868524Y-11595714D02*
X8887572Y-11586190D01*
X8887572Y-11586190D02*
X8916143Y-11586190D01*
X8916143Y-11586190D02*
X8935191Y-11595714D01*
X9011381Y-11795714D02*
X9020905Y-11786190D01*
X9020905Y-11786190D02*
X9039953Y-11757619D01*
X9039953Y-11757619D02*
X9049477Y-11738571D01*
X9049477Y-11738571D02*
X9059000Y-11710000D01*
X9059000Y-11710000D02*
X9068524Y-11662381D01*
X9068524Y-11662381D02*
X9068524Y-11624286D01*
X9068524Y-11624286D02*
X9059000Y-11576667D01*
X9059000Y-11576667D02*
X9049477Y-11548095D01*
X9049477Y-11548095D02*
X9039953Y-11529048D01*
X9039953Y-11529048D02*
X9020905Y-11500476D01*
X9020905Y-11500476D02*
X9011381Y-11490952D01*
M02*
