%TF.GenerationSoftware,KiCad,Pcbnew,7.0.2*%
%TF.CreationDate,2023-06-14T14:54:56-05:00*%
%TF.ProjectId,ControlRemoto,436f6e74-726f-46c5-9265-6d6f746f2e6b,rev?*%
%TF.SameCoordinates,Original*%
%TF.FileFunction,Drillmap*%
%TF.FilePolarity,Positive*%
%FSLAX45Y45*%
G04 Gerber Fmt 4.5, Leading zero omitted, Abs format (unit mm)*
G04 Created by KiCad (PCBNEW 7.0.2) date 2023-06-14 14:54:56*
%MOMM*%
%LPD*%
G01*
G04 APERTURE LIST*
%ADD10C,0.100000*%
%ADD11C,0.200000*%
%ADD12C,0.300000*%
G04 APERTURE END LIST*
D10*
X4064000Y-2297200D02*
X16764000Y-2297200D01*
X16764000Y-9398000D01*
X4064000Y-9398000D01*
X4064000Y-2297200D01*
D11*
D12*
X9214000Y-5485000D02*
X9514000Y-5785000D01*
X9514000Y-5485000D02*
X9214000Y-5785000D01*
X9214000Y-7936000D02*
X9514000Y-8236000D01*
X9514000Y-7936000D02*
X9214000Y-8236000D01*
X13909000Y-5485000D02*
X14209000Y-5785000D01*
X14209000Y-5485000D02*
X13909000Y-5785000D01*
X13909000Y-7936000D02*
X14209000Y-8236000D01*
X14209000Y-7936000D02*
X13909000Y-8236000D01*
D11*
X4306619Y-9715524D02*
X4306619Y-9515524D01*
X4306619Y-9515524D02*
X4354238Y-9515524D01*
X4354238Y-9515524D02*
X4382810Y-9525048D01*
X4382810Y-9525048D02*
X4401857Y-9544095D01*
X4401857Y-9544095D02*
X4411381Y-9563143D01*
X4411381Y-9563143D02*
X4420905Y-9601238D01*
X4420905Y-9601238D02*
X4420905Y-9629810D01*
X4420905Y-9629810D02*
X4411381Y-9667905D01*
X4411381Y-9667905D02*
X4401857Y-9686952D01*
X4401857Y-9686952D02*
X4382810Y-9706000D01*
X4382810Y-9706000D02*
X4354238Y-9715524D01*
X4354238Y-9715524D02*
X4306619Y-9715524D01*
X4506619Y-9715524D02*
X4506619Y-9582190D01*
X4506619Y-9620286D02*
X4516143Y-9601238D01*
X4516143Y-9601238D02*
X4525667Y-9591714D01*
X4525667Y-9591714D02*
X4544714Y-9582190D01*
X4544714Y-9582190D02*
X4563762Y-9582190D01*
X4630429Y-9715524D02*
X4630429Y-9582190D01*
X4630429Y-9515524D02*
X4620905Y-9525048D01*
X4620905Y-9525048D02*
X4630429Y-9534571D01*
X4630429Y-9534571D02*
X4639952Y-9525048D01*
X4639952Y-9525048D02*
X4630429Y-9515524D01*
X4630429Y-9515524D02*
X4630429Y-9534571D01*
X4754238Y-9715524D02*
X4735190Y-9706000D01*
X4735190Y-9706000D02*
X4725667Y-9686952D01*
X4725667Y-9686952D02*
X4725667Y-9515524D01*
X4859000Y-9715524D02*
X4839952Y-9706000D01*
X4839952Y-9706000D02*
X4830429Y-9686952D01*
X4830429Y-9686952D02*
X4830429Y-9515524D01*
X5087571Y-9715524D02*
X5087571Y-9515524D01*
X5087571Y-9515524D02*
X5154238Y-9658381D01*
X5154238Y-9658381D02*
X5220905Y-9515524D01*
X5220905Y-9515524D02*
X5220905Y-9715524D01*
X5401857Y-9715524D02*
X5401857Y-9610762D01*
X5401857Y-9610762D02*
X5392333Y-9591714D01*
X5392333Y-9591714D02*
X5373286Y-9582190D01*
X5373286Y-9582190D02*
X5335190Y-9582190D01*
X5335190Y-9582190D02*
X5316143Y-9591714D01*
X5401857Y-9706000D02*
X5382810Y-9715524D01*
X5382810Y-9715524D02*
X5335190Y-9715524D01*
X5335190Y-9715524D02*
X5316143Y-9706000D01*
X5316143Y-9706000D02*
X5306619Y-9686952D01*
X5306619Y-9686952D02*
X5306619Y-9667905D01*
X5306619Y-9667905D02*
X5316143Y-9648857D01*
X5316143Y-9648857D02*
X5335190Y-9639333D01*
X5335190Y-9639333D02*
X5382810Y-9639333D01*
X5382810Y-9639333D02*
X5401857Y-9629810D01*
X5497095Y-9582190D02*
X5497095Y-9782190D01*
X5497095Y-9591714D02*
X5516143Y-9582190D01*
X5516143Y-9582190D02*
X5554238Y-9582190D01*
X5554238Y-9582190D02*
X5573286Y-9591714D01*
X5573286Y-9591714D02*
X5582810Y-9601238D01*
X5582810Y-9601238D02*
X5592333Y-9620286D01*
X5592333Y-9620286D02*
X5592333Y-9677429D01*
X5592333Y-9677429D02*
X5582810Y-9696476D01*
X5582810Y-9696476D02*
X5573286Y-9706000D01*
X5573286Y-9706000D02*
X5554238Y-9715524D01*
X5554238Y-9715524D02*
X5516143Y-9715524D01*
X5516143Y-9715524D02*
X5497095Y-9706000D01*
X5678048Y-9696476D02*
X5687571Y-9706000D01*
X5687571Y-9706000D02*
X5678048Y-9715524D01*
X5678048Y-9715524D02*
X5668524Y-9706000D01*
X5668524Y-9706000D02*
X5678048Y-9696476D01*
X5678048Y-9696476D02*
X5678048Y-9715524D01*
X5678048Y-9591714D02*
X5687571Y-9601238D01*
X5687571Y-9601238D02*
X5678048Y-9610762D01*
X5678048Y-9610762D02*
X5668524Y-9601238D01*
X5668524Y-9601238D02*
X5678048Y-9591714D01*
X5678048Y-9591714D02*
X5678048Y-9610762D01*
X3859000Y-9943000D02*
X4059000Y-10143000D01*
X4059000Y-9943000D02*
X3859000Y-10143000D01*
X4287571Y-9935524D02*
X4411381Y-9935524D01*
X4411381Y-9935524D02*
X4344714Y-10011714D01*
X4344714Y-10011714D02*
X4373286Y-10011714D01*
X4373286Y-10011714D02*
X4392333Y-10021238D01*
X4392333Y-10021238D02*
X4401857Y-10030762D01*
X4401857Y-10030762D02*
X4411381Y-10049810D01*
X4411381Y-10049810D02*
X4411381Y-10097429D01*
X4411381Y-10097429D02*
X4401857Y-10116476D01*
X4401857Y-10116476D02*
X4392333Y-10126000D01*
X4392333Y-10126000D02*
X4373286Y-10135524D01*
X4373286Y-10135524D02*
X4316143Y-10135524D01*
X4316143Y-10135524D02*
X4297095Y-10126000D01*
X4297095Y-10126000D02*
X4287571Y-10116476D01*
X4497095Y-10116476D02*
X4506619Y-10126000D01*
X4506619Y-10126000D02*
X4497095Y-10135524D01*
X4497095Y-10135524D02*
X4487571Y-10126000D01*
X4487571Y-10126000D02*
X4497095Y-10116476D01*
X4497095Y-10116476D02*
X4497095Y-10135524D01*
X4630429Y-9935524D02*
X4649476Y-9935524D01*
X4649476Y-9935524D02*
X4668524Y-9945048D01*
X4668524Y-9945048D02*
X4678048Y-9954571D01*
X4678048Y-9954571D02*
X4687571Y-9973619D01*
X4687571Y-9973619D02*
X4697095Y-10011714D01*
X4697095Y-10011714D02*
X4697095Y-10059333D01*
X4697095Y-10059333D02*
X4687571Y-10097429D01*
X4687571Y-10097429D02*
X4678048Y-10116476D01*
X4678048Y-10116476D02*
X4668524Y-10126000D01*
X4668524Y-10126000D02*
X4649476Y-10135524D01*
X4649476Y-10135524D02*
X4630429Y-10135524D01*
X4630429Y-10135524D02*
X4611381Y-10126000D01*
X4611381Y-10126000D02*
X4601857Y-10116476D01*
X4601857Y-10116476D02*
X4592333Y-10097429D01*
X4592333Y-10097429D02*
X4582810Y-10059333D01*
X4582810Y-10059333D02*
X4582810Y-10011714D01*
X4582810Y-10011714D02*
X4592333Y-9973619D01*
X4592333Y-9973619D02*
X4601857Y-9954571D01*
X4601857Y-9954571D02*
X4611381Y-9945048D01*
X4611381Y-9945048D02*
X4630429Y-9935524D01*
X4820905Y-9935524D02*
X4839952Y-9935524D01*
X4839952Y-9935524D02*
X4859000Y-9945048D01*
X4859000Y-9945048D02*
X4868524Y-9954571D01*
X4868524Y-9954571D02*
X4878048Y-9973619D01*
X4878048Y-9973619D02*
X4887571Y-10011714D01*
X4887571Y-10011714D02*
X4887571Y-10059333D01*
X4887571Y-10059333D02*
X4878048Y-10097429D01*
X4878048Y-10097429D02*
X4868524Y-10116476D01*
X4868524Y-10116476D02*
X4859000Y-10126000D01*
X4859000Y-10126000D02*
X4839952Y-10135524D01*
X4839952Y-10135524D02*
X4820905Y-10135524D01*
X4820905Y-10135524D02*
X4801857Y-10126000D01*
X4801857Y-10126000D02*
X4792333Y-10116476D01*
X4792333Y-10116476D02*
X4782810Y-10097429D01*
X4782810Y-10097429D02*
X4773286Y-10059333D01*
X4773286Y-10059333D02*
X4773286Y-10011714D01*
X4773286Y-10011714D02*
X4782810Y-9973619D01*
X4782810Y-9973619D02*
X4792333Y-9954571D01*
X4792333Y-9954571D02*
X4801857Y-9945048D01*
X4801857Y-9945048D02*
X4820905Y-9935524D01*
X5011381Y-9935524D02*
X5030429Y-9935524D01*
X5030429Y-9935524D02*
X5049476Y-9945048D01*
X5049476Y-9945048D02*
X5059000Y-9954571D01*
X5059000Y-9954571D02*
X5068524Y-9973619D01*
X5068524Y-9973619D02*
X5078048Y-10011714D01*
X5078048Y-10011714D02*
X5078048Y-10059333D01*
X5078048Y-10059333D02*
X5068524Y-10097429D01*
X5068524Y-10097429D02*
X5059000Y-10116476D01*
X5059000Y-10116476D02*
X5049476Y-10126000D01*
X5049476Y-10126000D02*
X5030429Y-10135524D01*
X5030429Y-10135524D02*
X5011381Y-10135524D01*
X5011381Y-10135524D02*
X4992333Y-10126000D01*
X4992333Y-10126000D02*
X4982810Y-10116476D01*
X4982810Y-10116476D02*
X4973286Y-10097429D01*
X4973286Y-10097429D02*
X4963762Y-10059333D01*
X4963762Y-10059333D02*
X4963762Y-10011714D01*
X4963762Y-10011714D02*
X4973286Y-9973619D01*
X4973286Y-9973619D02*
X4982810Y-9954571D01*
X4982810Y-9954571D02*
X4992333Y-9945048D01*
X4992333Y-9945048D02*
X5011381Y-9935524D01*
X5163762Y-10135524D02*
X5163762Y-10002190D01*
X5163762Y-10021238D02*
X5173286Y-10011714D01*
X5173286Y-10011714D02*
X5192333Y-10002190D01*
X5192333Y-10002190D02*
X5220905Y-10002190D01*
X5220905Y-10002190D02*
X5239952Y-10011714D01*
X5239952Y-10011714D02*
X5249476Y-10030762D01*
X5249476Y-10030762D02*
X5249476Y-10135524D01*
X5249476Y-10030762D02*
X5259000Y-10011714D01*
X5259000Y-10011714D02*
X5278048Y-10002190D01*
X5278048Y-10002190D02*
X5306619Y-10002190D01*
X5306619Y-10002190D02*
X5325667Y-10011714D01*
X5325667Y-10011714D02*
X5335191Y-10030762D01*
X5335191Y-10030762D02*
X5335191Y-10135524D01*
X5430429Y-10135524D02*
X5430429Y-10002190D01*
X5430429Y-10021238D02*
X5439952Y-10011714D01*
X5439952Y-10011714D02*
X5459000Y-10002190D01*
X5459000Y-10002190D02*
X5487572Y-10002190D01*
X5487572Y-10002190D02*
X5506619Y-10011714D01*
X5506619Y-10011714D02*
X5516143Y-10030762D01*
X5516143Y-10030762D02*
X5516143Y-10135524D01*
X5516143Y-10030762D02*
X5525667Y-10011714D01*
X5525667Y-10011714D02*
X5544714Y-10002190D01*
X5544714Y-10002190D02*
X5573286Y-10002190D01*
X5573286Y-10002190D02*
X5592333Y-10011714D01*
X5592333Y-10011714D02*
X5601857Y-10030762D01*
X5601857Y-10030762D02*
X5601857Y-10135524D01*
X5992333Y-9926000D02*
X5820905Y-10183143D01*
X6249476Y-9935524D02*
X6268524Y-9935524D01*
X6268524Y-9935524D02*
X6287572Y-9945048D01*
X6287572Y-9945048D02*
X6297095Y-9954571D01*
X6297095Y-9954571D02*
X6306619Y-9973619D01*
X6306619Y-9973619D02*
X6316143Y-10011714D01*
X6316143Y-10011714D02*
X6316143Y-10059333D01*
X6316143Y-10059333D02*
X6306619Y-10097429D01*
X6306619Y-10097429D02*
X6297095Y-10116476D01*
X6297095Y-10116476D02*
X6287572Y-10126000D01*
X6287572Y-10126000D02*
X6268524Y-10135524D01*
X6268524Y-10135524D02*
X6249476Y-10135524D01*
X6249476Y-10135524D02*
X6230429Y-10126000D01*
X6230429Y-10126000D02*
X6220905Y-10116476D01*
X6220905Y-10116476D02*
X6211381Y-10097429D01*
X6211381Y-10097429D02*
X6201857Y-10059333D01*
X6201857Y-10059333D02*
X6201857Y-10011714D01*
X6201857Y-10011714D02*
X6211381Y-9973619D01*
X6211381Y-9973619D02*
X6220905Y-9954571D01*
X6220905Y-9954571D02*
X6230429Y-9945048D01*
X6230429Y-9945048D02*
X6249476Y-9935524D01*
X6401857Y-10116476D02*
X6411381Y-10126000D01*
X6411381Y-10126000D02*
X6401857Y-10135524D01*
X6401857Y-10135524D02*
X6392333Y-10126000D01*
X6392333Y-10126000D02*
X6401857Y-10116476D01*
X6401857Y-10116476D02*
X6401857Y-10135524D01*
X6601857Y-10135524D02*
X6487572Y-10135524D01*
X6544714Y-10135524D02*
X6544714Y-9935524D01*
X6544714Y-9935524D02*
X6525667Y-9964095D01*
X6525667Y-9964095D02*
X6506619Y-9983143D01*
X6506619Y-9983143D02*
X6487572Y-9992667D01*
X6792333Y-10135524D02*
X6678048Y-10135524D01*
X6735191Y-10135524D02*
X6735191Y-9935524D01*
X6735191Y-9935524D02*
X6716143Y-9964095D01*
X6716143Y-9964095D02*
X6697095Y-9983143D01*
X6697095Y-9983143D02*
X6678048Y-9992667D01*
X6906619Y-10021238D02*
X6887572Y-10011714D01*
X6887572Y-10011714D02*
X6878048Y-10002190D01*
X6878048Y-10002190D02*
X6868524Y-9983143D01*
X6868524Y-9983143D02*
X6868524Y-9973619D01*
X6868524Y-9973619D02*
X6878048Y-9954571D01*
X6878048Y-9954571D02*
X6887572Y-9945048D01*
X6887572Y-9945048D02*
X6906619Y-9935524D01*
X6906619Y-9935524D02*
X6944714Y-9935524D01*
X6944714Y-9935524D02*
X6963762Y-9945048D01*
X6963762Y-9945048D02*
X6973286Y-9954571D01*
X6973286Y-9954571D02*
X6982810Y-9973619D01*
X6982810Y-9973619D02*
X6982810Y-9983143D01*
X6982810Y-9983143D02*
X6973286Y-10002190D01*
X6973286Y-10002190D02*
X6963762Y-10011714D01*
X6963762Y-10011714D02*
X6944714Y-10021238D01*
X6944714Y-10021238D02*
X6906619Y-10021238D01*
X6906619Y-10021238D02*
X6887572Y-10030762D01*
X6887572Y-10030762D02*
X6878048Y-10040286D01*
X6878048Y-10040286D02*
X6868524Y-10059333D01*
X6868524Y-10059333D02*
X6868524Y-10097429D01*
X6868524Y-10097429D02*
X6878048Y-10116476D01*
X6878048Y-10116476D02*
X6887572Y-10126000D01*
X6887572Y-10126000D02*
X6906619Y-10135524D01*
X6906619Y-10135524D02*
X6944714Y-10135524D01*
X6944714Y-10135524D02*
X6963762Y-10126000D01*
X6963762Y-10126000D02*
X6973286Y-10116476D01*
X6973286Y-10116476D02*
X6982810Y-10097429D01*
X6982810Y-10097429D02*
X6982810Y-10059333D01*
X6982810Y-10059333D02*
X6973286Y-10040286D01*
X6973286Y-10040286D02*
X6963762Y-10030762D01*
X6963762Y-10030762D02*
X6944714Y-10021238D01*
X7173286Y-10135524D02*
X7059000Y-10135524D01*
X7116143Y-10135524D02*
X7116143Y-9935524D01*
X7116143Y-9935524D02*
X7097095Y-9964095D01*
X7097095Y-9964095D02*
X7078048Y-9983143D01*
X7078048Y-9983143D02*
X7059000Y-9992667D01*
X7249476Y-9935524D02*
X7249476Y-9973619D01*
X7325667Y-9935524D02*
X7325667Y-9973619D01*
X7620905Y-10211714D02*
X7611381Y-10202190D01*
X7611381Y-10202190D02*
X7592334Y-10173619D01*
X7592334Y-10173619D02*
X7582810Y-10154571D01*
X7582810Y-10154571D02*
X7573286Y-10126000D01*
X7573286Y-10126000D02*
X7563762Y-10078381D01*
X7563762Y-10078381D02*
X7563762Y-10040286D01*
X7563762Y-10040286D02*
X7573286Y-9992667D01*
X7573286Y-9992667D02*
X7582810Y-9964095D01*
X7582810Y-9964095D02*
X7592334Y-9945048D01*
X7592334Y-9945048D02*
X7611381Y-9916476D01*
X7611381Y-9916476D02*
X7620905Y-9906952D01*
X7782810Y-10002190D02*
X7782810Y-10135524D01*
X7735191Y-9926000D02*
X7687572Y-10068857D01*
X7687572Y-10068857D02*
X7811381Y-10068857D01*
X8039953Y-10135524D02*
X8039953Y-9935524D01*
X8125667Y-10135524D02*
X8125667Y-10030762D01*
X8125667Y-10030762D02*
X8116143Y-10011714D01*
X8116143Y-10011714D02*
X8097096Y-10002190D01*
X8097096Y-10002190D02*
X8068524Y-10002190D01*
X8068524Y-10002190D02*
X8049476Y-10011714D01*
X8049476Y-10011714D02*
X8039953Y-10021238D01*
X8249476Y-10135524D02*
X8230429Y-10126000D01*
X8230429Y-10126000D02*
X8220905Y-10116476D01*
X8220905Y-10116476D02*
X8211381Y-10097429D01*
X8211381Y-10097429D02*
X8211381Y-10040286D01*
X8211381Y-10040286D02*
X8220905Y-10021238D01*
X8220905Y-10021238D02*
X8230429Y-10011714D01*
X8230429Y-10011714D02*
X8249476Y-10002190D01*
X8249476Y-10002190D02*
X8278048Y-10002190D01*
X8278048Y-10002190D02*
X8297096Y-10011714D01*
X8297096Y-10011714D02*
X8306619Y-10021238D01*
X8306619Y-10021238D02*
X8316143Y-10040286D01*
X8316143Y-10040286D02*
X8316143Y-10097429D01*
X8316143Y-10097429D02*
X8306619Y-10116476D01*
X8306619Y-10116476D02*
X8297096Y-10126000D01*
X8297096Y-10126000D02*
X8278048Y-10135524D01*
X8278048Y-10135524D02*
X8249476Y-10135524D01*
X8430429Y-10135524D02*
X8411381Y-10126000D01*
X8411381Y-10126000D02*
X8401858Y-10106952D01*
X8401858Y-10106952D02*
X8401858Y-9935524D01*
X8582810Y-10126000D02*
X8563762Y-10135524D01*
X8563762Y-10135524D02*
X8525667Y-10135524D01*
X8525667Y-10135524D02*
X8506619Y-10126000D01*
X8506619Y-10126000D02*
X8497096Y-10106952D01*
X8497096Y-10106952D02*
X8497096Y-10030762D01*
X8497096Y-10030762D02*
X8506619Y-10011714D01*
X8506619Y-10011714D02*
X8525667Y-10002190D01*
X8525667Y-10002190D02*
X8563762Y-10002190D01*
X8563762Y-10002190D02*
X8582810Y-10011714D01*
X8582810Y-10011714D02*
X8592334Y-10030762D01*
X8592334Y-10030762D02*
X8592334Y-10049810D01*
X8592334Y-10049810D02*
X8497096Y-10068857D01*
X8668524Y-10126000D02*
X8687572Y-10135524D01*
X8687572Y-10135524D02*
X8725667Y-10135524D01*
X8725667Y-10135524D02*
X8744715Y-10126000D01*
X8744715Y-10126000D02*
X8754239Y-10106952D01*
X8754239Y-10106952D02*
X8754239Y-10097429D01*
X8754239Y-10097429D02*
X8744715Y-10078381D01*
X8744715Y-10078381D02*
X8725667Y-10068857D01*
X8725667Y-10068857D02*
X8697096Y-10068857D01*
X8697096Y-10068857D02*
X8678048Y-10059333D01*
X8678048Y-10059333D02*
X8668524Y-10040286D01*
X8668524Y-10040286D02*
X8668524Y-10030762D01*
X8668524Y-10030762D02*
X8678048Y-10011714D01*
X8678048Y-10011714D02*
X8697096Y-10002190D01*
X8697096Y-10002190D02*
X8725667Y-10002190D01*
X8725667Y-10002190D02*
X8744715Y-10011714D01*
X8820905Y-10211714D02*
X8830429Y-10202190D01*
X8830429Y-10202190D02*
X8849477Y-10173619D01*
X8849477Y-10173619D02*
X8859000Y-10154571D01*
X8859000Y-10154571D02*
X8868524Y-10126000D01*
X8868524Y-10126000D02*
X8878048Y-10078381D01*
X8878048Y-10078381D02*
X8878048Y-10040286D01*
X8878048Y-10040286D02*
X8868524Y-9992667D01*
X8868524Y-9992667D02*
X8859000Y-9964095D01*
X8859000Y-9964095D02*
X8849477Y-9945048D01*
X8849477Y-9945048D02*
X8830429Y-9916476D01*
X8830429Y-9916476D02*
X8820905Y-9906952D01*
X9182810Y-10211714D02*
X9173286Y-10202190D01*
X9173286Y-10202190D02*
X9154239Y-10173619D01*
X9154239Y-10173619D02*
X9144715Y-10154571D01*
X9144715Y-10154571D02*
X9135191Y-10126000D01*
X9135191Y-10126000D02*
X9125667Y-10078381D01*
X9125667Y-10078381D02*
X9125667Y-10040286D01*
X9125667Y-10040286D02*
X9135191Y-9992667D01*
X9135191Y-9992667D02*
X9144715Y-9964095D01*
X9144715Y-9964095D02*
X9154239Y-9945048D01*
X9154239Y-9945048D02*
X9173286Y-9916476D01*
X9173286Y-9916476D02*
X9182810Y-9906952D01*
X9259000Y-10002190D02*
X9259000Y-10135524D01*
X9259000Y-10021238D02*
X9268524Y-10011714D01*
X9268524Y-10011714D02*
X9287572Y-10002190D01*
X9287572Y-10002190D02*
X9316143Y-10002190D01*
X9316143Y-10002190D02*
X9335191Y-10011714D01*
X9335191Y-10011714D02*
X9344715Y-10030762D01*
X9344715Y-10030762D02*
X9344715Y-10135524D01*
X9468524Y-10135524D02*
X9449477Y-10126000D01*
X9449477Y-10126000D02*
X9439953Y-10116476D01*
X9439953Y-10116476D02*
X9430429Y-10097429D01*
X9430429Y-10097429D02*
X9430429Y-10040286D01*
X9430429Y-10040286D02*
X9439953Y-10021238D01*
X9439953Y-10021238D02*
X9449477Y-10011714D01*
X9449477Y-10011714D02*
X9468524Y-10002190D01*
X9468524Y-10002190D02*
X9497096Y-10002190D01*
X9497096Y-10002190D02*
X9516143Y-10011714D01*
X9516143Y-10011714D02*
X9525667Y-10021238D01*
X9525667Y-10021238D02*
X9535191Y-10040286D01*
X9535191Y-10040286D02*
X9535191Y-10097429D01*
X9535191Y-10097429D02*
X9525667Y-10116476D01*
X9525667Y-10116476D02*
X9516143Y-10126000D01*
X9516143Y-10126000D02*
X9497096Y-10135524D01*
X9497096Y-10135524D02*
X9468524Y-10135524D01*
X9592334Y-10002190D02*
X9668524Y-10002190D01*
X9620905Y-9935524D02*
X9620905Y-10106952D01*
X9620905Y-10106952D02*
X9630429Y-10126000D01*
X9630429Y-10126000D02*
X9649477Y-10135524D01*
X9649477Y-10135524D02*
X9668524Y-10135524D01*
X9887572Y-10002190D02*
X9887572Y-10202190D01*
X9887572Y-10011714D02*
X9906620Y-10002190D01*
X9906620Y-10002190D02*
X9944715Y-10002190D01*
X9944715Y-10002190D02*
X9963762Y-10011714D01*
X9963762Y-10011714D02*
X9973286Y-10021238D01*
X9973286Y-10021238D02*
X9982810Y-10040286D01*
X9982810Y-10040286D02*
X9982810Y-10097429D01*
X9982810Y-10097429D02*
X9973286Y-10116476D01*
X9973286Y-10116476D02*
X9963762Y-10126000D01*
X9963762Y-10126000D02*
X9944715Y-10135524D01*
X9944715Y-10135524D02*
X9906620Y-10135524D01*
X9906620Y-10135524D02*
X9887572Y-10126000D01*
X10097096Y-10135524D02*
X10078048Y-10126000D01*
X10078048Y-10126000D02*
X10068524Y-10106952D01*
X10068524Y-10106952D02*
X10068524Y-9935524D01*
X10259001Y-10135524D02*
X10259001Y-10030762D01*
X10259001Y-10030762D02*
X10249477Y-10011714D01*
X10249477Y-10011714D02*
X10230429Y-10002190D01*
X10230429Y-10002190D02*
X10192334Y-10002190D01*
X10192334Y-10002190D02*
X10173286Y-10011714D01*
X10259001Y-10126000D02*
X10239953Y-10135524D01*
X10239953Y-10135524D02*
X10192334Y-10135524D01*
X10192334Y-10135524D02*
X10173286Y-10126000D01*
X10173286Y-10126000D02*
X10163762Y-10106952D01*
X10163762Y-10106952D02*
X10163762Y-10087905D01*
X10163762Y-10087905D02*
X10173286Y-10068857D01*
X10173286Y-10068857D02*
X10192334Y-10059333D01*
X10192334Y-10059333D02*
X10239953Y-10059333D01*
X10239953Y-10059333D02*
X10259001Y-10049810D01*
X10325667Y-10002190D02*
X10401858Y-10002190D01*
X10354239Y-9935524D02*
X10354239Y-10106952D01*
X10354239Y-10106952D02*
X10363762Y-10126000D01*
X10363762Y-10126000D02*
X10382810Y-10135524D01*
X10382810Y-10135524D02*
X10401858Y-10135524D01*
X10544715Y-10126000D02*
X10525667Y-10135524D01*
X10525667Y-10135524D02*
X10487572Y-10135524D01*
X10487572Y-10135524D02*
X10468524Y-10126000D01*
X10468524Y-10126000D02*
X10459001Y-10106952D01*
X10459001Y-10106952D02*
X10459001Y-10030762D01*
X10459001Y-10030762D02*
X10468524Y-10011714D01*
X10468524Y-10011714D02*
X10487572Y-10002190D01*
X10487572Y-10002190D02*
X10525667Y-10002190D01*
X10525667Y-10002190D02*
X10544715Y-10011714D01*
X10544715Y-10011714D02*
X10554239Y-10030762D01*
X10554239Y-10030762D02*
X10554239Y-10049810D01*
X10554239Y-10049810D02*
X10459001Y-10068857D01*
X10725667Y-10135524D02*
X10725667Y-9935524D01*
X10725667Y-10126000D02*
X10706620Y-10135524D01*
X10706620Y-10135524D02*
X10668524Y-10135524D01*
X10668524Y-10135524D02*
X10649477Y-10126000D01*
X10649477Y-10126000D02*
X10639953Y-10116476D01*
X10639953Y-10116476D02*
X10630429Y-10097429D01*
X10630429Y-10097429D02*
X10630429Y-10040286D01*
X10630429Y-10040286D02*
X10639953Y-10021238D01*
X10639953Y-10021238D02*
X10649477Y-10011714D01*
X10649477Y-10011714D02*
X10668524Y-10002190D01*
X10668524Y-10002190D02*
X10706620Y-10002190D01*
X10706620Y-10002190D02*
X10725667Y-10011714D01*
X10801858Y-10211714D02*
X10811382Y-10202190D01*
X10811382Y-10202190D02*
X10830429Y-10173619D01*
X10830429Y-10173619D02*
X10839953Y-10154571D01*
X10839953Y-10154571D02*
X10849477Y-10126000D01*
X10849477Y-10126000D02*
X10859001Y-10078381D01*
X10859001Y-10078381D02*
X10859001Y-10040286D01*
X10859001Y-10040286D02*
X10849477Y-9992667D01*
X10849477Y-9992667D02*
X10839953Y-9964095D01*
X10839953Y-9964095D02*
X10830429Y-9945048D01*
X10830429Y-9945048D02*
X10811382Y-9916476D01*
X10811382Y-9916476D02*
X10801858Y-9906952D01*
M02*
